<svg xmlns="http://www.w3.org/2000/svg" xmlns:xlink="http://www.w3.org/1999/xlink" xmlns:lucid="lucid" width="840.33" height="1457"><g transform="translate(-60 20)" lucid:page-tab-id="0_0"><path d="M110 5c0-2.76 2.24-5 5-5h730c2.76 0 5 2.24 5 5v50c0 2.76-2.24 5-5 5H115c-2.76 0-5-2.24-5-5z" fill="none"/><use xlink:href="#a" transform="matrix(1,0,0,1,110,0) translate(47.92592592592587 35.333333333333336)"/><use xlink:href="#b" transform="matrix(1,0,0,1,110,0) translate(151.40740740740733 35.333333333333336)"/><use xlink:href="#c" transform="matrix(1,0,0,1,110,0) translate(265.33333333333326 35.333333333333336)"/><use xlink:href="#d" transform="matrix(1,0,0,1,110,0) translate(308.1481481481481 35.333333333333336)"/><use xlink:href="#e" transform="matrix(1,0,0,1,110,0) translate(383.55555555555554 35.333333333333336)"/><use xlink:href="#f" transform="matrix(1,0,0,1,110,0) translate(399.77777777777777 35.333333333333336)"/><use xlink:href="#g" transform="matrix(1,0,0,1,110,0) translate(467.4074074074074 35.333333333333336)"/><use xlink:href="#h" transform="matrix(1,0,0,1,110,0) translate(545.8518518518518 35.333333333333336)"/><path d="M80 60h267v31H80z" fill="#3d4752"/><path d="M346.67 60h267v31h-267z" fill="#3d4752"/><path d="M613.33 60h267v31h-267z" fill="#3d4752"/><path d="M80 91.5h267v1326H80z" fill="#d6d6d6"/><path d="M346.67 91.5h267v1326h-267z" fill="#e4e4e4"/><path d="M613.33 91.5h267v1326h-267z" fill="#f2f2f2"/><path d="M80 91h267M346.67 91h267M613.33 91h267M80 91.5h267m-267 1326h267M346.67 91.5h267m-267 1326h267M613.33 91.5h267m-267 1326h267M347 60v31M346.67 60v31m267-31v31M613.33 60v31M347 91.5v1326M346.67 91.5v1326m267-1326v1326M613.33 91.5v1326M80 60h800.33v1357H80z" stroke="#3d4752" fill="none"/><use xlink:href="#i" transform="matrix(1,0,0,1,80,60) translate(96.3486328125 20.4658203125)"/><use xlink:href="#j" transform="matrix(1,0,0,1,346.6666666666667,60) translate(102.15380859375 20.4658203125)"/><use xlink:href="#k" transform="matrix(1,0,0,1,613.3333333333333,60) translate(75.14501953125 20.4658203125)"/><use xlink:href="#l" transform="matrix(1,0,0,1,613.3333333333333,60) translate(113.30712890625 20.4658203125)"/><path d="M229.25 132.85c0 8.06-7.7 14.6-17.2 14.6s-17.22-6.54-17.22-14.6c0-8.05 7.7-14.58 17.2-14.58 9.52 0 17.22 6.53 17.22 14.58z" stroke="#3d4752" stroke-width="2"/><path d="M148.06 180c-7.95 0-14.4 6.45-14.4 14.4v43.2c0 7.95 6.45 14.4 14.4 14.4h127.88c7.95 0 14.4-6.45 14.4-14.4v-43.2c0-7.95-6.45-14.4-14.4-14.4z" stroke="#3d4752" stroke-width="2" fill="#d2e5b3"/><use xlink:href="#m" transform="matrix(1,0,0,1,141.6627906976745,188) translate(20.15185546875 15.1240234375)"/><use xlink:href="#n" transform="matrix(1,0,0,1,141.6627906976745,188) translate(74.17822265625 15.1240234375)"/><use xlink:href="#o" transform="matrix(1,0,0,1,141.6627906976745,188) translate(4.4501953125 32.9658203125)"/><use xlink:href="#p" transform="matrix(1,0,0,1,141.6627906976745,188) translate(96.3837890625 32.9658203125)"/><use xlink:href="#q" transform="matrix(1,0,0,1,141.6627906976745,188) translate(44.35693359375 50.8076171875)"/><path d="M212.04 148.45v13.35" stroke="#3d4752" stroke-width="2" fill="none"/><path d="M212.04 147.44l1-.13v1.15h-2v-1.14zM212.88 175.77l-5.48-13.96 9.25-.55z" fill="#3d4752"/><path d="M213.08 179l-7.1-18.1 12-.73zm-4.25-16.28l3.86 9.82 2.64-10.2z" fill="#3d4752"/><path d="M416.06 340c-7.95 0-14.4 6.45-14.4 14.4v43.2c0 7.95 6.45 14.4 14.4 14.4h127.88c7.95 0 14.4-6.45 14.4-14.4v-43.2c0-7.95-6.45-14.4-14.4-14.4z" stroke="#3d4752" stroke-width="2" fill="#d2e5b3"/><use xlink:href="#r" transform="matrix(1,0,0,1,409.6627906976745,348) translate(25.98779296875 15.1240234375)"/><use xlink:href="#s" transform="matrix(1,0,0,1,409.6627906976745,348) translate(77.49169921875 15.1240234375)"/><use xlink:href="#t" transform="matrix(1,0,0,1,409.6627906976745,348) translate(7.69775390625 32.9658203125)"/><use xlink:href="#u" transform="matrix(1,0,0,1,409.6627906976745,348) translate(71.87548828125 32.9658203125)"/><use xlink:href="#p" transform="matrix(1,0,0,1,409.6627906976745,348) translate(93.13623046875 32.9658203125)"/><use xlink:href="#q" transform="matrix(1,0,0,1,409.6627906976745,348) translate(44.35693359375 50.8076171875)"/><path d="M415.73 480c-7.96 0-14.4 6.45-14.4 14.4v43.2c0 7.95 6.44 14.4 14.4 14.4H543.6c7.95 0 14.4-6.45 14.4-14.4v-43.2c0-7.95-6.45-14.4-14.4-14.4z" stroke="#3d4752" stroke-width="2" fill="#d2e5b3"/><use xlink:href="#v" transform="matrix(1,0,0,1,409.325581395349,488) translate(5.92236328125 24.044921875)"/><use xlink:href="#w" transform="matrix(1,0,0,1,409.325581395349,488) translate(73.19384765625 24.044921875)"/><use xlink:href="#x" transform="matrix(1,0,0,1,409.325581395349,488) translate(37.9541015625 41.88671875)"/><path d="M480 413v32.78c0 .12-.1.22-.22.22s-.22.1-.22.22v14.54" stroke="#000" stroke-width="2" fill="none"/><path d="M481 413h-2v-1h2zM479.56 475.76l-4.63-14.26h9.27z"/><path d="M479.56 479l-6-18.5h12zm-3.26-16.5l3.26 10.03 3.26-10.03z"/><path d="M148.4 620c-7.95 0-14.4 6.45-14.4 14.4v43.2c0 7.95 6.45 14.4 14.4 14.4h127.87c7.96 0 14.4-6.45 14.4-14.4v-43.2c0-7.95-6.44-14.4-14.4-14.4z" stroke="#3d4752" stroke-width="2" fill="#d2e5b3"/><use xlink:href="#y" transform="matrix(1,0,0,1,142,628) translate(3.66357421875 24.044921875)"/><use xlink:href="#z" transform="matrix(1,0,0,1,142,628) translate(13.12060546875 41.88671875)"/><use xlink:href="#A" transform="matrix(1,0,0,1,142,628) translate(86.32470703125 41.88671875)"/><path d="M415.4 760c-7.95 0-14.4 6.45-14.4 14.4v43.2c0 7.95 6.45 14.4 14.4 14.4h127.87c7.96 0 14.4-6.45 14.4-14.4v-43.2c0-7.95-6.44-14.4-14.4-14.4z" stroke="#3d4752" stroke-width="2" fill="#d2e5b3"/><use xlink:href="#B" transform="matrix(1,0,0,1,409,768) translate(12.77783203125 15.1240234375)"/><use xlink:href="#C" transform="matrix(1,0,0,1,409,768) translate(79.03857421875 15.1240234375)"/><use xlink:href="#D" transform="matrix(1,0,0,1,409,768) translate(111.19775390625 15.1240234375)"/><use xlink:href="#E" transform="matrix(1,0,0,1,409,768) translate(35.537109375 32.9658203125)"/><use xlink:href="#F" transform="matrix(1,0,0,1,409,768) translate(88.2099609375 32.9658203125)"/><use xlink:href="#G" transform="matrix(1,0,0,1,409,768) translate(37.27734375 50.8076171875)"/><path d="M479.66 553v28c0 2.76-2.24 5-5 5H217.34c-2.76 0-5 2.24-5 5v9.76" stroke="#000" stroke-width="2" fill="none"/><path d="M480.66 553h-2v-1h2zM212.34 615.76l-4.64-14.26h9.27z"/><path d="M212.34 619l-6-18.5h12zm-3.26-16.5l3.26 10.03 3.26-10.03z"/><path d="M212.34 693v28c0 2.76 2.24 5 5 5h257c2.76 0 5 2.24 5 5v9.76" stroke="#000" stroke-width="2" fill="none"/><path d="M213.34 693h-2v-1h2zM479.34 755.76l-4.64-14.26h9.27z"/><path d="M479.34 759l-6-18.5h12zm-3.26-16.5l3.26 10.03 3.26-10.03z"/><path d="M212 253v38c0 2.76 2.24 5 5 5h258c2.76 0 5 2.24 5 5v19.76" stroke="#000" stroke-width="2" fill="none"/><path d="M213 253h-2v-1h2zM480 335.76l-4.64-14.26h9.28z"/><path d="M480 339l-6-18.5h12zm-3.26-16.5l3.26 10.03 3.26-10.03z"/><path d="M415.4 900c-7.95 0-14.4 6.45-14.4 14.4v43.2c0 7.95 6.45 14.4 14.4 14.4h127.2c7.95 0 14.4-6.45 14.4-14.4v-43.2c0-7.95-6.45-14.4-14.4-14.4z" stroke="#3d4752" stroke-width="2" fill="#d2e5b3"/><use xlink:href="#B" transform="matrix(1,0,0,1,409,908) translate(16.447265625 24.044921875)"/><use xlink:href="#H" transform="matrix(1,0,0,1,409,908) translate(82.7080078125 24.044921875)"/><use xlink:href="#I" transform="matrix(1,0,0,1,409,908) translate(43.0341796875 41.88671875)"/><path d="M479.34 833v32.68c0 .18-.15.32-.32.32-.18 0-.32.14-.32.32v14.44" stroke="#000" stroke-width="2" fill="none"/><path d="M480.34 833h-2v-1h2zM478.7 895.76l-4.63-14.26h9.27z"/><path d="M478.7 899l-6-18.5h12zm-3.26-16.5l3.26 10.03 3.26-10.03z"/><path d="M401 1025c0-2.76 2.24-5 5-5h148c2.76 0 5 2.24 5 5v10c0 2.76-2.24 5-5 5H406c-2.76 0-5-2.24-5-5z" stroke="#000" stroke-width="2"/><path d="M479 973v22.3c0 .4.3.7.7.7.37 0 .68.3.68.7v4.06" stroke="#000" stroke-width="2" fill="none"/><path d="M480 973h-2v-1h2zM480.38 1015.76l-4.63-14.26h9.27z"/><path d="M480.38 1019l-6-18.5h12zm-3.26-16.5l3.26 10.03 3.26-10.03z"/><path d="M440.5 1040v35c0 2.76-2.24 5-5 5H98c-2.76 0-5-2.24-5-5V661c0-2.76 2.24-5 5-5h16.76" stroke="#000" stroke-width="2" fill="none"/><path/><path d="M129.76 656l-14.26 4.64v-9.28z"/><path d="M133 656l-18.5 6v-12zm-16.5 3.26l10.03-3.26-10.03-3.26z"/><path d="M519.5 1040v74.5c0 2.76-2.24 5-5 5H217c-2.76 0-5 2.24-5 5v56.26" stroke="#000" stroke-width="2" fill="none"/><path/><path d="M212 1195.76l-4.64-14.26h9.28z"/><path d="M212 1199l-6-18.5h12zm-3.26-16.5l3.26 10.03 3.26-10.03z"/><path d="M148.4 1200c-7.95 0-14.4 6.45-14.4 14.4v43.2c0 7.95 6.45 14.4 14.4 14.4h127.2c7.95 0 14.4-6.45 14.4-14.4v-43.2c0-7.95-6.45-14.4-14.4-14.4z" stroke="#3d4752" stroke-width="2" fill="#d2e5b3"/><g><use xlink:href="#J" transform="matrix(1,0,0,1,142,1208) translate(24.990234375 32.9658203125)"/><use xlink:href="#K" transform="matrix(1,0,0,1,142,1208) translate(71.09765625 32.9658203125)"/></g><path d="M229 1340c0 11.05-7.6 20-17 20s-17-8.95-17-20 7.6-20 17-20 17 8.95 17 20z" stroke="#000" stroke-width="2" fill="#fff"/><path d="M222.2 1340c0 6.63-4.57 12-10.2 12-5.63 0-10.2-5.37-10.2-12s4.57-12 10.2-12c5.63 0 10.2 5.37 10.2 12z" stroke="#000" stroke-width="2"/><path d="M212 1273v27.76" stroke="#000" stroke-width="2" fill="none"/><path d="M213 1273h-2v-1h2zM212 1315.76l-4.64-14.26h9.28z"/><path d="M212 1319l-6-18.5h12zm-3.26-16.5l3.26 10.03 3.26-10.03z"/><defs><path fill="#999" d="M199 0l-22-63H83L61 0H9l90-248h61L250 0h-51zm-33-102l-36-108c-10 38-24 72-36 108h72" id="L"/><path fill="#999" d="M190-63c-7 42-38 67-86 67-59 0-84-38-90-98-12-110 154-137 174-36l-49 2c-2-19-15-32-35-32-30 0-35 28-38 64-6 74 65 87 74 30" id="M"/><path fill="#999" d="M115-3C79 11 28 4 28-45v-112H4v-33h27l15-45h31v45h36v33H77v99c-1 23 16 31 38 25v30" id="N"/><path fill="#999" d="M25-224v-37h50v37H25zM25 0v-190h50V0H25" id="O"/><path fill="#999" d="M128 0H69L1-190h53L99-40l48-150h52" id="P"/><path fill="#999" d="M123 10C108 53 80 86 19 72V37c35 8 53-11 59-39L3-190h52l48 148c12-52 28-100 44-148h51" id="Q"/><g id="a"><use transform="matrix(0.07407407407407408,0,0,0.07407407407407408,0,0)" xlink:href="#L"/><use transform="matrix(0.07407407407407408,0,0,0.07407407407407408,19.185185185185187,0)" xlink:href="#M"/><use transform="matrix(0.07407407407407408,0,0,0.07407407407407408,34,0)" xlink:href="#N"/><use transform="matrix(0.07407407407407408,0,0,0.07407407407407408,42.814814814814824,0)" xlink:href="#O"/><use transform="matrix(0.07407407407407408,0,0,0.07407407407407408,50.22222222222223,0)" xlink:href="#P"/><use transform="matrix(0.07407407407407408,0,0,0.07407407407407408,65.03703703703704,0)" xlink:href="#O"/><use transform="matrix(0.07407407407407408,0,0,0.07407407407407408,72.44444444444444,0)" xlink:href="#N"/><use transform="matrix(0.07407407407407408,0,0,0.07407407407407408,81.25925925925927,0)" xlink:href="#Q"/></g><path fill="#999" d="M24-248c120-7 223 5 221 122C244-46 201 0 124 0H24v-248zM76-40c74 7 117-18 117-86 0-67-45-88-117-82v168" id="R"/><path fill="#999" d="M133-34C117-15 103 5 69 4 32 3 11-16 11-54c-1-60 55-63 116-61 1-26-3-47-28-47-18 1-26 9-28 27l-52-2c7-38 36-58 82-57s74 22 75 68l1 82c-1 14 12 18 25 15v27c-30 8-71 5-69-32zm-48 3c29 0 43-24 42-57-32 0-66-3-65 30 0 17 8 27 23 27" id="S"/><path fill="#999" d="M195-6C206 82 75 100 31 46c-4-6-6-13-8-21l49-6c3 16 16 24 34 25 40 0 42-37 40-79-11 22-30 35-61 35-53 0-70-43-70-97 0-56 18-96 73-97 30 0 46 14 59 34l2-30h47zm-90-29c32 0 41-27 41-63 0-35-9-62-40-62-32 0-39 29-40 63 0 36 9 62 39 62" id="T"/><path fill="#999" d="M135-150c-39-12-60 13-60 57V0H25l-1-190h47c2 13-1 29 3 40 6-28 27-53 61-41v41" id="U"/><path fill="#999" d="M220-157c-53 9-28 100-34 157h-49v-107c1-27-5-49-29-50C55-147 81-57 75 0H25l-1-190h47c2 12-1 28 3 38 10-53 101-56 108 0 13-22 24-43 59-42 82 1 51 116 57 194h-49v-107c-1-25-5-48-29-50" id="V"/><g id="b"><use transform="matrix(0.07407407407407408,0,0,0.07407407407407408,0,0)" xlink:href="#R"/><use transform="matrix(0.07407407407407408,0,0,0.07407407407407408,19.185185185185187,0)" xlink:href="#O"/><use transform="matrix(0.07407407407407408,0,0,0.07407407407407408,26.592592592592595,0)" xlink:href="#S"/><use transform="matrix(0.07407407407407408,0,0,0.07407407407407408,41.40740740740741,0)" xlink:href="#T"/><use transform="matrix(0.07407407407407408,0,0,0.07407407407407408,57.62962962962964,0)" xlink:href="#U"/><use transform="matrix(0.07407407407407408,0,0,0.07407407407407408,68,0)" xlink:href="#S"/><use transform="matrix(0.07407407407407408,0,0,0.07407407407407408,82.81481481481481,0)" xlink:href="#V"/></g><path fill="#999" d="M121-226c-27-7-43 5-38 36h38v33H83V0H34v-157H6v-33h28c-9-59 32-81 87-68v32" id="W"/><path fill="#999" d="M110-194c64 0 96 36 96 99 0 64-35 99-97 99-61 0-95-36-95-99 0-62 34-99 96-99zm-1 164c35 0 45-28 45-65 0-40-10-65-43-65-34 0-45 26-45 65 0 36 10 65 43 65" id="X"/><g id="c"><use transform="matrix(0.07407407407407408,0,0,0.07407407407407408,0,0)" xlink:href="#W"/><use transform="matrix(0.07407407407407408,0,0,0.07407407407407408,8.814814814814817,0)" xlink:href="#X"/><use transform="matrix(0.07407407407407408,0,0,0.07407407407407408,25.03703703703704,0)" xlink:href="#U"/></g><path fill="#999" d="M238-95c0 69-44 99-111 99C63 4 22-25 22-93v-155h51v151c-1 38 19 59 55 60 90 1 49-130 58-211h52v153" id="Y"/><path fill="#999" d="M169-182c-1-43-94-46-97-3 18 66 151 10 154 114 3 95-165 93-204 36-6-8-10-19-12-30l50-8c3 46 112 56 116 5-17-69-150-10-154-114-4-87 153-88 188-35 5 8 8 18 10 28" id="Z"/><path fill="#999" d="M14-72v-43h91v43H14" id="aa"/><path fill="#999" d="M101-251c68 0 84 54 84 127C185-50 166 4 99 4S15-52 14-124c-1-75 17-127 87-127zm-1 216c37-5 36-46 36-89s4-89-36-89c-39 0-36 45-36 89 0 43-3 85 36 89" id="ab"/><path fill="#999" d="M165-50V0h-47v-50H5v-38l105-160h55v161h33v37h-33zm-47-37l2-116L46-87h72" id="ac"/><g id="d"><use transform="matrix(0.07407407407407408,0,0,0.07407407407407408,0,0)" xlink:href="#Y"/><use transform="matrix(0.07407407407407408,0,0,0.07407407407407408,19.185185185185187,0)" xlink:href="#Z"/><use transform="matrix(0.07407407407407408,0,0,0.07407407407407408,36.96296296296296,0)" xlink:href="#aa"/><use transform="matrix(0.07407407407407408,0,0,0.07407407407407408,45.77777777777778,0)" xlink:href="#ab"/><use transform="matrix(0.07407407407407408,0,0,0.07407407407407408,60.592592592592595,0)" xlink:href="#ac"/></g><path fill="#999" d="M35-132v-50h50v50H35zM35 0v-49h50V0H35" id="ad"/><use transform="matrix(0.07407407407407408,0,0,0.07407407407407408,0,0)" xlink:href="#ad" id="e"/><path fill="#999" d="M147 0H94L2-248h55l64 206c17-72 42-137 63-206h54" id="ae"/><path fill="#999" d="M185-48c-13 30-37 53-82 52C43 2 14-33 14-96s30-98 90-98c62 0 83 45 84 108H66c0 31 8 55 39 56 18 0 30-7 34-22zm-45-69c5-46-57-63-70-21-2 6-4 13-4 21h74" id="af"/><path fill="#999" d="M231 0h-52l-39-155L100 0H48L-1-190h46L77-45c9-52 24-97 36-145h53l37 145 32-145h46" id="ag"/><g id="f"><use transform="matrix(0.07407407407407408,0,0,0.07407407407407408,0,0)" xlink:href="#ae"/><use transform="matrix(0.07407407407407408,0,0,0.07407407407407408,17.25925925925926,0)" xlink:href="#O"/><use transform="matrix(0.07407407407407408,0,0,0.07407407407407408,24.66666666666667,0)" xlink:href="#af"/><use transform="matrix(0.07407407407407408,0,0,0.07407407407407408,39.48148148148148,0)" xlink:href="#ag"/></g><path fill="#999" d="M67-125c0 53 21 87 73 88 37 1 54-22 65-47l45 17C233-25 199 4 140 4 58 4 20-42 15-125 8-235 124-281 211-232c18 10 29 29 36 50l-46 12c-8-25-30-41-62-41-52 0-71 34-72 86" id="ah"/><path fill="#999" d="M25 0v-261h50V0H25" id="ai"/><path fill="#999" d="M137-138c1-29-70-34-71-4 15 46 118 7 119 86 1 83-164 76-172 9l43-7c4 19 20 25 44 25 33 8 57-30 24-41C81-84 22-81 20-136c-2-80 154-74 161-7" id="aj"/><g id="g"><use transform="matrix(0.07407407407407408,0,0,0.07407407407407408,0,0)" xlink:href="#ah"/><use transform="matrix(0.07407407407407408,0,0,0.07407407407407408,19.185185185185187,0)" xlink:href="#ai"/><use transform="matrix(0.07407407407407408,0,0,0.07407407407407408,26.592592592592595,0)" xlink:href="#S"/><use transform="matrix(0.07407407407407408,0,0,0.07407407407407408,41.40740740740741,0)" xlink:href="#aj"/><use transform="matrix(0.07407407407407408,0,0,0.07407407407407408,56.22222222222223,0)" xlink:href="#aj"/></g><path fill="#999" d="M24 0v-248h52V0H24" id="ak"/><path fill="#999" d="M135-194c87-1 58 113 63 194h-50c-7-57 23-157-34-157-59 0-34 97-39 157H25l-1-190h47c2 12-1 28 3 38 12-26 28-41 61-42" id="al"/><g id="h"><use transform="matrix(0.07407407407407408,0,0,0.07407407407407408,0,0)" xlink:href="#ak"/><use transform="matrix(0.07407407407407408,0,0,0.07407407407407408,7.407407407407408,0)" xlink:href="#al"/><use transform="matrix(0.07407407407407408,0,0,0.07407407407407408,23.629629629629633,0)" xlink:href="#W"/><use transform="matrix(0.07407407407407408,0,0,0.07407407407407408,32.44444444444445,0)" xlink:href="#X"/><use transform="matrix(0.07407407407407408,0,0,0.07407407407407408,48.66666666666667,0)" xlink:href="#U"/><use transform="matrix(0.07407407407407408,0,0,0.07407407407407408,59.037037037037045,0)" xlink:href="#V"/><use transform="matrix(0.07407407407407408,0,0,0.07407407407407408,82.74074074074075,0)" xlink:href="#S"/><use transform="matrix(0.07407407407407408,0,0,0.07407407407407408,97.55555555555557,0)" xlink:href="#N"/><use transform="matrix(0.07407407407407408,0,0,0.07407407407407408,106.37037037037038,0)" xlink:href="#O"/><use transform="matrix(0.07407407407407408,0,0,0.07407407407407408,113.7777777777778,0)" xlink:href="#X"/><use transform="matrix(0.07407407407407408,0,0,0.07407407407407408,130,0)" xlink:href="#al"/></g><path fill="#fff" d="M183-342c139 97 272 144 401 141 177-5 266-73 266-205 0-83-46-143-137-186-66-31-351-127-423-171-120-74-184-178-184-324 0-181 82-309 250-380 237-100 547-49 724 90l-107 195c-117-70-238-105-361-105-149 0-223 63-223 189 0 81 64 140 191 179 19 5 54 16 105 32 192 62 321 144 388 246 41 63 61 141 61 234 0 173-87 302-265 376C603 79 286 20 77-135" id="am"/><path fill="#fff" d="M94-548c0-302 191-568 483-568 311 0 493 270 482 633H370c7 207 93 311 256 311 93 0 196-46 308-137l103 144C907-40 760 22 595 22 293 22 94-237 94-548zm282-120h403c-18-170-85-255-202-255s-184 85-201 255" id="an"/><path fill="#fff" d="M711-687c-7-170-35-229-188-230-74 0-147 18-220 53l-88-179c111-51 229-76 353-76 303 0 405 148 405 459V0H717v-81C651-13 566 21 461 21 236 21 81-120 81-346c0-158 85-260 254-311 103-31 245-40 376-30zM326-329c0 101 84 155 189 155 91 0 157-36 196-109v-226c-23-4-49-6-78-6-205 0-307 62-307 186" id="ao"/><path fill="#fff" d="M431-770V0H168v-1094h263v110c156-133 232-175 396-74l-84 220c-129-52-218-25-312 68" id="ap"/><path fill="#fff" d="M94-547c0-294 207-569 494-569 131 0 260 50 386 150L872-811c-96-74-188-111-277-112-163-2-225 186-225 376 0 251 82 377 246 377 81 0 168-36 260-107l103 137C862-32 733 22 593 22 292 22 94-208 94-547" id="aq"/><path fill="#fff" d="M784-1116c178 0 282 88 282 264V0H803v-754c0-92-46-138-138-138-74 0-152 32-234 95V0H168v-1580h263v579c117-77 234-115 353-115" id="ar"/><g id="i"><use transform="matrix(0.0087890625,0,0,0.0087890625,0,0)" xlink:href="#am"/><use transform="matrix(0.0087890625,0,0,0.0087890625,10.7841796875,0)" xlink:href="#an"/><use transform="matrix(0.0087890625,0,0,0.0087890625,20.91796875,0)" xlink:href="#ao"/><use transform="matrix(0.0087890625,0,0,0.0087890625,30.8232421875,0)" xlink:href="#ap"/><use transform="matrix(0.0087890625,0,0,0.0087890625,37.65234375,0)" xlink:href="#aq"/><use transform="matrix(0.0087890625,0,0,0.0087890625,46.2568359375,0)" xlink:href="#ar"/><use transform="matrix(0.0087890625,0,0,0.0087890625,56.9794921875,0)" xlink:href="#an"/><use transform="matrix(0.0087890625,0,0,0.0087890625,67.11328125,0)" xlink:href="#ap"/></g><path fill="#fff" d="M421-36L25-1094h272l251 717 263-717h249L649 1c-97 251-201 366-459 445L96 279c173-62 281-167 325-315" id="as"/><path fill="#fff" d="M925-326c0 213-197 348-437 348C341 22 194-16 47-93l93-183c121 69 236 103 345 103s164-42 164-127c0-41-24-75-72-100-19-10-61-25-126-44-165-49-270-109-315-179-27-41-40-94-40-158 0-210 193-335 432-335 111 0 229 34 354 103l-83 176c-101-56-191-84-271-84-107 0-161 40-161 121 0 37 23 66 70 89 16 12 285 99 327 123 105 60 161 144 161 262" id="at"/><path fill="#fff" d="M503-384c-2 129 8 204 107 204 41 0 91-13 150-38l66 171C737-1 639 22 533 22c-230-2-293-122-293-358v-559H42v-199h198v-395h263v395h265v199H503v511" id="au"/><path fill="#fff" d="M1420-1116c172-1 282 89 282 264V0h-263v-754c0-92-46-138-138-138-75 0-153 30-235 90V0H803v-754c0-92-46-138-138-138-71 0-149 30-234 90V0H168v-1094h263v93c117-77 234-115 353-115 121 0 206 45 254 134 124-89 251-134 382-134" id="av"/><g id="j"><use transform="matrix(0.0087890625,0,0,0.0087890625,0,0)" xlink:href="#am"/><use transform="matrix(0.0087890625,0,0,0.0087890625,10.7841796875,0)" xlink:href="#as"/><use transform="matrix(0.0087890625,0,0,0.0087890625,20.3203125,0)" xlink:href="#at"/><use transform="matrix(0.0087890625,0,0,0.0087890625,29.14453125,0)" xlink:href="#au"/><use transform="matrix(0.0087890625,0,0,0.0087890625,36.24609375,0)" xlink:href="#an"/><use transform="matrix(0.0087890625,0,0,0.0087890625,46.3798828125,0)" xlink:href="#av"/></g><path fill="#fff" d="M478 0H205v-1489h859v219H478v389h485v219H478V0" id="aw"/><path fill="#fff" d="M102-744c-7-402 254-768 642-768 139 0 270 41 393 124l-138 175c-77-55-161-82-252-82-144 0-247 85-308 256-31 85-46 183-46 295 0 228 53 391 167 482 144 115 312 73 466-35l124 172C930 61 588 78 365-105 204-237 107-456 102-744" id="ax"/><path fill="#fff" d="M736-1293c-233 0-343 288-343 549 0 222 54 382 163 479 68 60 150 86 248 60L632-457h252l87 128c191-263 138-964-235-964zM937-12C751 56 550 23 403-80 224-205 101-446 102-744c2-299 128-540 311-667 192-134 466-131 654 5 174 126 303 370 302 662 0 265-85 473-255 624l199 290h-251" id="ay"/><g id="k"><use transform="matrix(0.0087890625,0,0,0.0087890625,0,0)" xlink:href="#aw"/><use transform="matrix(0.0087890625,0,0,0.0087890625,9.8525390625,0)" xlink:href="#ax"/><use transform="matrix(0.0087890625,0,0,0.0087890625,19.9599609375,0)" xlink:href="#ay"/></g><path fill="#fff" d="M1282-743c0 396-250 743-634 743H205v-1489h417c437-2 660 295 660 746zM637-225c233 9 365-240 365-518 0-216-61-366-177-458-90-72-200-63-346-63v1039h158" id="az"/><path fill="#fff" d="M1113-589c0 325-126 613-421 611-108 0-198-32-271-96V0H168v-1580h263v560c76-64 164-96 265-96 269 0 417 244 417 527zM431-818v553c64 56 127 84 189 84 145 0 218-134 218-402 0-214-68-321-203-321-67 0-135 29-204 86" id="aA"/><g id="l"><use transform="matrix(0.0087890625,0,0,0.0087890625,0,0)" xlink:href="#az"/><use transform="matrix(0.0087890625,0,0,0.0087890625,12.1640625,0)" xlink:href="#ao"/><use transform="matrix(0.0087890625,0,0,0.0087890625,22.0693359375,0)" xlink:href="#au"/><use transform="matrix(0.0087890625,0,0,0.0087890625,29.1708984375,0)" xlink:href="#ao"/><use transform="matrix(0.0087890625,0,0,0.0087890625,39.076171875,0)" xlink:href="#aA"/><use transform="matrix(0.0087890625,0,0,0.0087890625,49.6845703125,0)" xlink:href="#ao"/><use transform="matrix(0.0087890625,0,0,0.0087890625,59.58984375,0)" xlink:href="#at"/><use transform="matrix(0.0087890625,0,0,0.0087890625,68.4140625,0)" xlink:href="#an"/></g><path fill="#3d4752" d="M1019-219V0H205v-1489h273v1270h541" id="aB"/><path fill="#3d4752" d="M578-1116c196 0 337 93 423 279 40 87 60 183 60 290 0 225-77 390-230 494-74 50-158 75-253 75-197 0-338-93-424-279-40-87-60-183-60-290 0-226 77-391 231-495 73-49 158-74 253-74zm0 194c-139 0-208 125-208 375s69 375 208 375c138 0 207-125 207-375s-69-375-207-375" id="aC"/><path fill="#3d4752" d="M711-687c-7-170-35-229-188-230-74 0-147 18-220 53l-88-179c111-51 229-76 353-76 303 0 405 148 405 459V0H717v-81C651-13 566 21 461 21 236 21 81-120 81-346c0-158 85-260 254-311 103-31 245-40 376-30zM326-329c0 101 84 155 189 155 91 0 157-36 196-109v-226c-23-4-49-6-78-6-205 0-307 62-307 186" id="aD"/><path fill="#3d4752" d="M94-505c0-321 128-611 419-611 101 0 188 30 263 91v-555h263V-1H787v-91C712-16 620 22 509 22c-171 0-293-85-364-254-34-81-51-172-51-273zm682 228v-551c-64-56-127-84-189-84-145 0-218 134-218 401 0 213 68 320 203 320 69 0 137-29 204-86" id="aE"/><path fill="#3d4752" d="M925-326c0 213-197 348-437 348C341 22 194-16 47-93l93-183c121 69 236 103 345 103s164-42 164-127c0-41-24-75-72-100-19-10-61-25-126-44-165-49-270-109-315-179-27-41-40-94-40-158 0-210 193-335 432-335 111 0 229 34 354 103l-83 176c-101-56-191-84-271-84-107 0-161 40-161 121 0 37 23 66 70 89 16 12 285 99 327 123 105 60 161 144 161 262" id="aF"/><g id="m"><use transform="matrix(0.0087890625,0,0,0.0087890625,0,0)" xlink:href="#aB"/><use transform="matrix(0.0087890625,0,0,0.0087890625,9.263671875,0)" xlink:href="#aC"/><use transform="matrix(0.0087890625,0,0,0.0087890625,19.4150390625,0)" xlink:href="#aD"/><use transform="matrix(0.0087890625,0,0,0.0087890625,29.3203125,0)" xlink:href="#aE"/><use transform="matrix(0.0087890625,0,0,0.0087890625,39.9287109375,0)" xlink:href="#aF"/></g><path fill="#3d4752" d="M690-1116c279 0 423 232 423 527 0 261-67 439-196 539C782 54 551 41 431-69v481H168v-1506h253v93c71-77 160-115 269-115zM431-810v545c64 56 127 84 189 84 145 0 218-134 218-402 0-214-68-321-203-321-71 0-139 31-204 94" id="aG"/><path fill="#3d4752" d="M1040 13c1 285-186 425-480 425-155 0-288-42-397-127l107-153c86 57 175 86 266 86 162 0 243-86 243-258v-81C700-18 607 20 498 20c-167 0-286-84-355-253-33-79-49-170-49-272 0-252 66-428 193-533 131-108 361-101 490 7v-64h263V13zM777-276v-551c-65-56-128-84-191-84-145 0-217 133-217 399 0 214 67 321 202 321 71 0 139-28 206-85" id="aH"/><path fill="#3d4752" d="M94-548c0-302 191-568 483-568 311 0 493 270 482 633H370c7 207 93 311 256 311 93 0 196-46 308-137l103 144C907-40 760 22 595 22 293 22 94-237 94-548zm282-120h403c-18-170-85-255-202-255s-184 85-201 255" id="aI"/><path fill="#3d4752" d="M230 290H13l150-568h294" id="aJ"/><g id="n"><use transform="matrix(0.0087890625,0,0,0.0087890625,0,0)" xlink:href="#aG"/><use transform="matrix(0.0087890625,0,0,0.0087890625,10.6083984375,0)" xlink:href="#aD"/><use transform="matrix(0.0087890625,0,0,0.0087890625,20.513671875,0)" xlink:href="#aH"/><use transform="matrix(0.0087890625,0,0,0.0087890625,31.130859375,0)" xlink:href="#aI"/><use transform="matrix(0.0087890625,0,0,0.0087890625,41.2646484375,0)" xlink:href="#aJ"/></g><path fill="#3d4752" d="M431-770V0H168v-1094h263v110c156-133 232-175 396-74l-84 220c-129-52-218-25-312 68" id="aK"/><path fill="#3d4752" d="M431-1094V0H168v-1094h263zm0-190H168v-296h263v296" id="aL"/><path fill="#3d4752" d="M94-547c0-294 207-569 494-569 131 0 260 50 386 150L872-811c-96-74-188-111-277-112-163-2-225 186-225 376 0 251 82 377 246 377 81 0 168-36 260-107l103 137C862-32 733 22 593 22 292 22 94-208 94-547" id="aM"/><path fill="#3d4752" d="M503-384c-2 129 8 204 107 204 41 0 91-13 150-38l66 171C737-1 639 22 533 22c-230-2-293-122-293-358v-559H42v-199h198v-395h263v395h265v199H503v511" id="aN"/><g id="o"><use transform="matrix(0.0087890625,0,0,0.0087890625,0,0)" xlink:href="#aK"/><use transform="matrix(0.0087890625,0,0,0.0087890625,6.8291015625,0)" xlink:href="#aI"/><use transform="matrix(0.0087890625,0,0,0.0087890625,16.962890625,0)" xlink:href="#aE"/><use transform="matrix(0.0087890625,0,0,0.0087890625,27.5712890625,0)" xlink:href="#aL"/><use transform="matrix(0.0087890625,0,0,0.0087890625,32.8359375,0)" xlink:href="#aK"/><use transform="matrix(0.0087890625,0,0,0.0087890625,39.6650390625,0)" xlink:href="#aI"/><use transform="matrix(0.0087890625,0,0,0.0087890625,49.798828125,0)" xlink:href="#aM"/><use transform="matrix(0.0087890625,0,0,0.0087890625,58.81640625,0)" xlink:href="#aN"/><use transform="matrix(0.0087890625,0,0,0.0087890625,65.91796875,0)" xlink:href="#aI"/><use transform="matrix(0.0087890625,0,0,0.0087890625,76.0517578125,0)" xlink:href="#aE"/></g><path fill="#3d4752" d="M806-1530l-66 177c-158-82-260-41-259 189v70h264v199H481V0H218v-895H19v-199h199c-9-207 32-364 147-449 126-93 294-66 441 13" id="aO"/><path fill="#3d4752" d="M1420-1116c172-1 282 89 282 264V0h-263v-754c0-92-46-138-138-138-75 0-153 30-235 90V0H803v-754c0-92-46-138-138-138-71 0-149 30-234 90V0H168v-1094h263v93c117-77 234-115 353-115 121 0 206 45 254 134 124-89 251-134 382-134" id="aP"/><g id="p"><use transform="matrix(0.0087890625,0,0,0.0087890625,0,0)" xlink:href="#aO"/><use transform="matrix(0.0087890625,0,0,0.0087890625,6.873046875,0)" xlink:href="#aK"/><use transform="matrix(0.0087890625,0,0,0.0087890625,13.7021484375,0)" xlink:href="#aC"/><use transform="matrix(0.0087890625,0,0,0.0087890625,23.853515625,0)" xlink:href="#aP"/></g><path fill="#3d4752" d="M718 23c-304 0-533-125-532-410v-1102h272v1066c0 151 87 227 260 227 174 0 261-76 261-227v-1066h272v1102c8 267-231 410-533 410" id="aQ"/><path fill="#3d4752" d="M183-342c139 97 272 144 401 141 177-5 266-73 266-205 0-83-46-143-137-186-66-31-351-127-423-171-120-74-184-178-184-324 0-181 82-309 250-380 237-100 547-49 724 90l-107 195c-117-70-238-105-361-105-149 0-223 63-223 189 0 81 64 140 191 179 19 5 54 16 105 32 192 62 321 144 388 246 41 63 61 141 61 234 0 173-87 302-265 376C603 79 286 20 77-135" id="aR"/><path fill="#3d4752" d="M729-499H112v-220h617v220" id="aS"/><path fill="#3d4752" d="M1233-744c0 399-195 768-565 768-181 0-323-79-425-237-94-145-141-322-141-531 0-297 85-517 254-660 85-72 189-108 312-108 370 0 565 369 565 768zm-565-554c-125 0-209 90-253 271-20 82-30 176-30 283 0 225 42 385 125 481 43 49 95 74 158 74 125 0 209-91 252-272 20-83 30-178 30-283 0-227-41-387-123-481-42-49-95-73-159-73" id="aT"/><path fill="#3d4752" d="M731-1053c2-147-92-234-239-233-103 0-211 57-322 170L20-1279c174-158 345-237 512-237 281 0 476 170 476 457 0 143-71 300-212 471-85 102-212 225-383 369h586V0H42v-206c274-235 463-421 566-558 82-109 123-206 123-289" id="aU"/><g id="q"><use transform="matrix(0.0087890625,0,0,0.0087890625,0,0)" xlink:href="#aQ"/><use transform="matrix(0.0087890625,0,0,0.0087890625,12.6298828125,0)" xlink:href="#aR"/><use transform="matrix(0.0087890625,0,0,0.0087890625,23.4140625,0)" xlink:href="#aS"/><use transform="matrix(0.0087890625,0,0,0.0087890625,30.8056640625,0)" xlink:href="#aT"/><use transform="matrix(0.0087890625,0,0,0.0087890625,42.5390625,0)" xlink:href="#aU"/></g><path fill="#3d4752" d="M205-1489h426c365 0 548 153 548 458S998-573 635-573H478V0H205v-1489zm273 219v478h161c177 0 265-80 265-239s-88-239-265-239H478" id="aV"/><g id="r"><use transform="matrix(0.0087890625,0,0,0.0087890625,0,0)" xlink:href="#aV"/><use transform="matrix(0.0087890625,0,0,0.0087890625,10.177734375,0)" xlink:href="#aD"/><use transform="matrix(0.0087890625,0,0,0.0087890625,20.0830078125,0)" xlink:href="#aK"/><use transform="matrix(0.0087890625,0,0,0.0087890625,27.2724609375,0)" xlink:href="#aF"/><use transform="matrix(0.0087890625,0,0,0.0087890625,36.0966796875,0)" xlink:href="#aI"/></g><g id="s"><use transform="matrix(0.0087890625,0,0,0.0087890625,0,0)" xlink:href="#aE"/><use transform="matrix(0.0087890625,0,0,0.0087890625,10.6083984375,0)" xlink:href="#aD"/><use transform="matrix(0.0087890625,0,0,0.0087890625,20.513671875,0)" xlink:href="#aN"/><use transform="matrix(0.0087890625,0,0,0.0087890625,27.615234375,0)" xlink:href="#aD"/></g><g id="t"><use transform="matrix(0.0087890625,0,0,0.0087890625,0,0)" xlink:href="#aG"/><use transform="matrix(0.0087890625,0,0,0.0087890625,10.6083984375,0)" xlink:href="#aD"/><use transform="matrix(0.0087890625,0,0,0.0087890625,20.513671875,0)" xlink:href="#aF"/><use transform="matrix(0.0087890625,0,0,0.0087890625,29.337890625,0)" xlink:href="#aF"/><use transform="matrix(0.0087890625,0,0,0.0087890625,38.162109375,0)" xlink:href="#aI"/><use transform="matrix(0.0087890625,0,0,0.0087890625,48.2958984375,0)" xlink:href="#aE"/></g><path fill="#3d4752" d="M783-1116c173 0 283 89 283 264V0H803v-754c0-92-46-138-139-138-73 0-151 30-233 91V0H168v-1094h263v93c117-77 234-115 352-115" id="aW"/><g id="u"><use transform="matrix(0.0087890625,0,0,0.0087890625,0,0)" xlink:href="#aL"/><use transform="matrix(0.0087890625,0,0,0.0087890625,5.2646484375,0)" xlink:href="#aW"/></g><path fill="#3d4752" d="M1282-743c0 396-250 743-634 743H205v-1489h417c437-2 660 295 660 746zM637-225c233 9 365-240 365-518 0-216-61-366-177-458-90-72-200-63-346-63v1039h158" id="aX"/><path fill="#3d4752" d="M446 22C216 22 155-90 155-336v-1244h263v1196c0 75 6 126 18 153 27 62 110 61 177 31l67 172C603 5 525 22 446 22" id="aY"/><path fill="#3d4752" d="M421-36L25-1094h272l251 717 263-717h249L649 1c-97 251-201 366-459 445L96 279c173-62 281-167 325-315" id="aZ"/><g id="v"><use transform="matrix(0.0087890625,0,0,0.0087890625,0,0)" xlink:href="#aX"/><use transform="matrix(0.0087890625,0,0,0.0087890625,12.1640625,0)" xlink:href="#aL"/><use transform="matrix(0.0087890625,0,0,0.0087890625,17.4287109375,0)" xlink:href="#aF"/><use transform="matrix(0.0087890625,0,0,0.0087890625,26.2529296875,0)" xlink:href="#aG"/><use transform="matrix(0.0087890625,0,0,0.0087890625,36.861328125,0)" xlink:href="#aY"/><use transform="matrix(0.0087890625,0,0,0.0087890625,42.556640625,0)" xlink:href="#aD"/><use transform="matrix(0.0087890625,0,0,0.0087890625,52.4619140625,0)" xlink:href="#aZ"/></g><path fill="#3d4752" d="M180-976l-37-513h255l-36 513H180" id="ba"/><path fill="#3d4752" d="M102-744c-7-402 254-768 642-768 139 0 270 41 393 124l-138 175c-77-55-161-82-252-82-144 0-247 85-308 256-31 85-46 183-46 295 0 228 53 391 167 482 144 115 312 73 466-35l124 172C930 61 588 78 365-105 204-237 107-456 102-744" id="bb"/><path fill="#3d4752" d="M437 22c-177 0-283-91-283-265v-851h263v755c0 91 46 137 139 137 75 0 152-32 233-95v-797h263V0H789v-93C670-16 552 22 437 22" id="bc"/><g id="w"><use transform="matrix(0.0087890625,0,0,0.0087890625,0,0)" xlink:href="#ba"/><use transform="matrix(0.0087890625,0,0,0.0087890625,4.7548828125,0)" xlink:href="#bb"/><use transform="matrix(0.0087890625,0,0,0.0087890625,14.8623046875,0)" xlink:href="#aC"/><use transform="matrix(0.0087890625,0,0,0.0087890625,25.013671875,0)" xlink:href="#bc"/><use transform="matrix(0.0087890625,0,0,0.0087890625,35.736328125,0)" xlink:href="#aK"/><use transform="matrix(0.0087890625,0,0,0.0087890625,42.92578125,0)" xlink:href="#aF"/><use transform="matrix(0.0087890625,0,0,0.0087890625,51.75,0)" xlink:href="#aI"/></g><path fill="#3d4752" d="M413-1411c192-134 466-131 654 5 174 126 303 370 302 662-1 301-123 542-306 668C871 56 592 54 403-80 225-206 101-446 102-744c2-299 128-540 311-667zm623 951c106-314 22-833-300-833-233 0-343 288-343 549 0 222 54 382 163 479 52 47 112 70 180 70 139 0 240-88 300-265" id="bd"/><path fill="#3d4752" d="M452 0L25-1094h272l252 709 263-709h249L634 0H452" id="be"/><g id="x"><use transform="matrix(0.0087890625,0,0,0.0087890625,0,0)" xlink:href="#bd"/><use transform="matrix(0.0087890625,0,0,0.0087890625,12.9287109375,0)" xlink:href="#be"/><use transform="matrix(0.0087890625,0,0,0.0087890625,22.4736328125,0)" xlink:href="#aI"/><use transform="matrix(0.0087890625,0,0,0.0087890625,32.607421875,0)" xlink:href="#aK"/><use transform="matrix(0.0087890625,0,0,0.0087890625,39.041015625,0)" xlink:href="#aD"/><use transform="matrix(0.0087890625,0,0,0.0087890625,48.9462890625,0)" xlink:href="#aY"/><use transform="matrix(0.0087890625,0,0,0.0087890625,54.6416015625,0)" xlink:href="#aY"/><use transform="matrix(0.0087890625,0,0,0.0087890625,60.3369140625,0)" xlink:href="#ba"/></g><path fill="#3d4752" d="M247 0H0l619-1489h246" id="bf"/><g id="y"><use transform="matrix(0.0087890625,0,0,0.0087890625,0,0)" xlink:href="#aR"/><use transform="matrix(0.0087890625,0,0,0.0087890625,10.7841796875,0)" xlink:href="#aI"/><use transform="matrix(0.0087890625,0,0,0.0087890625,20.91796875,0)" xlink:href="#aY"/><use transform="matrix(0.0087890625,0,0,0.0087890625,26.61328125,0)" xlink:href="#aI"/><use transform="matrix(0.0087890625,0,0,0.0087890625,36.7470703125,0)" xlink:href="#aM"/><use transform="matrix(0.0087890625,0,0,0.0087890625,45.7646484375,0)" xlink:href="#aN"/><use transform="matrix(0.0087890625,0,0,0.0087890625,52.8662109375,0)" xlink:href="#bf"/><use transform="matrix(0.0087890625,0,0,0.0087890625,60.46875,0)" xlink:href="#aX"/><use transform="matrix(0.0087890625,0,0,0.0087890625,72.6328125,0)" xlink:href="#aI"/><use transform="matrix(0.0087890625,0,0,0.0087890625,82.7666015625,0)" xlink:href="#aF"/><use transform="matrix(0.0087890625,0,0,0.0087890625,91.5908203125,0)" xlink:href="#aI"/><use transform="matrix(0.0087890625,0,0,0.0087890625,101.724609375,0)" xlink:href="#aY"/><use transform="matrix(0.0087890625,0,0,0.0087890625,107.419921875,0)" xlink:href="#aI"/><use transform="matrix(0.0087890625,0,0,0.0087890625,117.5537109375,0)" xlink:href="#aM"/><use transform="matrix(0.0087890625,0,0,0.0087890625,126.5712890625,0)" xlink:href="#aN"/></g><path fill="#3d4752" d="M491-632h326l-163-487zM1028 0L887-418H421L279 0H11l527-1489h248L1312 0h-284" id="bg"/><path fill="#3d4752" d="M784-1116c178 0 282 88 282 264V0H803v-754c0-92-46-138-138-138-74 0-152 32-234 95V0H168v-1580h263v579c117-77 234-115 353-115" id="bh"/><g id="z"><use transform="matrix(0.0087890625,0,0,0.0087890625,0,0)" xlink:href="#bg"/><use transform="matrix(0.0087890625,0,0,0.0087890625,11.9091796875,0)" xlink:href="#aW"/><use transform="matrix(0.0087890625,0,0,0.0087890625,22.6318359375,0)" xlink:href="#aC"/><use transform="matrix(0.0087890625,0,0,0.0087890625,32.783203125,0)" xlink:href="#aN"/><use transform="matrix(0.0087890625,0,0,0.0087890625,39.884765625,0)" xlink:href="#bh"/><use transform="matrix(0.0087890625,0,0,0.0087890625,50.607421875,0)" xlink:href="#aI"/><use transform="matrix(0.0087890625,0,0,0.0087890625,60.7412109375,0)" xlink:href="#aK"/></g><path fill="#3d4752" d="M478 0H205v-1489h859v219H478v389h485v219H478V0" id="bi"/><g id="A"><use transform="matrix(0.0087890625,0,0,0.0087890625,0,0)" xlink:href="#bi"/><use transform="matrix(0.0087890625,0,0,0.0087890625,9.8525390625,0)" xlink:href="#aL"/><use transform="matrix(0.0087890625,0,0,0.0087890625,15.1171875,0)" xlink:href="#aI"/><use transform="matrix(0.0087890625,0,0,0.0087890625,25.2509765625,0)" xlink:href="#aY"/><use transform="matrix(0.0087890625,0,0,0.0087890625,30.9462890625,0)" xlink:href="#aE"/></g><g id="B"><use transform="matrix(0.0087890625,0,0,0.0087890625,0,0)" xlink:href="#aQ"/><use transform="matrix(0.0087890625,0,0,0.0087890625,12.6298828125,0)" xlink:href="#aG"/><use transform="matrix(0.0087890625,0,0,0.0087890625,23.23828125,0)" xlink:href="#aE"/><use transform="matrix(0.0087890625,0,0,0.0087890625,33.8466796875,0)" xlink:href="#aD"/><use transform="matrix(0.0087890625,0,0,0.0087890625,43.751953125,0)" xlink:href="#aN"/><use transform="matrix(0.0087890625,0,0,0.0087890625,50.853515625,0)" xlink:href="#aI"/></g><g id="C"><use transform="matrix(0.0087890625,0,0,0.0087890625,0,0)" xlink:href="#aY"/><use transform="matrix(0.0087890625,0,0,0.0087890625,5.6953125,0)" xlink:href="#aL"/><use transform="matrix(0.0087890625,0,0,0.0087890625,10.9599609375,0)" xlink:href="#aF"/><use transform="matrix(0.0087890625,0,0,0.0087890625,19.7841796875,0)" xlink:href="#aN"/></g><g id="D"><use transform="matrix(0.0087890625,0,0,0.0087890625,0,0)" xlink:href="#aC"/><use transform="matrix(0.0087890625,0,0,0.0087890625,10.1513671875,0)" xlink:href="#aO"/></g><g id="E"><use transform="matrix(0.0087890625,0,0,0.0087890625,0,0)" xlink:href="#aO"/><use transform="matrix(0.0087890625,0,0,0.0087890625,6.873046875,0)" xlink:href="#aL"/><use transform="matrix(0.0087890625,0,0,0.0087890625,12.1376953125,0)" xlink:href="#aI"/><use transform="matrix(0.0087890625,0,0,0.0087890625,22.271484375,0)" xlink:href="#aY"/><use transform="matrix(0.0087890625,0,0,0.0087890625,27.966796875,0)" xlink:href="#aE"/><use transform="matrix(0.0087890625,0,0,0.0087890625,38.5751953125,0)" xlink:href="#aF"/></g><g id="F"><use transform="matrix(0.0087890625,0,0,0.0087890625,0,0)" xlink:href="#aN"/><use transform="matrix(0.0087890625,0,0,0.0087890625,7.1015625,0)" xlink:href="#aC"/></g><path fill="#3d4752" d="M452 0H163v-278h289V0" id="bj"/><g id="G"><use transform="matrix(0.0087890625,0,0,0.0087890625,0,0)" xlink:href="#aX"/><use transform="matrix(0.0087890625,0,0,0.0087890625,12.1640625,0)" xlink:href="#aL"/><use transform="matrix(0.0087890625,0,0,0.0087890625,17.4287109375,0)" xlink:href="#aF"/><use transform="matrix(0.0087890625,0,0,0.0087890625,26.2529296875,0)" xlink:href="#aG"/><use transform="matrix(0.0087890625,0,0,0.0087890625,36.861328125,0)" xlink:href="#aY"/><use transform="matrix(0.0087890625,0,0,0.0087890625,42.556640625,0)" xlink:href="#aD"/><use transform="matrix(0.0087890625,0,0,0.0087890625,52.4619140625,0)" xlink:href="#aZ"/><use transform="matrix(0.0087890625,0,0,0.0087890625,61.0400390625,0)" xlink:href="#bj"/></g><path fill="#3d4752" d="M45-1270v-219h1063v219H713V0H440v-1270H45" id="bk"/><g id="H"><use transform="matrix(0.0087890625,0,0,0.0087890625,0,0)" xlink:href="#bk"/><use transform="matrix(0.0087890625,0,0,0.0087890625,10.1337890625,0)" xlink:href="#aL"/><use transform="matrix(0.0087890625,0,0,0.0087890625,15.3984375,0)" xlink:href="#aP"/><use transform="matrix(0.0087890625,0,0,0.0087890625,31.7109375,0)" xlink:href="#aI"/></g><path fill="#3d4752" d="M750-1295c-235 0-357 269-357 551 0 242 64 406 189 495 115 82 270 77 380-7v-383H663v-213h557v693C1004 37 655 95 402-79 224-202 101-447 102-744s130-540 310-667c233-164 595-116 777 70l-135 170c-93-83-195-124-304-124" id="bl"/><g id="I"><use transform="matrix(0.0087890625,0,0,0.0087890625,0,0)" xlink:href="#bl"/><use transform="matrix(0.0087890625,0,0,0.0087890625,11.8564453125,0)" xlink:href="#aK"/><use transform="matrix(0.0087890625,0,0,0.0087890625,18.2900390625,0)" xlink:href="#aD"/><use transform="matrix(0.0087890625,0,0,0.0087890625,28.1953125,0)" xlink:href="#aG"/><use transform="matrix(0.0087890625,0,0,0.0087890625,38.8037109375,0)" xlink:href="#bh"/><use transform="matrix(0.0087890625,0,0,0.0087890625,49.5263671875,0)" xlink:href="#bj"/></g><g id="J"><use transform="matrix(0.0087890625,0,0,0.0087890625,0,0)" xlink:href="#aV"/><use transform="matrix(0.0087890625,0,0,0.0087890625,10.177734375,0)" xlink:href="#aD"/><use transform="matrix(0.0087890625,0,0,0.0087890625,20.0830078125,0)" xlink:href="#aH"/><use transform="matrix(0.0087890625,0,0,0.0087890625,30.7001953125,0)" xlink:href="#aI"/></g><g id="K"><use transform="matrix(0.0087890625,0,0,0.0087890625,0,0)" xlink:href="#bb"/><use transform="matrix(0.0087890625,0,0,0.0087890625,10.107421875,0)" xlink:href="#aY"/><use transform="matrix(0.0087890625,0,0,0.0087890625,15.802734375,0)" xlink:href="#aC"/><use transform="matrix(0.0087890625,0,0,0.0087890625,25.9541015625,0)" xlink:href="#aF"/><use transform="matrix(0.0087890625,0,0,0.0087890625,34.7783203125,0)" xlink:href="#aI"/></g></defs></g></svg>