<svg xmlns="http://www.w3.org/2000/svg" xmlns:xlink="http://www.w3.org/1999/xlink" xmlns:lucid="lucid" width="840.33" height="1550"><g transform="translate(-59.83333333333337 20)" lucid:page-tab-id="0_0"><path d="M110 5c0-2.76 2.24-5 5-5h730c2.76 0 5 2.24 5 5v50c0 2.76-2.24 5-5 5H115c-2.76 0-5-2.24-5-5z" fill="none"/><use xlink:href="#a" transform="matrix(1,0,0,1,110,0) translate(38.14814814814815 35.333333333333336)"/><use xlink:href="#b" transform="matrix(1,0,0,1,110,0) translate(141.62962962962962 35.333333333333336)"/><use xlink:href="#c" transform="matrix(1,0,0,1,110,0) translate(255.55555555555554 35.333333333333336)"/><use xlink:href="#d" transform="matrix(1,0,0,1,110,0) translate(298.3703703703704 35.333333333333336)"/><use xlink:href="#e" transform="matrix(1,0,0,1,110,0) translate(373.7777777777778 35.333333333333336)"/><use xlink:href="#f" transform="matrix(1,0,0,1,110,0) translate(390.00000000000006 35.333333333333336)"/><use xlink:href="#g" transform="matrix(1,0,0,1,110,0) translate(441.7777777777778 35.333333333333336)"/><use xlink:href="#h" transform="matrix(1,0,0,1,110,0) translate(555.6296296296297 35.333333333333336)"/><path d="M79.83 60h267v34h-267z" fill="#3d4752"/><path d="M346.5 60h267v34h-267z" fill="#3d4752"/><path d="M613.17 60h267v34h-267z" fill="#3d4752"/><path d="M79.83 93.64h267v1416h-267z" fill="#d6d6d6"/><path d="M346.5 93.64h267v1416h-267z" fill="#e4e4e4"/><path d="M613.17 93.64h267v1416h-267z" fill="#f2f2f2"/><path d="M79.83 94h267M346.5 94h267M613.17 94h267M79.83 93.64h267m-267 1416h267M346.5 93.64h267m-267 1416h267M613.17 93.64h267m-267 1416h267M346.83 60v34M346.5 60v34m267-34v34M613.17 60v34M346.83 93.64v1416M346.5 93.64v1416m267-1416v1416M613.17 93.64v1416M79.83 60h800.34v1450H79.83z" stroke="#3d4752" fill="none"/><use xlink:href="#i" transform="matrix(1,0,0,1,79.83333333333337,60) translate(96.3486328125 21.9658203125)"/><use xlink:href="#j" transform="matrix(1,0,0,1,346.50000000000006,60) translate(102.15380859375 21.9658203125)"/><use xlink:href="#k" transform="matrix(1,0,0,1,613.1666666666666,60) translate(75.14501953125 21.9658203125)"/><use xlink:href="#l" transform="matrix(1,0,0,1,613.1666666666666,60) translate(113.30712890625 21.9658203125)"/><path d="M229.25 132.85c0 8.06-7.7 14.6-17.2 14.6s-17.22-6.54-17.22-14.6c0-8.05 7.7-14.58 17.2-14.58 9.52 0 17.22 6.53 17.22 14.58z" stroke="#3d4752" stroke-width="2"/><path d="M147.9 178.27c-7.96 0-14.4 6.45-14.4 14.4v43.2c0 7.95 6.44 14.4 14.4 14.4h127.87c7.95 0 14.4-6.45 14.4-14.4v-43.2c0-7.95-6.45-14.4-14.4-14.4z" stroke="#3d4752" stroke-width="2" fill="#d2e5b3"/><use xlink:href="#m" transform="matrix(1,0,0,1,141.49612403100787,186.2686747507878) translate(2.08154296875 15.1240234375)"/><use xlink:href="#n" transform="matrix(1,0,0,1,141.49612403100787,186.2686747507878) translate(55.79150390625 15.1240234375)"/><use xlink:href="#o" transform="matrix(1,0,0,1,141.49612403100787,186.2686747507878) translate(81.93896484375 15.1240234375)"/><use xlink:href="#p" transform="matrix(1,0,0,1,141.49612403100787,186.2686747507878) translate(15.26953125 32.9658203125)"/><use xlink:href="#q" transform="matrix(1,0,0,1,141.49612403100787,186.2686747507878) translate(36.5302734375 32.9658203125)"/><use xlink:href="#r" transform="matrix(1,0,0,1,141.49612403100787,186.2686747507878) translate(46.55419921875 50.8076171875)"/><path d="M158.83 290.27c-8.83 0-16 7.16-16 16v48c0 8.84 7.17 16 16 16H264.5c8.84 0 16-7.16 16-16v-48c0-8.84-7.16-16-16-16z" stroke="#3d4752" stroke-width="2" fill="#d2e5b3"/><use xlink:href="#s" transform="matrix(1,0,0,1,150.83333333333337,298.2686747507878) translate(33.8857421875 19.1240234375)"/><use xlink:href="#t" transform="matrix(1,0,0,1,150.83333333333337,298.2686747507878) translate(19.0146484375 36.9658203125)"/><use xlink:href="#u" transform="matrix(1,0,0,1,150.83333333333337,298.2686747507878) translate(36.12255859375 54.8076171875)"/><path d="M211.83 251.27v19.76" stroke="#3d4752" stroke-width="2" fill="none"/><path d="M212.83 251.27h-2v-1h2zM211.83 286.03l-4.63-14.26h9.27z" fill="#3d4752"/><path d="M211.83 289.27l-6-18.5h12zm-3.26-16.5l3.26 10.03 3.26-10.03z" fill="#3d4752"/><path d="M472.8 433.2c2.22-1.6 5.84-1.6 8.07 0l11.92 8.7c2.22 1.63 2.22 4.27 0 5.9l-11.93 8.7c-2.23 1.62-5.85 1.62-8.08 0l-11.93-8.7c-2.23-1.63-2.23-4.27 0-5.9zM472.83 500c-8.83 0-16 7.16-16 16v48c0 8.84 7.17 16 16 16H578.5c8.84 0 16-7.16 16-16v-48c0-8.84-7.16-16-16-16z" stroke="#3d4752" stroke-width="2" fill="#d2e5b3"/><use xlink:href="#v" transform="matrix(1,0,0,1,464.83333333333354,508) translate(4.26220703125 19.1240234375)"/><use xlink:href="#w" transform="matrix(1,0,0,1,464.83333333333354,508) translate(99.00830078125 19.1240234375)"/><use xlink:href="#x" transform="matrix(1,0,0,1,464.83333333333354,508) translate(13.1787109375 36.9658203125)"/><use xlink:href="#y" transform="matrix(1,0,0,1,464.83333333333354,508) translate(14.3125 54.8076171875)"/><path d="M495.27 444.85h25.4c2.76 0 5 2.24 5 5v30.9" stroke="#3d4752" stroke-width="2" fill="none"/><path d="M495.27 445.85h-1l.02-2h.97zM525.67 495.76l-4.63-14.26h9.27z" fill="#3d4752"/><path d="M525.67 499l-6-18.5h12zm-3.26-16.5l3.27 10.03 3.26-10.03z" fill="#3d4752"/><use xlink:href="#z" transform="matrix(1,0,0,1,533.6705426356591,454.70486442501294) translate(0 13.88671875)"/><use xlink:href="#A" transform="matrix(1,0,0,1,533.6705426356591,454.70486442501294) translate(98.6484375 13.88671875)"/><path d="M367.97 647.7c0-2.75 2.24-5 5-5H586.7c2.76 0 5 2.25 5 5v4.6c0 2.75-2.24 5-5 5H372.96c-2.76 0-5-2.25-5-5z" stroke="#3d4752" stroke-width="2"/><path d="M456.62 1454.58c0 8.06-8.86 14.6-19.8 14.6-10.92 0-19.78-6.54-19.78-14.6 0-8.05 8.86-14.58 19.8-14.58 10.92 0 19.78 6.53 19.78 14.58z" stroke="#3d4752" stroke-width="2" fill-opacity="0"/><path d="M448.7 1454.58c0 4.84-5.3 8.75-11.87 8.75-6.55 0-11.87-3.9-11.87-8.75 0-4.83 5.32-8.75 11.87-8.75 6.56 0 11.88 3.92 11.88 8.75z" stroke="#3d4752" stroke-width="2"/><path d="M212.04 148.45v11.45" stroke="#3d4752" stroke-width="2" fill="none"/><path d="M212.04 147.44l.96-.13.04 1.1-2 .1-.04-1.2zM212.75 174.04l-5.34-14.02 9.27-.46z" fill="#3d4752"/><path d="M212.9 177.27L206 159.1l12-.6zm-4.07-16.32l3.76 9.85 2.74-10.18z" fill="#3d4752"/><path d="M211.67 371.27v24.86c0 2.76 2.24 5 5 5h255.16c2.76 0 5 2.24 5 5v6.63" stroke="#000" stroke-width="2" fill="none"/><path d="M212.67 371.27h-2v-1h2zM476.83 427.76l-4.63-14.27h9.27z"/><path d="M476.83 431l-6-18.5h12.02zm-3.26-16.5l3.26 10.02 3.26-10.03z"/><path d="M458.4 444.85h-29.5c-2.76 0-5 2.24-5 5v174.62" stroke="#333" stroke-width="2" fill="none"/><path d="M459.37 445.85h-.98v-2h1zM423.9 639.47l-4.63-14.26h9.27z" fill="#333"/><path d="M423.9 642.7l-6-18.5h12zm-3.26-16.5l3.26 10.04 3.26-10.03z" fill="#333"/><use xlink:href="#B" transform="matrix(1,0,0,1,221.61208515019376,494.0268860087218) translate(0 13.88671875)"/><use xlink:href="#C" transform="matrix(1,0,0,1,221.61208515019376,494.0268860087218) translate(100.916015625 13.88671875)"/><path d="M525.67 581v25.85c0 2.77 2.24 5 5 5h.1c2.75 0 5 2.24 5 5v7.62" stroke="#000" stroke-width="2" fill="none"/><path d="M526.67 581h-2v-1h2zM535.76 639.47l-4.63-14.26h9.27z"/><path d="M535.76 642.7l-6-18.5h12.02zm-3.26-16.5l3.26 10.04 3.26-10.03z"/><path d="M427 700c-8.84 0-16 7.16-16 16v48c0 8.84 7.16 16 16 16h105.67c8.84 0 16-7.16 16-16v-48c0-8.84-7.16-16-16-16z" stroke="#3d4752" stroke-width="2" fill="#d2e5b3"/><use xlink:href="#D" transform="matrix(1,0,0,1,418.99612403100775,708) translate(33.89453125 19.1240234375)"/><use xlink:href="#E" transform="matrix(1,0,0,1,418.99612403100775,708) translate(21.72607421875 36.9658203125)"/><use xlink:href="#F" transform="matrix(1,0,0,1,418.99612403100775,708) translate(35.564453125 54.8076171875)"/><path d="M479.83 680.76v-1.64c0-.26.2-.47.47-.47.26 0 .47-.2.47-.47v-19.9" stroke="#000" stroke-width="2" fill="none"/><path d="M479.83 695.76l-4.63-14.26h9.27z"/><path d="M479.83 699l-6-18.5h12.02zm-3.26-16.5l3.26 10.03 3.26-10.03zM481.77 658.3h-2v-1h2z"/><path d="M695.83 840c-8.83 0-16 7.16-16 16v48c0 8.84 7.17 16 16 16H801.5c8.84 0 16-7.16 16-16v-48c0-8.84-7.16-16-16-16z" stroke="#3d4752" stroke-width="2" fill="#d2e5b3"/><use xlink:href="#G" transform="matrix(1,0,0,1,687.8333333333334,848) translate(0.67626953125 36.9658203125)"/><use xlink:href="#F" transform="matrix(1,0,0,1,687.8333333333334,848) translate(70.45263671875 36.9658203125)"/><path d="M479.83 781v24c0 2.76 2.24 5 5 5h258.84c2.76 0 5 2.24 5 5v5.76" stroke="#000" stroke-width="2" fill="none"/><path d="M480.83 781h-2v-1h2zM748.67 835.76l-4.63-14.26h9.27z"/><path d="M748.67 839l-6-18.5h12zm-3.26-16.5l3.27 10.03 3.26-10.03z"/><path d="M472.8 1002.95c2.22-1.63 5.84-1.63 8.07 0l11.92 8.7c2.22 1.62 2.22 4.25 0 5.88l-11.93 8.7c-2.23 1.62-5.85 1.62-8.08 0l-11.93-8.7c-2.23-1.63-2.23-4.26 0-5.9z" stroke="#3d4752" stroke-width="2" fill="#d2e5b3"/><path d="M748.67 921v34.86c0 2.76-2.24 5-5 5H481.83c-2.76 0-5 2.24-5 5v16.63" stroke="#000" stroke-width="2" fill="none"/><path d="M749.67 921h-2v-1h2zM476.83 997.5l-4.63-14.28h9.27z"/><path d="M476.83 1000.72l-6-18.5h12.02zm-3.26-16.5l3.26 10.03 3.26-10.03z"/><path d="M478.5 1089.73c-8.83 0-16 7.16-16 16v48c0 8.84 7.17 16 16 16h100.33c8.84 0 16-7.16 16-16v-48c0-8.84-7.16-16-16-16z" stroke="#3d4752" stroke-width="2" fill="#d2e5b3"/><use xlink:href="#H" transform="matrix(1,0,0,1,470.50775193798466,1097.7313252492122) translate(4.05615234375 36.9658203125)"/><use xlink:href="#I" transform="matrix(1,0,0,1,470.50775193798466,1097.7313252492122) translate(71.32763671875 36.9658203125)"/><path d="M383.83 1300c-8.83 0-16 7.16-16 16v48c0 8.84 7.17 16 16 16H489.5c8.84 0 16-7.16 16-16v-48c0-8.84-7.16-16-16-16z" stroke="#3d4752" stroke-width="2" fill="#d2e5b3"/><g><use xlink:href="#J" transform="matrix(1,0,0,1,375.83333333333337,1308) translate(14.294921875 28.044921875)"/><use xlink:href="#K" transform="matrix(1,0,0,1,375.83333333333337,1308) translate(90.4521484375 28.044921875)"/><use xlink:href="#L" transform="matrix(1,0,0,1,375.83333333333337,1308) translate(34.83056640625 45.88671875)"/></g><path d="M458.4 1014.58h-16.73c-2.76 0-5 2.24-5 5v261.18" stroke="#000" stroke-width="2" fill="none"/><path d="M459.37 1015.58h-.98v-2h1zM436.67 1295.76l-4.63-14.26h9.27z"/><path d="M436.67 1299l-6-18.5h12zm-3.26-16.5l3.27 10.03 3.26-10.03z"/><g><use xlink:href="#M" transform="matrix(1,0,0,1,366.975715644388,992.6240550135842) translate(0 14.4)"/><use xlink:href="#N" transform="matrix(1,0,0,1,366.975715644388,992.6240550135842) translate(43.55 14.4)"/></g><path d="M495.27 1014.58h28.4c2.76 0 5 2.24 5 5v50.92" stroke="#000" stroke-width="2" fill="none"/><path d="M495.27 1015.58h-1l.02-2h.97zM528.67 1085.5l-4.63-14.27h9.27z"/><path d="M528.67 1088.73l-6-18.5h12zm-3.26-16.5l3.27 10.03 3.26-10.03z"/><g><use xlink:href="#O" transform="matrix(1,0,0,1,507.09536798921323,991.8433709782676) translate(0 14.4)"/><use xlink:href="#N" transform="matrix(1,0,0,1,507.09536798921323,991.8433709782676) translate(56.900000000000006 14.4)"/></g><path d="M548.83 1244.88c0 8.05-8.95 14.58-20 14.58-11.04 0-20-6.53-20-14.58 0-8.06 8.96-14.6 20-14.6 11.05 0 20 6.54 20 14.6z" stroke="#3d4752" stroke-width="2" fill-opacity="0"/><path d="M540.83 1244.88c0 4.83-5.37 8.75-12 8.75-6.62 0-12-3.92-12-8.75s5.38-8.75 12-8.75c6.63 0 12 3.92 12 8.75z" stroke="#3d4752" stroke-width="2"/><path d="M528.67 1170.73v29.22c0 .03.03.06.07.06.03 0 .06.04.06.08v10.98" stroke="#000" stroke-width="2" fill="none"/><path d="M529.67 1170.73h-2v-1h2zM528.8 1226.06l-4.63-14.27h9.27z"/><path d="M528.8 1229.3l-6-18.5h12zm-3.26-16.5l3.26 10.02 3.26-10.03z"/><path d="M436.67 1381v28.94c0 .03.03.06.06.06.04 0 .07.03.07.06v10.7" stroke="#000" stroke-width="2" fill="none"/><path d="M437.67 1381h-2v-1h2zM436.8 1435.76l-4.64-14.26h9.27z"/><path d="M436.8 1439l-6-18.5h12zm-3.26-16.5l3.26 10.03 3.26-10.03z"/><defs><path fill="#999" d="M199 0l-22-63H83L61 0H9l90-248h61L250 0h-51zm-33-102l-36-108c-10 38-24 72-36 108h72" id="P"/><path fill="#999" d="M190-63c-7 42-38 67-86 67-59 0-84-38-90-98-12-110 154-137 174-36l-49 2c-2-19-15-32-35-32-30 0-35 28-38 64-6 74 65 87 74 30" id="Q"/><path fill="#999" d="M115-3C79 11 28 4 28-45v-112H4v-33h27l15-45h31v45h36v33H77v99c-1 23 16 31 38 25v30" id="R"/><path fill="#999" d="M25-224v-37h50v37H25zM25 0v-190h50V0H25" id="S"/><path fill="#999" d="M128 0H69L1-190h53L99-40l48-150h52" id="T"/><path fill="#999" d="M123 10C108 53 80 86 19 72V37c35 8 53-11 59-39L3-190h52l48 148c12-52 28-100 44-148h51" id="U"/><g id="a"><use transform="matrix(0.07407407407407408,0,0,0.07407407407407408,0,0)" xlink:href="#P"/><use transform="matrix(0.07407407407407408,0,0,0.07407407407407408,19.185185185185187,0)" xlink:href="#Q"/><use transform="matrix(0.07407407407407408,0,0,0.07407407407407408,34,0)" xlink:href="#R"/><use transform="matrix(0.07407407407407408,0,0,0.07407407407407408,42.814814814814824,0)" xlink:href="#S"/><use transform="matrix(0.07407407407407408,0,0,0.07407407407407408,50.22222222222223,0)" xlink:href="#T"/><use transform="matrix(0.07407407407407408,0,0,0.07407407407407408,65.03703703703704,0)" xlink:href="#S"/><use transform="matrix(0.07407407407407408,0,0,0.07407407407407408,72.44444444444444,0)" xlink:href="#R"/><use transform="matrix(0.07407407407407408,0,0,0.07407407407407408,81.25925925925927,0)" xlink:href="#U"/></g><path fill="#999" d="M24-248c120-7 223 5 221 122C244-46 201 0 124 0H24v-248zM76-40c74 7 117-18 117-86 0-67-45-88-117-82v168" id="V"/><path fill="#999" d="M133-34C117-15 103 5 69 4 32 3 11-16 11-54c-1-60 55-63 116-61 1-26-3-47-28-47-18 1-26 9-28 27l-52-2c7-38 36-58 82-57s74 22 75 68l1 82c-1 14 12 18 25 15v27c-30 8-71 5-69-32zm-48 3c29 0 43-24 42-57-32 0-66-3-65 30 0 17 8 27 23 27" id="W"/><path fill="#999" d="M195-6C206 82 75 100 31 46c-4-6-6-13-8-21l49-6c3 16 16 24 34 25 40 0 42-37 40-79-11 22-30 35-61 35-53 0-70-43-70-97 0-56 18-96 73-97 30 0 46 14 59 34l2-30h47zm-90-29c32 0 41-27 41-63 0-35-9-62-40-62-32 0-39 29-40 63 0 36 9 62 39 62" id="X"/><path fill="#999" d="M135-150c-39-12-60 13-60 57V0H25l-1-190h47c2 13-1 29 3 40 6-28 27-53 61-41v41" id="Y"/><path fill="#999" d="M220-157c-53 9-28 100-34 157h-49v-107c1-27-5-49-29-50C55-147 81-57 75 0H25l-1-190h47c2 12-1 28 3 38 10-53 101-56 108 0 13-22 24-43 59-42 82 1 51 116 57 194h-49v-107c-1-25-5-48-29-50" id="Z"/><g id="b"><use transform="matrix(0.07407407407407408,0,0,0.07407407407407408,0,0)" xlink:href="#V"/><use transform="matrix(0.07407407407407408,0,0,0.07407407407407408,19.185185185185187,0)" xlink:href="#S"/><use transform="matrix(0.07407407407407408,0,0,0.07407407407407408,26.592592592592595,0)" xlink:href="#W"/><use transform="matrix(0.07407407407407408,0,0,0.07407407407407408,41.40740740740741,0)" xlink:href="#X"/><use transform="matrix(0.07407407407407408,0,0,0.07407407407407408,57.62962962962964,0)" xlink:href="#Y"/><use transform="matrix(0.07407407407407408,0,0,0.07407407407407408,68,0)" xlink:href="#W"/><use transform="matrix(0.07407407407407408,0,0,0.07407407407407408,82.81481481481481,0)" xlink:href="#Z"/></g><path fill="#999" d="M121-226c-27-7-43 5-38 36h38v33H83V0H34v-157H6v-33h28c-9-59 32-81 87-68v32" id="aa"/><path fill="#999" d="M110-194c64 0 96 36 96 99 0 64-35 99-97 99-61 0-95-36-95-99 0-62 34-99 96-99zm-1 164c35 0 45-28 45-65 0-40-10-65-43-65-34 0-45 26-45 65 0 36 10 65 43 65" id="ab"/><g id="c"><use transform="matrix(0.07407407407407408,0,0,0.07407407407407408,0,0)" xlink:href="#aa"/><use transform="matrix(0.07407407407407408,0,0,0.07407407407407408,8.814814814814817,0)" xlink:href="#ab"/><use transform="matrix(0.07407407407407408,0,0,0.07407407407407408,25.03703703703704,0)" xlink:href="#Y"/></g><path fill="#999" d="M238-95c0 69-44 99-111 99C63 4 22-25 22-93v-155h51v151c-1 38 19 59 55 60 90 1 49-130 58-211h52v153" id="ac"/><path fill="#999" d="M169-182c-1-43-94-46-97-3 18 66 151 10 154 114 3 95-165 93-204 36-6-8-10-19-12-30l50-8c3 46 112 56 116 5-17-69-150-10-154-114-4-87 153-88 188-35 5 8 8 18 10 28" id="ad"/><path fill="#999" d="M14-72v-43h91v43H14" id="ae"/><path fill="#999" d="M101-251c68 0 84 54 84 127C185-50 166 4 99 4S15-52 14-124c-1-75 17-127 87-127zm-1 216c37-5 36-46 36-89s4-89-36-89c-39 0-36 45-36 89 0 43-3 85 36 89" id="af"/><path fill="#999" d="M23 0v-37h61v-169l-59 37v-38l62-41h46v211h57V0H23" id="ag"/><g id="d"><use transform="matrix(0.07407407407407408,0,0,0.07407407407407408,0,0)" xlink:href="#ac"/><use transform="matrix(0.07407407407407408,0,0,0.07407407407407408,19.185185185185187,0)" xlink:href="#ad"/><use transform="matrix(0.07407407407407408,0,0,0.07407407407407408,36.96296296296296,0)" xlink:href="#ae"/><use transform="matrix(0.07407407407407408,0,0,0.07407407407407408,45.77777777777778,0)" xlink:href="#af"/><use transform="matrix(0.07407407407407408,0,0,0.07407407407407408,60.592592592592595,0)" xlink:href="#ag"/></g><path fill="#999" d="M35-132v-50h50v50H35zM35 0v-49h50V0H35" id="ah"/><use transform="matrix(0.07407407407407408,0,0,0.07407407407407408,0,0)" xlink:href="#ah" id="e"/><path fill="#999" d="M67-125c0 54 23 88 75 88 28 0 53-7 68-21v-34h-60v-39h108v91C232-14 192 4 140 4 58 4 20-42 15-125 8-236 126-280 215-234c19 10 29 26 37 47l-47 15c-11-23-29-39-63-39-53 1-75 33-75 86" id="ai"/><path fill="#999" d="M185-48c-13 30-37 53-82 52C43 2 14-33 14-96s30-98 90-98c62 0 83 45 84 108H66c0 31 8 55 39 56 18 0 30-7 34-22zm-45-69c5-46-57-63-70-21-2 6-4 13-4 21h74" id="aj"/><g id="f"><use transform="matrix(0.07407407407407408,0,0,0.07407407407407408,0,0)" xlink:href="#ai"/><use transform="matrix(0.07407407407407408,0,0,0.07407407407407408,20.740740740740744,0)" xlink:href="#aj"/><use transform="matrix(0.07407407407407408,0,0,0.07407407407407408,35.55555555555556,0)" xlink:href="#R"/></g><path fill="#999" d="M24 0v-248h52v208h133V0H24" id="ak"/><path fill="#999" d="M85 4C-2 5 27-109 22-190h50c7 57-23 150 33 157 60-5 35-97 40-157h50l1 190h-47c-2-12 1-28-3-38-12 25-28 42-61 42" id="al"/><g id="g"><use transform="matrix(0.07407407407407408,0,0,0.07407407407407408,0,0)" xlink:href="#ak"/><use transform="matrix(0.07407407407407408,0,0,0.07407407407407408,16.222222222222225,0)" xlink:href="#aj"/><use transform="matrix(0.07407407407407408,0,0,0.07407407407407408,31.03703703703704,0)" xlink:href="#Q"/><use transform="matrix(0.07407407407407408,0,0,0.07407407407407408,45.851851851851855,0)" xlink:href="#R"/><use transform="matrix(0.07407407407407408,0,0,0.07407407407407408,54.666666666666686,0)" xlink:href="#al"/><use transform="matrix(0.07407407407407408,0,0,0.07407407407407408,70.8888888888889,0)" xlink:href="#Y"/><use transform="matrix(0.07407407407407408,0,0,0.07407407407407408,81.25925925925927,0)" xlink:href="#aj"/><use transform="matrix(0.07407407407407408,0,0,0.07407407407407408,96.07407407407408,0)" xlink:href="#Y"/></g><path fill="#999" d="M24 0v-248h52V0H24" id="am"/><path fill="#999" d="M135-194c87-1 58 113 63 194h-50c-7-57 23-157-34-157-59 0-34 97-39 157H25l-1-190h47c2 12-1 28 3 38 12-26 28-41 61-42" id="an"/><g id="h"><use transform="matrix(0.07407407407407408,0,0,0.07407407407407408,0,0)" xlink:href="#am"/><use transform="matrix(0.07407407407407408,0,0,0.07407407407407408,7.407407407407408,0)" xlink:href="#an"/><use transform="matrix(0.07407407407407408,0,0,0.07407407407407408,23.629629629629633,0)" xlink:href="#aa"/><use transform="matrix(0.07407407407407408,0,0,0.07407407407407408,32.44444444444445,0)" xlink:href="#ab"/><use transform="matrix(0.07407407407407408,0,0,0.07407407407407408,48.66666666666667,0)" xlink:href="#Y"/><use transform="matrix(0.07407407407407408,0,0,0.07407407407407408,59.037037037037045,0)" xlink:href="#Z"/><use transform="matrix(0.07407407407407408,0,0,0.07407407407407408,82.74074074074075,0)" xlink:href="#W"/><use transform="matrix(0.07407407407407408,0,0,0.07407407407407408,97.55555555555557,0)" xlink:href="#R"/><use transform="matrix(0.07407407407407408,0,0,0.07407407407407408,106.37037037037038,0)" xlink:href="#S"/><use transform="matrix(0.07407407407407408,0,0,0.07407407407407408,113.7777777777778,0)" xlink:href="#ab"/><use transform="matrix(0.07407407407407408,0,0,0.07407407407407408,130,0)" xlink:href="#an"/></g><path fill="#fff" d="M183-342c139 97 272 144 401 141 177-5 266-73 266-205 0-83-46-143-137-186-66-31-351-127-423-171-120-74-184-178-184-324 0-181 82-309 250-380 237-100 547-49 724 90l-107 195c-117-70-238-105-361-105-149 0-223 63-223 189 0 81 64 140 191 179 19 5 54 16 105 32 192 62 321 144 388 246 41 63 61 141 61 234 0 173-87 302-265 376C603 79 286 20 77-135" id="ao"/><path fill="#fff" d="M94-548c0-302 191-568 483-568 311 0 493 270 482 633H370c7 207 93 311 256 311 93 0 196-46 308-137l103 144C907-40 760 22 595 22 293 22 94-237 94-548zm282-120h403c-18-170-85-255-202-255s-184 85-201 255" id="ap"/><path fill="#fff" d="M711-687c-7-170-35-229-188-230-74 0-147 18-220 53l-88-179c111-51 229-76 353-76 303 0 405 148 405 459V0H717v-81C651-13 566 21 461 21 236 21 81-120 81-346c0-158 85-260 254-311 103-31 245-40 376-30zM326-329c0 101 84 155 189 155 91 0 157-36 196-109v-226c-23-4-49-6-78-6-205 0-307 62-307 186" id="aq"/><path fill="#fff" d="M431-770V0H168v-1094h263v110c156-133 232-175 396-74l-84 220c-129-52-218-25-312 68" id="ar"/><path fill="#fff" d="M94-547c0-294 207-569 494-569 131 0 260 50 386 150L872-811c-96-74-188-111-277-112-163-2-225 186-225 376 0 251 82 377 246 377 81 0 168-36 260-107l103 137C862-32 733 22 593 22 292 22 94-208 94-547" id="as"/><path fill="#fff" d="M784-1116c178 0 282 88 282 264V0H803v-754c0-92-46-138-138-138-74 0-152 32-234 95V0H168v-1580h263v579c117-77 234-115 353-115" id="at"/><g id="i"><use transform="matrix(0.0087890625,0,0,0.0087890625,0,0)" xlink:href="#ao"/><use transform="matrix(0.0087890625,0,0,0.0087890625,10.7841796875,0)" xlink:href="#ap"/><use transform="matrix(0.0087890625,0,0,0.0087890625,20.91796875,0)" xlink:href="#aq"/><use transform="matrix(0.0087890625,0,0,0.0087890625,30.8232421875,0)" xlink:href="#ar"/><use transform="matrix(0.0087890625,0,0,0.0087890625,37.65234375,0)" xlink:href="#as"/><use transform="matrix(0.0087890625,0,0,0.0087890625,46.2568359375,0)" xlink:href="#at"/><use transform="matrix(0.0087890625,0,0,0.0087890625,56.9794921875,0)" xlink:href="#ap"/><use transform="matrix(0.0087890625,0,0,0.0087890625,67.11328125,0)" xlink:href="#ar"/></g><path fill="#fff" d="M421-36L25-1094h272l251 717 263-717h249L649 1c-97 251-201 366-459 445L96 279c173-62 281-167 325-315" id="au"/><path fill="#fff" d="M925-326c0 213-197 348-437 348C341 22 194-16 47-93l93-183c121 69 236 103 345 103s164-42 164-127c0-41-24-75-72-100-19-10-61-25-126-44-165-49-270-109-315-179-27-41-40-94-40-158 0-210 193-335 432-335 111 0 229 34 354 103l-83 176c-101-56-191-84-271-84-107 0-161 40-161 121 0 37 23 66 70 89 16 12 285 99 327 123 105 60 161 144 161 262" id="av"/><path fill="#fff" d="M503-384c-2 129 8 204 107 204 41 0 91-13 150-38l66 171C737-1 639 22 533 22c-230-2-293-122-293-358v-559H42v-199h198v-395h263v395h265v199H503v511" id="aw"/><path fill="#fff" d="M1420-1116c172-1 282 89 282 264V0h-263v-754c0-92-46-138-138-138-75 0-153 30-235 90V0H803v-754c0-92-46-138-138-138-71 0-149 30-234 90V0H168v-1094h263v93c117-77 234-115 353-115 121 0 206 45 254 134 124-89 251-134 382-134" id="ax"/><g id="j"><use transform="matrix(0.0087890625,0,0,0.0087890625,0,0)" xlink:href="#ao"/><use transform="matrix(0.0087890625,0,0,0.0087890625,10.7841796875,0)" xlink:href="#au"/><use transform="matrix(0.0087890625,0,0,0.0087890625,20.3203125,0)" xlink:href="#av"/><use transform="matrix(0.0087890625,0,0,0.0087890625,29.14453125,0)" xlink:href="#aw"/><use transform="matrix(0.0087890625,0,0,0.0087890625,36.24609375,0)" xlink:href="#ap"/><use transform="matrix(0.0087890625,0,0,0.0087890625,46.3798828125,0)" xlink:href="#ax"/></g><path fill="#fff" d="M478 0H205v-1489h859v219H478v389h485v219H478V0" id="ay"/><path fill="#fff" d="M102-744c-7-402 254-768 642-768 139 0 270 41 393 124l-138 175c-77-55-161-82-252-82-144 0-247 85-308 256-31 85-46 183-46 295 0 228 53 391 167 482 144 115 312 73 466-35l124 172C930 61 588 78 365-105 204-237 107-456 102-744" id="az"/><path fill="#fff" d="M736-1293c-233 0-343 288-343 549 0 222 54 382 163 479 68 60 150 86 248 60L632-457h252l87 128c191-263 138-964-235-964zM937-12C751 56 550 23 403-80 224-205 101-446 102-744c2-299 128-540 311-667 192-134 466-131 654 5 174 126 303 370 302 662 0 265-85 473-255 624l199 290h-251" id="aA"/><g id="k"><use transform="matrix(0.0087890625,0,0,0.0087890625,0,0)" xlink:href="#ay"/><use transform="matrix(0.0087890625,0,0,0.0087890625,9.8525390625,0)" xlink:href="#az"/><use transform="matrix(0.0087890625,0,0,0.0087890625,19.9599609375,0)" xlink:href="#aA"/></g><path fill="#fff" d="M1282-743c0 396-250 743-634 743H205v-1489h417c437-2 660 295 660 746zM637-225c233 9 365-240 365-518 0-216-61-366-177-458-90-72-200-63-346-63v1039h158" id="aB"/><path fill="#fff" d="M1113-589c0 325-126 613-421 611-108 0-198-32-271-96V0H168v-1580h263v560c76-64 164-96 265-96 269 0 417 244 417 527zM431-818v553c64 56 127 84 189 84 145 0 218-134 218-402 0-214-68-321-203-321-67 0-135 29-204 86" id="aC"/><g id="l"><use transform="matrix(0.0087890625,0,0,0.0087890625,0,0)" xlink:href="#aB"/><use transform="matrix(0.0087890625,0,0,0.0087890625,12.1640625,0)" xlink:href="#aq"/><use transform="matrix(0.0087890625,0,0,0.0087890625,22.0693359375,0)" xlink:href="#aw"/><use transform="matrix(0.0087890625,0,0,0.0087890625,29.1708984375,0)" xlink:href="#aq"/><use transform="matrix(0.0087890625,0,0,0.0087890625,39.076171875,0)" xlink:href="#aC"/><use transform="matrix(0.0087890625,0,0,0.0087890625,49.6845703125,0)" xlink:href="#aq"/><use transform="matrix(0.0087890625,0,0,0.0087890625,59.58984375,0)" xlink:href="#av"/><use transform="matrix(0.0087890625,0,0,0.0087890625,68.4140625,0)" xlink:href="#ap"/></g><path fill="#3d4752" d="M102-744c-7-402 254-768 642-768 139 0 270 41 393 124l-138 175c-77-55-161-82-252-82-144 0-247 85-308 256-31 85-46 183-46 295 0 228 53 391 167 482 144 115 312 73 466-35l124 172C930 61 588 78 365-105 204-237 107-456 102-744" id="aD"/><path fill="#3d4752" d="M446 22C216 22 155-90 155-336v-1244h263v1196c0 75 6 126 18 153 27 62 110 61 177 31l67 172C603 5 525 22 446 22" id="aE"/><path fill="#3d4752" d="M431-1094V0H168v-1094h263zm0-190H168v-296h263v296" id="aF"/><path fill="#3d4752" d="M94-547c0-294 207-569 494-569 131 0 260 50 386 150L872-811c-96-74-188-111-277-112-163-2-225 186-225 376 0 251 82 377 246 377 81 0 168-36 260-107l103 137C862-32 733 22 593 22 292 22 94-208 94-547" id="aG"/><path fill="#3d4752" d="M1152 0H835L431-519V0H168v-1580h263v869l332-383h308L654-620" id="aH"/><path fill="#3d4752" d="M925-326c0 213-197 348-437 348C341 22 194-16 47-93l93-183c121 69 236 103 345 103s164-42 164-127c0-41-24-75-72-100-19-10-61-25-126-44-165-49-270-109-315-179-27-41-40-94-40-158 0-210 193-335 432-335 111 0 229 34 354 103l-83 176c-101-56-191-84-271-84-107 0-161 40-161 121 0 37 23 66 70 89 16 12 285 99 327 123 105 60 161 144 161 262" id="aI"/><g id="m"><use transform="matrix(0.0087890625,0,0,0.0087890625,0,0)" xlink:href="#aD"/><use transform="matrix(0.0087890625,0,0,0.0087890625,10.107421875,0)" xlink:href="#aE"/><use transform="matrix(0.0087890625,0,0,0.0087890625,15.802734375,0)" xlink:href="#aF"/><use transform="matrix(0.0087890625,0,0,0.0087890625,21.0673828125,0)" xlink:href="#aG"/><use transform="matrix(0.0087890625,0,0,0.0087890625,29.671875,0)" xlink:href="#aH"/><use transform="matrix(0.0087890625,0,0,0.0087890625,39.6123046875,0)" xlink:href="#aI"/></g><path fill="#3d4752" d="M578-1116c196 0 337 93 423 279 40 87 60 183 60 290 0 225-77 390-230 494-74 50-158 75-253 75-197 0-338-93-424-279-40-87-60-183-60-290 0-226 77-391 231-495 73-49 158-74 253-74zm0 194c-139 0-208 125-208 375s69 375 208 375c138 0 207-125 207-375s-69-375-207-375" id="aJ"/><path fill="#3d4752" d="M783-1116c173 0 283 89 283 264V0H803v-754c0-92-46-138-139-138-73 0-151 30-233 91V0H168v-1094h263v93c117-77 234-115 352-115" id="aK"/><g id="n"><use transform="matrix(0.0087890625,0,0,0.0087890625,0,0)" xlink:href="#aJ"/><use transform="matrix(0.0087890625,0,0,0.0087890625,10.1513671875,0)" xlink:href="#aK"/></g><path fill="#3d4752" d="M183-342c139 97 272 144 401 141 177-5 266-73 266-205 0-83-46-143-137-186-66-31-351-127-423-171-120-74-184-178-184-324 0-181 82-309 250-380 237-100 547-49 724 90l-107 195c-117-70-238-105-361-105-149 0-223 63-223 189 0 81 64 140 191 179 19 5 54 16 105 32 192 62 321 144 388 246 41 63 61 141 61 234 0 173-87 302-265 376C603 79 286 20 77-135" id="aL"/><path fill="#3d4752" d="M94-548c0-302 191-568 483-568 311 0 493 270 482 633H370c7 207 93 311 256 311 93 0 196-46 308-137l103 144C907-40 760 22 595 22 293 22 94-237 94-548zm282-120h403c-18-170-85-255-202-255s-184 85-201 255" id="aM"/><path fill="#3d4752" d="M711-687c-7-170-35-229-188-230-74 0-147 18-220 53l-88-179c111-51 229-76 353-76 303 0 405 148 405 459V0H717v-81C651-13 566 21 461 21 236 21 81-120 81-346c0-158 85-260 254-311 103-31 245-40 376-30zM326-329c0 101 84 155 189 155 91 0 157-36 196-109v-226c-23-4-49-6-78-6-205 0-307 62-307 186" id="aN"/><path fill="#3d4752" d="M431-770V0H168v-1094h263v110c156-133 232-175 396-74l-84 220c-129-52-218-25-312 68" id="aO"/><path fill="#3d4752" d="M784-1116c178 0 282 88 282 264V0H803v-754c0-92-46-138-138-138-74 0-152 32-234 95V0H168v-1580h263v579c117-77 234-115 353-115" id="aP"/><g id="o"><use transform="matrix(0.0087890625,0,0,0.0087890625,0,0)" xlink:href="#aL"/><use transform="matrix(0.0087890625,0,0,0.0087890625,10.7841796875,0)" xlink:href="#aM"/><use transform="matrix(0.0087890625,0,0,0.0087890625,20.91796875,0)" xlink:href="#aN"/><use transform="matrix(0.0087890625,0,0,0.0087890625,30.8232421875,0)" xlink:href="#aO"/><use transform="matrix(0.0087890625,0,0,0.0087890625,37.65234375,0)" xlink:href="#aG"/><use transform="matrix(0.0087890625,0,0,0.0087890625,46.2568359375,0)" xlink:href="#aP"/></g><g id="p"><use transform="matrix(0.0087890625,0,0,0.0087890625,0,0)" xlink:href="#aF"/><use transform="matrix(0.0087890625,0,0,0.0087890625,5.2646484375,0)" xlink:href="#aK"/></g><path fill="#3d4752" d="M452 0L25-1094h272l252 709 263-709h249L634 0H452" id="aQ"/><path fill="#3d4752" d="M1040 13c1 285-186 425-480 425-155 0-288-42-397-127l107-153c86 57 175 86 266 86 162 0 243-86 243-258v-81C700-18 607 20 498 20c-167 0-286-84-355-253-33-79-49-170-49-272 0-252 66-428 193-533 131-108 361-101 490 7v-64h263V13zM777-276v-551c-65-56-128-84-191-84-145 0-217 133-217 399 0 214 67 321 202 321 71 0 139-28 206-85" id="aR"/><path fill="#3d4752" d="M503-384c-2 129 8 204 107 204 41 0 91-13 150-38l66 171C737-1 639 22 533 22c-230-2-293-122-293-358v-559H42v-199h198v-395h263v395h265v199H503v511" id="aS"/><g id="q"><use transform="matrix(0.0087890625,0,0,0.0087890625,0,0)" xlink:href="#aK"/><use transform="matrix(0.0087890625,0,0,0.0087890625,10.72265625,0)" xlink:href="#aN"/><use transform="matrix(0.0087890625,0,0,0.0087890625,20.6279296875,0)" xlink:href="#aQ"/><use transform="matrix(0.0087890625,0,0,0.0087890625,30.1728515625,0)" xlink:href="#aF"/><use transform="matrix(0.0087890625,0,0,0.0087890625,35.4375,0)" xlink:href="#aR"/><use transform="matrix(0.0087890625,0,0,0.0087890625,46.0546875,0)" xlink:href="#aN"/><use transform="matrix(0.0087890625,0,0,0.0087890625,55.9599609375,0)" xlink:href="#aS"/><use transform="matrix(0.0087890625,0,0,0.0087890625,63.0615234375,0)" xlink:href="#aF"/><use transform="matrix(0.0087890625,0,0,0.0087890625,68.326171875,0)" xlink:href="#aJ"/><use transform="matrix(0.0087890625,0,0,0.0087890625,78.4775390625,0)" xlink:href="#aK"/></g><path fill="#3d4752" d="M1420-1116c172-1 282 89 282 264V0h-263v-754c0-92-46-138-138-138-75 0-153 30-235 90V0H803v-754c0-92-46-138-138-138-71 0-149 30-234 90V0H168v-1094h263v93c117-77 234-115 353-115 121 0 206 45 254 134 124-89 251-134 382-134" id="aT"/><path fill="#3d4752" d="M437 22c-177 0-283-91-283-265v-851h263v755c0 91 46 137 139 137 75 0 152-32 233-95v-797h263V0H789v-93C670-16 552 22 437 22" id="aU"/><g id="r"><use transform="matrix(0.0087890625,0,0,0.0087890625,0,0)" xlink:href="#aT"/><use transform="matrix(0.0087890625,0,0,0.0087890625,16.3125,0)" xlink:href="#aM"/><use transform="matrix(0.0087890625,0,0,0.0087890625,26.4462890625,0)" xlink:href="#aK"/><use transform="matrix(0.0087890625,0,0,0.0087890625,37.1689453125,0)" xlink:href="#aU"/></g><path fill="#3d4752" d="M1064-219V0H205v-1489h859v219H478v389h485v219H478v443h586" id="aV"/><g id="s"><use transform="matrix(0.0087890625,0,0,0.0087890625,0,0)" xlink:href="#aV"/><use transform="matrix(0.0087890625,0,0,0.0087890625,10.2568359375,0)" xlink:href="#aK"/><use transform="matrix(0.0087890625,0,0,0.0087890625,20.9794921875,0)" xlink:href="#aS"/><use transform="matrix(0.0087890625,0,0,0.0087890625,28.0810546875,0)" xlink:href="#aM"/><use transform="matrix(0.0087890625,0,0,0.0087890625,38.21484375,0)" xlink:href="#aO"/><use transform="matrix(0.0087890625,0,0,0.0087890625,45.404296875,0)" xlink:href="#aI"/></g><path fill="#3d4752" d="M1019-219V0H205v-1489h273v1270h541" id="aW"/><path fill="#3d4752" d="M180-976l-37-513h255l-36 513H180" id="aX"/><g id="t"><use transform="matrix(0.0087890625,0,0,0.0087890625,0,0)" xlink:href="#aW"/><use transform="matrix(0.0087890625,0,0,0.0087890625,9.263671875,0)" xlink:href="#aM"/><use transform="matrix(0.0087890625,0,0,0.0087890625,19.3974609375,0)" xlink:href="#aG"/><use transform="matrix(0.0087890625,0,0,0.0087890625,28.4150390625,0)" xlink:href="#aS"/><use transform="matrix(0.0087890625,0,0,0.0087890625,35.5166015625,0)" xlink:href="#aU"/><use transform="matrix(0.0087890625,0,0,0.0087890625,46.2392578125,0)" xlink:href="#aO"/><use transform="matrix(0.0087890625,0,0,0.0087890625,53.068359375,0)" xlink:href="#aM"/><use transform="matrix(0.0087890625,0,0,0.0087890625,63.2021484375,0)" xlink:href="#aO"/><use transform="matrix(0.0087890625,0,0,0.0087890625,70.3916015625,0)" xlink:href="#aX"/><use transform="matrix(0.0087890625,0,0,0.0087890625,75.146484375,0)" xlink:href="#aI"/></g><path fill="#3d4752" d="M205 0v-1489h295l553 1011v-1011h267V0h-290L472-1024V0H205" id="aY"/><g id="u"><use transform="matrix(0.0087890625,0,0,0.0087890625,0,0)" xlink:href="#aY"/><use transform="matrix(0.0087890625,0,0,0.0087890625,13.4033203125,0)" xlink:href="#aN"/><use transform="matrix(0.0087890625,0,0,0.0087890625,23.30859375,0)" xlink:href="#aT"/><use transform="matrix(0.0087890625,0,0,0.0087890625,39.62109375,0)" xlink:href="#aM"/></g><path fill="#3d4752" d="M867-682L1342 0h-315L578-645H478V0H205v-1489h419c349 0 523 143 523 428 0 191-93 317-280 379zm-389-589v414h119c185 0 277-67 277-200 0-143-84-214-252-214H478" id="aZ"/><path fill="#3d4752" d="M729-499H112v-220h617v220" id="ba"/><path fill="#3d4752" d="M478 0H205v-1489h859v219H478v389h485v219H478V0" id="bb"/><g id="v"><use transform="matrix(0.0087890625,0,0,0.0087890625,0,0)" xlink:href="#aZ"/><use transform="matrix(0.0087890625,0,0,0.0087890625,11.794921875,0)" xlink:href="#aM"/><use transform="matrix(0.0087890625,0,0,0.0087890625,21.9287109375,0)" xlink:href="#ba"/><use transform="matrix(0.0087890625,0,0,0.0087890625,29.3203125,0)" xlink:href="#bb"/><use transform="matrix(0.0087890625,0,0,0.0087890625,38.8125,0)" xlink:href="#aJ"/><use transform="matrix(0.0087890625,0,0,0.0087890625,48.9638671875,0)" xlink:href="#aO"/><use transform="matrix(0.0087890625,0,0,0.0087890625,56.1533203125,0)" xlink:href="#aT"/><use transform="matrix(0.0087890625,0,0,0.0087890625,72.4658203125,0)" xlink:href="#aN"/><use transform="matrix(0.0087890625,0,0,0.0087890625,82.37109375,0)" xlink:href="#aS"/></g><g id="w"><use transform="matrix(0.0087890625,0,0,0.0087890625,0,0)" xlink:href="#aN"/><use transform="matrix(0.0087890625,0,0,0.0087890625,9.9052734375,0)" xlink:href="#aI"/></g><path fill="#3d4752" d="M180-976l-37-513h255l-36 513H180zm377 0l-37-513h255l-36 513H557" id="bc"/><path fill="#3d4752" d="M230 290H13l150-568h294" id="bd"/><g id="x"><use transform="matrix(0.0087890625,0,0,0.0087890625,0,0)" xlink:href="#bc"/><use transform="matrix(0.0087890625,0,0,0.0087890625,8.068359375,0)" xlink:href="#aW"/><use transform="matrix(0.0087890625,0,0,0.0087890625,17.33203125,0)" xlink:href="#aN"/><use transform="matrix(0.0087890625,0,0,0.0087890625,27.2373046875,0)" xlink:href="#aI"/><use transform="matrix(0.0087890625,0,0,0.0087890625,36.0615234375,0)" xlink:href="#aS"/><use transform="matrix(0.0087890625,0,0,0.0087890625,43.1630859375,0)" xlink:href="#aK"/><use transform="matrix(0.0087890625,0,0,0.0087890625,53.8857421875,0)" xlink:href="#aN"/><use transform="matrix(0.0087890625,0,0,0.0087890625,63.791015625,0)" xlink:href="#aT"/><use transform="matrix(0.0087890625,0,0,0.0087890625,80.103515625,0)" xlink:href="#aM"/><use transform="matrix(0.0087890625,0,0,0.0087890625,90.2373046875,0)" xlink:href="#bd"/></g><g id="y"><use transform="matrix(0.0087890625,0,0,0.0087890625,0,0)" xlink:href="#bb"/><use transform="matrix(0.0087890625,0,0,0.0087890625,9.8525390625,0)" xlink:href="#aF"/><use transform="matrix(0.0087890625,0,0,0.0087890625,15.1171875,0)" xlink:href="#aO"/><use transform="matrix(0.0087890625,0,0,0.0087890625,22.306640625,0)" xlink:href="#aI"/><use transform="matrix(0.0087890625,0,0,0.0087890625,31.130859375,0)" xlink:href="#aS"/><use transform="matrix(0.0087890625,0,0,0.0087890625,38.232421875,0)" xlink:href="#aK"/><use transform="matrix(0.0087890625,0,0,0.0087890625,48.955078125,0)" xlink:href="#aN"/><use transform="matrix(0.0087890625,0,0,0.0087890625,58.8603515625,0)" xlink:href="#aT"/><use transform="matrix(0.0087890625,0,0,0.0087890625,75.1728515625,0)" xlink:href="#aM"/><use transform="matrix(0.0087890625,0,0,0.0087890625,85.306640625,0)" xlink:href="#bc"/></g><path d="M180-976l-37-513h255l-36 513H180zm377 0l-37-513h255l-36 513H557" id="be"/><path d="M478 0H205v-1489h859v219H478v389h485v219H478V0" id="bf"/><path d="M431-1094V0H168v-1094h263zm0-190H168v-296h263v296" id="bg"/><path d="M431-770V0H168v-1094h263v110c156-133 232-175 396-74l-84 220c-129-52-218-25-312 68" id="bh"/><path d="M925-326c0 213-197 348-437 348C341 22 194-16 47-93l93-183c121 69 236 103 345 103s164-42 164-127c0-41-24-75-72-100-19-10-61-25-126-44-165-49-270-109-315-179-27-41-40-94-40-158 0-210 193-335 432-335 111 0 229 34 354 103l-83 176c-101-56-191-84-271-84-107 0-161 40-161 121 0 37 23 66 70 89 16 12 285 99 327 123 105 60 161 144 161 262" id="bi"/><path d="M503-384c-2 129 8 204 107 204 41 0 91-13 150-38l66 171C737-1 639 22 533 22c-230-2-293-122-293-358v-559H42v-199h198v-395h263v395h265v199H503v511" id="bj"/><path d="M783-1116c173 0 283 89 283 264V0H803v-754c0-92-46-138-139-138-73 0-151 30-233 91V0H168v-1094h263v93c117-77 234-115 352-115" id="bk"/><path d="M711-687c-7-170-35-229-188-230-74 0-147 18-220 53l-88-179c111-51 229-76 353-76 303 0 405 148 405 459V0H717v-81C651-13 566 21 461 21 236 21 81-120 81-346c0-158 85-260 254-311 103-31 245-40 376-30zM326-329c0 101 84 155 189 155 91 0 157-36 196-109v-226c-23-4-49-6-78-6-205 0-307 62-307 186" id="bl"/><path d="M1420-1116c172-1 282 89 282 264V0h-263v-754c0-92-46-138-138-138-75 0-153 30-235 90V0H803v-754c0-92-46-138-138-138-71 0-149 30-234 90V0H168v-1094h263v93c117-77 234-115 353-115 121 0 206 45 254 134 124-89 251-134 382-134" id="bm"/><path d="M94-548c0-302 191-568 483-568 311 0 493 270 482 633H370c7 207 93 311 256 311 93 0 196-46 308-137l103 144C907-40 760 22 595 22 293 22 94-237 94-548zm282-120h403c-18-170-85-255-202-255s-184 85-201 255" id="bn"/><g id="z"><use transform="matrix(0.0087890625,0,0,0.0087890625,0,0)" xlink:href="#be"/><use transform="matrix(0.0087890625,0,0,0.0087890625,8.068359375,0)" xlink:href="#bf"/><use transform="matrix(0.0087890625,0,0,0.0087890625,17.9208984375,0)" xlink:href="#bg"/><use transform="matrix(0.0087890625,0,0,0.0087890625,23.185546875,0)" xlink:href="#bh"/><use transform="matrix(0.0087890625,0,0,0.0087890625,30.375,0)" xlink:href="#bi"/><use transform="matrix(0.0087890625,0,0,0.0087890625,39.19921875,0)" xlink:href="#bj"/><use transform="matrix(0.0087890625,0,0,0.0087890625,46.30078125,0)" xlink:href="#bk"/><use transform="matrix(0.0087890625,0,0,0.0087890625,57.0234375,0)" xlink:href="#bl"/><use transform="matrix(0.0087890625,0,0,0.0087890625,66.9287109375,0)" xlink:href="#bm"/><use transform="matrix(0.0087890625,0,0,0.0087890625,83.2412109375,0)" xlink:href="#bn"/></g><path d="M1019-219V0H205v-1489h273v1270h541" id="bo"/><g id="A"><use transform="matrix(0.0087890625,0,0,0.0087890625,0,0)" xlink:href="#bo"/><use transform="matrix(0.0087890625,0,0,0.0087890625,9.263671875,0)" xlink:href="#bl"/><use transform="matrix(0.0087890625,0,0,0.0087890625,19.1689453125,0)" xlink:href="#bi"/><use transform="matrix(0.0087890625,0,0,0.0087890625,27.9931640625,0)" xlink:href="#bj"/><use transform="matrix(0.0087890625,0,0,0.0087890625,35.0947265625,0)" xlink:href="#bk"/><use transform="matrix(0.0087890625,0,0,0.0087890625,45.8173828125,0)" xlink:href="#bl"/><use transform="matrix(0.0087890625,0,0,0.0087890625,55.72265625,0)" xlink:href="#bm"/><use transform="matrix(0.0087890625,0,0,0.0087890625,72.03515625,0)" xlink:href="#bn"/><use transform="matrix(0.0087890625,0,0,0.0087890625,82.1689453125,0)" xlink:href="#be"/></g><path d="M230 290H13l150-568h294" id="bp"/><g id="B"><use transform="matrix(0.0087890625,0,0,0.0087890625,0,0)" xlink:href="#be"/><use transform="matrix(0.0087890625,0,0,0.0087890625,8.068359375,0)" xlink:href="#bo"/><use transform="matrix(0.0087890625,0,0,0.0087890625,17.33203125,0)" xlink:href="#bl"/><use transform="matrix(0.0087890625,0,0,0.0087890625,27.2373046875,0)" xlink:href="#bi"/><use transform="matrix(0.0087890625,0,0,0.0087890625,36.0615234375,0)" xlink:href="#bj"/><use transform="matrix(0.0087890625,0,0,0.0087890625,43.1630859375,0)" xlink:href="#bk"/><use transform="matrix(0.0087890625,0,0,0.0087890625,53.8857421875,0)" xlink:href="#bl"/><use transform="matrix(0.0087890625,0,0,0.0087890625,63.791015625,0)" xlink:href="#bm"/><use transform="matrix(0.0087890625,0,0,0.0087890625,80.103515625,0)" xlink:href="#bn"/><use transform="matrix(0.0087890625,0,0,0.0087890625,90.2373046875,0)" xlink:href="#bp"/></g><g id="C"><use transform="matrix(0.0087890625,0,0,0.0087890625,0,0)" xlink:href="#bf"/><use transform="matrix(0.0087890625,0,0,0.0087890625,9.8525390625,0)" xlink:href="#bg"/><use transform="matrix(0.0087890625,0,0,0.0087890625,15.1171875,0)" xlink:href="#bh"/><use transform="matrix(0.0087890625,0,0,0.0087890625,22.306640625,0)" xlink:href="#bi"/><use transform="matrix(0.0087890625,0,0,0.0087890625,31.130859375,0)" xlink:href="#bj"/><use transform="matrix(0.0087890625,0,0,0.0087890625,38.232421875,0)" xlink:href="#bk"/><use transform="matrix(0.0087890625,0,0,0.0087890625,48.955078125,0)" xlink:href="#bl"/><use transform="matrix(0.0087890625,0,0,0.0087890625,58.8603515625,0)" xlink:href="#bm"/><use transform="matrix(0.0087890625,0,0,0.0087890625,75.1728515625,0)" xlink:href="#bn"/><use transform="matrix(0.0087890625,0,0,0.0087890625,85.306640625,0)" xlink:href="#be"/></g><g id="D"><use transform="matrix(0.0087890625,0,0,0.0087890625,0,0)" xlink:href="#aD"/><use transform="matrix(0.0087890625,0,0,0.0087890625,10.107421875,0)" xlink:href="#aO"/><use transform="matrix(0.0087890625,0,0,0.0087890625,16.9365234375,0)" xlink:href="#aM"/><use transform="matrix(0.0087890625,0,0,0.0087890625,27.0703125,0)" xlink:href="#aN"/><use transform="matrix(0.0087890625,0,0,0.0087890625,36.9755859375,0)" xlink:href="#aS"/><use transform="matrix(0.0087890625,0,0,0.0087890625,44.0771484375,0)" xlink:href="#aM"/></g><path fill="#3d4752" d="M1282-743c0 396-250 743-634 743H205v-1489h417c437-2 660 295 660 746zM637-225c233 9 365-240 365-518 0-216-61-366-177-458-90-72-200-63-346-63v1039h158" id="bq"/><path fill="#3d4752" d="M1113-589c0 325-126 613-421 611-108 0-198-32-271-96V0H168v-1580h263v560c76-64 164-96 265-96 269 0 417 244 417 527zM431-818v553c64 56 127 84 189 84 145 0 218-134 218-402 0-214-68-321-203-321-67 0-135 29-204 86" id="br"/><g id="E"><use transform="matrix(0.0087890625,0,0,0.0087890625,0,0)" xlink:href="#bq"/><use transform="matrix(0.0087890625,0,0,0.0087890625,12.1640625,0)" xlink:href="#aN"/><use transform="matrix(0.0087890625,0,0,0.0087890625,22.0693359375,0)" xlink:href="#aS"/><use transform="matrix(0.0087890625,0,0,0.0087890625,29.1708984375,0)" xlink:href="#aN"/><use transform="matrix(0.0087890625,0,0,0.0087890625,39.076171875,0)" xlink:href="#br"/><use transform="matrix(0.0087890625,0,0,0.0087890625,49.6845703125,0)" xlink:href="#aN"/><use transform="matrix(0.0087890625,0,0,0.0087890625,59.58984375,0)" xlink:href="#aI"/><use transform="matrix(0.0087890625,0,0,0.0087890625,68.4140625,0)" xlink:href="#aM"/></g><path fill="#3d4752" d="M736-1293c-233 0-343 288-343 549 0 222 54 382 163 479 68 60 150 86 248 60L632-457h252l87 128c191-263 138-964-235-964zM937-12C751 56 550 23 403-80 224-205 101-446 102-744c2-299 128-540 311-667 192-134 466-131 654 5 174 126 303 370 302 662 0 265-85 473-255 624l199 290h-251" id="bs"/><path fill="#3d4752" d="M421-36L25-1094h272l251 717 263-717h249L649 1c-97 251-201 366-459 445L96 279c173-62 281-167 325-315" id="bt"/><g id="F"><use transform="matrix(0.0087890625,0,0,0.0087890625,0,0)" xlink:href="#bs"/><use transform="matrix(0.0087890625,0,0,0.0087890625,12.9287109375,0)" xlink:href="#aU"/><use transform="matrix(0.0087890625,0,0,0.0087890625,23.6513671875,0)" xlink:href="#aM"/><use transform="matrix(0.0087890625,0,0,0.0087890625,33.78515625,0)" xlink:href="#aO"/><use transform="matrix(0.0087890625,0,0,0.0087890625,41.3349609375,0)" xlink:href="#bt"/></g><path fill="#3d4752" d="M205-1489h426c365 0 548 153 548 458S998-573 635-573H478V0H205v-1489zm273 219v478h161c177 0 265-80 265-239s-88-239-265-239H478" id="bu"/><g id="G"><use transform="matrix(0.0087890625,0,0,0.0087890625,0,0)" xlink:href="#bu"/><use transform="matrix(0.0087890625,0,0,0.0087890625,11.1357421875,0)" xlink:href="#aO"/><use transform="matrix(0.0087890625,0,0,0.0087890625,17.96484375,0)" xlink:href="#aJ"/><use transform="matrix(0.0087890625,0,0,0.0087890625,28.1162109375,0)" xlink:href="#aG"/><use transform="matrix(0.0087890625,0,0,0.0087890625,36.720703125,0)" xlink:href="#aM"/><use transform="matrix(0.0087890625,0,0,0.0087890625,46.8544921875,0)" xlink:href="#aI"/><use transform="matrix(0.0087890625,0,0,0.0087890625,55.6787109375,0)" xlink:href="#aI"/></g><path fill="#3d4752" d="M690-1116c279 0 423 232 423 527 0 261-67 439-196 539C782 54 551 41 431-69v481H168v-1506h253v93c71-77 160-115 269-115zM431-810v545c64 56 127 84 189 84 145 0 218-134 218-402 0-214-68-321-203-321-71 0-139 31-204 94" id="bv"/><g id="H"><use transform="matrix(0.0087890625,0,0,0.0087890625,0,0)" xlink:href="#bq"/><use transform="matrix(0.0087890625,0,0,0.0087890625,12.1640625,0)" xlink:href="#aF"/><use transform="matrix(0.0087890625,0,0,0.0087890625,17.4287109375,0)" xlink:href="#aI"/><use transform="matrix(0.0087890625,0,0,0.0087890625,26.2529296875,0)" xlink:href="#bv"/><use transform="matrix(0.0087890625,0,0,0.0087890625,36.861328125,0)" xlink:href="#aE"/><use transform="matrix(0.0087890625,0,0,0.0087890625,42.556640625,0)" xlink:href="#aN"/><use transform="matrix(0.0087890625,0,0,0.0087890625,52.4619140625,0)" xlink:href="#bt"/></g><g id="I"><use transform="matrix(0.0087890625,0,0,0.0087890625,0,0)" xlink:href="#aV"/><use transform="matrix(0.0087890625,0,0,0.0087890625,10.2568359375,0)" xlink:href="#aO"/><use transform="matrix(0.0087890625,0,0,0.0087890625,17.4462890625,0)" xlink:href="#aO"/><use transform="matrix(0.0087890625,0,0,0.0087890625,24.275390625,0)" xlink:href="#aJ"/><use transform="matrix(0.0087890625,0,0,0.0087890625,34.4267578125,0)" xlink:href="#aO"/></g><path fill="#3d4752" d="M94-505c0-321 128-611 419-611 101 0 188 30 263 91v-555h263V-1H787v-91C712-16 620 22 509 22c-171 0-293-85-364-254-34-81-51-172-51-273zm682 228v-551c-64-56-127-84-189-84-145 0-218 134-218 401 0 213 68 320 203 320 69 0 137-29 204-86" id="bw"/><g id="J"><use transform="matrix(0.0087890625,0,0,0.0087890625,0,0)" xlink:href="#aZ"/><use transform="matrix(0.0087890625,0,0,0.0087890625,11.794921875,0)" xlink:href="#aM"/><use transform="matrix(0.0087890625,0,0,0.0087890625,21.9287109375,0)" xlink:href="#bw"/><use transform="matrix(0.0087890625,0,0,0.0087890625,32.537109375,0)" xlink:href="#aF"/><use transform="matrix(0.0087890625,0,0,0.0087890625,37.8017578125,0)" xlink:href="#aO"/><use transform="matrix(0.0087890625,0,0,0.0087890625,44.630859375,0)" xlink:href="#aM"/><use transform="matrix(0.0087890625,0,0,0.0087890625,54.7646484375,0)" xlink:href="#aG"/><use transform="matrix(0.0087890625,0,0,0.0087890625,63.7822265625,0)" xlink:href="#aS"/></g><g id="K"><use transform="matrix(0.0087890625,0,0,0.0087890625,0,0)" xlink:href="#aS"/><use transform="matrix(0.0087890625,0,0,0.0087890625,7.1015625,0)" xlink:href="#aJ"/></g><path fill="#3d4752" d="M718 23c-304 0-533-125-532-410v-1102h272v1066c0 151 87 227 260 227 174 0 261-76 261-227v-1066h272v1102c8 267-231 410-533 410" id="bx"/><path fill="#3d4752" d="M1233-744c0 399-195 768-565 768-181 0-323-79-425-237-94-145-141-322-141-531 0-297 85-517 254-660 85-72 189-108 312-108 370 0 565 369 565 768zm-565-554c-125 0-209 90-253 271-20 82-30 176-30 283 0 225 42 385 125 481 43 49 95 74 158 74 125 0 209-91 252-272 20-83 30-178 30-283 0-227-41-387-123-481-42-49-95-73-159-73" id="by"/><path fill="#3d4752" d="M370-189c227 0 373-85 373-303 0-169-129-251-388-248-51 1-95 3-133 8v-141l391-391H40v-225h907v199L592-932c107 3 203 37 288 101 101 75 151 187 151 336 0 346-290 524-655 524-115 0-225-16-328-49v-231c126 41 233 62 322 62" id="bz"/><g id="L"><use transform="matrix(0.0087890625,0,0,0.0087890625,0,0)" xlink:href="#bx"/><use transform="matrix(0.0087890625,0,0,0.0087890625,12.6298828125,0)" xlink:href="#aL"/><use transform="matrix(0.0087890625,0,0,0.0087890625,23.4140625,0)" xlink:href="#ba"/><use transform="matrix(0.0087890625,0,0,0.0087890625,30.8056640625,0)" xlink:href="#by"/><use transform="matrix(0.0087890625,0,0,0.0087890625,42.5390625,0)" xlink:href="#bz"/></g><path d="M137 0h-34L2-248h35l83 218 83-218h36" id="bA"/><path d="M141-36C126-15 110 5 73 4 37 3 15-17 15-53c-1-64 63-63 125-63 3-35-9-54-41-54-24 1-41 7-42 31l-33-3c5-37 33-52 76-52 45 0 72 20 72 64v82c-1 20 7 32 28 27v20c-31 9-61-2-59-35zM48-53c0 20 12 33 32 33 41-3 63-29 60-74-43 2-92-5-92 41" id="bB"/><path d="M24 0v-261h32V0H24" id="bC"/><path d="M24-231v-30h32v30H24zM24 0v-190h32V0H24" id="bD"/><path d="M85-194c31 0 48 13 60 33l-1-100h32l1 261h-30c-2-10 0-23-3-31C134-8 116 4 85 4 32 4 16-35 15-94c0-66 23-100 70-100zm9 24c-40 0-46 34-46 75 0 40 6 74 45 74 42 0 51-32 51-76 0-42-9-74-50-73" id="bE"/><g id="M"><use transform="matrix(0.05,0,0,0.05,0,0)" xlink:href="#bA"/><use transform="matrix(0.05,0,0,0.05,10.65,0)" xlink:href="#bB"/><use transform="matrix(0.05,0,0,0.05,20.65,0)" xlink:href="#bC"/><use transform="matrix(0.05,0,0,0.05,24.599999999999998,0)" xlink:href="#bD"/><use transform="matrix(0.05,0,0,0.05,28.549999999999997,0)" xlink:href="#bE"/></g><path d="M30-248c118-7 216 8 213 122C240-48 200 0 122 0H30v-248zM63-27c89 8 146-16 146-99s-60-101-146-95v194" id="bF"/><path d="M59-47c-2 24 18 29 38 22v24C64 9 27 4 27-40v-127H5v-23h24l9-43h21v43h35v23H59v120" id="bG"/><g id="N"><use transform="matrix(0.05,0,0,0.05,0,0)" xlink:href="#bF"/><use transform="matrix(0.05,0,0,0.05,12.950000000000001,0)" xlink:href="#bB"/><use transform="matrix(0.05,0,0,0.05,22.950000000000003,0)" xlink:href="#bG"/><use transform="matrix(0.05,0,0,0.05,27.950000000000003,0)" xlink:href="#bB"/></g><path d="M33 0v-248h34V0H33" id="bH"/><path d="M117-194c89-4 53 116 60 194h-32v-121c0-31-8-49-39-48C34-167 62-67 57 0H25l-1-190h30c1 10-1 24 2 32 11-22 29-35 61-36" id="bI"/><path d="M108 0H70L1-190h34L89-25l56-165h34" id="bJ"/><g id="O"><use transform="matrix(0.05,0,0,0.05,0,0)" xlink:href="#bH"/><use transform="matrix(0.05,0,0,0.05,5,0)" xlink:href="#bI"/><use transform="matrix(0.05,0,0,0.05,15,0)" xlink:href="#bJ"/><use transform="matrix(0.05,0,0,0.05,24,0)" xlink:href="#bB"/><use transform="matrix(0.05,0,0,0.05,34,0)" xlink:href="#bC"/><use transform="matrix(0.05,0,0,0.05,37.95,0)" xlink:href="#bD"/><use transform="matrix(0.05,0,0,0.05,41.900000000000006,0)" xlink:href="#bE"/></g></defs></g></svg>