<svg xmlns="http://www.w3.org/2000/svg" xmlns:xlink="http://www.w3.org/1999/xlink" xmlns:lucid="lucid" width="1737.62" height="1067.12"><g transform="translate(-12 -12)" lucid:page-tab-id="0_0"><path d="M919.34 100c397.28 0 719.33 214.7 719.33 479.56 0 264.85-322.05 479.56-719.33 479.56-397.28 0-719.34-214.7-719.34-479.56C200 314.7 522.06 100 919.34 100z" stroke="#666" stroke-width="2" fill="none"/><path d="M480 579.56c0 33.14-35.82 60-80 60s-80-26.86-80-60 35.82-60 80-60 80 26.86 80 60z" stroke="#666" stroke-width="2" fill="#fff"/><use xlink:href="#a" transform="matrix(1,0,0,1,320,519.5581218108061) translate(50.029999999999994 63.15)"/><path d="M1200 571c0 33.14-35.82 60-80 60s-80-26.86-80-60 35.82-60 80-60 80 26.86 80 60z" stroke="#666" stroke-width="2" fill="#fff"/><use xlink:href="#b" transform="matrix(1,0,0,1,1040,511) translate(22.12999999999999 63.15)"/><use xlink:href="#c" transform="matrix(1,0,0,1,1040,511) translate(91.03 63.15)"/><path d="M960 450.56c0 33.14-35.82 60-80 60s-80-26.86-80-60 35.82-60 80-60 80 26.86 80 60z" stroke="#666" stroke-width="2" fill="#fff"/><use xlink:href="#d" transform="matrix(1,0,0,1,799.9999999999998,390.55812181080597) translate(38.555 51.9)"/><use xlink:href="#e" transform="matrix(1,0,0,1,799.9999999999998,390.55812181080597) translate(73.505 51.9)"/><use xlink:href="#f" transform="matrix(1,0,0,1,799.9999999999998,390.55812181080597) translate(30.654999999999994 73.5)"/><path d="M160 579.56h159" stroke="#999" stroke-width="2" fill="none"/><path fill="#999"/><path d="M320 579.56v.38l.03.62H319v-2h1.03z" fill="#999"/><path d="M740 579.56c0 33.14-35.82 60-80 60s-80-26.86-80-60 35.82-60 80-60 80 26.86 80 60z" stroke="#666" stroke-width="2" fill="#fff"/><use xlink:href="#g" transform="matrix(1,0,0,1,580,519.5581218108061) translate(45.129999999999995 40.65)"/><use xlink:href="#h" transform="matrix(1,0,0,1,580,519.5581218108061) translate(92.97999999999999 40.65)"/><use xlink:href="#i" transform="matrix(1,0,0,1,580,519.5581218108061) translate(20.179999999999993 62.25)"/><use xlink:href="#j" transform="matrix(1,0,0,1,580,519.5581218108061) translate(123.88 62.25)"/><use xlink:href="#k" transform="matrix(1,0,0,1,580,519.5581218108061) translate(45.60499999999999 83.85000000000001)"/><use xlink:href="#l" transform="matrix(1,0,0,1,580,519.5581218108061) translate(88.505 83.85000000000001)"/><path d="M32 37c0-2.76 2.24-5 5-5h838c2.76 0 5 2.24 5 5v38c0 2.76-2.24 5-5 5H37c-2.76 0-5-2.24-5-5z" fill="none"/><use xlink:href="#m" transform="matrix(1,0,0,1,32,32) translate(0 31.11111111111111)"/><use xlink:href="#n" transform="matrix(1,0,0,1,32,32) translate(167.40740740740745 31.11111111111111)"/><use xlink:href="#o" transform="matrix(1,0,0,1,32,32) translate(360.5925925925926 31.11111111111111)"/><path d="M1040 37c0-2.76 2.24-5 5-5h678c2.76 0 5 2.24 5 5v38c0 2.76-2.24 5-5 5h-678c-2.76 0-5-2.24-5-5z" fill="none"/><use xlink:href="#p" transform="matrix(1,0,0,1,1040,32) translate(129.72839506173386 28.4444444444444)"/><use xlink:href="#q" transform="matrix(1,0,0,1,1040,32) translate(181.51851851852348 28.4444444444444)"/><use xlink:href="#r" transform="matrix(1,0,0,1,1040,32) translate(314.72839506173204 28.4444444444444)"/><use xlink:href="#s" transform="matrix(1,0,0,1,1040,32) translate(393.61728395062016 28.4444444444444)"/><use xlink:href="#t" transform="matrix(1,0,0,1,1040,32) translate(482.44444444444645 28.4444444444444)"/><use xlink:href="#u" transform="matrix(1,0,0,1,1040,32) translate(506.70370370370546 28.4444444444444)"/><use xlink:href="#v" transform="matrix(1,0,0,1,1040,32) translate(601.580246913581 28.4444444444444)"/><use xlink:href="#w" transform="matrix(1,0,0,1,1040,32) translate(638.6172839506178 28.4444444444444)"/><path d="M139.75 509.3c0 10.92-8.84 19.76-19.75 19.76-10.9 0-19.75-8.84-19.75-19.75 0-10.9 8.84-19.74 19.75-19.74 10.9 0 19.75 8.84 19.75 19.75z" stroke="#666" stroke-width="2" fill="#fff"/><path d="M80 494.56c0-2.76 2.24-5 5-5h70c2.76 0 5 2.24 5 5v148c0 2.76-2.24 5-5 5H85c-2.76 0-5-2.24-5-5z" fill="none"/><path d="M120 529.06v50.3c0 2.76 1.2 6.9 2.67 9.22L160 647.56m-40-63.2l-40 63.2m0-98.75h80" stroke="#666" stroke-width="2" fill="none"/><use xlink:href="#x" transform="matrix(1,0,0,1,0,647.5581218108061) translate(81.525 14.6)"/><path d="M1520 451c0 33.14-35.82 60-80 60s-80-26.86-80-60 35.82-60 80-60 80 26.86 80 60z" stroke="#666" stroke-width="2" fill="#fff"/><use xlink:href="#b" transform="matrix(1,0,0,1,1360,391) translate(21.57999999999999 51.9)"/><use xlink:href="#e" transform="matrix(1,0,0,1,1360,391) translate(90.48 51.9)"/><use xlink:href="#y" transform="matrix(1,0,0,1,1360,391) translate(26.654999999999987 73.5)"/><use xlink:href="#z" transform="matrix(1,0,0,1,1360,391) translate(86.505 73.5)"/><path d="M1520 691c0 33.14-35.82 60-80 60s-80-26.86-80-60 35.82-60 80-60 80 26.86 80 60z" stroke="#666" stroke-width="2" fill="#fff"/><use xlink:href="#A" transform="matrix(1,0,0,1,1360,631) translate(48.05499999999999 40.65)"/><use xlink:href="#B" transform="matrix(1,0,0,1,1360,631) translate(14.154999999999982 62.25)"/><use xlink:href="#C" transform="matrix(1,0,0,1,1360,631) translate(91.005 62.25)"/><use xlink:href="#z" transform="matrix(1,0,0,1,1360,631) translate(56.58 83.85000000000001)"/><path d="M319 579.56" fill="none"/><path d="M319 579.56" stroke="#999" stroke-width="2" fill="none"/><path fill="#999"/><path d="M319 579.56l-18.67 11.04-1.02-1.72 15.77-9.32-15.76-9.32 1.03-1.72z" fill="#999"/><path d="M1369.42 480.94l-174.84 62.52" fill="none"/><path d="M1369.42 480.94l-9.7 3.47m-9.73 3.5l-19.43 6.93m-9.72 3.48l-19.42 6.95m-9.72 3.48l-19.4 6.94m-9.73 3.48l-19.42 6.94m-9.72 3.47l-19.42 6.95m-9.7 3.47l-9.72 3.46" stroke="#999" stroke-width="2" fill="none"/><path d="M1369.87 479.9l1.2 1.52-1.3.46-.7-1.88.7-.25zM1208.13 528.72l-11.7 14.08 17.98 3.47-.37 1.96-21.3-4.1 13.86-16.7z" fill="#999"/><use xlink:href="#D" transform="matrix(1,0,0,1,1239.9923018227335,524.3655209788743) translate(0.005000000000002558 14.396484375)"/><path d="M799 450.56H665c-2.76 0-5 2.24-5 5v61.03" fill="none"/><path d="M799 450.56h-11.17m-11.16 0h-22.34m-11.16 0h-22.34m-11.16 0h-22.34m-11.16 0H665l-2.95.96-1.8 2.46-.25 1.58v10.17m0 10.17v20.35m0 10.17v10.17" stroke="#999" stroke-width="2" fill="none"/><path d="M800 450.56v.38l.03.62H799v-2h1.03zM671.04 499.9L660 518.55l-11.04-18.67 1.72-1.03 9.32 15.76 9.32-15.76z" fill="#999"/><use xlink:href="#E" transform="matrix(1,0,0,1,666.9528062858284,428.55812181080597) translate(0.005000000000002558 14.396484375)"/><path d="M799 710.56H665c-2.76 0-5-2.24-5-5v-63.04" fill="none"/><path d="M799 710.56h-11.17m-11.16 0h-22.34m-11.16 0h-22.34m-11.16 0h-22.34m-11.16 0H665l-2.95-.97-1.8-2.46-.25-1.58v-10.5m0-10.5v-21.03m0-10.5v-10.5" stroke="#999" stroke-width="2" fill="none"/><path d="M800 710.56v.38l.03.62H799v-2h1.03zM671.04 659.23l-1.72 1.02L660 644.5l-9.32 15.75-1.72-1.02L660 640.56z" fill="#999"/><use xlink:href="#E" transform="matrix(1,0,0,1,665.9236653645833,714.5581218108061) translate(0.005000000000002558 14.396484375)"/><path d="M1370.68 659.44l-176.4-60.5" fill="none"/><path d="M1370.68 659.44l-9.8-3.36m-9.8-3.36l-19.6-6.72m-9.8-3.36l-19.6-6.73m-9.8-3.35l-19.6-6.72m-9.8-3.36l-19.6-6.72m-9.8-3.36l-19.6-6.73m-9.8-3.37l-9.8-3.36" stroke="#999" stroke-width="2" fill="none"/><path d="M1372.37 658.96l-.54.62-.8 1.04-.68-.23.65-1.9zM1214.08 595.88l-17.94 3.7 11.9 13.93-1.53 1.3-14.07-16.5 21.24-4.38z" fill="#999"/><use xlink:href="#D" transform="matrix(1,0,0,1,1242.307097491973,600.2653841850167) translate(0.005000000000002558 14.396484375)"/><path d="M961 710.56h154c2.76 0 5-2.24 5-5v-71.6" fill="none"/><path d="M961 710.56h10.27m10.26 0h20.54m10.26 0h20.54m10.26 0h20.54m10.26 0h20.54m10.26 0H1115l2.95-.97 1.8-2.46.25-1.58v-11.93m0-11.94v-23.87m0-11.93v-11.94" stroke="#999" stroke-width="2" fill="none"/><path d="M961 711.56h-1.03l.03-1v-.38l-.03-.62H961zM1131.04 650.67l-1.72 1.02-9.32-15.77-9.32 15.76-1.72-1.03L1120 632z" fill="#999"/><g><use xlink:href="#F" transform="matrix(1,0,0,1,973.189453125,714.5581218108061) translate(0.0049999999999954525 14.396484375)"/></g><path d="M961 450.56h154c2.76 0 5 2.24 5 5v52.48" fill="none"/><path d="M961 450.56h10.27m10.26 0h20.54m10.26 0h20.54m10.26 0h20.54m10.26 0h20.54m10.26 0H1115l2.95.96 1.8 2.46.25 1.58v8.74m0 8.75v17.5m0 8.74v8.74" stroke="#999" stroke-width="2" fill="none"/><path d="M961 451.56h-1.03l.03-1v-.38l-.03-.62H961zM1131.04 491.33L1120 510l-11.04-18.67 1.72-1.02 9.32 15.77 9.32-15.76z" fill="#999"/><g><use xlink:href="#F" transform="matrix(1,0,0,1,970.5227864583333,428.55812181080597) translate(0.0049999999999954525 14.396484375)"/></g><path d="M960 710.56c0 33.14-35.82 60-80 60s-80-26.86-80-60 35.82-60 80-60 80 26.86 80 60z" stroke="#666" stroke-width="2" fill="#fff"/><g><use xlink:href="#d" transform="matrix(1,0,0,1,799.9999999999998,650.5581218108061) translate(26.604999999999997 51.9)"/><use xlink:href="#G" transform="matrix(1,0,0,1,799.9999999999998,650.5581218108061) translate(61.555 51.9)"/><use xlink:href="#f" transform="matrix(1,0,0,1,799.9999999999998,650.5581218108061) translate(30.654999999999994 73.5)"/></g><path d="M481 579.56h98" stroke="#999" stroke-width="2" fill="none"/><path d="M481 580.56h-1.03l.03-1v-.38l-.03-.62H481zM580 579.56v.38l.03.62H579v-2h1.03z" fill="#999"/><path d="M760 345c0-2.76 2.24-5 5-5h230c2.76 0 5 2.24 5 5v50c0 2.76-2.24 5-5 5H765c-2.76 0-5-2.24-5-5z" fill="none"/><g><use xlink:href="#H" transform="matrix(1,0,0,1,760,340) translate(94.55 33.6)"/></g><path d="M760 605c0-2.76 2.24-5 5-5h230c2.76 0 5 2.24 5 5v50c0 2.76-2.24 5-5 5H765c-2.76 0-5-2.24-5-5z" fill="none"/><g><use xlink:href="#I" transform="matrix(1,0,0,1,760,600) translate(94.55 33.6)"/></g><path d="M1320 585c0-2.76 2.24-5 5-5h230c2.76 0 5 2.24 5 5v50c0 2.76-2.24 5-5 5h-230c-2.76 0-5-2.24-5-5z" fill="none"/><g><use xlink:href="#J" transform="matrix(1,0,0,1,1320,580) translate(94.55 33.6)"/></g><path d="M1320 345c0-2.76 2.24-5 5-5h230c2.76 0 5 2.24 5 5v50c0 2.76-2.24 5-5 5h-230c-2.76 0-5-2.24-5-5z" fill="none"/><g><use xlink:href="#K" transform="matrix(1,0,0,1,1320,340) translate(94.55 33.6)"/></g><defs><path fill="#333" d="M169-182c-1-43-94-46-97-3 18 66 151 10 154 114 3 95-165 93-204 36-6-8-10-19-12-30l50-8c3 46 112 56 116 5-17-69-150-10-154-114-4-87 153-88 188-35 5 8 8 18 10 28" id="L"/><path fill="#333" d="M185-48c-13 30-37 53-82 52C43 2 14-33 14-96s30-98 90-98c62 0 83 45 84 108H66c0 31 8 55 39 56 18 0 30-7 34-22zm-45-69c5-46-57-63-70-21-2 6-4 13-4 21h74" id="M"/><path fill="#333" d="M133-34C117-15 103 5 69 4 32 3 11-16 11-54c-1-60 55-63 116-61 1-26-3-47-28-47-18 1-26 9-28 27l-52-2c7-38 36-58 82-57s74 22 75 68l1 82c-1 14 12 18 25 15v27c-30 8-71 5-69-32zm-48 3c29 0 43-24 42-57-32 0-66-3-65 30 0 17 8 27 23 27" id="N"/><path fill="#333" d="M135-150c-39-12-60 13-60 57V0H25l-1-190h47c2 13-1 29 3 40 6-28 27-53 61-41v41" id="O"/><path fill="#333" d="M190-63c-7 42-38 67-86 67-59 0-84-38-90-98-12-110 154-137 174-36l-49 2c-2-19-15-32-35-32-30 0-35 28-38 64-6 74 65 87 74 30" id="P"/><path fill="#333" d="M114-157C55-157 80-60 75 0H25v-261h50l-1 109c12-26 28-41 61-42 86-1 58 113 63 194h-50c-7-57 23-157-34-157" id="Q"/><g id="a"><use transform="matrix(0.05,0,0,0.05,0,0)" xlink:href="#L"/><use transform="matrix(0.05,0,0,0.05,12,0)" xlink:href="#M"/><use transform="matrix(0.05,0,0,0.05,22,0)" xlink:href="#N"/><use transform="matrix(0.05,0,0,0.05,32,0)" xlink:href="#O"/><use transform="matrix(0.05,0,0,0.05,39,0)" xlink:href="#P"/><use transform="matrix(0.05,0,0,0.05,49,0)" xlink:href="#Q"/></g><path fill="#333" d="M24-248c120-7 223 5 221 122C244-46 201 0 124 0H24v-248zM76-40c74 7 117-18 117-86 0-67-45-88-117-82v168" id="R"/><path fill="#333" d="M25-224v-37h50v37H25zM25 0v-190h50V0H25" id="S"/><path fill="#333" d="M137-138c1-29-70-34-71-4 15 46 118 7 119 86 1 83-164 76-172 9l43-7c4 19 20 25 44 25 33 8 57-30 24-41C81-84 22-81 20-136c-2-80 154-74 161-7" id="T"/><path fill="#333" d="M135-194c53 0 70 44 70 98 0 56-19 98-73 100-31 1-45-17-59-34 3 33 2 69 2 105H25l-1-265h48c2 10 0 23 3 31 11-24 29-35 60-35zM114-30c33 0 39-31 40-66 0-38-9-64-40-64-56 0-55 130 0 130" id="U"/><path fill="#333" d="M25 0v-261h50V0H25" id="V"/><path fill="#333" d="M123 10C108 53 80 86 19 72V37c35 8 53-11 59-39L3-190h52l48 148c12-52 28-100 44-148h51" id="W"/><g id="b"><use transform="matrix(0.05,0,0,0.05,0,0)" xlink:href="#R"/><use transform="matrix(0.05,0,0,0.05,12.950000000000001,0)" xlink:href="#S"/><use transform="matrix(0.05,0,0,0.05,17.950000000000003,0)" xlink:href="#T"/><use transform="matrix(0.05,0,0,0.05,27.950000000000003,0)" xlink:href="#U"/><use transform="matrix(0.05,0,0,0.05,38.900000000000006,0)" xlink:href="#V"/><use transform="matrix(0.05,0,0,0.05,43.900000000000006,0)" xlink:href="#N"/><use transform="matrix(0.05,0,0,0.05,53.900000000000006,0)" xlink:href="#W"/></g><path fill="#333" d="M67-125c0 53 21 87 73 88 37 1 54-22 65-47l45 17C233-25 199 4 140 4 58 4 20-42 15-125 8-235 124-281 211-232c18 10 29 29 36 50l-46 12c-8-25-30-41-62-41-52 0-71 34-72 86" id="X"/><path fill="#333" d="M115-3C79 11 28 4 28-45v-112H4v-33h27l15-45h31v45h36v33H77v99c-1 23 16 31 38 25v30" id="Y"/><g id="c"><use transform="matrix(0.05,0,0,0.05,0,0)" xlink:href="#X"/><use transform="matrix(0.05,0,0,0.05,12.950000000000001,0)" xlink:href="#Q"/><use transform="matrix(0.05,0,0,0.05,23.900000000000002,0)" xlink:href="#N"/><use transform="matrix(0.05,0,0,0.05,33.900000000000006,0)" xlink:href="#O"/><use transform="matrix(0.05,0,0,0.05,40.900000000000006,0)" xlink:href="#Y"/></g><path fill="#333" d="M67-125c0 54 23 88 75 88 28 0 53-7 68-21v-34h-60v-39h108v91C232-14 192 4 140 4 58 4 20-42 15-125 8-236 126-280 215-234c19 10 29 26 37 47l-47 15c-11-23-29-39-63-39-53 1-75 33-75 86" id="Z"/><g id="d"><use transform="matrix(0.05,0,0,0.05,0,0)" xlink:href="#Z"/><use transform="matrix(0.05,0,0,0.05,14,0)" xlink:href="#M"/><use transform="matrix(0.05,0,0,0.05,24,0)" xlink:href="#Y"/></g><g id="e"><use transform="matrix(0.05,0,0,0.05,0,0)" xlink:href="#X"/><use transform="matrix(0.05,0,0,0.05,12.950000000000001,0)" xlink:href="#V"/><use transform="matrix(0.05,0,0,0.05,17.950000000000003,0)" xlink:href="#N"/><use transform="matrix(0.05,0,0,0.05,27.950000000000003,0)" xlink:href="#T"/><use transform="matrix(0.05,0,0,0.05,37.95,0)" xlink:href="#T"/></g><path fill="#333" d="M24 0v-248h52V0H24" id="aa"/><path fill="#333" d="M135-194c87-1 58 113 63 194h-50c-7-57 23-157-34-157-59 0-34 97-39 157H25l-1-190h47c2 12-1 28 3 38 12-26 28-41 61-42" id="ab"/><path fill="#333" d="M121-226c-27-7-43 5-38 36h38v33H83V0H34v-157H6v-33h28c-9-59 32-81 87-68v32" id="ac"/><path fill="#333" d="M110-194c64 0 96 36 96 99 0 64-35 99-97 99-61 0-95-36-95-99 0-62 34-99 96-99zm-1 164c35 0 45-28 45-65 0-40-10-65-43-65-34 0-45 26-45 65 0 36 10 65 43 65" id="ad"/><path fill="#333" d="M220-157c-53 9-28 100-34 157h-49v-107c1-27-5-49-29-50C55-147 81-57 75 0H25l-1-190h47c2 12-1 28 3 38 10-53 101-56 108 0 13-22 24-43 59-42 82 1 51 116 57 194h-49v-107c-1-25-5-48-29-50" id="ae"/><g id="f"><use transform="matrix(0.05,0,0,0.05,0,0)" xlink:href="#aa"/><use transform="matrix(0.05,0,0,0.05,5,0)" xlink:href="#ab"/><use transform="matrix(0.05,0,0,0.05,15.950000000000001,0)" xlink:href="#ac"/><use transform="matrix(0.05,0,0,0.05,21.900000000000002,0)" xlink:href="#ad"/><use transform="matrix(0.05,0,0,0.05,32.85,0)" xlink:href="#O"/><use transform="matrix(0.05,0,0,0.05,39.85,0)" xlink:href="#ae"/><use transform="matrix(0.05,0,0,0.05,55.85,0)" xlink:href="#N"/><use transform="matrix(0.05,0,0,0.05,65.85,0)" xlink:href="#Y"/><use transform="matrix(0.05,0,0,0.05,71.8,0)" xlink:href="#S"/><use transform="matrix(0.05,0,0,0.05,76.8,0)" xlink:href="#ad"/><use transform="matrix(0.05,0,0,0.05,87.75,0)" xlink:href="#ab"/></g><path fill="#333" d="M24 0v-248h52v208h133V0H24" id="af"/><path fill="#333" d="M147 0L96-86 75-71V0H25v-261h50v150l67-79h53l-66 74L201 0h-54" id="ag"/><g id="g"><use transform="matrix(0.05,0,0,0.05,0,0)" xlink:href="#af"/><use transform="matrix(0.05,0,0,0.05,10.950000000000001,0)" xlink:href="#ad"/><use transform="matrix(0.05,0,0,0.05,21.900000000000002,0)" xlink:href="#ad"/><use transform="matrix(0.05,0,0,0.05,32.85,0)" xlink:href="#ag"/></g><path fill="#333" d="M85 4C-2 5 27-109 22-190h50c7 57-23 150 33 157 60-5 35-97 40-157h50l1 190h-47c-2-12 1-28-3-38-12 25-28 42-61 42" id="ah"/><g id="h"><use transform="matrix(0.05,0,0,0.05,0,0)" xlink:href="#ah"/><use transform="matrix(0.05,0,0,0.05,10.950000000000001,0)" xlink:href="#U"/></g><g id="i"><use transform="matrix(0.05,0,0,0.05,0,0)" xlink:href="#aa"/><use transform="matrix(0.05,0,0,0.05,5,0)" xlink:href="#ab"/><use transform="matrix(0.05,0,0,0.05,15.950000000000001,0)" xlink:href="#ac"/><use transform="matrix(0.05,0,0,0.05,21.900000000000002,0)" xlink:href="#ad"/><use transform="matrix(0.05,0,0,0.05,32.85,0)" xlink:href="#O"/><use transform="matrix(0.05,0,0,0.05,39.85,0)" xlink:href="#ae"/><use transform="matrix(0.05,0,0,0.05,55.85,0)" xlink:href="#N"/><use transform="matrix(0.05,0,0,0.05,65.85,0)" xlink:href="#Y"/><use transform="matrix(0.05,0,0,0.05,71.8,0)" xlink:href="#S"/><use transform="matrix(0.05,0,0,0.05,76.8,0)" xlink:href="#ad"/><use transform="matrix(0.05,0,0,0.05,87.75,0)" xlink:href="#ab"/></g><g id="j"><use transform="matrix(0.05,0,0,0.05,0,0)" xlink:href="#S"/><use transform="matrix(0.05,0,0,0.05,5,0)" xlink:href="#ab"/></g><path fill="#333" d="M76-208v77h127v40H76V0H24v-248h183v40H76" id="ai"/><path fill="#333" d="M140-251c80 0 125 45 125 126 0 70-33 111-92 124 6 28 34 38 68 31l-1 36C177 83 129 55 120 2 51-6 15-50 15-125c0-81 44-126 125-126zm-1 214c52 0 73-35 73-88 0-50-21-86-72-86-52 0-73 35-73 86s22 88 72 88" id="aj"/><g id="k"><use transform="matrix(0.05,0,0,0.05,0,0)" xlink:href="#ai"/><use transform="matrix(0.05,0,0,0.05,10.950000000000001,0)" xlink:href="#X"/><use transform="matrix(0.05,0,0,0.05,23.900000000000002,0)" xlink:href="#aj"/></g><path fill="#333" d="M182-130c37 4 62 22 62 59C244 23 116-4 24 0v-248c84 5 203-23 205 63 0 31-19 50-47 55zM76-148c40-3 101 13 101-30 0-44-60-28-101-31v61zm0 110c48-3 116 14 116-37 0-48-69-32-116-35v72" id="ak"/><g id="l"><use transform="matrix(0.05,0,0,0.05,0,0)" xlink:href="#R"/><use transform="matrix(0.05,0,0,0.05,12.950000000000001,0)" xlink:href="#ak"/></g><path fill="#999" d="M76-208v77h127v40H76V0H24v-248h183v40H76" id="al"/><path fill="#999" d="M67-125c0 53 21 87 73 88 37 1 54-22 65-47l45 17C233-25 199 4 140 4 58 4 20-42 15-125 8-235 124-281 211-232c18 10 29 29 36 50l-46 12c-8-25-30-41-62-41-52 0-71 34-72 86" id="am"/><path fill="#999" d="M140-251c80 0 125 45 125 126 0 70-33 111-92 124 6 28 34 38 68 31l-1 36C177 83 129 55 120 2 51-6 15-50 15-125c0-81 44-126 125-126zm-1 214c52 0 73-35 73-88 0-50-21-86-72-86-52 0-73 35-73 86s22 88 72 88" id="an"/><path fill="#999" d="M24 0v-54h51V0H24" id="ao"/><path fill="#999" d="M238-95c0 69-44 99-111 99C63 4 22-25 22-93v-155h51v151c-1 38 19 59 55 60 90 1 49-130 58-211h52v153" id="ap"/><path fill="#999" d="M175 0L67-191c6 58 2 128 3 191H24v-248h59L193-55c-6-58-2-129-3-193h46V0h-61" id="aq"/><g id="m"><use transform="matrix(0.09876543209876544,0,0,0.09876543209876544,0,0)" xlink:href="#al"/><use transform="matrix(0.09876543209876544,0,0,0.09876543209876544,21.62962962962963,0)" xlink:href="#am"/><use transform="matrix(0.09876543209876544,0,0,0.09876543209876544,47.20987654320988,0)" xlink:href="#an"/><use transform="matrix(0.09876543209876544,0,0,0.09876543209876544,74.8641975308642,0)" xlink:href="#ao"/><use transform="matrix(0.09876543209876544,0,0,0.09876543209876544,84.74074074074075,0)" xlink:href="#al"/><use transform="matrix(0.09876543209876544,0,0,0.09876543209876544,106.37037037037038,0)" xlink:href="#ap"/><use transform="matrix(0.09876543209876544,0,0,0.09876543209876544,131.95061728395063,0)" xlink:href="#aq"/></g><path fill="#999" d="M169-182c-1-43-94-46-97-3 18 66 151 10 154 114 3 95-165 93-204 36-6-8-10-19-12-30l50-8c3 46 112 56 116 5-17-69-150-10-154-114-4-87 153-88 188-35 5 8 8 18 10 28" id="ar"/><path fill="#999" d="M24 0v-248h195v40H76v63h132v40H76v65h150V0H24" id="as"/><path fill="#999" d="M14-72v-43h91v43H14" id="at"/><path fill="#999" d="M199 0l-22-63H83L61 0H9l90-248h61L250 0h-51zm-33-102l-36-108c-10 38-24 72-36 108h72" id="au"/><g id="n"><use transform="matrix(0.09876543209876544,0,0,0.09876543209876544,0,0)" xlink:href="#ap"/><use transform="matrix(0.09876543209876544,0,0,0.09876543209876544,25.58024691358025,0)" xlink:href="#ar"/><use transform="matrix(0.09876543209876544,0,0,0.09876543209876544,49.283950617283956,0)" xlink:href="#as"/><use transform="matrix(0.09876543209876544,0,0,0.09876543209876544,72.98765432098766,0)" xlink:href="#at"/><use transform="matrix(0.09876543209876544,0,0,0.09876543209876544,84.74074074074075,0)" xlink:href="#am"/><use transform="matrix(0.09876543209876544,0,0,0.09876543209876544,110.320987654321,0)" xlink:href="#au"/><use transform="matrix(0.09876543209876544,0,0,0.09876543209876544,135.90123456790124,0)" xlink:href="#ar"/><use transform="matrix(0.09876543209876544,0,0,0.09876543209876544,159.60493827160494,0)" xlink:href="#as"/></g><path fill="#999" d="M140-251c80 0 125 45 125 126S219 4 139 4C58 4 15-44 15-125s44-126 125-126zm-1 214c52 0 73-35 73-88 0-50-21-86-72-86-52 0-73 35-73 86s22 88 72 88" id="av"/><path fill="#999" d="M147 0H94L2-248h55l64 206c17-72 42-137 63-206h54" id="aw"/><path fill="#999" d="M240-174c0 40-23 61-54 70L253 0h-59l-57-94H76V0H24v-248c93 4 217-23 216 74zM76-134c48-2 112 12 112-38 0-48-66-32-112-35v73" id="ax"/><path fill="#999" d="M24 0v-248h52V0H24" id="ay"/><path fill="#999" d="M275 0h-61l-44-196L126 0H64L0-248h53L97-49l45-199h58l43 199 44-199h52" id="az"/><g id="o"><use transform="matrix(0.09876543209876544,0,0,0.09876543209876544,0,0)" xlink:href="#av"/><use transform="matrix(0.09876543209876544,0,0,0.09876543209876544,27.654320987654323,0)" xlink:href="#aw"/><use transform="matrix(0.09876543209876544,0,0,0.09876543209876544,51.35802469135803,0)" xlink:href="#as"/><use transform="matrix(0.09876543209876544,0,0,0.09876543209876544,75.06172839506173,0)" xlink:href="#ax"/><use transform="matrix(0.09876543209876544,0,0,0.09876543209876544,99.95061728395063,0)" xlink:href="#aw"/><use transform="matrix(0.09876543209876544,0,0,0.09876543209876544,123.65432098765436,0)" xlink:href="#ay"/><use transform="matrix(0.09876543209876544,0,0,0.09876543209876544,133.5308641975309,0)" xlink:href="#as"/><use transform="matrix(0.09876543209876544,0,0,0.09876543209876544,157.23456790123458,0)" xlink:href="#az"/></g><path fill="#999" d="M185-189c-5-48-123-54-124 2 14 75 158 14 163 119 3 78-121 87-175 55-17-10-28-26-33-46l33-7c5 56 141 63 141-1 0-78-155-14-162-118-5-82 145-84 179-34 5 7 8 16 11 25" id="aA"/><path fill="#999" d="M141-36C126-15 110 5 73 4 37 3 15-17 15-53c-1-64 63-63 125-63 3-35-9-54-41-54-24 1-41 7-42 31l-33-3c5-37 33-52 76-52 45 0 72 20 72 64v82c-1 20 7 32 28 27v20c-31 9-61-2-59-35zM48-53c0 20 12 33 32 33 41-3 63-29 60-74-43 2-92-5-92 41" id="aB"/><path fill="#999" d="M210-169c-67 3-38 105-44 169h-31v-121c0-29-5-50-35-48C34-165 62-65 56 0H25l-1-190h30c1 10-1 24 2 32 10-44 99-50 107 0 11-21 27-35 58-36 85-2 47 119 55 194h-31v-121c0-29-5-49-35-48" id="aC"/><g id="p"><use transform="matrix(0.06172839506172778,0,0,0.06172839506172778,0,0)" xlink:href="#aA"/><use transform="matrix(0.06172839506172778,0,0,0.06172839506172778,14.814814814814667,0)" xlink:href="#aB"/><use transform="matrix(0.06172839506172778,0,0,0.06172839506172778,27.160493827160224,0)" xlink:href="#aC"/></g><path fill="#999" d="M212-179c-10-28-35-45-73-45-59 0-87 40-87 99 0 60 29 101 89 101 43 0 62-24 78-52l27 14C228-24 195 4 139 4 59 4 22-46 18-125c-6-104 99-153 187-111 19 9 31 26 39 46" id="aD"/><path fill="#999" d="M84 4C-5 8 30-112 23-190h32v120c0 31 7 50 39 49 72-2 45-101 50-169h31l1 190h-30c-1-10 1-25-2-33-11 22-28 36-60 37" id="aE"/><path fill="#999" d="M59-47c-2 24 18 29 38 22v24C64 9 27 4 27-40v-127H5v-23h24l9-43h21v43h35v23H59v120" id="aF"/><path fill="#999" d="M106-169C34-169 62-67 57 0H25v-261h32l-1 103c12-21 28-36 61-36 89 0 53 116 60 194h-32v-121c2-32-8-49-39-48" id="aG"/><path fill="#999" d="M115-194c53 0 69 39 70 98 0 66-23 100-70 100C84 3 66-7 56-30L54 0H23l1-261h32v101c10-23 28-34 59-34zm-8 174c40 0 45-34 45-75 0-40-5-75-45-74-42 0-51 32-51 76 0 43 10 73 51 73" id="aH"/><path fill="#999" d="M100-194c63 0 86 42 84 106H49c0 40 14 67 53 68 26 1 43-12 49-29l28 8c-11 28-37 45-77 45C44 4 14-33 15-96c1-61 26-98 85-98zm52 81c6-60-76-77-97-28-3 7-6 17-6 28h103" id="aI"/><path fill="#999" d="M114-163C36-179 61-72 57 0H25l-1-190h30c1 12-1 29 2 39 6-27 23-49 58-41v29" id="aJ"/><path fill="#999" d="M135-143c-3-34-86-38-87 0 15 53 115 12 119 90S17 21 10-45l28-5c4 36 97 45 98 0-10-56-113-15-118-90-4-57 82-63 122-42 12 7 21 19 24 35" id="aK"/><path fill="#999" d="M100-194c62-1 85 37 85 99 1 63-27 99-86 99S16-35 15-95c0-66 28-99 85-99zM99-20c44 1 53-31 53-75 0-43-8-75-51-75s-53 32-53 75 10 74 51 75" id="aL"/><path fill="#999" d="M117-194c89-4 53 116 60 194h-32v-121c0-31-8-49-39-48C34-167 62-67 57 0H25l-1-190h30c1 10-1 24 2 32 11-22 29-35 61-36" id="aM"/><path fill="#999" d="M68-38c1 34 0 65-14 84H32c9-13 17-26 17-46H33v-38h35" id="aN"/><g id="q"><use transform="matrix(0.06172839506172778,0,0,0.06172839506172778,0,0)" xlink:href="#aD"/><use transform="matrix(0.06172839506172778,0,0,0.06172839506172778,15.987654320987495,0)" xlink:href="#aE"/><use transform="matrix(0.06172839506172778,0,0,0.06172839506172778,28.33333333333305,0)" xlink:href="#aF"/><use transform="matrix(0.06172839506172778,0,0,0.06172839506172778,34.50617283950583,0)" xlink:href="#aG"/><use transform="matrix(0.06172839506172778,0,0,0.06172839506172778,46.851851851851386,0)" xlink:href="#aH"/><use transform="matrix(0.06172839506172778,0,0,0.06172839506172778,59.19753086419694,0)" xlink:href="#aI"/><use transform="matrix(0.06172839506172778,0,0,0.06172839506172778,71.5432098765425,0)" xlink:href="#aJ"/><use transform="matrix(0.06172839506172778,0,0,0.06172839506172778,78.88888888888812,0)" xlink:href="#aF"/><use transform="matrix(0.06172839506172778,0,0,0.06172839506172778,85.0617283950609,0)" xlink:href="#aK"/><use transform="matrix(0.06172839506172778,0,0,0.06172839506172778,96.1728395061719,0)" xlink:href="#aL"/><use transform="matrix(0.06172839506172778,0,0,0.06172839506172778,108.51851851851745,0)" xlink:href="#aM"/><use transform="matrix(0.06172839506172778,0,0,0.06172839506172778,120.86419753086301,0)" xlink:href="#aN"/></g><g id="r"><use transform="matrix(0.06172839506172778,0,0,0.06172839506172778,0,0)" xlink:href="#aD"/><use transform="matrix(0.06172839506172778,0,0,0.06172839506172778,15.987654320987495,0)" xlink:href="#aL"/><use transform="matrix(0.06172839506172778,0,0,0.06172839506172778,28.33333333333305,0)" xlink:href="#aM"/><use transform="matrix(0.06172839506172778,0,0,0.06172839506172778,40.67901234567861,0)" xlink:href="#aM"/><use transform="matrix(0.06172839506172778,0,0,0.06172839506172778,53.024691358024164,0)" xlink:href="#aL"/><use transform="matrix(0.06172839506172778,0,0,0.06172839506172778,65.37037037036973,0)" xlink:href="#aJ"/></g><path fill="#999" d="M197 0v-115H63V0H30v-248h33v105h134v-105h34V0h-34" id="aO"/><path fill="#999" d="M85-194c31 0 48 13 60 33l-1-100h32l1 261h-30c-2-10 0-23-3-31C134-8 116 4 85 4 32 4 16-35 15-94c0-66 23-100 70-100zm9 24c-40 0-46 34-46 75 0 40 6 74 45 74 42 0 51-32 51-76 0-42-9-74-50-73" id="aP"/><g id="s"><use transform="matrix(0.06172839506172778,0,0,0.06172839506172778,0,0)" xlink:href="#aO"/><use transform="matrix(0.06172839506172778,0,0,0.06172839506172778,15.987654320987495,0)" xlink:href="#aE"/><use transform="matrix(0.06172839506172778,0,0,0.06172839506172778,28.33333333333305,0)" xlink:href="#aP"/><use transform="matrix(0.06172839506172778,0,0,0.06172839506172778,40.67901234567861,0)" xlink:href="#aK"/><use transform="matrix(0.06172839506172778,0,0,0.06172839506172778,51.79012345678961,0)" xlink:href="#aL"/><use transform="matrix(0.06172839506172778,0,0,0.06172839506172778,64.13580246913517,0)" xlink:href="#aM"/></g><path fill="#999" d="M32 76v-337h29V76H32" id="aQ"/><use transform="matrix(0.06172839506172778,0,0,0.06172839506172778,0,0)" xlink:href="#aQ" id="t"/><path fill="#999" d="M63-220v92h138v28H63V0H30v-248h175v28H63" id="aR"/><path fill="#999" d="M179-190L93 31C79 59 56 82 12 73V49c39 6 53-20 64-50L1-190h34L92-34l54-156h33" id="aS"/><g id="u"><use transform="matrix(0.06172839506172778,0,0,0.06172839506172778,0,0)" xlink:href="#aR"/><use transform="matrix(0.06172839506172778,0,0,0.06172839506172778,13.518518518518384,0)" xlink:href="#aI"/><use transform="matrix(0.06172839506172778,0,0,0.06172839506172778,25.86419753086394,0)" xlink:href="#aH"/><use transform="matrix(0.06172839506172778,0,0,0.06172839506172778,38.209876543209496,0)" xlink:href="#aJ"/><use transform="matrix(0.06172839506172778,0,0,0.06172839506172778,45.5555555555551,0)" xlink:href="#aE"/><use transform="matrix(0.06172839506172778,0,0,0.06172839506172778,57.90123456790066,0)" xlink:href="#aB"/><use transform="matrix(0.06172839506172778,0,0,0.06172839506172778,70.24691358024621,0)" xlink:href="#aJ"/><use transform="matrix(0.06172839506172778,0,0,0.06172839506172778,77.59259259259181,0)" xlink:href="#aS"/></g><path fill="#999" d="M101-251c82-7 93 87 43 132L82-64C71-53 59-42 53-27h129V0H18c2-99 128-94 128-182 0-28-16-43-45-43s-46 15-49 41l-32-3c6-41 34-60 81-64" id="aT"/><path fill="#999" d="M126-127c33 6 58 20 58 59 0 88-139 92-164 29-3-8-5-16-6-25l32-3c6 27 21 44 54 44 32 0 52-15 52-46 0-38-36-46-79-43v-28c39 1 72-4 72-42 0-27-17-43-46-43-28 0-47 15-49 41l-32-3c6-42 35-63 81-64 48-1 79 21 79 65 0 36-21 52-52 59" id="aU"/><g id="v"><use transform="matrix(0.06172839506172778,0,0,0.06172839506172778,0,0)" xlink:href="#aT"/><use transform="matrix(0.06172839506172778,0,0,0.06172839506172778,12.345679012345556,0)" xlink:href="#aU"/><use transform="matrix(0.06172839506172778,0,0,0.06172839506172778,24.691358024691112,0)" xlink:href="#aN"/></g><path fill="#999" d="M101-251c68 0 85 55 85 127S166 4 100 4C33 4 14-52 14-124c0-73 17-127 87-127zm-1 229c47 0 54-49 54-102s-4-102-53-102c-51 0-55 48-55 102 0 53 5 102 54 102" id="aV"/><path fill="#999" d="M27 0v-27h64v-190l-56 39v-29l58-41h29v221h61V0H27" id="aW"/><path fill="#999" d="M134-131c28 9 52 24 51 62-1 50-34 73-85 73S17-19 16-69c0-36 21-54 49-61-75-25-45-126 34-121 46 3 78 18 79 63 0 33-17 51-44 57zm-34-11c31 1 46-15 46-44 0-28-17-43-47-42-29 0-46 13-45 42 1 28 16 44 46 44zm1 122c35 0 51-18 51-52 0-30-18-46-53-46-33 0-51 17-51 47 0 34 19 51 53 51" id="aX"/><g id="w"><use transform="matrix(0.06172839506172778,0,0,0.06172839506172778,0,0)" xlink:href="#aT"/><use transform="matrix(0.06172839506172778,0,0,0.06172839506172778,12.345679012345556,0)" xlink:href="#aV"/><use transform="matrix(0.06172839506172778,0,0,0.06172839506172778,24.691358024691112,0)" xlink:href="#aW"/><use transform="matrix(0.06172839506172778,0,0,0.06172839506172778,37.03703703703667,0)" xlink:href="#aX"/></g><g id="x"><use transform="matrix(0.05,0,0,0.05,0,0)" xlink:href="#L"/><use transform="matrix(0.05,0,0,0.05,12,0)" xlink:href="#M"/><use transform="matrix(0.05,0,0,0.05,22,0)" xlink:href="#N"/><use transform="matrix(0.05,0,0,0.05,32,0)" xlink:href="#O"/><use transform="matrix(0.05,0,0,0.05,39,0)" xlink:href="#P"/><use transform="matrix(0.05,0,0,0.05,49,0)" xlink:href="#Q"/><use transform="matrix(0.05,0,0,0.05,59.95,0)" xlink:href="#M"/><use transform="matrix(0.05,0,0,0.05,69.95,0)" xlink:href="#O"/></g><path fill="#333" d="M240-174c0 40-23 61-54 70L253 0h-59l-57-94H76V0H24v-248c93 4 217-23 216 74zM76-134c48-2 112 12 112-38 0-48-66-32-112-35v73" id="aY"/><g id="y"><use transform="matrix(0.05,0,0,0.05,0,0)" xlink:href="#aY"/><use transform="matrix(0.05,0,0,0.05,12.950000000000001,0)" xlink:href="#M"/><use transform="matrix(0.05,0,0,0.05,22.950000000000003,0)" xlink:href="#T"/><use transform="matrix(0.05,0,0,0.05,32.95,0)" xlink:href="#ah"/><use transform="matrix(0.05,0,0,0.05,43.900000000000006,0)" xlink:href="#V"/><use transform="matrix(0.05,0,0,0.05,48.900000000000006,0)" xlink:href="#Y"/></g><g id="z"><use transform="matrix(0.05,0,0,0.05,0,0)" xlink:href="#X"/><use transform="matrix(0.05,0,0,0.05,12.950000000000001,0)" xlink:href="#Q"/><use transform="matrix(0.05,0,0,0.05,23.900000000000002,0)" xlink:href="#N"/><use transform="matrix(0.05,0,0,0.05,33.900000000000006,0)" xlink:href="#O"/><use transform="matrix(0.05,0,0,0.05,40.900000000000006,0)" xlink:href="#Y"/></g><g id="A"><use transform="matrix(0.05,0,0,0.05,0,0)" xlink:href="#R"/><use transform="matrix(0.05,0,0,0.05,12.950000000000001,0)" xlink:href="#S"/><use transform="matrix(0.05,0,0,0.05,17.950000000000003,0)" xlink:href="#T"/><use transform="matrix(0.05,0,0,0.05,27.950000000000003,0)" xlink:href="#U"/><use transform="matrix(0.05,0,0,0.05,38.900000000000006,0)" xlink:href="#V"/><use transform="matrix(0.05,0,0,0.05,43.900000000000006,0)" xlink:href="#N"/><use transform="matrix(0.05,0,0,0.05,53.900000000000006,0)" xlink:href="#W"/></g><g id="B"><use transform="matrix(0.05,0,0,0.05,0,0)" xlink:href="#af"/><use transform="matrix(0.05,0,0,0.05,10.950000000000001,0)" xlink:href="#M"/><use transform="matrix(0.05,0,0,0.05,20.950000000000003,0)" xlink:href="#P"/><use transform="matrix(0.05,0,0,0.05,30.950000000000003,0)" xlink:href="#Y"/><use transform="matrix(0.05,0,0,0.05,36.900000000000006,0)" xlink:href="#ah"/><use transform="matrix(0.05,0,0,0.05,47.85000000000001,0)" xlink:href="#O"/><use transform="matrix(0.05,0,0,0.05,54.85,0)" xlink:href="#M"/><use transform="matrix(0.05,0,0,0.05,64.85000000000001,0)" xlink:href="#O"/></g><g id="C"><use transform="matrix(0.05,0,0,0.05,0,0)" xlink:href="#aY"/><use transform="matrix(0.05,0,0,0.05,12.950000000000001,0)" xlink:href="#M"/><use transform="matrix(0.05,0,0,0.05,22.950000000000003,0)" xlink:href="#T"/><use transform="matrix(0.05,0,0,0.05,32.95,0)" xlink:href="#ah"/><use transform="matrix(0.05,0,0,0.05,43.900000000000006,0)" xlink:href="#V"/><use transform="matrix(0.05,0,0,0.05,48.900000000000006,0)" xlink:href="#Y"/></g><path fill="#333" d="M101-516v-322l1027-391v228L295-676l833 324v227" id="aZ"/><path fill="#333" d="M1113-274C1038-96 884 20 626 20c-352 0-526-209-526-566 0-358 185-556 530-556 358 0 496 251 499 615H395c5 180 68 319 245 319 102 0 186-45 208-129zM857-663c-6-177-128-307-315-247-94 30-141 121-145 247h460" id="ba"/><path fill="#333" d="M874 0L612-392 348 0H49l406-559-387-523h303l241 354 240-354h305L770-562 1179 0H874" id="bb"/><path fill="#333" d="M711 13c-250 0-386-99-385-349l2-556H161v-190h181l88-282h176v282h385v190H606v530c-10 130 45 186 174 184 91-2 176-11 255-27v186C933-1 833 13 711 13" id="bc"/><path fill="#333" d="M768-1103c247 0 336 167 336 416V0H824v-619c-3-164-24-273-171-273-164 0-229 142-229 312V0H143c-4-359 9-736-8-1082h268c7 63 12 146 13 215h4c67-145 160-236 348-236" id="bd"/><path fill="#333" d="M802-909c-3-189-2-383-2-575h281v1248c-1 83 4 168 8 236H817c-9-50-14-117-15-176h-4C735-49 651 20 482 20 191 20 97-238 97-539c0-243 66-432 221-519 50-28 108-42 175-42 162 2 253 78 309 191zm-70 658c91-113 93-462 2-584-46-61-145-100-224-53-96 56-119 190-120 349 0 123 17 214 52 275 46 82 130 115 222 74 25-12 46-33 68-61" id="be"/><path fill="#333" d="M622-916c-112 2-200 14-200 111 0 90 89 101 168 121 234 58 514 77 514 368C1104-4 751 54 434 5 267-21 161-112 121-270l247-37c24 111 113 145 252 141 114-3 226-12 226-124 0-101-103-113-192-134-225-54-490-76-490-351 0-247 201-328 458-328 245 0 413 88 457 292l-249 26c-16-98-92-133-208-131" id="bf"/><path fill="#333" d="M101-125v-227l832-324-832-325v-228l1027 391v322" id="bg"/><g id="D"><use transform="matrix(0.0087890625,0,0,0.0087890625,0,0)" xlink:href="#aZ"/><use transform="matrix(0.0087890625,0,0,0.0087890625,10.8017578125,0)" xlink:href="#aZ"/><use transform="matrix(0.0087890625,0,0,0.0087890625,21.603515625,0)" xlink:href="#ba"/><use transform="matrix(0.0087890625,0,0,0.0087890625,32.4052734375,0)" xlink:href="#bb"/><use transform="matrix(0.0087890625,0,0,0.0087890625,43.20703125,0)" xlink:href="#bc"/><use transform="matrix(0.0087890625,0,0,0.0087890625,54.0087890625,0)" xlink:href="#ba"/><use transform="matrix(0.0087890625,0,0,0.0087890625,64.810546875,0)" xlink:href="#bd"/><use transform="matrix(0.0087890625,0,0,0.0087890625,75.6123046875,0)" xlink:href="#be"/><use transform="matrix(0.0087890625,0,0,0.0087890625,86.4140625,0)" xlink:href="#bf"/><use transform="matrix(0.0087890625,0,0,0.0087890625,97.2158203125,0)" xlink:href="#bg"/><use transform="matrix(0.0087890625,0,0,0.0087890625,108.017578125,0)" xlink:href="#bg"/></g><g id="E"><use transform="matrix(0.0087890625,0,0,0.0087890625,0,0)" xlink:href="#aZ"/><use transform="matrix(0.0087890625,0,0,0.0087890625,10.8017578125,0)" xlink:href="#aZ"/><use transform="matrix(0.0087890625,0,0,0.0087890625,21.603515625,0)" xlink:href="#ba"/><use transform="matrix(0.0087890625,0,0,0.0087890625,32.4052734375,0)" xlink:href="#bb"/><use transform="matrix(0.0087890625,0,0,0.0087890625,43.20703125,0)" xlink:href="#bc"/><use transform="matrix(0.0087890625,0,0,0.0087890625,54.0087890625,0)" xlink:href="#ba"/><use transform="matrix(0.0087890625,0,0,0.0087890625,64.810546875,0)" xlink:href="#bd"/><use transform="matrix(0.0087890625,0,0,0.0087890625,75.6123046875,0)" xlink:href="#be"/><use transform="matrix(0.0087890625,0,0,0.0087890625,86.4140625,0)" xlink:href="#bf"/><use transform="matrix(0.0087890625,0,0,0.0087890625,97.2158203125,0)" xlink:href="#bg"/><use transform="matrix(0.0087890625,0,0,0.0087890625,108.017578125,0)" xlink:href="#bg"/></g><path fill="#333" d="M794-190h353V0H118v-190h395v-702H223v-190h571v892zM513-1277v-207h281v207H513" id="bh"/><path fill="#333" d="M1109-360C1066-122 902 20 624 20c-347 0-514-209-514-555 0-353 168-567 518-567 270 0 425 136 473 361l-283 14c-16-106-75-183-196-182-75 0-130 31-165 93s-52 152-52 270c0 249 74 374 221 374 120 0 188-82 201-201" id="bi"/><path fill="#333" d="M794-190h353V0H118v-190h395v-1104H223v-190h571v1294" id="bj"/><path fill="#333" d="M471 20c-247 0-336-169-336-415v-687h281v607c4 148 31 285 172 285 152 0 207-150 207-312v-580h281c4 359-9 736 8 1082H816c-7-63-11-146-12-215h-5C736-76 644 20 471 20" id="bk"/><g id="F"><use transform="matrix(0.0087890625,0,0,0.0087890625,0,0)" xlink:href="#aZ"/><use transform="matrix(0.0087890625,0,0,0.0087890625,10.8017578125,0)" xlink:href="#aZ"/><use transform="matrix(0.0087890625,0,0,0.0087890625,21.603515625,0)" xlink:href="#bh"/><use transform="matrix(0.0087890625,0,0,0.0087890625,32.4052734375,0)" xlink:href="#bd"/><use transform="matrix(0.0087890625,0,0,0.0087890625,43.20703125,0)" xlink:href="#bi"/><use transform="matrix(0.0087890625,0,0,0.0087890625,54.0087890625,0)" xlink:href="#bj"/><use transform="matrix(0.0087890625,0,0,0.0087890625,64.810546875,0)" xlink:href="#bk"/><use transform="matrix(0.0087890625,0,0,0.0087890625,75.6123046875,0)" xlink:href="#be"/><use transform="matrix(0.0087890625,0,0,0.0087890625,86.4140625,0)" xlink:href="#ba"/><use transform="matrix(0.0087890625,0,0,0.0087890625,97.2158203125,0)" xlink:href="#bf"/><use transform="matrix(0.0087890625,0,0,0.0087890625,108.017578125,0)" xlink:href="#bg"/><use transform="matrix(0.0087890625,0,0,0.0087890625,118.8193359375,0)" xlink:href="#bg"/></g><g id="G"><use transform="matrix(0.05,0,0,0.05,0,0)" xlink:href="#af"/><use transform="matrix(0.05,0,0,0.05,10.950000000000001,0)" xlink:href="#M"/><use transform="matrix(0.05,0,0,0.05,20.950000000000003,0)" xlink:href="#P"/><use transform="matrix(0.05,0,0,0.05,30.950000000000003,0)" xlink:href="#Y"/><use transform="matrix(0.05,0,0,0.05,36.900000000000006,0)" xlink:href="#ah"/><use transform="matrix(0.05,0,0,0.05,47.85000000000001,0)" xlink:href="#O"/><use transform="matrix(0.05,0,0,0.05,54.85,0)" xlink:href="#M"/><use transform="matrix(0.05,0,0,0.05,64.85000000000001,0)" xlink:href="#O"/></g><path fill="#333" d="M76-105c-23 59 45 89 88 55 12-10 18-24 22-45l30-153h51C238-143 259 4 118 4 48 4 11-39 25-112l26-136h52" id="bl"/><path fill="#333" d="M178-136c88 48 22 151-73 140C49-3 12-15 4-64l51-9c1 50 111 53 115 3-16-63-132-20-133-112 0-93 190-91 199-10l-50 12c-4-41-93-50-97-4 7 38 59 32 89 48" id="bm"/><path fill="#333" d="M10-72l8-43h92l-9 43H10" id="bn"/><path fill="#333" d="M15-80c0-86 24-171 112-171 50 0 70 31 70 82C197-84 171 4 84 4 34 4 15-29 15-80zm134-92c6-42-44-55-60-23C72-160 55-94 68-46c4 6 9 12 19 11 56-6 53-82 62-137" id="bo"/><path fill="#333" d="M121-251c83 0 93 87 42 126-35 27-77 48-103 84h115l-7 41H-6C6-94 102-103 141-168c11-20 3-46-24-44-23 2-33 13-39 32l-47-10c12-38 39-61 90-61" id="bp"/><g id="H"><use transform="matrix(0.05,0,0,0.05,0,0)" xlink:href="#bl"/><use transform="matrix(0.05,0,0,0.05,12.950000000000001,0)" xlink:href="#bm"/><use transform="matrix(0.05,0,0,0.05,24.950000000000003,0)" xlink:href="#bn"/><use transform="matrix(0.05,0,0,0.05,30.900000000000002,0)" xlink:href="#bo"/><use transform="matrix(0.05,0,0,0.05,40.900000000000006,0)" xlink:href="#bp"/></g><path fill="#333" d="M6 0l7-41h62l31-161-67 37 8-42 70-41h48L124-41h57l-8 41H6" id="bq"/><g id="I"><use transform="matrix(0.05,0,0,0.05,0,0)" xlink:href="#bl"/><use transform="matrix(0.05,0,0,0.05,12.950000000000001,0)" xlink:href="#bm"/><use transform="matrix(0.05,0,0,0.05,24.950000000000003,0)" xlink:href="#bn"/><use transform="matrix(0.05,0,0,0.05,30.900000000000002,0)" xlink:href="#bo"/><use transform="matrix(0.05,0,0,0.05,40.900000000000006,0)" xlink:href="#bq"/></g><path fill="#333" d="M131-73c0-31-25-35-58-33l8-40c36 2 64-5 65-39 0-17-10-28-28-27-23 1-35 12-41 32l-47-9c11-39 39-63 90-62 44 1 76 17 76 60 0 42-26 59-63 64 28 5 48 20 48 54C181 22 9 32 3-60l49-7c3 21 16 31 40 31s39-13 39-37" id="br"/><g id="J"><use transform="matrix(0.05,0,0,0.05,0,0)" xlink:href="#bl"/><use transform="matrix(0.05,0,0,0.05,12.950000000000001,0)" xlink:href="#bm"/><use transform="matrix(0.05,0,0,0.05,24.950000000000003,0)" xlink:href="#bn"/><use transform="matrix(0.05,0,0,0.05,30.900000000000002,0)" xlink:href="#bo"/><use transform="matrix(0.05,0,0,0.05,40.900000000000006,0)" xlink:href="#br"/></g><path fill="#333" d="M154-50L144 0H97l10-50H-6l7-37 126-161h65L161-87h33l-7 37h-33zm-40-37l27-125c-29 45-64 83-95 125h68" id="bs"/><g id="K"><use transform="matrix(0.05,0,0,0.05,0,0)" xlink:href="#bl"/><use transform="matrix(0.05,0,0,0.05,12.950000000000001,0)" xlink:href="#bm"/><use transform="matrix(0.05,0,0,0.05,24.950000000000003,0)" xlink:href="#bn"/><use transform="matrix(0.05,0,0,0.05,30.900000000000002,0)" xlink:href="#bo"/><use transform="matrix(0.05,0,0,0.05,40.900000000000006,0)" xlink:href="#bs"/></g></defs></g></svg>