<svg xmlns="http://www.w3.org/2000/svg" xmlns:xlink="http://www.w3.org/1999/xlink" xmlns:lucid="lucid" width="1737.62" height="796.67"><g transform="translate(-12 6.666666666666671)" lucid:page-tab-id="0_0"><path d="M480 196.67V280" fill="none"/><path d="M480 196.67v9.26m0 9.26v18.5m0 9.26v18.52m0 9.26V280M480 196.67v-3" stroke="#999" stroke-width="2" fill="none"/><path d="M481 283h-2v-3h2z" fill="#999"/><path d="M880 275c0-2.76 2.24-5 5-5h30c2.76 0 5 2.24 5 5v490c0 2.76-2.24 5-5 5h-30c-2.76 0-5-2.24-5-5z" stroke="#666" stroke-width="2" fill="#f2f2f2"/><path d="M900 355c0-2.76 2.24-5 5-5h30c2.76 0 5 2.24 5 5v250c0 2.76-2.24 5-5 5h-30c-2.76 0-5-2.24-5-5z" stroke="#666" stroke-width="2" fill="#fff"/><path d="M1028.57 309.1l2.12 2.92.3 1.9v70.7l-1.1 3.42-2.92 2.13-1.9.3h-66.84v-2h66.68l1.26-.2 2-1.46.82-2.5V314.1l-.2-1.26-1.46-2-2.5-.82H920v-2h105.16z" fill="#999"/><path fill="#999"/><path d="M957.5 394.1l-14.26-4.63 14.26-4.63z" fill="#999"/><path d="M958.5 395.5l-18.5-6.03 18.5-6zm-12.03-6.03l10.03 3.26v-6.52z" fill="#999"/><use xlink:href="#a" transform="matrix(1,0,0,1,1030,328.43687499999993) translate(0 14.4)"/><use xlink:href="#b" transform="matrix(1,0,0,1,1038,328.5702083333333) translate(0.0049999999999954525 14.222222222222223)"/><path d="M1310 491v38" fill="none"/><path d="M1310 491v12.67m0 12.66V529" stroke="#999" stroke-width="2" fill="none"/><path d="M1311 491h-2v-1h2zM1311 530h-2v-1h2z" fill="#999"/><path d="M32 18.33c0-2.76 2.24-5 5-5h998c2.76 0 5 2.24 5 5v75.34c0 2.76-2.24 5-5 5H37c-2.76 0-5-2.24-5-5z" fill="none"/><use xlink:href="#c" transform="matrix(1,0,0,1,32,13.333333333333329) translate(0 50.111111111111114)"/><use xlink:href="#d" transform="matrix(1,0,0,1,32,13.333333333333329) translate(110.41975308641976 50.111111111111114)"/><use xlink:href="#e" transform="matrix(1,0,0,1,32,13.333333333333329) translate(319.5061728395062 50.111111111111114)"/><use xlink:href="#f" transform="matrix(1,0,0,1,32,13.333333333333329) translate(488.8888888888889 50.111111111111114)"/><use xlink:href="#g" transform="matrix(1,0,0,1,32,13.333333333333329) translate(510.51851851851853 50.111111111111114)"/><use xlink:href="#h" transform="matrix(1,0,0,1,32,13.333333333333329) translate(611.1604938271605 50.111111111111114)"/><use xlink:href="#i" transform="matrix(1,0,0,1,32,13.333333333333329) translate(741.2345679012346 50.111111111111114)"/><path d="M31.33 80H1728" stroke="#999" stroke-width="2" fill="none"/><path d="M1040 37c0-2.76 2.24-5 5-5h678c2.76 0 5 2.24 5 5v38c0 2.76-2.24 5-5 5h-678c-2.76 0-5-2.24-5-5z" fill="none"/><use xlink:href="#j" transform="matrix(1,0,0,1,1040,32) translate(129.72839506173386 28.4444444444444)"/><use xlink:href="#k" transform="matrix(1,0,0,1,1040,32) translate(181.51851851852348 28.4444444444444)"/><use xlink:href="#l" transform="matrix(1,0,0,1,1040,32) translate(302.3827160493865 28.4444444444444)"/><use xlink:href="#m" transform="matrix(1,0,0,1,1040,32) translate(314.72839506173204 28.4444444444444)"/><use xlink:href="#n" transform="matrix(1,0,0,1,1040,32) translate(393.61728395062016 28.4444444444444)"/><use xlink:href="#o" transform="matrix(1,0,0,1,1040,32) translate(482.44444444444645 28.4444444444444)"/><use xlink:href="#p" transform="matrix(1,0,0,1,1040,32) translate(506.70370370370546 28.4444444444444)"/><use xlink:href="#q" transform="matrix(1,0,0,1,1040,32) translate(601.580246913581 28.4444444444444)"/><use xlink:href="#r" transform="matrix(1,0,0,1,1040,32) translate(638.6172839506178 28.4444444444444)"/><path d="M499.75 119.75c0 10.9-8.84 19.75-19.75 19.75-10.9 0-19.75-8.84-19.75-19.75 0-10.9 8.84-19.75 19.75-19.75 10.9 0 19.75 8.84 19.75 19.75z" stroke="#3d4752" stroke-width="2" fill="#0c7cba"/><path d="M440 105c0-2.76 2.24-5 5-5h70c2.76 0 5 2.24 5 5v148c0 2.76-2.24 5-5 5h-70c-2.76 0-5-2.24-5-5z" fill="none"/><path d="M480 139.5v50.3c0 2.76 1.2 6.9 2.67 9.22L520 258m-40-63.2L440 258m0-98.75h80" stroke="#3d4752" stroke-width="2" fill="none"/><path d="M790 134c0-2.76 2.24-5 5-5h210c2.76 0 5 2.24 5 5v90c0 2.76-2.24 5-5 5H795c-2.76 0-5-2.24-5-5z" stroke="#666" stroke-width="2" fill="#a3d977"/><use xlink:href="#s" transform="matrix(1,0,0,1,790,129) translate(45.64999999999999 55.025)"/><path d="M1200 395c0-2.76 2.24-5 5-5h210c2.76 0 5 2.24 5 5v90c0 2.76-2.24 5-5 5h-210c-2.76 0-5-2.24-5-5z" stroke="#666" stroke-width="2" fill="#c7e8ac"/><use xlink:href="#t" transform="matrix(1,0,0,1,1200,390) translate(29.69999999999999 55.025)"/><path d="M460 275c0-2.76 2.24-5 5-5h30c2.76 0 5 2.24 5 5v490c0 2.76-2.24 5-5 5h-30c-2.76 0-5-2.24-5-5z" stroke="#666" stroke-width="2" fill="#f2f2f2"/><path d="M805 245c0-2.76 2.24-5 5-5h180c2.76 0 5 2.24 5 5v90c0 2.76-2.24 5-5 5H810c-2.76 0-5-2.24-5-5z" fill="#fff"/><path d="M805.25 245c0 .14-.1.25-.25.25-.14 0-.25-.1-.25-.25 0-.14.1-.25.25-.25.14 0 .25.1.25.25zm.3-.92c0 .14-.1.25-.25.25-.14 0-.25-.1-.25-.25 0-.14.1-.25.25-.25.14 0 .25.1.25.25zm.3-.92c0 .14-.1.25-.25.25-.14 0-.25-.1-.25-.24 0-.14.1-.25.25-.25.14 0 .25.12.25.26zm.3-.92c0 .14-.1.25-.25.25-.14 0-.25-.12-.25-.26s.1-.25.25-.25c.14 0 .25.1.25.24zm.68-.65c0 .13-.1.24-.25.24-.13 0-.25-.1-.25-.25 0-.14.12-.26.25-.26.14 0 .25.12.25.25zm.8-.58c0 .14-.13.25-.26.25-.14 0-.25-.1-.25-.25 0-.13.1-.25.25-.25.13 0 .25.12.25.25zm.77-.57c0 .14-.1.25-.25.25-.14 0-.25-.1-.25-.25 0-.14.1-.25.25-.25.14 0 .25.1.25.25zm.9-.3c0 .14-.12.25-.26.25-.13 0-.25-.1-.25-.25 0-.13.1-.25.24-.25.14 0 .25.12.25.25zm.95-.15c0 .14-.1.25-.25.25-.14 0-.25-.1-.25-.25 0-.14.1-.25.25-.25.14 0 .25.1.25.25zm1 0c0 .14-.1.25-.25.25-.14 0-.25-.1-.25-.25 0-.14.1-.25.25-.25.14 0 .25.1.25.25zm1 0c0 .14-.1.25-.25.25-.14 0-.25-.1-.25-.25 0-.14.1-.25.25-.25.14 0 .25.1.25.25zm1 0c0 .14-.1.25-.25.25-.14 0-.25-.1-.25-.25 0-.14.1-.25.25-.25.14 0 .25.1.25.25zm1 0c0 .14-.1.25-.25.25-.14 0-.25-.1-.25-.25 0-.14.1-.25.25-.25.14 0 .25.1.25.25zm1 0c0 .14-.1.25-.25.25-.14 0-.25-.1-.25-.25 0-.14.1-.25.25-.25.14 0 .25.1.25.25zm1 0c0 .14-.1.25-.25.25-.14 0-.25-.1-.25-.25 0-.14.1-.25.25-.25.14 0 .25.1.25.25zm1 0c0 .14-.1.25-.25.25-.14 0-.25-.1-.25-.25 0-.14.1-.25.25-.25.14 0 .25.1.25.25zm1 0c0 .14-.1.25-.25.25-.14 0-.25-.1-.25-.25 0-.14.1-.25.25-.25.14 0 .25.1.25.25zm1 0c0 .14-.1.25-.25.25-.14 0-.25-.1-.25-.25 0-.14.1-.25.25-.25.14 0 .25.1.25.25zm1 0c0 .14-.1.25-.25.25-.14 0-.25-.1-.25-.25 0-.14.1-.25.25-.25.14 0 .25.1.25.25zm1 0c0 .14-.1.25-.25.25-.14 0-.25-.1-.25-.25 0-.14.1-.25.25-.25.14 0 .25.1.25.25zm1 0c0 .14-.1.25-.25.25-.14 0-.25-.1-.25-.25 0-.14.1-.25.25-.25.14 0 .25.1.25.25zm1 0c0 .14-.1.25-.25.25-.14 0-.25-.1-.25-.25 0-.14.1-.25.25-.25.14 0 .25.1.25.25zm1 0c0 .14-.1.25-.25.25-.14 0-.25-.1-.25-.25 0-.14.1-.25.25-.25.14 0 .25.1.25.25zm1 0c0 .14-.1.25-.25.25-.14 0-.25-.1-.25-.25 0-.14.1-.25.25-.25.14 0 .25.1.25.25zm1 0c0 .14-.1.25-.25.25-.14 0-.25-.1-.25-.25 0-.14.1-.25.25-.25.14 0 .25.1.25.25zm1 0c0 .14-.1.25-.25.25-.14 0-.25-.1-.25-.25 0-.14.1-.25.25-.25.14 0 .25.1.25.25zm1 0c0 .14-.1.25-.25.25-.14 0-.25-.1-.25-.25 0-.14.1-.25.25-.25.14 0 .25.1.25.25zm1 0c0 .14-.1.25-.25.25-.14 0-.25-.1-.25-.25 0-.14.1-.25.25-.25.14 0 .25.1.25.25zm1 0c0 .14-.1.25-.25.25-.14 0-.25-.1-.25-.25 0-.14.1-.25.25-.25.14 0 .25.1.25.25zm1 0c0 .14-.1.25-.25.25-.14 0-.25-.1-.25-.25 0-.14.1-.25.25-.25.14 0 .25.1.25.25zm1 0c0 .14-.1.25-.25.25-.14 0-.25-.1-.25-.25 0-.14.1-.25.25-.25.14 0 .25.1.25.25zm1 0c0 .14-.1.25-.25.25-.14 0-.25-.1-.25-.25 0-.14.1-.25.25-.25.14 0 .25.1.25.25zm1 0c0 .14-.1.25-.25.25-.14 0-.25-.1-.25-.25 0-.14.1-.25.25-.25.14 0 .25.1.25.25zm1 0c0 .14-.1.25-.25.25-.14 0-.25-.1-.25-.25 0-.14.1-.25.25-.25.14 0 .25.1.25.25zm1 0c0 .14-.1.25-.25.25-.14 0-.25-.1-.25-.25 0-.14.1-.25.25-.25.14 0 .25.1.25.25zm1 0c0 .14-.1.25-.25.25-.14 0-.25-.1-.25-.25 0-.14.1-.25.25-.25.14 0 .25.1.25.25zm1 0c0 .14-.1.25-.25.25-.14 0-.25-.1-.25-.25 0-.14.1-.25.25-.25.14 0 .25.1.25.25zm1 0c0 .14-.1.25-.25.25-.14 0-.25-.1-.25-.25 0-.14.1-.25.25-.25.14 0 .25.1.25.25zm1 0c0 .14-.1.25-.25.25-.14 0-.25-.1-.25-.25 0-.14.1-.25.25-.25.14 0 .25.1.25.25zm1 0c0 .14-.1.25-.25.25-.14 0-.25-.1-.25-.25 0-.14.1-.25.25-.25.14 0 .25.1.25.25zm1 0c0 .14-.1.25-.25.25-.14 0-.25-.1-.25-.25 0-.14.1-.25.25-.25.14 0 .25.1.25.25zm1 0c0 .14-.1.25-.25.25-.14 0-.25-.1-.25-.25 0-.14.1-.25.25-.25.14 0 .25.1.25.25zm1 0c0 .14-.1.25-.25.25-.14 0-.25-.1-.25-.25 0-.14.1-.25.25-.25.14 0 .25.1.25.25zm1 0c0 .14-.1.25-.25.25-.14 0-.25-.1-.25-.25 0-.14.1-.25.25-.25.14 0 .25.1.25.25zm1 0c0 .14-.1.25-.25.25-.14 0-.25-.1-.25-.25 0-.14.1-.25.25-.25.14 0 .25.1.25.25zm1 0c0 .14-.1.25-.25.25-.14 0-.25-.1-.25-.25 0-.14.1-.25.25-.25.14 0 .25.1.25.25zm1 0c0 .14-.1.25-.25.25-.14 0-.25-.1-.25-.25 0-.14.1-.25.25-.25.14 0 .25.1.25.25zm1 0c0 .14-.1.25-.25.25-.14 0-.25-.1-.25-.25 0-.14.1-.25.25-.25.14 0 .25.1.25.25zm1 0c0 .14-.1.25-.25.25-.14 0-.25-.1-.25-.25 0-.14.1-.25.25-.25.14 0 .25.1.25.25zm1 0c0 .14-.1.25-.25.25-.14 0-.25-.1-.25-.25 0-.14.1-.25.25-.25.14 0 .25.1.25.25zm1 0c0 .14-.1.25-.25.25-.14 0-.25-.1-.25-.25 0-.14.1-.25.25-.25.14 0 .25.1.25.25zm1 0c0 .14-.1.25-.25.25-.14 0-.25-.1-.25-.25 0-.14.1-.25.25-.25.14 0 .25.1.25.25zm1 0c0 .14-.1.25-.25.25-.14 0-.25-.1-.25-.25 0-.14.1-.25.25-.25.14 0 .25.1.25.25zm1 0c0 .14-.1.25-.25.25-.14 0-.25-.1-.25-.25 0-.14.1-.25.25-.25.14 0 .25.1.25.25zm1 0c0 .14-.1.25-.25.25-.14 0-.25-.1-.25-.25 0-.14.1-.25.25-.25.14 0 .25.1.25.25zm1 0c0 .14-.1.25-.25.25-.14 0-.25-.1-.25-.25 0-.14.1-.25.25-.25.14 0 .25.1.25.25zm1 0c0 .14-.1.25-.25.25-.14 0-.25-.1-.25-.25 0-.14.1-.25.25-.25.14 0 .25.1.25.25zm1 0c0 .14-.1.25-.25.25-.14 0-.25-.1-.25-.25 0-.14.1-.25.25-.25.14 0 .25.1.25.25zm1 0c0 .14-.1.25-.25.25-.14 0-.25-.1-.25-.25 0-.14.1-.25.25-.25.14 0 .25.1.25.25zm1 0c0 .14-.1.25-.25.25-.14 0-.25-.1-.25-.25 0-.14.1-.25.25-.25.14 0 .25.1.25.25zm1 0c0 .14-.1.25-.25.25-.14 0-.25-.1-.25-.25 0-.14.1-.25.25-.25.14 0 .25.1.25.25zm1 0c0 .14-.1.25-.25.25-.14 0-.25-.1-.25-.25 0-.14.1-.25.25-.25.14 0 .25.1.25.25zm1 0c0 .14-.1.25-.25.25-.14 0-.25-.1-.25-.25 0-.14.1-.25.25-.25.14 0 .25.1.25.25zm1 0c0 .14-.1.25-.25.25-.14 0-.25-.1-.25-.25 0-.14.1-.25.25-.25.14 0 .25.1.25.25zm1 0c0 .14-.1.25-.25.25-.14 0-.25-.1-.25-.25 0-.14.1-.25.25-.25.14 0 .25.1.25.25zm1 0c0 .14-.1.25-.25.25-.14 0-.25-.1-.25-.25 0-.14.1-.25.25-.25.14 0 .25.1.25.25zm1 0c0 .14-.1.25-.25.25-.14 0-.25-.1-.25-.25 0-.14.1-.25.25-.25.14 0 .25.1.25.25zm1 0c0 .14-.1.25-.25.25-.14 0-.25-.1-.25-.25 0-.14.1-.25.25-.25.14 0 .25.1.25.25zm1 0c0 .14-.1.25-.25.25-.14 0-.25-.1-.25-.25 0-.14.1-.25.25-.25.14 0 .25.1.25.25zm1 0c0 .14-.1.25-.25.25-.14 0-.25-.1-.25-.25 0-.14.1-.25.25-.25.14 0 .25.1.25.25zm1 0c0 .14-.1.25-.25.25-.14 0-.25-.1-.25-.25 0-.14.1-.25.25-.25.14 0 .25.1.25.25zm1 0c0 .14-.1.25-.25.25-.14 0-.25-.1-.25-.25 0-.14.1-.25.25-.25.14 0 .25.1.25.25zm1 0c0 .14-.1.25-.25.25-.14 0-.25-.1-.25-.25 0-.14.1-.25.25-.25.14 0 .25.1.25.25zm1 0c0 .14-.1.25-.25.25-.14 0-.25-.1-.25-.25 0-.14.1-.25.25-.25.14 0 .25.1.25.25zm1 0c0 .14-.1.25-.25.25-.14 0-.25-.1-.25-.25 0-.14.1-.25.25-.25.14 0 .25.1.25.25zm1 0c0 .14-.1.25-.25.25-.14 0-.25-.1-.25-.25 0-.14.1-.25.25-.25.14 0 .25.1.25.25zm1 0c0 .14-.1.25-.25.25-.14 0-.25-.1-.25-.25 0-.14.1-.25.25-.25.14 0 .25.1.25.25zm1 0c0 .14-.1.25-.25.25-.14 0-.25-.1-.25-.25 0-.14.1-.25.25-.25.14 0 .25.1.25.25zm1 0c0 .14-.1.25-.25.25-.14 0-.25-.1-.25-.25 0-.14.1-.25.25-.25.14 0 .25.1.25.25zm1 0c0 .14-.1.25-.25.25-.14 0-.25-.1-.25-.25 0-.14.1-.25.25-.25.14 0 .25.1.25.25zm1 0c0 .14-.1.25-.25.25-.14 0-.25-.1-.25-.25 0-.14.1-.25.25-.25.14 0 .25.1.25.25zm1 0c0 .14-.1.25-.25.25-.14 0-.25-.1-.25-.25 0-.14.1-.25.25-.25.14 0 .25.1.25.25zm1 0c0 .14-.1.25-.25.25-.14 0-.25-.1-.25-.25 0-.14.1-.25.25-.25.14 0 .25.1.25.25zm1 0c0 .14-.1.25-.25.25-.14 0-.25-.1-.25-.25 0-.14.1-.25.25-.25.14 0 .25.1.25.25zm1 0c0 .14-.1.25-.25.25-.14 0-.25-.1-.25-.25 0-.14.1-.25.25-.25.14 0 .25.1.25.25zm1 0c0 .14-.1.25-.25.25-.14 0-.25-.1-.25-.25 0-.14.1-.25.25-.25.14 0 .25.1.25.25zm1 0c0 .14-.1.25-.25.25-.14 0-.25-.1-.25-.25 0-.14.1-.25.25-.25.14 0 .25.1.25.25zm1 0c0 .14-.1.25-.25.25-.14 0-.25-.1-.25-.25 0-.14.1-.25.25-.25.14 0 .25.1.25.25zm1 0c0 .14-.1.25-.25.25-.14 0-.25-.1-.25-.25 0-.14.1-.25.25-.25.14 0 .25.1.25.25zm1 0c0 .14-.1.25-.25.25-.14 0-.25-.1-.25-.25 0-.14.1-.25.25-.25.14 0 .25.1.25.25zm1 0c0 .14-.1.25-.25.25-.14 0-.25-.1-.25-.25 0-.14.1-.25.25-.25.14 0 .25.1.25.25zm1 0c0 .14-.1.25-.25.25-.14 0-.25-.1-.25-.25 0-.14.1-.25.25-.25.14 0 .25.1.25.25zm1 0c0 .14-.1.25-.25.25-.14 0-.25-.1-.25-.25 0-.14.1-.25.25-.25.14 0 .25.1.25.25zm1 0c0 .14-.1.25-.25.25-.14 0-.25-.1-.25-.25 0-.14.1-.25.25-.25.14 0 .25.1.25.25zm1 0c0 .14-.1.25-.25.25-.14 0-.25-.1-.25-.25 0-.14.1-.25.25-.25.14 0 .25.1.25.25zm1 0c0 .14-.1.25-.25.25-.14 0-.25-.1-.25-.25 0-.14.1-.25.25-.25.14 0 .25.1.25.25zm1 0c0 .14-.1.25-.25.25-.14 0-.25-.1-.25-.25 0-.14.1-.25.25-.25.14 0 .25.1.25.25zm1 0c0 .14-.1.25-.25.25-.14 0-.25-.1-.25-.25 0-.14.1-.25.25-.25.14 0 .25.1.25.25zm1 0c0 .14-.1.25-.25.25-.14 0-.25-.1-.25-.25 0-.14.1-.25.25-.25.14 0 .25.1.25.25zm1 0c0 .14-.1.25-.25.25-.14 0-.25-.1-.25-.25 0-.14.1-.25.25-.25.14 0 .25.1.25.25zm1 0c0 .14-.1.25-.25.25-.14 0-.25-.1-.25-.25 0-.14.1-.25.25-.25.14 0 .25.1.25.25zm1 0c0 .14-.1.25-.25.25-.14 0-.25-.1-.25-.25 0-.14.1-.25.25-.25.14 0 .25.1.25.25zm1 0c0 .14-.1.25-.25.25-.14 0-.25-.1-.25-.25 0-.14.1-.25.25-.25.14 0 .25.1.25.25zm1 0c0 .14-.1.25-.25.25-.14 0-.25-.1-.25-.25 0-.14.1-.25.25-.25.14 0 .25.1.25.25zm1 0c0 .14-.1.25-.25.25-.14 0-.25-.1-.25-.25 0-.14.1-.25.25-.25.14 0 .25.1.25.25zm1 0c0 .14-.1.25-.25.25-.14 0-.25-.1-.25-.25 0-.14.1-.25.25-.25.14 0 .25.1.25.25zm1 0c0 .14-.1.25-.25.25-.14 0-.25-.1-.25-.25 0-.14.1-.25.25-.25.14 0 .25.1.25.25zm1 0c0 .14-.1.25-.25.25-.14 0-.25-.1-.25-.25 0-.14.1-.25.25-.25.14 0 .25.1.25.25zm1 0c0 .14-.1.25-.25.25-.14 0-.25-.1-.25-.25 0-.14.1-.25.25-.25.14 0 .25.1.25.25zm1 0c0 .14-.1.25-.25.25-.14 0-.25-.1-.25-.25 0-.14.1-.25.25-.25.14 0 .25.1.25.25zm1 0c0 .14-.1.25-.25.25-.14 0-.25-.1-.25-.25 0-.14.1-.25.25-.25.14 0 .25.1.25.25zm1 0c0 .14-.1.25-.25.25-.14 0-.25-.1-.25-.25 0-.14.1-.25.25-.25.14 0 .25.1.25.25zm1 0c0 .14-.1.25-.25.25-.14 0-.25-.1-.25-.25 0-.14.1-.25.25-.25.14 0 .25.1.25.25zm1 0c0 .14-.1.25-.25.25-.14 0-.25-.1-.25-.25 0-.14.1-.25.25-.25.14 0 .25.1.25.25zm1 0c0 .14-.1.25-.25.25-.14 0-.25-.1-.25-.25 0-.14.1-.25.25-.25.14 0 .25.1.25.25zm1 0c0 .14-.1.25-.25.25-.14 0-.25-.1-.25-.25 0-.14.1-.25.25-.25.14 0 .25.1.25.25zm1 0c0 .14-.1.25-.25.25-.14 0-.25-.1-.25-.25 0-.14.1-.25.25-.25.14 0 .25.1.25.25zm1 0c0 .14-.1.25-.25.25-.14 0-.25-.1-.25-.25 0-.14.1-.25.25-.25.14 0 .25.1.25.25zm1 0c0 .14-.1.25-.25.25-.14 0-.25-.1-.25-.25 0-.14.1-.25.25-.25.14 0 .25.1.25.25zm1 0c0 .14-.1.25-.25.25-.14 0-.25-.1-.25-.25 0-.14.1-.25.25-.25.14 0 .25.1.25.25zm1 0c0 .14-.1.25-.25.25-.14 0-.25-.1-.25-.25 0-.14.1-.25.25-.25.14 0 .25.1.25.25zm1 0c0 .14-.1.25-.25.25-.14 0-.25-.1-.25-.25 0-.14.1-.25.25-.25.14 0 .25.1.25.25zm1 0c0 .14-.1.25-.25.25-.14 0-.25-.1-.25-.25 0-.14.1-.25.25-.25.14 0 .25.1.25.25zm1 0c0 .14-.1.25-.25.25-.14 0-.25-.1-.25-.25 0-.14.1-.25.25-.25.14 0 .25.1.25.25zm1 0c0 .14-.1.25-.25.25-.14 0-.25-.1-.25-.25 0-.14.1-.25.25-.25.14 0 .25.1.25.25zm1 0c0 .14-.1.25-.25.25-.14 0-.25-.1-.25-.25 0-.14.1-.25.25-.25.14 0 .25.1.25.25zm1 0c0 .14-.1.25-.25.25-.14 0-.25-.1-.25-.25 0-.14.1-.25.25-.25.14 0 .25.1.25.25zm1 0c0 .14-.1.25-.25.25-.14 0-.25-.1-.25-.25 0-.14.1-.25.25-.25.14 0 .25.1.25.25zm1 0c0 .14-.1.25-.25.25-.14 0-.25-.1-.25-.25 0-.14.1-.25.25-.25.14 0 .25.1.25.25zm1 0c0 .14-.1.25-.25.25-.14 0-.25-.1-.25-.25 0-.14.1-.25.25-.25.14 0 .25.1.25.25zm1 0c0 .14-.1.25-.25.25-.14 0-.25-.1-.25-.25 0-.14.1-.25.25-.25.14 0 .25.1.25.25zm1 0c0 .14-.1.25-.25.25-.14 0-.25-.1-.25-.25 0-.14.1-.25.25-.25.14 0 .25.1.25.25zm1 0c0 .14-.1.25-.25.25-.14 0-.25-.1-.25-.25 0-.14.1-.25.25-.25.14 0 .25.1.25.25zm1 0c0 .14-.1.25-.25.25-.14 0-.25-.1-.25-.25 0-.14.1-.25.25-.25.14 0 .25.1.25.25zm1 0c0 .14-.1.25-.25.25-.14 0-.25-.1-.25-.25 0-.14.1-.25.25-.25.14 0 .25.1.25.25zm1 0c0 .14-.1.25-.25.25-.14 0-.25-.1-.25-.25 0-.14.1-.25.25-.25.14 0 .25.1.25.25zm1 0c0 .14-.1.25-.25.25-.14 0-.25-.1-.25-.25 0-.14.1-.25.25-.25.14 0 .25.1.25.25zm1 0c0 .14-.1.25-.25.25-.14 0-.25-.1-.25-.25 0-.14.1-.25.25-.25.14 0 .25.1.25.25zm1 0c0 .14-.1.25-.25.25-.14 0-.25-.1-.25-.25 0-.14.1-.25.25-.25.14 0 .25.1.25.25zm1 0c0 .14-.1.25-.25.25-.14 0-.25-.1-.25-.25 0-.14.1-.25.25-.25.14 0 .25.1.25.25zm1 0c0 .14-.1.25-.25.25-.14 0-.25-.1-.25-.25 0-.14.1-.25.25-.25.14 0 .25.1.25.25zm1 0c0 .14-.1.25-.25.25-.14 0-.25-.1-.25-.25 0-.14.1-.25.25-.25.14 0 .25.1.25.25zm1 0c0 .14-.1.25-.25.25-.14 0-.25-.1-.25-.25 0-.14.1-.25.25-.25.14 0 .25.1.25.25zm1 0c0 .14-.1.25-.25.25-.14 0-.25-.1-.25-.25 0-.14.1-.25.25-.25.14 0 .25.1.25.25zm1 0c0 .14-.1.25-.25.25-.14 0-.25-.1-.25-.25 0-.14.1-.25.25-.25.14 0 .25.1.25.25zm1 0c0 .14-.1.25-.25.25-.14 0-.25-.1-.25-.25 0-.14.1-.25.25-.25.14 0 .25.1.25.25zm1 0c0 .14-.1.25-.25.25-.14 0-.25-.1-.25-.25 0-.14.1-.25.25-.25.14 0 .25.1.25.25zm1 0c0 .14-.1.25-.25.25-.14 0-.25-.1-.25-.25 0-.14.1-.25.25-.25.14 0 .25.1.25.25zm1 0c0 .14-.1.25-.25.25-.14 0-.25-.1-.25-.25 0-.14.1-.25.25-.25.14 0 .25.1.25.25zm1 0c0 .14-.1.25-.25.25-.14 0-.25-.1-.25-.25 0-.14.1-.25.25-.25.14 0 .25.1.25.25zm1 0c0 .14-.1.25-.25.25-.14 0-.25-.1-.25-.25 0-.14.1-.25.25-.25.14 0 .25.1.25.25zm1 0c0 .14-.1.25-.25.25-.14 0-.25-.1-.25-.25 0-.14.1-.25.25-.25.14 0 .25.1.25.25zm1 0c0 .14-.1.25-.25.25-.14 0-.25-.1-.25-.25 0-.14.1-.25.25-.25.14 0 .25.1.25.25zm1 0c0 .14-.1.25-.25.25-.14 0-.25-.1-.25-.25 0-.14.1-.25.25-.25.14 0 .25.1.25.25zm1 0c0 .14-.1.25-.25.25-.14 0-.25-.1-.25-.25 0-.14.1-.25.25-.25.14 0 .25.1.25.25zm1 0c0 .14-.1.25-.25.25-.14 0-.25-.1-.25-.25 0-.14.1-.25.25-.25.14 0 .25.1.25.25zm1 0c0 .14-.1.25-.25.25-.14 0-.25-.1-.25-.25 0-.14.1-.25.25-.25.14 0 .25.1.25.25zm1 0c0 .14-.1.25-.25.25-.14 0-.25-.1-.25-.25 0-.14.1-.25.25-.25.14 0 .25.1.25.25zm1 0c0 .14-.1.25-.25.25-.14 0-.25-.1-.25-.25 0-.14.1-.25.25-.25.14 0 .25.1.25.25zm1 0c0 .14-.1.25-.25.25-.14 0-.25-.1-.25-.25 0-.14.1-.25.25-.25.14 0 .25.1.25.25zm1 0c0 .14-.1.25-.25.25-.14 0-.25-.1-.25-.25 0-.14.1-.25.25-.25.14 0 .25.1.25.25zm1 0c0 .14-.1.25-.25.25-.14 0-.25-.1-.25-.25 0-.14.1-.25.25-.25.14 0 .25.1.25.25zm1 0c0 .14-.1.25-.25.25-.14 0-.25-.1-.25-.25 0-.14.1-.25.25-.25.14 0 .25.1.25.25zm1 0c0 .14-.1.25-.25.25-.14 0-.25-.1-.25-.25 0-.14.1-.25.25-.25.14 0 .25.1.25.25zm1 0c0 .14-.1.25-.25.25-.14 0-.25-.1-.25-.25 0-.14.1-.25.25-.25.14 0 .25.1.25.25zm1 0c0 .14-.1.25-.25.25-.14 0-.25-.1-.25-.25 0-.14.1-.25.25-.25.14 0 .25.1.25.25zm1 0c0 .14-.1.25-.25.25-.14 0-.25-.1-.25-.25 0-.14.1-.25.25-.25.14 0 .25.1.25.25zm1 0c0 .14-.1.25-.25.25-.14 0-.25-.1-.25-.25 0-.14.1-.25.25-.25.14 0 .25.1.25.25zm1 0c0 .14-.1.25-.25.25-.14 0-.25-.1-.25-.25 0-.14.1-.25.25-.25.14 0 .25.1.25.25zm1 0c0 .14-.1.25-.25.25-.14 0-.25-.1-.25-.25 0-.14.1-.25.25-.25.14 0 .25.1.25.25zm1 0c0 .14-.1.25-.25.25-.14 0-.25-.1-.25-.25 0-.14.1-.25.25-.25.14 0 .25.1.25.25zm1 0c0 .14-.1.25-.25.25-.14 0-.25-.1-.25-.25 0-.14.1-.25.25-.25.14 0 .25.1.25.25zm1 0c0 .14-.1.25-.25.25-.14 0-.25-.1-.25-.25 0-.14.1-.25.25-.25.14 0 .25.1.25.25zm1 0c0 .14-.1.25-.25.25-.14 0-.25-.1-.25-.25 0-.14.1-.25.25-.25.14 0 .25.1.25.25zm1 0c0 .14-.1.25-.25.25-.14 0-.25-.1-.25-.25 0-.14.1-.25.25-.25.14 0 .25.1.25.25zm1 0c0 .14-.1.25-.25.25-.14 0-.25-.1-.25-.25 0-.14.1-.25.25-.25.14 0 .25.1.25.25zm1 0c0 .14-.1.25-.25.25-.14 0-.25-.1-.25-.25 0-.14.1-.25.25-.25.14 0 .25.1.25.25zm1 0c0 .14-.1.25-.25.25-.14 0-.25-.1-.25-.25 0-.14.1-.25.25-.25.14 0 .25.1.25.25zm1 0c0 .14-.1.25-.25.25-.14 0-.25-.1-.25-.25 0-.14.1-.25.25-.25.14 0 .25.1.25.25zm1 0c0 .14-.1.25-.25.25-.14 0-.25-.1-.25-.25 0-.14.1-.25.25-.25.14 0 .25.1.25.25zm1 0c0 .14-.1.25-.25.25-.14 0-.25-.1-.25-.25 0-.14.1-.25.25-.25.14 0 .25.1.25.25zm1 0c0 .14-.1.25-.25.25-.14 0-.25-.1-.25-.25 0-.14.1-.25.25-.25.14 0 .25.1.25.25zm1 0c0 .14-.1.25-.25.25-.14 0-.25-.1-.25-.25 0-.14.1-.25.25-.25.14 0 .25.1.25.25zm1 0c0 .14-.1.25-.25.25-.14 0-.25-.1-.25-.25 0-.14.1-.25.25-.25.14 0 .25.1.25.25zm1 0c0 .14-.1.25-.25.25-.14 0-.25-.1-.25-.25 0-.14.1-.25.25-.25.14 0 .25.1.25.25zm1 0c0 .14-.1.25-.25.25-.14 0-.25-.1-.25-.25 0-.14.1-.25.25-.25.14 0 .25.1.25.25zm1 0c0 .14-.1.25-.25.25-.14 0-.25-.1-.25-.25 0-.14.1-.25.25-.25.14 0 .25.1.25.25zm1 0c0 .14-.1.25-.25.25-.14 0-.25-.1-.25-.25 0-.14.1-.25.25-.25.14 0 .25.1.25.25zm1 0c0 .14-.1.25-.25.25-.14 0-.25-.1-.25-.25 0-.14.1-.25.25-.25.14 0 .25.1.25.25zm.92.3c0 .14-.1.25-.25.25-.14 0-.25-.1-.25-.25 0-.14.1-.25.25-.25.14 0 .25.1.25.25zm.92.3c0 .14-.12.25-.26.25s-.25-.1-.25-.25c0-.14.1-.25.24-.25.14 0 .25.1.25.25zm.9.3c0 .14-.1.25-.24.25-.14 0-.25-.1-.25-.25 0-.14.12-.25.26-.25s.25.1.25.25zm.66.68c0 .14-.12.25-.25.25s-.24-.1-.24-.25c0-.13.1-.25.25-.25.14 0 .26.12.26.25zm.57.8c0 .12-.12.24-.25.24-.14 0-.25-.12-.25-.25 0-.14.1-.25.25-.25.13 0 .25.1.25.25zm.57.77c0 .14-.1.25-.25.25-.14 0-.25-.1-.25-.25 0-.14.1-.25.25-.25.14 0 .25.1.25.25zm.3.9c0 .13-.12.24-.25.24-.14 0-.25-.12-.25-.26 0-.13.1-.25.25-.25.13 0 .25.1.25.24zm.15.95c0 .14-.1.25-.25.25-.14 0-.25-.1-.25-.25 0-.14.1-.25.25-.25.14 0 .25.1.25.25zm0 1c0 .14-.1.25-.25.25-.14 0-.25-.1-.25-.25 0-.14.1-.25.25-.25.14 0 .25.1.25.25zm0 1c0 .14-.1.25-.25.25-.14 0-.25-.1-.25-.25 0-.14.1-.25.25-.25.14 0 .25.1.25.25zm0 1c0 .14-.1.25-.25.25-.14 0-.25-.1-.25-.25 0-.14.1-.25.25-.25.14 0 .25.1.25.25zm0 1c0 .14-.1.25-.25.25-.14 0-.25-.1-.25-.25 0-.14.1-.25.25-.25.14 0 .25.1.25.25zm0 1c0 .14-.1.25-.25.25-.14 0-.25-.1-.25-.25 0-.14.1-.25.25-.25.14 0 .25.1.25.25zm0 1c0 .14-.1.25-.25.25-.14 0-.25-.1-.25-.25 0-.14.1-.25.25-.25.14 0 .25.1.25.25zm0 1c0 .14-.1.25-.25.25-.14 0-.25-.1-.25-.25 0-.14.1-.25.25-.25.14 0 .25.1.25.25zm0 1c0 .14-.1.25-.25.25-.14 0-.25-.1-.25-.25 0-.14.1-.25.25-.25.14 0 .25.1.25.25zm0 1c0 .14-.1.25-.25.25-.14 0-.25-.1-.25-.25 0-.14.1-.25.25-.25.14 0 .25.1.25.25zm0 1c0 .14-.1.25-.25.25-.14 0-.25-.1-.25-.25 0-.14.1-.25.25-.25.14 0 .25.1.25.25zm0 1c0 .14-.1.25-.25.25-.14 0-.25-.1-.25-.25 0-.14.1-.25.25-.25.14 0 .25.1.25.25zm0 1c0 .14-.1.25-.25.25-.14 0-.25-.1-.25-.25 0-.14.1-.25.25-.25.14 0 .25.1.25.25zm0 1c0 .14-.1.25-.25.25-.14 0-.25-.1-.25-.25 0-.14.1-.25.25-.25.14 0 .25.1.25.25zm0 1c0 .14-.1.25-.25.25-.14 0-.25-.1-.25-.25 0-.14.1-.25.25-.25.14 0 .25.1.25.25zm0 1c0 .14-.1.25-.25.25-.14 0-.25-.1-.25-.25 0-.14.1-.25.25-.25.14 0 .25.1.25.25zm0 1c0 .14-.1.25-.25.25-.14 0-.25-.1-.25-.25 0-.14.1-.25.25-.25.14 0 .25.1.25.25zm0 1c0 .14-.1.25-.25.25-.14 0-.25-.1-.25-.25 0-.14.1-.25.25-.25.14 0 .25.1.25.25zm0 1c0 .14-.1.25-.25.25-.14 0-.25-.1-.25-.25 0-.14.1-.25.25-.25.14 0 .25.1.25.25zm0 1c0 .14-.1.25-.25.25-.14 0-.25-.1-.25-.25 0-.14.1-.25.25-.25.14 0 .25.1.25.25zm0 1c0 .14-.1.25-.25.25-.14 0-.25-.1-.25-.25 0-.14.1-.25.25-.25.14 0 .25.1.25.25zm0 1c0 .14-.1.25-.25.25-.14 0-.25-.1-.25-.25 0-.14.1-.25.25-.25.14 0 .25.1.25.25zm0 1c0 .14-.1.25-.25.25-.14 0-.25-.1-.25-.25 0-.14.1-.25.25-.25.14 0 .25.1.25.25zm0 1c0 .14-.1.25-.25.25-.14 0-.25-.1-.25-.25 0-.14.1-.25.25-.25.14 0 .25.1.25.25zm0 1c0 .14-.1.25-.25.25-.14 0-.25-.1-.25-.25 0-.14.1-.25.25-.25.14 0 .25.1.25.25zm0 1c0 .14-.1.25-.25.25-.14 0-.25-.1-.25-.25 0-.14.1-.25.25-.25.14 0 .25.1.25.25zm0 1c0 .14-.1.25-.25.25-.14 0-.25-.1-.25-.25 0-.14.1-.25.25-.25.14 0 .25.1.25.25zm0 1c0 .14-.1.25-.25.25-.14 0-.25-.1-.25-.25 0-.14.1-.25.25-.25.14 0 .25.1.25.25zm0 1c0 .14-.1.25-.25.25-.14 0-.25-.1-.25-.25 0-.14.1-.25.25-.25.14 0 .25.1.25.25zm0 1c0 .14-.1.25-.25.25-.14 0-.25-.1-.25-.25 0-.14.1-.25.25-.25.14 0 .25.1.25.25zm0 1c0 .14-.1.25-.25.25-.14 0-.25-.1-.25-.25 0-.14.1-.25.25-.25.14 0 .25.1.25.25zm0 1c0 .14-.1.25-.25.25-.14 0-.25-.1-.25-.25 0-.14.1-.25.25-.25.14 0 .25.1.25.25zm0 1c0 .14-.1.25-.25.25-.14 0-.25-.1-.25-.25 0-.14.1-.25.25-.25.14 0 .25.1.25.25zm0 1c0 .14-.1.25-.25.25-.14 0-.25-.1-.25-.25 0-.14.1-.25.25-.25.14 0 .25.1.25.25zm0 1c0 .14-.1.25-.25.25-.14 0-.25-.1-.25-.25 0-.14.1-.25.25-.25.14 0 .25.1.25.25zm0 1c0 .14-.1.25-.25.25-.14 0-.25-.1-.25-.25 0-.14.1-.25.25-.25.14 0 .25.1.25.25zm0 1c0 .14-.1.25-.25.25-.14 0-.25-.1-.25-.25 0-.14.1-.25.25-.25.14 0 .25.1.25.25zm0 1c0 .14-.1.25-.25.25-.14 0-.25-.1-.25-.25 0-.14.1-.25.25-.25.14 0 .25.1.25.25zm0 1c0 .14-.1.25-.25.25-.14 0-.25-.1-.25-.25 0-.14.1-.25.25-.25.14 0 .25.1.25.25zm0 1c0 .14-.1.25-.25.25-.14 0-.25-.1-.25-.25 0-.14.1-.25.25-.25.14 0 .25.1.25.25zm0 1c0 .14-.1.25-.25.25-.14 0-.25-.1-.25-.25 0-.14.1-.25.25-.25.14 0 .25.1.25.25zm0 1c0 .14-.1.25-.25.25-.14 0-.25-.1-.25-.25 0-.14.1-.25.25-.25.14 0 .25.1.25.25zm0 1c0 .14-.1.25-.25.25-.14 0-.25-.1-.25-.25 0-.14.1-.25.25-.25.14 0 .25.1.25.25zm0 1c0 .14-.1.25-.25.25-.14 0-.25-.1-.25-.25 0-.14.1-.25.25-.25.14 0 .25.1.25.25zm0 1c0 .14-.1.25-.25.25-.14 0-.25-.1-.25-.25 0-.14.1-.25.25-.25.14 0 .25.1.25.25zm0 1c0 .14-.1.25-.25.25-.14 0-.25-.1-.25-.25 0-.14.1-.25.25-.25.14 0 .25.1.25.25zm0 1c0 .14-.1.25-.25.25-.14 0-.25-.1-.25-.25 0-.14.1-.25.25-.25.14 0 .25.1.25.25zm0 1c0 .14-.1.25-.25.25-.14 0-.25-.1-.25-.25 0-.14.1-.25.25-.25.14 0 .25.1.25.25zm0 1c0 .14-.1.25-.25.25-.14 0-.25-.1-.25-.25 0-.14.1-.25.25-.25.14 0 .25.1.25.25zm0 1c0 .14-.1.25-.25.25-.14 0-.25-.1-.25-.25 0-.14.1-.25.25-.25.14 0 .25.1.25.25zm0 1c0 .14-.1.25-.25.25-.14 0-.25-.1-.25-.25 0-.14.1-.25.25-.25.14 0 .25.1.25.25zm0 1c0 .14-.1.25-.25.25-.14 0-.25-.1-.25-.25 0-.14.1-.25.25-.25.14 0 .25.1.25.25zm0 1c0 .14-.1.25-.25.25-.14 0-.25-.1-.25-.25 0-.14.1-.25.25-.25.14 0 .25.1.25.25zm0 1c0 .14-.1.25-.25.25-.14 0-.25-.1-.25-.25 0-.14.1-.25.25-.25.14 0 .25.1.25.25zm0 1c0 .14-.1.25-.25.25-.14 0-.25-.1-.25-.25 0-.14.1-.25.25-.25.14 0 .25.1.25.25zm0 1c0 .14-.1.25-.25.25-.14 0-.25-.1-.25-.25 0-.14.1-.25.25-.25.14 0 .25.1.25.25zm0 1c0 .14-.1.25-.25.25-.14 0-.25-.1-.25-.25 0-.14.1-.25.25-.25.14 0 .25.1.25.25zm0 1c0 .14-.1.25-.25.25-.14 0-.25-.1-.25-.25 0-.14.1-.25.25-.25.14 0 .25.1.25.25zm0 1c0 .14-.1.25-.25.25-.14 0-.25-.1-.25-.25 0-.14.1-.25.25-.25.14 0 .25.1.25.25zm0 1c0 .14-.1.25-.25.25-.14 0-.25-.1-.25-.25 0-.14.1-.25.25-.25.14 0 .25.1.25.25zm0 1c0 .14-.1.25-.25.25-.14 0-.25-.1-.25-.25 0-.14.1-.25.25-.25.14 0 .25.1.25.25zm0 1c0 .14-.1.25-.25.25-.14 0-.25-.1-.25-.25 0-.14.1-.25.25-.25.14 0 .25.1.25.25zm0 1c0 .14-.1.25-.25.25-.14 0-.25-.1-.25-.25 0-.14.1-.25.25-.25.14 0 .25.1.25.25zm0 1c0 .14-.1.25-.25.25-.14 0-.25-.1-.25-.25 0-.14.1-.25.25-.25.14 0 .25.1.25.25zm0 1c0 .14-.1.25-.25.25-.14 0-.25-.1-.25-.25 0-.14.1-.25.25-.25.14 0 .25.1.25.25zm0 1c0 .14-.1.25-.25.25-.14 0-.25-.1-.25-.25 0-.14.1-.25.25-.25.14 0 .25.1.25.25zm0 1c0 .14-.1.25-.25.25-.14 0-.25-.1-.25-.25 0-.14.1-.25.25-.25.14 0 .25.1.25.25zm0 1c0 .14-.1.25-.25.25-.14 0-.25-.1-.25-.25 0-.14.1-.25.25-.25.14 0 .25.1.25.25zm0 1c0 .14-.1.25-.25.25-.14 0-.25-.1-.25-.25 0-.14.1-.25.25-.25.14 0 .25.1.25.25zm0 1c0 .14-.1.25-.25.25-.14 0-.25-.1-.25-.25 0-.14.1-.25.25-.25.14 0 .25.1.25.25zm0 1c0 .14-.1.25-.25.25-.14 0-.25-.1-.25-.25 0-.14.1-.25.25-.25.14 0 .25.1.25.25zm0 1c0 .14-.1.25-.25.25-.14 0-.25-.1-.25-.25 0-.14.1-.25.25-.25.14 0 .25.1.25.25zm0 1c0 .14-.1.25-.25.25-.14 0-.25-.1-.25-.25 0-.14.1-.25.25-.25.14 0 .25.1.25.25zm0 1c0 .14-.1.25-.25.25-.14 0-.25-.1-.25-.25 0-.14.1-.25.25-.25.14 0 .25.1.25.25zm0 1c0 .14-.1.25-.25.25-.14 0-.25-.1-.25-.25 0-.14.1-.25.25-.25.14 0 .25.1.25.25zm0 1c0 .14-.1.25-.25.25-.14 0-.25-.1-.25-.25 0-.14.1-.25.25-.25.14 0 .25.1.25.25zm0 1c0 .14-.1.25-.25.25-.14 0-.25-.1-.25-.25 0-.14.1-.25.25-.25.14 0 .25.1.25.25zm0 1c0 .14-.1.25-.25.25-.14 0-.25-.1-.25-.25 0-.14.1-.25.25-.25.14 0 .25.1.25.25zm0 1c0 .14-.1.25-.25.25-.14 0-.25-.1-.25-.25 0-.14.1-.25.25-.25.14 0 .25.1.25.25zm0 1c0 .14-.1.25-.25.25-.14 0-.25-.1-.25-.25 0-.14.1-.25.25-.25.14 0 .25.1.25.25zm0 1c0 .14-.1.25-.25.25-.14 0-.25-.1-.25-.25 0-.14.1-.25.25-.25.14 0 .25.1.25.25zm0 1c0 .14-.1.25-.25.25-.14 0-.25-.1-.25-.25 0-.14.1-.25.25-.25.14 0 .25.1.25.25zm0 1c0 .14-.1.25-.25.25-.14 0-.25-.1-.25-.25 0-.14.1-.25.25-.25.14 0 .25.1.25.25zm0 1c0 .14-.1.25-.25.25-.14 0-.25-.1-.25-.25 0-.14.1-.25.25-.25.14 0 .25.1.25.25zm0 1c0 .14-.1.25-.25.25-.14 0-.25-.1-.25-.25 0-.14.1-.25.25-.25.14 0 .25.1.25.25zm0 1c0 .14-.1.25-.25.25-.14 0-.25-.1-.25-.25 0-.14.1-.25.25-.25.14 0 .25.1.25.25zm0 1c0 .14-.1.25-.25.25-.14 0-.25-.1-.25-.25 0-.14.1-.25.25-.25.14 0 .25.1.25.25zm0 1c0 .14-.1.25-.25.25-.14 0-.25-.1-.25-.25 0-.14.1-.25.25-.25.14 0 .25.1.25.25zm0 1c0 .14-.1.25-.25.25-.14 0-.25-.1-.25-.25 0-.14.1-.25.25-.25.14 0 .25.1.25.25zm0 1c0 .14-.1.25-.25.25-.14 0-.25-.1-.25-.25 0-.14.1-.25.25-.25.14 0 .25.1.25.25zm0 1c0 .14-.1.25-.25.25-.14 0-.25-.1-.25-.25 0-.14.1-.25.25-.25.14 0 .25.1.25.25zm-.3.92c0 .14-.1.25-.25.25-.14 0-.25-.1-.25-.25 0-.14.1-.25.25-.25.14 0 .25.1.25.25zm-.3.92c0 .14-.1.25-.25.25-.14 0-.25-.12-.25-.26s.1-.25.25-.25c.14 0 .25.1.25.24zm-.3.92c0 .14-.1.25-.25.25-.14 0-.25-.1-.25-.24 0-.14.1-.25.25-.25.14 0 .25.12.25.26zm-.68.65c0 .14-.12.26-.25.26-.14 0-.25-.12-.25-.25s.1-.24.25-.24c.13 0 .25.1.25.25zm-.8.58c0 .13-.1.25-.24.25-.13 0-.25-.12-.25-.25 0-.14.12-.25.25-.25.14 0 .25.1.25.25zm-.77.57c0 .14-.1.25-.25.25-.14 0-.25-.1-.25-.25 0-.14.1-.25.25-.25.14 0 .25.1.25.25zm-.9.3c0 .13-.1.25-.24.25-.14 0-.25-.12-.25-.25 0-.14.12-.25.26-.25.13 0 .25.1.25.25zm-.95.15c0 .14-.1.25-.25.25-.14 0-.25-.1-.25-.25 0-.14.1-.25.25-.25.14 0 .25.1.25.25zm-1 0c0 .14-.1.25-.25.25-.14 0-.25-.1-.25-.25 0-.14.1-.25.25-.25.14 0 .25.1.25.25zm-1 0c0 .14-.1.25-.25.25-.14 0-.25-.1-.25-.25 0-.14.1-.25.25-.25.14 0 .25.1.25.25zm-1 0c0 .14-.1.25-.25.25-.14 0-.25-.1-.25-.25 0-.14.1-.25.25-.25.14 0 .25.1.25.25zm-1 0c0 .14-.1.25-.25.25-.14 0-.25-.1-.25-.25 0-.14.1-.25.25-.25.14 0 .25.1.25.25zm-1 0c0 .14-.1.25-.25.25-.14 0-.25-.1-.25-.25 0-.14.1-.25.25-.25.14 0 .25.1.25.25zm-1 0c0 .14-.1.25-.25.25-.14 0-.25-.1-.25-.25 0-.14.1-.25.25-.25.14 0 .25.1.25.25zm-1 0c0 .14-.1.25-.25.25-.14 0-.25-.1-.25-.25 0-.14.1-.25.25-.25.14 0 .25.1.25.25zm-1 0c0 .14-.1.25-.25.25-.14 0-.25-.1-.25-.25 0-.14.1-.25.25-.25.14 0 .25.1.25.25zm-1 0c0 .14-.1.25-.25.25-.14 0-.25-.1-.25-.25 0-.14.1-.25.25-.25.14 0 .25.1.25.25zm-1 0c0 .14-.1.25-.25.25-.14 0-.25-.1-.25-.25 0-.14.1-.25.25-.25.14 0 .25.1.25.25zm-1 0c0 .14-.1.25-.25.25-.14 0-.25-.1-.25-.25 0-.14.1-.25.25-.25.14 0 .25.1.25.25zm-1 0c0 .14-.1.25-.25.25-.14 0-.25-.1-.25-.25 0-.14.1-.25.25-.25.14 0 .25.1.25.25zm-1 0c0 .14-.1.25-.25.25-.14 0-.25-.1-.25-.25 0-.14.1-.25.25-.25.14 0 .25.1.25.25zm-1 0c0 .14-.1.25-.25.25-.14 0-.25-.1-.25-.25 0-.14.1-.25.25-.25.14 0 .25.1.25.25zm-1 0c0 .14-.1.25-.25.25-.14 0-.25-.1-.25-.25 0-.14.1-.25.25-.25.14 0 .25.1.25.25zm-1 0c0 .14-.1.25-.25.25-.14 0-.25-.1-.25-.25 0-.14.1-.25.25-.25.14 0 .25.1.25.25zm-1 0c0 .14-.1.25-.25.25-.14 0-.25-.1-.25-.25 0-.14.1-.25.25-.25.14 0 .25.1.25.25zm-1 0c0 .14-.1.25-.25.25-.14 0-.25-.1-.25-.25 0-.14.1-.25.25-.25.14 0 .25.1.25.25zm-1 0c0 .14-.1.25-.25.25-.14 0-.25-.1-.25-.25 0-.14.1-.25.25-.25.14 0 .25.1.25.25zm-1 0c0 .14-.1.25-.25.25-.14 0-.25-.1-.25-.25 0-.14.1-.25.25-.25.14 0 .25.1.25.25zm-1 0c0 .14-.1.25-.25.25-.14 0-.25-.1-.25-.25 0-.14.1-.25.25-.25.14 0 .25.1.25.25zm-1 0c0 .14-.1.25-.25.25-.14 0-.25-.1-.25-.25 0-.14.1-.25.25-.25.14 0 .25.1.25.25zm-1 0c0 .14-.1.25-.25.25-.14 0-.25-.1-.25-.25 0-.14.1-.25.25-.25.14 0 .25.1.25.25zm-1 0c0 .14-.1.25-.25.25-.14 0-.25-.1-.25-.25 0-.14.1-.25.25-.25.14 0 .25.1.25.25zm-1 0c0 .14-.1.25-.25.25-.14 0-.25-.1-.25-.25 0-.14.1-.25.25-.25.14 0 .25.1.25.25zm-1 0c0 .14-.1.25-.25.25-.14 0-.25-.1-.25-.25 0-.14.1-.25.25-.25.14 0 .25.1.25.25zm-1 0c0 .14-.1.25-.25.25-.14 0-.25-.1-.25-.25 0-.14.1-.25.25-.25.14 0 .25.1.25.25zm-1 0c0 .14-.1.25-.25.25-.14 0-.25-.1-.25-.25 0-.14.1-.25.25-.25.14 0 .25.1.25.25zm-1 0c0 .14-.1.25-.25.25-.14 0-.25-.1-.25-.25 0-.14.1-.25.25-.25.14 0 .25.1.25.25zm-1 0c0 .14-.1.25-.25.25-.14 0-.25-.1-.25-.25 0-.14.1-.25.25-.25.14 0 .25.1.25.25zm-1 0c0 .14-.1.25-.25.25-.14 0-.25-.1-.25-.25 0-.14.1-.25.25-.25.14 0 .25.1.25.25zm-1 0c0 .14-.1.25-.25.25-.14 0-.25-.1-.25-.25 0-.14.1-.25.25-.25.14 0 .25.1.25.25zm-1 0c0 .14-.1.25-.25.25-.14 0-.25-.1-.25-.25 0-.14.1-.25.25-.25.14 0 .25.1.25.25zm-1 0c0 .14-.1.25-.25.25-.14 0-.25-.1-.25-.25 0-.14.1-.25.25-.25.14 0 .25.1.25.25zm-1 0c0 .14-.1.25-.25.25-.14 0-.25-.1-.25-.25 0-.14.1-.25.25-.25.14 0 .25.1.25.25zm-1 0c0 .14-.1.25-.25.25-.14 0-.25-.1-.25-.25 0-.14.1-.25.25-.25.14 0 .25.1.25.25zm-1 0c0 .14-.1.25-.25.25-.14 0-.25-.1-.25-.25 0-.14.1-.25.25-.25.14 0 .25.1.25.25zm-1 0c0 .14-.1.25-.25.25-.14 0-.25-.1-.25-.25 0-.14.1-.25.25-.25.14 0 .25.1.25.25zm-1 0c0 .14-.1.25-.25.25-.14 0-.25-.1-.25-.25 0-.14.1-.25.25-.25.14 0 .25.1.25.25zm-1 0c0 .14-.1.25-.25.25-.14 0-.25-.1-.25-.25 0-.14.1-.25.25-.25.14 0 .25.1.25.25zm-1 0c0 .14-.1.25-.25.25-.14 0-.25-.1-.25-.25 0-.14.1-.25.25-.25.14 0 .25.1.25.25zm-1 0c0 .14-.1.25-.25.25-.14 0-.25-.1-.25-.25 0-.14.1-.25.25-.25.14 0 .25.1.25.25zm-1 0c0 .14-.1.25-.25.25-.14 0-.25-.1-.25-.25 0-.14.1-.25.25-.25.14 0 .25.1.25.25zm-1 0c0 .14-.1.25-.25.25-.14 0-.25-.1-.25-.25 0-.14.1-.25.25-.25.14 0 .25.1.25.25zm-1 0c0 .14-.1.25-.25.25-.14 0-.25-.1-.25-.25 0-.14.1-.25.25-.25.14 0 .25.1.25.25zm-1 0c0 .14-.1.25-.25.25-.14 0-.25-.1-.25-.25 0-.14.1-.25.25-.25.14 0 .25.1.25.25zm-1 0c0 .14-.1.25-.25.25-.14 0-.25-.1-.25-.25 0-.14.1-.25.25-.25.14 0 .25.1.25.25zm-1 0c0 .14-.1.25-.25.25-.14 0-.25-.1-.25-.25 0-.14.1-.25.25-.25.14 0 .25.1.25.25zm-1 0c0 .14-.1.25-.25.25-.14 0-.25-.1-.25-.25 0-.14.1-.25.25-.25.14 0 .25.1.25.25zm-1 0c0 .14-.1.25-.25.25-.14 0-.25-.1-.25-.25 0-.14.1-.25.25-.25.14 0 .25.1.25.25zm-1 0c0 .14-.1.25-.25.25-.14 0-.25-.1-.25-.25 0-.14.1-.25.25-.25.14 0 .25.1.25.25zm-1 0c0 .14-.1.25-.25.25-.14 0-.25-.1-.25-.25 0-.14.1-.25.25-.25.14 0 .25.1.25.25zm-1 0c0 .14-.1.25-.25.25-.14 0-.25-.1-.25-.25 0-.14.1-.25.25-.25.14 0 .25.1.25.25zm-1 0c0 .14-.1.25-.25.25-.14 0-.25-.1-.25-.25 0-.14.1-.25.25-.25.14 0 .25.1.25.25zm-1 0c0 .14-.1.25-.25.25-.14 0-.25-.1-.25-.25 0-.14.1-.25.25-.25.14 0 .25.1.25.25zm-1 0c0 .14-.1.25-.25.25-.14 0-.25-.1-.25-.25 0-.14.1-.25.25-.25.14 0 .25.1.25.25zm-1 0c0 .14-.1.25-.25.25-.14 0-.25-.1-.25-.25 0-.14.1-.25.25-.25.14 0 .25.1.25.25zm-1 0c0 .14-.1.25-.25.25-.14 0-.25-.1-.25-.25 0-.14.1-.25.25-.25.14 0 .25.1.25.25zm-1 0c0 .14-.1.25-.25.25-.14 0-.25-.1-.25-.25 0-.14.1-.25.25-.25.14 0 .25.1.25.25zm-1 0c0 .14-.1.25-.25.25-.14 0-.25-.1-.25-.25 0-.14.1-.25.25-.25.14 0 .25.1.25.25zm-1 0c0 .14-.1.25-.25.25-.14 0-.25-.1-.25-.25 0-.14.1-.25.25-.25.14 0 .25.1.25.25zm-1 0c0 .14-.1.25-.25.25-.14 0-.25-.1-.25-.25 0-.14.1-.25.25-.25.14 0 .25.1.25.25zm-1 0c0 .14-.1.25-.25.25-.14 0-.25-.1-.25-.25 0-.14.1-.25.25-.25.14 0 .25.1.25.25zm-1 0c0 .14-.1.25-.25.25-.14 0-.25-.1-.25-.25 0-.14.1-.25.25-.25.14 0 .25.1.25.25zm-1 0c0 .14-.1.25-.25.25-.14 0-.25-.1-.25-.25 0-.14.1-.25.25-.25.14 0 .25.1.25.25zm-1 0c0 .14-.1.25-.25.25-.14 0-.25-.1-.25-.25 0-.14.1-.25.25-.25.14 0 .25.1.25.25zm-1 0c0 .14-.1.25-.25.25-.14 0-.25-.1-.25-.25 0-.14.1-.25.25-.25.14 0 .25.1.25.25zm-1 0c0 .14-.1.25-.25.25-.14 0-.25-.1-.25-.25 0-.14.1-.25.25-.25.14 0 .25.1.25.25zm-1 0c0 .14-.1.25-.25.25-.14 0-.25-.1-.25-.25 0-.14.1-.25.25-.25.14 0 .25.1.25.25zm-1 0c0 .14-.1.25-.25.25-.14 0-.25-.1-.25-.25 0-.14.1-.25.25-.25.14 0 .25.1.25.25zm-1 0c0 .14-.1.25-.25.25-.14 0-.25-.1-.25-.25 0-.14.1-.25.25-.25.14 0 .25.1.25.25zm-1 0c0 .14-.1.25-.25.25-.14 0-.25-.1-.25-.25 0-.14.1-.25.25-.25.14 0 .25.1.25.25zm-1 0c0 .14-.1.25-.25.25-.14 0-.25-.1-.25-.25 0-.14.1-.25.25-.25.14 0 .25.1.25.25zm-1 0c0 .14-.1.25-.25.25-.14 0-.25-.1-.25-.25 0-.14.1-.25.25-.25.14 0 .25.1.25.25zm-1 0c0 .14-.1.25-.25.25-.14 0-.25-.1-.25-.25 0-.14.1-.25.25-.25.14 0 .25.1.25.25zm-1 0c0 .14-.1.25-.25.25-.14 0-.25-.1-.25-.25 0-.14.1-.25.25-.25.14 0 .25.1.25.25zm-1 0c0 .14-.1.25-.25.25-.14 0-.25-.1-.25-.25 0-.14.1-.25.25-.25.14 0 .25.1.25.25zm-1 0c0 .14-.1.25-.25.25-.14 0-.25-.1-.25-.25 0-.14.1-.25.25-.25.14 0 .25.1.25.25zm-1 0c0 .14-.1.25-.25.25-.14 0-.25-.1-.25-.25 0-.14.1-.25.25-.25.14 0 .25.1.25.25zm-1 0c0 .14-.1.25-.25.25-.14 0-.25-.1-.25-.25 0-.14.1-.25.25-.25.14 0 .25.1.25.25zm-1 0c0 .14-.1.25-.25.25-.14 0-.25-.1-.25-.25 0-.14.1-.25.25-.25.14 0 .25.1.25.25zm-1 0c0 .14-.1.25-.25.25-.14 0-.25-.1-.25-.25 0-.14.1-.25.25-.25.14 0 .25.1.25.25zm-1 0c0 .14-.1.25-.25.25-.14 0-.25-.1-.25-.25 0-.14.1-.25.25-.25.14 0 .25.1.25.25zm-1 0c0 .14-.1.25-.25.25-.14 0-.25-.1-.25-.25 0-.14.1-.25.25-.25.14 0 .25.1.25.25zm-1 0c0 .14-.1.25-.25.25-.14 0-.25-.1-.25-.25 0-.14.1-.25.25-.25.14 0 .25.1.25.25zm-1 0c0 .14-.1.25-.25.25-.14 0-.25-.1-.25-.25 0-.14.1-.25.25-.25.14 0 .25.1.25.25zm-1 0c0 .14-.1.25-.25.25-.14 0-.25-.1-.25-.25 0-.14.1-.25.25-.25.14 0 .25.1.25.25zm-1 0c0 .14-.1.25-.25.25-.14 0-.25-.1-.25-.25 0-.14.1-.25.25-.25.14 0 .25.1.25.25zm-1 0c0 .14-.1.25-.25.25-.14 0-.25-.1-.25-.25 0-.14.1-.25.25-.25.14 0 .25.1.25.25zm-1 0c0 .14-.1.25-.25.25-.14 0-.25-.1-.25-.25 0-.14.1-.25.25-.25.14 0 .25.1.25.25zm-1 0c0 .14-.1.25-.25.25-.14 0-.25-.1-.25-.25 0-.14.1-.25.25-.25.14 0 .25.1.25.25zm-1 0c0 .14-.1.25-.25.25-.14 0-.25-.1-.25-.25 0-.14.1-.25.25-.25.14 0 .25.1.25.25zm-1 0c0 .14-.1.25-.25.25-.14 0-.25-.1-.25-.25 0-.14.1-.25.25-.25.14 0 .25.1.25.25zm-1 0c0 .14-.1.25-.25.25-.14 0-.25-.1-.25-.25 0-.14.1-.25.25-.25.14 0 .25.1.25.25zm-1 0c0 .14-.1.25-.25.25-.14 0-.25-.1-.25-.25 0-.14.1-.25.25-.25.14 0 .25.1.25.25zm-1 0c0 .14-.1.25-.25.25-.14 0-.25-.1-.25-.25 0-.14.1-.25.25-.25.14 0 .25.1.25.25zm-1 0c0 .14-.1.25-.25.25-.14 0-.25-.1-.25-.25 0-.14.1-.25.25-.25.14 0 .25.1.25.25zm-1 0c0 .14-.1.25-.25.25-.14 0-.25-.1-.25-.25 0-.14.1-.25.25-.25.14 0 .25.1.25.25zm-1 0c0 .14-.1.25-.25.25-.14 0-.25-.1-.25-.25 0-.14.1-.25.25-.25.14 0 .25.1.25.25zm-1 0c0 .14-.1.25-.25.25-.14 0-.25-.1-.25-.25 0-.14.1-.25.25-.25.14 0 .25.1.25.25zm-1 0c0 .14-.1.25-.25.25-.14 0-.25-.1-.25-.25 0-.14.1-.25.25-.25.14 0 .25.1.25.25zm-1 0c0 .14-.1.25-.25.25-.14 0-.25-.1-.25-.25 0-.14.1-.25.25-.25.14 0 .25.1.25.25zm-1 0c0 .14-.1.25-.25.25-.14 0-.25-.1-.25-.25 0-.14.1-.25.25-.25.14 0 .25.1.25.25zm-1 0c0 .14-.1.25-.25.25-.14 0-.25-.1-.25-.25 0-.14.1-.25.25-.25.14 0 .25.1.25.25zm-1 0c0 .14-.1.25-.25.25-.14 0-.25-.1-.25-.25 0-.14.1-.25.25-.25.14 0 .25.1.25.25zm-1 0c0 .14-.1.25-.25.25-.14 0-.25-.1-.25-.25 0-.14.1-.25.25-.25.14 0 .25.1.25.25zm-1 0c0 .14-.1.25-.25.25-.14 0-.25-.1-.25-.25 0-.14.1-.25.25-.25.14 0 .25.1.25.25zm-1 0c0 .14-.1.25-.25.25-.14 0-.25-.1-.25-.25 0-.14.1-.25.25-.25.14 0 .25.1.25.25zm-1 0c0 .14-.1.25-.25.25-.14 0-.25-.1-.25-.25 0-.14.1-.25.25-.25.14 0 .25.1.25.25zm-1 0c0 .14-.1.25-.25.25-.14 0-.25-.1-.25-.25 0-.14.1-.25.25-.25.14 0 .25.1.25.25zm-1 0c0 .14-.1.25-.25.25-.14 0-.25-.1-.25-.25 0-.14.1-.25.25-.25.14 0 .25.1.25.25zm-1 0c0 .14-.1.25-.25.25-.14 0-.25-.1-.25-.25 0-.14.1-.25.25-.25.14 0 .25.1.25.25zm-1 0c0 .14-.1.25-.25.25-.14 0-.25-.1-.25-.25 0-.14.1-.25.25-.25.14 0 .25.1.25.25zm-1 0c0 .14-.1.25-.25.25-.14 0-.25-.1-.25-.25 0-.14.1-.25.25-.25.14 0 .25.1.25.25zm-1 0c0 .14-.1.25-.25.25-.14 0-.25-.1-.25-.25 0-.14.1-.25.25-.25.14 0 .25.1.25.25zm-1 0c0 .14-.1.25-.25.25-.14 0-.25-.1-.25-.25 0-.14.1-.25.25-.25.14 0 .25.1.25.25zm-1 0c0 .14-.1.25-.25.25-.14 0-.25-.1-.25-.25 0-.14.1-.25.25-.25.14 0 .25.1.25.25zm-1 0c0 .14-.1.25-.25.25-.14 0-.25-.1-.25-.25 0-.14.1-.25.25-.25.14 0 .25.1.25.25zm-1 0c0 .14-.1.25-.25.25-.14 0-.25-.1-.25-.25 0-.14.1-.25.25-.25.14 0 .25.1.25.25zm-1 0c0 .14-.1.25-.25.25-.14 0-.25-.1-.25-.25 0-.14.1-.25.25-.25.14 0 .25.1.25.25zm-1 0c0 .14-.1.25-.25.25-.14 0-.25-.1-.25-.25 0-.14.1-.25.25-.25.14 0 .25.1.25.25zm-1 0c0 .14-.1.25-.25.25-.14 0-.25-.1-.25-.25 0-.14.1-.25.25-.25.14 0 .25.1.25.25zm-1 0c0 .14-.1.25-.25.25-.14 0-.25-.1-.25-.25 0-.14.1-.25.25-.25.14 0 .25.1.25.25zm-1 0c0 .14-.1.25-.25.25-.14 0-.25-.1-.25-.25 0-.14.1-.25.25-.25.14 0 .25.1.25.25zm-1 0c0 .14-.1.25-.25.25-.14 0-.25-.1-.25-.25 0-.14.1-.25.25-.25.14 0 .25.1.25.25zm-1 0c0 .14-.1.25-.25.25-.14 0-.25-.1-.25-.25 0-.14.1-.25.25-.25.14 0 .25.1.25.25zm-1 0c0 .14-.1.25-.25.25-.14 0-.25-.1-.25-.25 0-.14.1-.25.25-.25.14 0 .25.1.25.25zm-1 0c0 .14-.1.25-.25.25-.14 0-.25-.1-.25-.25 0-.14.1-.25.25-.25.14 0 .25.1.25.25zm-1 0c0 .14-.1.25-.25.25-.14 0-.25-.1-.25-.25 0-.14.1-.25.25-.25.14 0 .25.1.25.25zm-1 0c0 .14-.1.25-.25.25-.14 0-.25-.1-.25-.25 0-.14.1-.25.25-.25.14 0 .25.1.25.25zm-1 0c0 .14-.1.25-.25.25-.14 0-.25-.1-.25-.25 0-.14.1-.25.25-.25.14 0 .25.1.25.25zm-1 0c0 .14-.1.25-.25.25-.14 0-.25-.1-.25-.25 0-.14.1-.25.25-.25.14 0 .25.1.25.25zm-1 0c0 .14-.1.25-.25.25-.14 0-.25-.1-.25-.25 0-.14.1-.25.25-.25.14 0 .25.1.25.25zm-1 0c0 .14-.1.25-.25.25-.14 0-.25-.1-.25-.25 0-.14.1-.25.25-.25.14 0 .25.1.25.25zm-1 0c0 .14-.1.25-.25.25-.14 0-.25-.1-.25-.25 0-.14.1-.25.25-.25.14 0 .25.1.25.25zm-1 0c0 .14-.1.25-.25.25-.14 0-.25-.1-.25-.25 0-.14.1-.25.25-.25.14 0 .25.1.25.25zm-1 0c0 .14-.1.25-.25.25-.14 0-.25-.1-.25-.25 0-.14.1-.25.25-.25.14 0 .25.1.25.25zm-1 0c0 .14-.1.25-.25.25-.14 0-.25-.1-.25-.25 0-.14.1-.25.25-.25.14 0 .25.1.25.25zm-1 0c0 .14-.1.25-.25.25-.14 0-.25-.1-.25-.25 0-.14.1-.25.25-.25.14 0 .25.1.25.25zm-1 0c0 .14-.1.25-.25.25-.14 0-.25-.1-.25-.25 0-.14.1-.25.25-.25.14 0 .25.1.25.25zm-1 0c0 .14-.1.25-.25.25-.14 0-.25-.1-.25-.25 0-.14.1-.25.25-.25.14 0 .25.1.25.25zm-1 0c0 .14-.1.25-.25.25-.14 0-.25-.1-.25-.25 0-.14.1-.25.25-.25.14 0 .25.1.25.25zm-1 0c0 .14-.1.25-.25.25-.14 0-.25-.1-.25-.25 0-.14.1-.25.25-.25.14 0 .25.1.25.25zm-1 0c0 .14-.1.25-.25.25-.14 0-.25-.1-.25-.25 0-.14.1-.25.25-.25.14 0 .25.1.25.25zm-1 0c0 .14-.1.25-.25.25-.14 0-.25-.1-.25-.25 0-.14.1-.25.25-.25.14 0 .25.1.25.25zm-1 0c0 .14-.1.25-.25.25-.14 0-.25-.1-.25-.25 0-.14.1-.25.25-.25.14 0 .25.1.25.25zm-1 0c0 .14-.1.25-.25.25-.14 0-.25-.1-.25-.25 0-.14.1-.25.25-.25.14 0 .25.1.25.25zm-1 0c0 .14-.1.25-.25.25-.14 0-.25-.1-.25-.25 0-.14.1-.25.25-.25.14 0 .25.1.25.25zm-1 0c0 .14-.1.25-.25.25-.14 0-.25-.1-.25-.25 0-.14.1-.25.25-.25.14 0 .25.1.25.25zm-1 0c0 .14-.1.25-.25.25-.14 0-.25-.1-.25-.25 0-.14.1-.25.25-.25.14 0 .25.1.25.25zm-1 0c0 .14-.1.25-.25.25-.14 0-.25-.1-.25-.25 0-.14.1-.25.25-.25.14 0 .25.1.25.25zm-1 0c0 .14-.1.25-.25.25-.14 0-.25-.1-.25-.25 0-.14.1-.25.25-.25.14 0 .25.1.25.25zm-1 0c0 .14-.1.25-.25.25-.14 0-.25-.1-.25-.25 0-.14.1-.25.25-.25.14 0 .25.1.25.25zm-1 0c0 .14-.1.25-.25.25-.14 0-.25-.1-.25-.25 0-.14.1-.25.25-.25.14 0 .25.1.25.25zm-1 0c0 .14-.1.25-.25.25-.14 0-.25-.1-.25-.25 0-.14.1-.25.25-.25.14 0 .25.1.25.25zm-1 0c0 .14-.1.25-.25.25-.14 0-.25-.1-.25-.25 0-.14.1-.25.25-.25.14 0 .25.1.25.25zm-1 0c0 .14-.1.25-.25.25-.14 0-.25-.1-.25-.25 0-.14.1-.25.25-.25.14 0 .25.1.25.25zm-1 0c0 .14-.1.25-.25.25-.14 0-.25-.1-.25-.25 0-.14.1-.25.25-.25.14 0 .25.1.25.25zm-1 0c0 .14-.1.25-.25.25-.14 0-.25-.1-.25-.25 0-.14.1-.25.25-.25.14 0 .25.1.25.25zm-1 0c0 .14-.1.25-.25.25-.14 0-.25-.1-.25-.25 0-.14.1-.25.25-.25.14 0 .25.1.25.25zm-1 0c0 .14-.1.25-.25.25-.14 0-.25-.1-.25-.25 0-.14.1-.25.25-.25.14 0 .25.1.25.25zm-1 0c0 .14-.1.25-.25.25-.14 0-.25-.1-.25-.25 0-.14.1-.25.25-.25.14 0 .25.1.25.25zm-1 0c0 .14-.1.25-.25.25-.14 0-.25-.1-.25-.25 0-.14.1-.25.25-.25.14 0 .25.1.25.25zm-1 0c0 .14-.1.25-.25.25-.14 0-.25-.1-.25-.25 0-.14.1-.25.25-.25.14 0 .25.1.25.25zm-1 0c0 .14-.1.25-.25.25-.14 0-.25-.1-.25-.25 0-.14.1-.25.25-.25.14 0 .25.1.25.25zm-1 0c0 .14-.1.25-.25.25-.14 0-.25-.1-.25-.25 0-.14.1-.25.25-.25.14 0 .25.1.25.25zm-1 0c0 .14-.1.25-.25.25-.14 0-.25-.1-.25-.25 0-.14.1-.25.25-.25.14 0 .25.1.25.25zm-1 0c0 .14-.1.25-.25.25-.14 0-.25-.1-.25-.25 0-.14.1-.25.25-.25.14 0 .25.1.25.25zm-1 0c0 .14-.1.25-.25.25-.14 0-.25-.1-.25-.25 0-.14.1-.25.25-.25.14 0 .25.1.25.25zm-1 0c0 .14-.1.25-.25.25-.14 0-.25-.1-.25-.25 0-.14.1-.25.25-.25.14 0 .25.1.25.25zm-1 0c0 .14-.1.25-.25.25-.14 0-.25-.1-.25-.25 0-.14.1-.25.25-.25.14 0 .25.1.25.25zm-1 0c0 .14-.1.25-.25.25-.14 0-.25-.1-.25-.25 0-.14.1-.25.25-.25.14 0 .25.1.25.25zm-1 0c0 .14-.1.25-.25.25-.14 0-.25-.1-.25-.25 0-.14.1-.25.25-.25.14 0 .25.1.25.25zm-1 0c0 .14-.1.25-.25.25-.14 0-.25-.1-.25-.25 0-.14.1-.25.25-.25.14 0 .25.1.25.25zm-1 0c0 .14-.1.25-.25.25-.14 0-.25-.1-.25-.25 0-.14.1-.25.25-.25.14 0 .25.1.25.25zm-1 0c0 .14-.1.25-.25.25-.14 0-.25-.1-.25-.25 0-.14.1-.25.25-.25.14 0 .25.1.25.25zm-1 0c0 .14-.1.25-.25.25-.14 0-.25-.1-.25-.25 0-.14.1-.25.25-.25.14 0 .25.1.25.25zm-1 0c0 .14-.1.25-.25.25-.14 0-.25-.1-.25-.25 0-.14.1-.25.25-.25.14 0 .25.1.25.25zm-1 0c0 .14-.1.25-.25.25-.14 0-.25-.1-.25-.25 0-.14.1-.25.25-.25.14 0 .25.1.25.25zm-1 0c0 .14-.1.25-.25.25-.14 0-.25-.1-.25-.25 0-.14.1-.25.25-.25.14 0 .25.1.25.25zm-.92-.3c0 .14-.1.25-.25.25-.14 0-.25-.1-.25-.25 0-.14.1-.25.25-.25.14 0 .25.1.25.25zm-.92-.3c0 .14-.1.25-.24.25-.14 0-.25-.1-.25-.25 0-.14.12-.25.26-.25s.25.1.25.25zm-.9-.3c0 .14-.12.25-.26.25s-.25-.1-.25-.25c0-.14.1-.25.24-.25.14 0 .25.1.25.25zm-.66-.68c0 .13-.1.25-.25.25-.14 0-.26-.12-.26-.25 0-.14.12-.25.25-.25s.24.1.24.25zm-.57-.8c0 .15-.1.26-.25.26-.13 0-.25-.1-.25-.25 0-.13.12-.25.25-.25.14 0 .25.12.25.25zm-.57-.77c0 .14-.1.25-.25.25-.14 0-.25-.1-.25-.25 0-.14.1-.25.25-.25.14 0 .25.1.25.25zm-.3-.9c0 .14-.1.26-.25.26-.13 0-.25-.1-.25-.24 0-.14.12-.25.25-.25.14 0 .25.12.25.26zm-.15-.95c0 .14-.1.25-.25.25-.14 0-.25-.1-.25-.25 0-.14.1-.25.25-.25.14 0 .25.1.25.25zm0-1c0 .14-.1.25-.25.25-.14 0-.25-.1-.25-.25 0-.14.1-.25.25-.25.14 0 .25.1.25.25zm0-1c0 .14-.1.25-.25.25-.14 0-.25-.1-.25-.25 0-.14.1-.25.25-.25.14 0 .25.1.25.25zm0-1c0 .14-.1.25-.25.25-.14 0-.25-.1-.25-.25 0-.14.1-.25.25-.25.14 0 .25.1.25.25zm0-1c0 .14-.1.25-.25.25-.14 0-.25-.1-.25-.25 0-.14.1-.25.25-.25.14 0 .25.1.25.25zm0-1c0 .14-.1.25-.25.25-.14 0-.25-.1-.25-.25 0-.14.1-.25.25-.25.14 0 .25.1.25.25zm0-1c0 .14-.1.25-.25.25-.14 0-.25-.1-.25-.25 0-.14.1-.25.25-.25.14 0 .25.1.25.25zm0-1c0 .14-.1.25-.25.25-.14 0-.25-.1-.25-.25 0-.14.1-.25.25-.25.14 0 .25.1.25.25zm0-1c0 .14-.1.25-.25.25-.14 0-.25-.1-.25-.25 0-.14.1-.25.25-.25.14 0 .25.1.25.25zm0-1c0 .14-.1.25-.25.25-.14 0-.25-.1-.25-.25 0-.14.1-.25.25-.25.14 0 .25.1.25.25zm0-1c0 .14-.1.25-.25.25-.14 0-.25-.1-.25-.25 0-.14.1-.25.25-.25.14 0 .25.1.25.25zm0-1c0 .14-.1.25-.25.25-.14 0-.25-.1-.25-.25 0-.14.1-.25.25-.25.14 0 .25.1.25.25zm0-1c0 .14-.1.25-.25.25-.14 0-.25-.1-.25-.25 0-.14.1-.25.25-.25.14 0 .25.1.25.25zm0-1c0 .14-.1.25-.25.25-.14 0-.25-.1-.25-.25 0-.14.1-.25.25-.25.14 0 .25.1.25.25zm0-1c0 .14-.1.25-.25.25-.14 0-.25-.1-.25-.25 0-.14.1-.25.25-.25.14 0 .25.1.25.25zm0-1c0 .14-.1.25-.25.25-.14 0-.25-.1-.25-.25 0-.14.1-.25.25-.25.14 0 .25.1.25.25zm0-1c0 .14-.1.25-.25.25-.14 0-.25-.1-.25-.25 0-.14.1-.25.25-.25.14 0 .25.1.25.25zm0-1c0 .14-.1.25-.25.25-.14 0-.25-.1-.25-.25 0-.14.1-.25.25-.25.14 0 .25.1.25.25zm0-1c0 .14-.1.25-.25.25-.14 0-.25-.1-.25-.25 0-.14.1-.25.25-.25.14 0 .25.1.25.25zm0-1c0 .14-.1.25-.25.25-.14 0-.25-.1-.25-.25 0-.14.1-.25.25-.25.14 0 .25.1.25.25zm0-1c0 .14-.1.25-.25.25-.14 0-.25-.1-.25-.25 0-.14.1-.25.25-.25.14 0 .25.1.25.25zm0-1c0 .14-.1.25-.25.25-.14 0-.25-.1-.25-.25 0-.14.1-.25.25-.25.14 0 .25.1.25.25zm0-1c0 .14-.1.25-.25.25-.14 0-.25-.1-.25-.25 0-.14.1-.25.25-.25.14 0 .25.1.25.25zm0-1c0 .14-.1.25-.25.25-.14 0-.25-.1-.25-.25 0-.14.1-.25.25-.25.14 0 .25.1.25.25zm0-1c0 .14-.1.25-.25.25-.14 0-.25-.1-.25-.25 0-.14.1-.25.25-.25.14 0 .25.1.25.25zm0-1c0 .14-.1.25-.25.25-.14 0-.25-.1-.25-.25 0-.14.1-.25.25-.25.14 0 .25.1.25.25zm0-1c0 .14-.1.25-.25.25-.14 0-.25-.1-.25-.25 0-.14.1-.25.25-.25.14 0 .25.1.25.25zm0-1c0 .14-.1.25-.25.25-.14 0-.25-.1-.25-.25 0-.14.1-.25.25-.25.14 0 .25.1.25.25zm0-1c0 .14-.1.25-.25.25-.14 0-.25-.1-.25-.25 0-.14.1-.25.25-.25.14 0 .25.1.25.25zm0-1c0 .14-.1.25-.25.25-.14 0-.25-.1-.25-.25 0-.14.1-.25.25-.25.14 0 .25.1.25.25zm0-1c0 .14-.1.25-.25.25-.14 0-.25-.1-.25-.25 0-.14.1-.25.25-.25.14 0 .25.1.25.25zm0-1c0 .14-.1.25-.25.25-.14 0-.25-.1-.25-.25 0-.14.1-.25.25-.25.14 0 .25.1.25.25zm0-1c0 .14-.1.25-.25.25-.14 0-.25-.1-.25-.25 0-.14.1-.25.25-.25.14 0 .25.1.25.25zm0-1c0 .14-.1.25-.25.25-.14 0-.25-.1-.25-.25 0-.14.1-.25.25-.25.14 0 .25.1.25.25zm0-1c0 .14-.1.25-.25.25-.14 0-.25-.1-.25-.25 0-.14.1-.25.25-.25.14 0 .25.1.25.25zm0-1c0 .14-.1.25-.25.25-.14 0-.25-.1-.25-.25 0-.14.1-.25.25-.25.14 0 .25.1.25.25zm0-1c0 .14-.1.25-.25.25-.14 0-.25-.1-.25-.25 0-.14.1-.25.25-.25.14 0 .25.1.25.25zm0-1c0 .14-.1.25-.25.25-.14 0-.25-.1-.25-.25 0-.14.1-.25.25-.25.14 0 .25.1.25.25zm0-1c0 .14-.1.25-.25.25-.14 0-.25-.1-.25-.25 0-.14.1-.25.25-.25.14 0 .25.1.25.25zm0-1c0 .14-.1.25-.25.25-.14 0-.25-.1-.25-.25 0-.14.1-.25.25-.25.14 0 .25.1.25.25zm0-1c0 .14-.1.25-.25.25-.14 0-.25-.1-.25-.25 0-.14.1-.25.25-.25.14 0 .25.1.25.25zm0-1c0 .14-.1.25-.25.25-.14 0-.25-.1-.25-.25 0-.14.1-.25.25-.25.14 0 .25.1.25.25zm0-1c0 .14-.1.25-.25.25-.14 0-.25-.1-.25-.25 0-.14.1-.25.25-.25.14 0 .25.1.25.25zm0-1c0 .14-.1.25-.25.25-.14 0-.25-.1-.25-.25 0-.14.1-.25.25-.25.14 0 .25.1.25.25zm0-1c0 .14-.1.25-.25.25-.14 0-.25-.1-.25-.25 0-.14.1-.25.25-.25.14 0 .25.1.25.25zm0-1c0 .14-.1.25-.25.25-.14 0-.25-.1-.25-.25 0-.14.1-.25.25-.25.14 0 .25.1.25.25zm0-1c0 .14-.1.25-.25.25-.14 0-.25-.1-.25-.25 0-.14.1-.25.25-.25.14 0 .25.1.25.25zm0-1c0 .14-.1.25-.25.25-.14 0-.25-.1-.25-.25 0-.14.1-.25.25-.25.14 0 .25.1.25.25zm0-1c0 .14-.1.25-.25.25-.14 0-.25-.1-.25-.25 0-.14.1-.25.25-.25.14 0 .25.1.25.25zm0-1c0 .14-.1.25-.25.25-.14 0-.25-.1-.25-.25 0-.14.1-.25.25-.25.14 0 .25.1.25.25zm0-1c0 .14-.1.25-.25.25-.14 0-.25-.1-.25-.25 0-.14.1-.25.25-.25.14 0 .25.1.25.25zm0-1c0 .14-.1.25-.25.25-.14 0-.25-.1-.25-.25 0-.14.1-.25.25-.25.14 0 .25.1.25.25zm0-1c0 .14-.1.25-.25.25-.14 0-.25-.1-.25-.25 0-.14.1-.25.25-.25.14 0 .25.1.25.25zm0-1c0 .14-.1.25-.25.25-.14 0-.25-.1-.25-.25 0-.14.1-.25.25-.25.14 0 .25.1.25.25zm0-1c0 .14-.1.25-.25.25-.14 0-.25-.1-.25-.25 0-.14.1-.25.25-.25.14 0 .25.1.25.25zm0-1c0 .14-.1.25-.25.25-.14 0-.25-.1-.25-.25 0-.14.1-.25.25-.25.14 0 .25.1.25.25zm0-1c0 .14-.1.25-.25.25-.14 0-.25-.1-.25-.25 0-.14.1-.25.25-.25.14 0 .25.1.25.25zm0-1c0 .14-.1.25-.25.25-.14 0-.25-.1-.25-.25 0-.14.1-.25.25-.25.14 0 .25.1.25.25zm0-1c0 .14-.1.25-.25.25-.14 0-.25-.1-.25-.25 0-.14.1-.25.25-.25.14 0 .25.1.25.25zm0-1c0 .14-.1.25-.25.25-.14 0-.25-.1-.25-.25 0-.14.1-.25.25-.25.14 0 .25.1.25.25zm0-1c0 .14-.1.25-.25.25-.14 0-.25-.1-.25-.25 0-.14.1-.25.25-.25.14 0 .25.1.25.25zm0-1c0 .14-.1.25-.25.25-.14 0-.25-.1-.25-.25 0-.14.1-.25.25-.25.14 0 .25.1.25.25zm0-1c0 .14-.1.25-.25.25-.14 0-.25-.1-.25-.25 0-.14.1-.25.25-.25.14 0 .25.1.25.25zm0-1c0 .14-.1.25-.25.25-.14 0-.25-.1-.25-.25 0-.14.1-.25.25-.25.14 0 .25.1.25.25zm0-1c0 .14-.1.25-.25.25-.14 0-.25-.1-.25-.25 0-.14.1-.25.25-.25.14 0 .25.1.25.25zm0-1c0 .14-.1.25-.25.25-.14 0-.25-.1-.25-.25 0-.14.1-.25.25-.25.14 0 .25.1.25.25zm0-1c0 .14-.1.25-.25.25-.14 0-.25-.1-.25-.25 0-.14.1-.25.25-.25.14 0 .25.1.25.25zm0-1c0 .14-.1.25-.25.25-.14 0-.25-.1-.25-.25 0-.14.1-.25.25-.25.14 0 .25.1.25.25zm0-1c0 .14-.1.25-.25.25-.14 0-.25-.1-.25-.25 0-.14.1-.25.25-.25.14 0 .25.1.25.25zm0-1c0 .14-.1.25-.25.25-.14 0-.25-.1-.25-.25 0-.14.1-.25.25-.25.14 0 .25.1.25.25zm0-1c0 .14-.1.25-.25.25-.14 0-.25-.1-.25-.25 0-.14.1-.25.25-.25.14 0 .25.1.25.25zm0-1c0 .14-.1.25-.25.25-.14 0-.25-.1-.25-.25 0-.14.1-.25.25-.25.14 0 .25.1.25.25zm0-1c0 .14-.1.25-.25.25-.14 0-.25-.1-.25-.25 0-.14.1-.25.25-.25.14 0 .25.1.25.25zm0-1c0 .14-.1.25-.25.25-.14 0-.25-.1-.25-.25 0-.14.1-.25.25-.25.14 0 .25.1.25.25zm0-1c0 .14-.1.25-.25.25-.14 0-.25-.1-.25-.25 0-.14.1-.25.25-.25.14 0 .25.1.25.25zm0-1c0 .14-.1.25-.25.25-.14 0-.25-.1-.25-.25 0-.14.1-.25.25-.25.14 0 .25.1.25.25zm0-1c0 .14-.1.25-.25.25-.14 0-.25-.1-.25-.25 0-.14.1-.25.25-.25.14 0 .25.1.25.25zm0-1c0 .14-.1.25-.25.25-.14 0-.25-.1-.25-.25 0-.14.1-.25.25-.25.14 0 .25.1.25.25zm0-1c0 .14-.1.25-.25.25-.14 0-.25-.1-.25-.25 0-.14.1-.25.25-.25.14 0 .25.1.25.25zm0-1c0 .14-.1.25-.25.25-.14 0-.25-.1-.25-.25 0-.14.1-.25.25-.25.14 0 .25.1.25.25zm0-1c0 .14-.1.25-.25.25-.14 0-.25-.1-.25-.25 0-.14.1-.25.25-.25.14 0 .25.1.25.25zm0-1c0 .14-.1.25-.25.25-.14 0-.25-.1-.25-.25 0-.14.1-.25.25-.25.14 0 .25.1.25.25zm0-1c0 .14-.1.25-.25.25-.14 0-.25-.1-.25-.25 0-.14.1-.25.25-.25.14 0 .25.1.25.25zm0-1c0 .14-.1.25-.25.25-.14 0-.25-.1-.25-.25 0-.14.1-.25.25-.25.14 0 .25.1.25.25zm0-1c0 .14-.1.25-.25.25-.14 0-.25-.1-.25-.25 0-.14.1-.25.25-.25.14 0 .25.1.25.25zm0-1c0 .14-.1.25-.25.25-.14 0-.25-.1-.25-.25 0-.14.1-.25.25-.25.14 0 .25.1.25.25zm0-1c0 .14-.1.25-.25.25-.14 0-.25-.1-.25-.25 0-.14.1-.25.25-.25.14 0 .25.1.25.25zm0-1c0 .14-.1.25-.25.25-.14 0-.25-.1-.25-.25 0-.14.1-.25.25-.25.14 0 .25.1.25.25zm0-1c0 .14-.1.25-.25.25-.14 0-.25-.1-.25-.25 0-.14.1-.25.25-.25.14 0 .25.1.25.25zm0-1c0 .14-.1.25-.25.25-.14 0-.25-.1-.25-.25 0-.14.1-.25.25-.25.14 0 .25.1.25.25z" fill-opacity="0"/><path d="M805 244c0-2.76 2.24-5 5-5h90c2.76 0 5 2.24 5 5v10c0 2.76-1.58 6.58-3.54 8.54l-2.92 2.92c-1.96 1.96-5.78 3.54-8.54 3.54h-80c-2.76 0-5-2.24-5-5z" fill="#fff"/><path d="M805 244c0-2.76 2.24-5 5-5h180c2.76 0 5 2.24 5 5v91c0 2.76-2.24 5-5 5H810c-2.76 0-5-2.24-5-5z" stroke="#666" stroke-width="2" fill="none"/><path d="M905 239v20l-10 10h-90" stroke="#666" stroke-width="2" fill="#fff"/><use xlink:href="#u" transform="matrix(1,0,0,1,813,239) translate(23.271604938271604 18.555555555555557)"/><use xlink:href="#v" transform="matrix(1,0,0,1,817,277) translate(1.6913580246913398 14.222222222222223)"/><use xlink:href="#w" transform="matrix(1,0,0,1,817,277) translate(62.777777777777764 14.222222222222223)"/><use xlink:href="#x" transform="matrix(1,0,0,1,817,277) translate(104.20987654320987 14.222222222222223)"/><use xlink:href="#y" transform="matrix(1,0,0,1,817,277) translate(21.12345679012344 35.55555555555556)"/><path d="M940 440h240.76" stroke="#999" stroke-width="2" fill="none"/><path fill="#999"/><path d="M1195.76 440l-14.26 4.64v-9.28z" fill="#999"/><path d="M1199 440l-18.5 6v-12zm-16.5 3.26l10.03-3.26-10.03-3.26z" fill="#999"/><use xlink:href="#z" transform="matrix(1,0,0,1,1022.6111111111111,414.6666666666666) translate(0.005000000000002558 14.222222222222223)"/><path d="M1290 535c0-2.76 2.24-5 5-5h30c2.76 0 5 2.24 5 5v230c0 2.76-2.24 5-5 5h-30c-2.76 0-5-2.24-5-5z" stroke="#666" stroke-width="2" fill="#f2f2f2"/><path d="M941 583.33h330.76" stroke="#999" stroke-width="2" fill="none"/><path d="M941 584.33h-1v-2h1zM1286.76 583.33l-14.26 4.64v-9.27z" fill="#999"/><path d="M1290 583.33l-18.5 6.02v-12.03zm-16.5 3.26l10.03-3.27-10.03-3.26z" fill="#999"/><use xlink:href="#A" transform="matrix(1,0,0,1,1060.8333333333333,558.0000000000002) translate(0.005000000000002558 14.222222222222223)"/><path d="M500 664.67h361.76" stroke="#999" stroke-width="2" fill="none"/><path fill="#999"/><path d="M876.76 664.67l-14.26 4.63v-9.27z" fill="#999"/><path d="M880 664.67l-18.5 6v-12.02zm-16.5 3.26l10.03-3.26-10.03-3.26z" fill="#999"/><use xlink:href="#B" transform="matrix(1,0,0,1,595.9506172839506,639.3333333333333) translate(0.0049999999999954525 14.222222222222223)"/><use xlink:href="#C" transform="matrix(1,0,0,1,595.9506172839506,639.3333333333333) translate(4.943271604938268 14.222222222222223)"/><path d="M880 608.67H518.24" fill="none"/><path d="M880 608.67h-10.56m-10.55 0h-21.12m-10.56 0h-21.1m-10.56 0h-21.12m-10.55 0h-21.12m-10.56 0h-21.1m-10.56 0h-20.1m-9.54 0h-19.1m-9.53 0h-19.1m-9.54 0h-19.08m-9.55 0h-19.08m-9.54 0h-19.08m-9.54 0h-9.54" stroke="#999" stroke-width="2" fill="none"/><path fill="#999"/><path d="M517.5 613.3l-14.26-4.63 14.26-4.64z" fill="#999"/><path d="M518.5 614.68l-18.5-6 18.5-6.03zm-12.03-6l10.03 3.25v-6.52z" fill="#999"/><g><use xlink:href="#D" transform="matrix(1,0,0,1,658.9629629629629,583.3333333333333) translate(0.004999999999999005 14.222222222222223)"/></g><path d="M340 655c0-2.76 2.24-5 5-5h110c2.76 0 5 2.24 5 5v110c0 2.76-2.24 5-5 5H345c-2.76 0-5-2.24-5-5z" fill="none"/><path d="M460 770c-4.14 0-7.5-3.36-7.5-7.5v-45c0-4.14-3.36-7.5-7.5-7.5 4.14 0 7.5-3.36 7.5-7.5v-45c0-4.14 3.36-7.5 7.5-7.5" stroke="#666" stroke-width="2" fill="none"/><g><use xlink:href="#E" transform="matrix(1,0,0,1,340,650) translate(7.677839506172832 40.47222222222222)"/><use xlink:href="#F" transform="matrix(1,0,0,1,340,650) translate(71.72722222222222 40.47222222222222)"/><use xlink:href="#G" transform="matrix(1,0,0,1,340,650) translate(9.628456790123453 61.80555555555556)"/><use xlink:href="#H" transform="matrix(1,0,0,1,340,650) translate(76.69018518518519 61.80555555555556)"/><use xlink:href="#I" transform="matrix(1,0,0,1,340,650) translate(30.81364197530864 83.1388888888889)"/></g><path d="M920 708.67h351.76" stroke="#999" stroke-width="2" fill="none"/><path fill="#999"/><path d="M1286.76 708.67l-14.26 4.63v-9.27z" fill="#999"/><path d="M1290 708.67l-18.5 6v-12.02zm-16.5 3.26l10.03-3.26-10.03-3.26z" fill="#999"/><g><use xlink:href="#J" transform="matrix(1,0,0,1,1013.4197530864197,683.3333333333355) translate(0.0049999999999954525 14.222222222222223)"/></g><path d="M900 230v10" fill="none"/><path d="M900 230v10" stroke="#999" stroke-width="2" fill="none"/><path d="M901 230h-2v-1h2z" fill="#999"/><path fill="#999"/><defs><path d="M88-194c31-1 46 15 58 34l-1-101h50l1 261h-48c-2-10 0-23-3-31C134-8 116 4 84 4 32 4 16-41 15-95c0-56 19-97 73-99zm17 164c33 0 40-30 41-66 1-37-9-64-41-64s-38 30-39 65c0 43 13 65 39 65" id="K"/><path d="M25-224v-37h50v37H25zM25 0v-190h50V0H25" id="L"/><path d="M137-138c1-29-70-34-71-4 15 46 118 7 119 86 1 83-164 76-172 9l43-7c4 19 20 25 44 25 33 8 57-30 24-41C81-84 22-81 20-136c-2-80 154-74 161-7" id="M"/><path d="M135-194c53 0 70 44 70 98 0 56-19 98-73 100-31 1-45-17-59-34 3 33 2 69 2 105H25l-1-265h48c2 10 0 23 3 31 11-24 29-35 60-35zM114-30c33 0 39-31 40-66 0-38-9-64-40-64-56 0-55 130 0 130" id="N"/><path d="M25 0v-261h50V0H25" id="O"/><path d="M133-34C117-15 103 5 69 4 32 3 11-16 11-54c-1-60 55-63 116-61 1-26-3-47-28-47-18 1-26 9-28 27l-52-2c7-38 36-58 82-57s74 22 75 68l1 82c-1 14 12 18 25 15v27c-30 8-71 5-69-32zm-48 3c29 0 43-24 42-57-32 0-66-3-65 30 0 17 8 27 23 27" id="P"/><path d="M123 10C108 53 80 86 19 72V37c35 8 53-11 59-39L3-190h52l48 148c12-52 28-100 44-148h51" id="Q"/><path d="M67-125c0 53 21 87 73 88 37 1 54-22 65-47l45 17C233-25 199 4 140 4 58 4 20-42 15-125 8-235 124-281 211-232c18 10 29 29 36 50l-46 12c-8-25-30-41-62-41-52 0-71 34-72 86" id="R"/><path d="M114-157C55-157 80-60 75 0H25v-261h50l-1 109c12-26 28-41 61-42 86-1 58 113 63 194h-50c-7-57 23-157-34-157" id="S"/><path d="M135-150c-39-12-60 13-60 57V0H25l-1-190h47c2 13-1 29 3 40 6-28 27-53 61-41v41" id="T"/><path d="M115-3C79 11 28 4 28-45v-112H4v-33h27l15-45h31v45h36v33H77v99c-1 23 16 31 38 25v30" id="U"/><path d="M67-93c0 74 22 123 53 168H70C40 30 18-18 18-93s22-123 52-168h50c-32 44-53 94-53 168" id="V"/><path d="M102-93c0 74-22 123-52 168H0C30 29 54-18 53-93c0-74-22-123-53-168h50c30 45 52 94 52 168" id="W"/><g id="b"><use transform="matrix(0.04938271604938272,0,0,0.04938271604938272,0,0)" xlink:href="#K"/><use transform="matrix(0.04938271604938272,0,0,0.04938271604938272,10.814814814814815,0)" xlink:href="#L"/><use transform="matrix(0.04938271604938272,0,0,0.04938271604938272,15.753086419753087,0)" xlink:href="#M"/><use transform="matrix(0.04938271604938272,0,0,0.04938271604938272,25.629629629629633,0)" xlink:href="#N"/><use transform="matrix(0.04938271604938272,0,0,0.04938271604938272,36.44444444444445,0)" xlink:href="#O"/><use transform="matrix(0.04938271604938272,0,0,0.04938271604938272,41.38271604938272,0)" xlink:href="#P"/><use transform="matrix(0.04938271604938272,0,0,0.04938271604938272,51.25925925925927,0)" xlink:href="#Q"/><use transform="matrix(0.04938271604938272,0,0,0.04938271604938272,61.13580246913581,0)" xlink:href="#R"/><use transform="matrix(0.04938271604938272,0,0,0.04938271604938272,73.92592592592594,0)" xlink:href="#S"/><use transform="matrix(0.04938271604938272,0,0,0.04938271604938272,84.74074074074075,0)" xlink:href="#P"/><use transform="matrix(0.04938271604938272,0,0,0.04938271604938272,94.61728395061729,0)" xlink:href="#T"/><use transform="matrix(0.04938271604938272,0,0,0.04938271604938272,101.53086419753087,0)" xlink:href="#U"/><use transform="matrix(0.04938271604938272,0,0,0.04938271604938272,107.40740740740742,0)" xlink:href="#V"/><use transform="matrix(0.04938271604938272,0,0,0.04938271604938272,113.28395061728396,0)" xlink:href="#K"/><use transform="matrix(0.04938271604938272,0,0,0.04938271604938272,124.09876543209877,0)" xlink:href="#P"/><use transform="matrix(0.04938271604938272,0,0,0.04938271604938272,133.97530864197532,0)" xlink:href="#U"/><use transform="matrix(0.04938271604938272,0,0,0.04938271604938272,139.85185185185185,0)" xlink:href="#P"/><use transform="matrix(0.04938271604938272,0,0,0.04938271604938272,149.7283950617284,0)" xlink:href="#W"/></g><path fill="#999" d="M238-95c0 69-44 99-111 99C63 4 22-25 22-93v-155h51v151c-1 38 19 59 55 60 90 1 49-130 58-211h52v153" id="X"/><path fill="#999" d="M169-182c-1-43-94-46-97-3 18 66 151 10 154 114 3 95-165 93-204 36-6-8-10-19-12-30l50-8c3 46 112 56 116 5-17-69-150-10-154-114-4-87 153-88 188-35 5 8 8 18 10 28" id="Y"/><path fill="#999" d="M14-72v-43h91v43H14" id="Z"/><path fill="#999" d="M101-251c68 0 84 54 84 127C185-50 166 4 99 4S15-52 14-124c-1-75 17-127 87-127zm-1 216c37-5 36-46 36-89s4-89-36-89c-39 0-36 45-36 89 0 43-3 85 36 89" id="aa"/><path fill="#999" d="M165-50V0h-47v-50H5v-38l105-160h55v161h33v37h-33zm-47-37l2-116L46-87h72" id="ab"/><g id="c"><use transform="matrix(0.09876543209876544,0,0,0.09876543209876544,0,0)" xlink:href="#X"/><use transform="matrix(0.09876543209876544,0,0,0.09876543209876544,25.58024691358025,0)" xlink:href="#Y"/><use transform="matrix(0.09876543209876544,0,0,0.09876543209876544,49.283950617283956,0)" xlink:href="#Z"/><use transform="matrix(0.09876543209876544,0,0,0.09876543209876544,61.037037037037045,0)" xlink:href="#aa"/><use transform="matrix(0.09876543209876544,0,0,0.09876543209876544,80.79012345679013,0)" xlink:href="#ab"/></g><path fill="#999" d="M24 0v-248h195v40H76v63h132v40H76v65h150V0H24" id="ac"/><path fill="#999" d="M140-251c80 0 125 45 125 126 0 70-33 111-92 124 6 28 34 38 68 31l-1 36C177 83 129 55 120 2 51-6 15-50 15-125c0-81 44-126 125-126zm-1 214c52 0 73-35 73-88 0-50-21-86-72-86-52 0-73 35-73 86s22 88 72 88" id="ad"/><path fill="#999" d="M175 0L67-191c6 58 2 128 3 191H24v-248h59L193-55c-6-58-2-129-3-193h46V0h-61" id="ae"/><path fill="#999" d="M67-125c0 53 21 87 73 88 37 1 54-22 65-47l45 17C233-25 199 4 140 4 58 4 20-42 15-125 8-235 124-281 211-232c18 10 29 29 36 50l-46 12c-8-25-30-41-62-41-52 0-71 34-72 86" id="af"/><g id="d"><use transform="matrix(0.09876543209876544,0,0,0.09876543209876544,0,0)" xlink:href="#Y"/><use transform="matrix(0.09876543209876544,0,0,0.09876543209876544,23.703703703703706,0)" xlink:href="#ac"/><use transform="matrix(0.09876543209876544,0,0,0.09876543209876544,47.40740740740741,0)" xlink:href="#ad"/><use transform="matrix(0.09876543209876544,0,0,0.09876543209876544,75.06172839506173,0)" xlink:href="#X"/><use transform="matrix(0.09876543209876544,0,0,0.09876543209876544,100.64197530864199,0)" xlink:href="#ac"/><use transform="matrix(0.09876543209876544,0,0,0.09876543209876544,124.34567901234568,0)" xlink:href="#ae"/><use transform="matrix(0.09876543209876544,0,0,0.09876543209876544,149.92592592592595,0)" xlink:href="#af"/><use transform="matrix(0.09876543209876544,0,0,0.09876543209876544,175.5061728395062,0)" xlink:href="#ac"/></g><path fill="#999" d="M24-248c120-7 223 5 221 122C244-46 201 0 124 0H24v-248zM76-40c74 7 117-18 117-86 0-67-45-88-117-82v168" id="ag"/><path fill="#999" d="M24 0v-248h52V0H24" id="ah"/><path fill="#999" d="M199 0l-22-63H83L61 0H9l90-248h61L250 0h-51zm-33-102l-36-108c-10 38-24 72-36 108h72" id="ai"/><path fill="#999" d="M67-125c0 54 23 88 75 88 28 0 53-7 68-21v-34h-60v-39h108v91C232-14 192 4 140 4 58 4 20-42 15-125 8-236 126-280 215-234c19 10 29 26 37 47l-47 15c-11-23-29-39-63-39-53 1-75 33-75 86" id="aj"/><path fill="#999" d="M240-174c0 40-23 61-54 70L253 0h-59l-57-94H76V0H24v-248c93 4 217-23 216 74zM76-134c48-2 112 12 112-38 0-48-66-32-112-35v73" id="ak"/><path fill="#999" d="M230 0l2-204L168 0h-37L68-204 70 0H24v-248h70l56 185 57-185h69V0h-46" id="al"/><g id="e"><use transform="matrix(0.09876543209876544,0,0,0.09876543209876544,0,0)" xlink:href="#ag"/><use transform="matrix(0.09876543209876544,0,0,0.09876543209876544,25.58024691358025,0)" xlink:href="#ah"/><use transform="matrix(0.09876543209876544,0,0,0.09876543209876544,35.4567901234568,0)" xlink:href="#ai"/><use transform="matrix(0.09876543209876544,0,0,0.09876543209876544,61.03703703703705,0)" xlink:href="#aj"/><use transform="matrix(0.09876543209876544,0,0,0.09876543209876544,88.69135802469137,0)" xlink:href="#ak"/><use transform="matrix(0.09876543209876544,0,0,0.09876543209876544,114.27160493827161,0)" xlink:href="#ai"/><use transform="matrix(0.09876543209876544,0,0,0.09876543209876544,139.85185185185188,0)" xlink:href="#al"/></g><path fill="#999" d="M35-132v-50h50v50H35zM35 0v-49h50V0H35" id="am"/><use transform="matrix(0.09876543209876544,0,0,0.09876543209876544,0,0)" xlink:href="#am" id="f"/><path fill="#999" d="M147 0H94L2-248h55l64 206c17-72 42-137 63-206h54" id="an"/><path fill="#999" d="M275 0h-61l-44-196L126 0H64L0-248h53L97-49l45-199h58l43 199 44-199h52" id="ao"/><g id="g"><use transform="matrix(0.09876543209876544,0,0,0.09876543209876544,0,0)" xlink:href="#an"/><use transform="matrix(0.09876543209876544,0,0,0.09876543209876544,23.703703703703706,0)" xlink:href="#ah"/><use transform="matrix(0.09876543209876544,0,0,0.09876543209876544,33.580246913580254,0)" xlink:href="#ac"/><use transform="matrix(0.09876543209876544,0,0,0.09876543209876544,57.28395061728396,0)" xlink:href="#ao"/></g><path fill="#999" d="M24 0v-248h52v208h133V0H24" id="ap"/><g id="h"><use transform="matrix(0.09876543209876544,0,0,0.09876543209876544,0,0)" xlink:href="#af"/><use transform="matrix(0.09876543209876544,0,0,0.09876543209876544,25.58024691358025,0)" xlink:href="#ap"/><use transform="matrix(0.09876543209876544,0,0,0.09876543209876544,47.20987654320988,0)" xlink:href="#ai"/><use transform="matrix(0.09876543209876544,0,0,0.09876543209876544,72.79012345679013,0)" xlink:href="#Y"/><use transform="matrix(0.09876543209876544,0,0,0.09876543209876544,96.49382716049384,0)" xlink:href="#Y"/></g><path fill="#999" d="M76-208v77h127v40H76V0H24v-248h183v40H76" id="aq"/><path fill="#999" d="M140-251c80 0 125 45 125 126S219 4 139 4C58 4 15-44 15-125s44-126 125-126zm-1 214c52 0 73-35 73-88 0-50-21-86-72-86-52 0-73 35-73 86s22 88 72 88" id="ar"/><path fill="#999" d="M136-208V0H84v-208H4v-40h212v40h-80" id="as"/><g id="i"><use transform="matrix(0.09876543209876544,0,0,0.09876543209876544,0,0)" xlink:href="#ah"/><use transform="matrix(0.09876543209876544,0,0,0.09876543209876544,9.876543209876544,0)" xlink:href="#ae"/><use transform="matrix(0.09876543209876544,0,0,0.09876543209876544,35.4567901234568,0)" xlink:href="#aq"/><use transform="matrix(0.09876543209876544,0,0,0.09876543209876544,57.08641975308644,0)" xlink:href="#ar"/><use transform="matrix(0.09876543209876544,0,0,0.09876543209876544,84.74074074074076,0)" xlink:href="#ak"/><use transform="matrix(0.09876543209876544,0,0,0.09876543209876544,110.32098765432102,0)" xlink:href="#al"/><use transform="matrix(0.09876543209876544,0,0,0.09876543209876544,139.85185185185188,0)" xlink:href="#ai"/><use transform="matrix(0.09876543209876544,0,0,0.09876543209876544,162.76543209876547,0)" xlink:href="#as"/><use transform="matrix(0.09876543209876544,0,0,0.09876543209876544,184.3950617283951,0)" xlink:href="#ah"/><use transform="matrix(0.09876543209876544,0,0,0.09876543209876544,194.27160493827165,0)" xlink:href="#ar"/><use transform="matrix(0.09876543209876544,0,0,0.09876543209876544,221.92592592592598,0)" xlink:href="#ae"/></g><path fill="#999" d="M185-189c-5-48-123-54-124 2 14 75 158 14 163 119 3 78-121 87-175 55-17-10-28-26-33-46l33-7c5 56 141 63 141-1 0-78-155-14-162-118-5-82 145-84 179-34 5 7 8 16 11 25" id="at"/><path fill="#999" d="M141-36C126-15 110 5 73 4 37 3 15-17 15-53c-1-64 63-63 125-63 3-35-9-54-41-54-24 1-41 7-42 31l-33-3c5-37 33-52 76-52 45 0 72 20 72 64v82c-1 20 7 32 28 27v20c-31 9-61-2-59-35zM48-53c0 20 12 33 32 33 41-3 63-29 60-74-43 2-92-5-92 41" id="au"/><path fill="#999" d="M210-169c-67 3-38 105-44 169h-31v-121c0-29-5-50-35-48C34-165 62-65 56 0H25l-1-190h30c1 10-1 24 2 32 10-44 99-50 107 0 11-21 27-35 58-36 85-2 47 119 55 194h-31v-121c0-29-5-49-35-48" id="av"/><g id="j"><use transform="matrix(0.06172839506172778,0,0,0.06172839506172778,0,0)" xlink:href="#at"/><use transform="matrix(0.06172839506172778,0,0,0.06172839506172778,14.814814814814667,0)" xlink:href="#au"/><use transform="matrix(0.06172839506172778,0,0,0.06172839506172778,27.160493827160224,0)" xlink:href="#av"/></g><path fill="#999" d="M212-179c-10-28-35-45-73-45-59 0-87 40-87 99 0 60 29 101 89 101 43 0 62-24 78-52l27 14C228-24 195 4 139 4 59 4 22-46 18-125c-6-104 99-153 187-111 19 9 31 26 39 46" id="aw"/><path fill="#999" d="M84 4C-5 8 30-112 23-190h32v120c0 31 7 50 39 49 72-2 45-101 50-169h31l1 190h-30c-1-10 1-25-2-33-11 22-28 36-60 37" id="ax"/><path fill="#999" d="M59-47c-2 24 18 29 38 22v24C64 9 27 4 27-40v-127H5v-23h24l9-43h21v43h35v23H59v120" id="ay"/><path fill="#999" d="M106-169C34-169 62-67 57 0H25v-261h32l-1 103c12-21 28-36 61-36 89 0 53 116 60 194h-32v-121c2-32-8-49-39-48" id="az"/><path fill="#999" d="M115-194c53 0 69 39 70 98 0 66-23 100-70 100C84 3 66-7 56-30L54 0H23l1-261h32v101c10-23 28-34 59-34zm-8 174c40 0 45-34 45-75 0-40-5-75-45-74-42 0-51 32-51 76 0 43 10 73 51 73" id="aA"/><path fill="#999" d="M100-194c63 0 86 42 84 106H49c0 40 14 67 53 68 26 1 43-12 49-29l28 8c-11 28-37 45-77 45C44 4 14-33 15-96c1-61 26-98 85-98zm52 81c6-60-76-77-97-28-3 7-6 17-6 28h103" id="aB"/><path fill="#999" d="M114-163C36-179 61-72 57 0H25l-1-190h30c1 12-1 29 2 39 6-27 23-49 58-41v29" id="aC"/><path fill="#999" d="M135-143c-3-34-86-38-87 0 15 53 115 12 119 90S17 21 10-45l28-5c4 36 97 45 98 0-10-56-113-15-118-90-4-57 82-63 122-42 12 7 21 19 24 35" id="aD"/><path fill="#999" d="M100-194c62-1 85 37 85 99 1 63-27 99-86 99S16-35 15-95c0-66 28-99 85-99zM99-20c44 1 53-31 53-75 0-43-8-75-51-75s-53 32-53 75 10 74 51 75" id="aE"/><path fill="#999" d="M117-194c89-4 53 116 60 194h-32v-121c0-31-8-49-39-48C34-167 62-67 57 0H25l-1-190h30c1 10-1 24 2 32 11-22 29-35 61-36" id="aF"/><g id="k"><use transform="matrix(0.06172839506172778,0,0,0.06172839506172778,0,0)" xlink:href="#aw"/><use transform="matrix(0.06172839506172778,0,0,0.06172839506172778,15.987654320987495,0)" xlink:href="#ax"/><use transform="matrix(0.06172839506172778,0,0,0.06172839506172778,28.33333333333305,0)" xlink:href="#ay"/><use transform="matrix(0.06172839506172778,0,0,0.06172839506172778,34.50617283950583,0)" xlink:href="#az"/><use transform="matrix(0.06172839506172778,0,0,0.06172839506172778,46.851851851851386,0)" xlink:href="#aA"/><use transform="matrix(0.06172839506172778,0,0,0.06172839506172778,59.19753086419694,0)" xlink:href="#aB"/><use transform="matrix(0.06172839506172778,0,0,0.06172839506172778,71.5432098765425,0)" xlink:href="#aC"/><use transform="matrix(0.06172839506172778,0,0,0.06172839506172778,78.88888888888812,0)" xlink:href="#ay"/><use transform="matrix(0.06172839506172778,0,0,0.06172839506172778,85.0617283950609,0)" xlink:href="#aD"/><use transform="matrix(0.06172839506172778,0,0,0.06172839506172778,96.1728395061719,0)" xlink:href="#aE"/><use transform="matrix(0.06172839506172778,0,0,0.06172839506172778,108.51851851851745,0)" xlink:href="#aF"/></g><path fill="#999" d="M68-38c1 34 0 65-14 84H32c9-13 17-26 17-46H33v-38h35" id="aG"/><use transform="matrix(0.06172839506172778,0,0,0.06172839506172778,0,0)" xlink:href="#aG" id="l"/><g id="m"><use transform="matrix(0.06172839506172778,0,0,0.06172839506172778,0,0)" xlink:href="#aw"/><use transform="matrix(0.06172839506172778,0,0,0.06172839506172778,15.987654320987495,0)" xlink:href="#aE"/><use transform="matrix(0.06172839506172778,0,0,0.06172839506172778,28.33333333333305,0)" xlink:href="#aF"/><use transform="matrix(0.06172839506172778,0,0,0.06172839506172778,40.67901234567861,0)" xlink:href="#aF"/><use transform="matrix(0.06172839506172778,0,0,0.06172839506172778,53.024691358024164,0)" xlink:href="#aE"/><use transform="matrix(0.06172839506172778,0,0,0.06172839506172778,65.37037037036973,0)" xlink:href="#aC"/></g><path fill="#999" d="M197 0v-115H63V0H30v-248h33v105h134v-105h34V0h-34" id="aH"/><path fill="#999" d="M85-194c31 0 48 13 60 33l-1-100h32l1 261h-30c-2-10 0-23-3-31C134-8 116 4 85 4 32 4 16-35 15-94c0-66 23-100 70-100zm9 24c-40 0-46 34-46 75 0 40 6 74 45 74 42 0 51-32 51-76 0-42-9-74-50-73" id="aI"/><g id="n"><use transform="matrix(0.06172839506172778,0,0,0.06172839506172778,0,0)" xlink:href="#aH"/><use transform="matrix(0.06172839506172778,0,0,0.06172839506172778,15.987654320987495,0)" xlink:href="#ax"/><use transform="matrix(0.06172839506172778,0,0,0.06172839506172778,28.33333333333305,0)" xlink:href="#aI"/><use transform="matrix(0.06172839506172778,0,0,0.06172839506172778,40.67901234567861,0)" xlink:href="#aD"/><use transform="matrix(0.06172839506172778,0,0,0.06172839506172778,51.79012345678961,0)" xlink:href="#aE"/><use transform="matrix(0.06172839506172778,0,0,0.06172839506172778,64.13580246913517,0)" xlink:href="#aF"/></g><path fill="#999" d="M32 76v-337h29V76H32" id="aJ"/><use transform="matrix(0.06172839506172778,0,0,0.06172839506172778,0,0)" xlink:href="#aJ" id="o"/><path fill="#999" d="M63-220v92h138v28H63V0H30v-248h175v28H63" id="aK"/><path fill="#999" d="M179-190L93 31C79 59 56 82 12 73V49c39 6 53-20 64-50L1-190h34L92-34l54-156h33" id="aL"/><g id="p"><use transform="matrix(0.06172839506172778,0,0,0.06172839506172778,0,0)" xlink:href="#aK"/><use transform="matrix(0.06172839506172778,0,0,0.06172839506172778,13.518518518518384,0)" xlink:href="#aB"/><use transform="matrix(0.06172839506172778,0,0,0.06172839506172778,25.86419753086394,0)" xlink:href="#aA"/><use transform="matrix(0.06172839506172778,0,0,0.06172839506172778,38.209876543209496,0)" xlink:href="#aC"/><use transform="matrix(0.06172839506172778,0,0,0.06172839506172778,45.5555555555551,0)" xlink:href="#ax"/><use transform="matrix(0.06172839506172778,0,0,0.06172839506172778,57.90123456790066,0)" xlink:href="#au"/><use transform="matrix(0.06172839506172778,0,0,0.06172839506172778,70.24691358024621,0)" xlink:href="#aC"/><use transform="matrix(0.06172839506172778,0,0,0.06172839506172778,77.59259259259181,0)" xlink:href="#aL"/></g><path fill="#999" d="M101-251c82-7 93 87 43 132L82-64C71-53 59-42 53-27h129V0H18c2-99 128-94 128-182 0-28-16-43-45-43s-46 15-49 41l-32-3c6-41 34-60 81-64" id="aM"/><path fill="#999" d="M134-131c28 9 52 24 51 62-1 50-34 73-85 73S17-19 16-69c0-36 21-54 49-61-75-25-45-126 34-121 46 3 78 18 79 63 0 33-17 51-44 57zm-34-11c31 1 46-15 46-44 0-28-17-43-47-42-29 0-46 13-45 42 1 28 16 44 46 44zm1 122c35 0 51-18 51-52 0-30-18-46-53-46-33 0-51 17-51 47 0 34 19 51 53 51" id="aN"/><g id="q"><use transform="matrix(0.06172839506172778,0,0,0.06172839506172778,0,0)" xlink:href="#aM"/><use transform="matrix(0.06172839506172778,0,0,0.06172839506172778,12.345679012345556,0)" xlink:href="#aN"/><use transform="matrix(0.06172839506172778,0,0,0.06172839506172778,24.691358024691112,0)" xlink:href="#aG"/></g><path fill="#999" d="M101-251c68 0 85 55 85 127S166 4 100 4C33 4 14-52 14-124c0-73 17-127 87-127zm-1 229c47 0 54-49 54-102s-4-102-53-102c-51 0-55 48-55 102 0 53 5 102 54 102" id="aO"/><path fill="#999" d="M27 0v-27h64v-190l-56 39v-29l58-41h29v221h61V0H27" id="aP"/><g id="r"><use transform="matrix(0.06172839506172778,0,0,0.06172839506172778,0,0)" xlink:href="#aM"/><use transform="matrix(0.06172839506172778,0,0,0.06172839506172778,12.345679012345556,0)" xlink:href="#aO"/><use transform="matrix(0.06172839506172778,0,0,0.06172839506172778,24.691358024691112,0)" xlink:href="#aP"/><use transform="matrix(0.06172839506172778,0,0,0.06172839506172778,37.03703703703667,0)" xlink:href="#aN"/></g><path fill="#333" d="M135-194c53 0 70 44 70 98 0 56-19 98-73 100-31 1-45-17-59-34 3 33 2 69 2 105H25l-1-265h48c2 10 0 23 3 31 11-24 29-35 60-35zM114-30c33 0 39-31 40-66 0-38-9-64-40-64-56 0-55 130 0 130" id="aQ"/><path fill="#333" d="M133-34C117-15 103 5 69 4 32 3 11-16 11-54c-1-60 55-63 116-61 1-26-3-47-28-47-18 1-26 9-28 27l-52-2c7-38 36-58 82-57s74 22 75 68l1 82c-1 14 12 18 25 15v27c-30 8-71 5-69-32zm-48 3c29 0 43-24 42-57-32 0-66-3-65 30 0 17 8 27 23 27" id="aR"/><path fill="#333" d="M195-6C206 82 75 100 31 46c-4-6-6-13-8-21l49-6c3 16 16 24 34 25 40 0 42-37 40-79-11 22-30 35-61 35-53 0-70-43-70-97 0-56 18-96 73-97 30 0 46 14 59 34l2-30h47zm-90-29c32 0 41-27 41-63 0-35-9-62-40-62-32 0-39 29-40 63 0 36 9 62 39 62" id="aS"/><path fill="#333" d="M185-48c-13 30-37 53-82 52C43 2 14-33 14-96s30-98 90-98c62 0 83 45 84 108H66c0 31 8 55 39 56 18 0 30-7 34-22zm-45-69c5-46-57-63-70-21-2 6-4 13-4 21h74" id="aT"/><path fill="#333" d="M35-132v-50h50v50H35zM35 0v-49h50V0H35" id="aU"/><path fill="#333" d="M76-208v77h127v40H76V0H24v-248h183v40H76" id="aV"/><path fill="#333" d="M67-125c0 53 21 87 73 88 37 1 54-22 65-47l45 17C233-25 199 4 140 4 58 4 20-42 15-125 8-235 124-281 211-232c18 10 29 29 36 50l-46 12c-8-25-30-41-62-41-52 0-71 34-72 86" id="aW"/><path fill="#333" d="M140-251c80 0 125 45 125 126 0 70-33 111-92 124 6 28 34 38 68 31l-1 36C177 83 129 55 120 2 51-6 15-50 15-125c0-81 44-126 125-126zm-1 214c52 0 73-35 73-88 0-50-21-86-72-86-52 0-73 35-73 86s22 88 72 88" id="aX"/><path fill="#333" d="M24-248c93 1 206-16 204 79-1 75-69 88-152 82V0H24v-248zm52 121c47 0 100 7 100-41 0-47-54-39-100-39v80" id="aY"/><g id="s"><use transform="matrix(0.05,0,0,0.05,0,0)" xlink:href="#aQ"/><use transform="matrix(0.05,0,0,0.05,10.950000000000001,0)" xlink:href="#aR"/><use transform="matrix(0.05,0,0,0.05,20.950000000000003,0)" xlink:href="#aS"/><use transform="matrix(0.05,0,0,0.05,31.900000000000006,0)" xlink:href="#aT"/><use transform="matrix(0.05,0,0,0.05,41.900000000000006,0)" xlink:href="#aU"/><use transform="matrix(0.05,0,0,0.05,47.85000000000001,0)" xlink:href="#aV"/><use transform="matrix(0.05,0,0,0.05,58.80000000000001,0)" xlink:href="#aW"/><use transform="matrix(0.05,0,0,0.05,71.75000000000001,0)" xlink:href="#aX"/><use transform="matrix(0.05,0,0,0.05,85.75000000000001,0)" xlink:href="#aY"/><use transform="matrix(0.05,0,0,0.05,97.75000000000001,0)" xlink:href="#aR"/><use transform="matrix(0.05,0,0,0.05,107.75,0)" xlink:href="#aS"/><use transform="matrix(0.05,0,0,0.05,118.7,0)" xlink:href="#aT"/><path fill="#333" d="M-.9.97h130.5v1.9H-.9z"/></g><path fill="#333" d="M190-63c-7 42-38 67-86 67-59 0-84-38-90-98-12-110 154-137 174-36l-49 2c-2-19-15-32-35-32-30 0-35 28-38 64-6 74 65 87 74 30" id="aZ"/><path fill="#333" d="M114-157C55-157 80-60 75 0H25v-261h50l-1 109c12-26 28-41 61-42 86-1 58 113 63 194h-50c-7-57 23-157-34-157" id="ba"/><path fill="#333" d="M135-150c-39-12-60 13-60 57V0H25l-1-190h47c2 13-1 29 3 40 6-28 27-53 61-41v41" id="bb"/><path fill="#333" d="M115-3C79 11 28 4 28-45v-112H4v-33h27l15-45h31v45h36v33H77v99c-1 23 16 31 38 25v30" id="bc"/><path fill="#333" d="M24-248c120-7 223 5 221 122C244-46 201 0 124 0H24v-248zM76-40c74 7 117-18 117-86 0-67-45-88-117-82v168" id="bd"/><path fill="#333" d="M25-224v-37h50v37H25zM25 0v-190h50V0H25" id="be"/><path fill="#333" d="M137-138c1-29-70-34-71-4 15 46 118 7 119 86 1 83-164 76-172 9l43-7c4 19 20 25 44 25 33 8 57-30 24-41C81-84 22-81 20-136c-2-80 154-74 161-7" id="bf"/><path fill="#333" d="M25 0v-261h50V0H25" id="bg"/><path fill="#333" d="M123 10C108 53 80 86 19 72V37c35 8 53-11 59-39L3-190h52l48 148c12-52 28-100 44-148h51" id="bh"/><g id="t"><use transform="matrix(0.05,0,0,0.05,0,0)" xlink:href="#aZ"/><use transform="matrix(0.05,0,0,0.05,10,0)" xlink:href="#ba"/><use transform="matrix(0.05,0,0,0.05,20.950000000000003,0)" xlink:href="#aR"/><use transform="matrix(0.05,0,0,0.05,30.950000000000003,0)" xlink:href="#bb"/><use transform="matrix(0.05,0,0,0.05,37.95,0)" xlink:href="#bc"/><use transform="matrix(0.05,0,0,0.05,43.900000000000006,0)" xlink:href="#aU"/><use transform="matrix(0.05,0,0,0.05,49.85000000000001,0)" xlink:href="#aW"/><use transform="matrix(0.05,0,0,0.05,62.80000000000001,0)" xlink:href="#ba"/><use transform="matrix(0.05,0,0,0.05,73.75000000000001,0)" xlink:href="#aR"/><use transform="matrix(0.05,0,0,0.05,83.75000000000001,0)" xlink:href="#bb"/><use transform="matrix(0.05,0,0,0.05,90.75000000000001,0)" xlink:href="#bc"/><use transform="matrix(0.05,0,0,0.05,96.70000000000002,0)" xlink:href="#bd"/><use transform="matrix(0.05,0,0,0.05,109.65000000000003,0)" xlink:href="#be"/><use transform="matrix(0.05,0,0,0.05,114.65000000000003,0)" xlink:href="#bf"/><use transform="matrix(0.05,0,0,0.05,124.65000000000003,0)" xlink:href="#aQ"/><use transform="matrix(0.05,0,0,0.05,135.60000000000002,0)" xlink:href="#bg"/><use transform="matrix(0.05,0,0,0.05,140.60000000000002,0)" xlink:href="#aR"/><use transform="matrix(0.05,0,0,0.05,150.60000000000002,0)" xlink:href="#bh"/><path fill="#333" d="M-.9.97h162.4v1.9H-.9z"/></g><path fill="#333" d="M240-174c0 40-23 61-54 70L253 0h-59l-57-94H76V0H24v-248c93 4 217-23 216 74zM76-134c48-2 112 12 112-38 0-48-66-32-112-35v73" id="bi"/><path fill="#333" d="M24 0v-248h195v40H76v63h132v40H76v65h150V0H24" id="bj"/><g id="u"><use transform="matrix(0.04938271604938272,0,0,0.04938271604938272,0,0)" xlink:href="#bi"/><use transform="matrix(0.04938271604938272,0,0,0.04938271604938272,12.790123456790125,0)" xlink:href="#bj"/><use transform="matrix(0.04938271604938272,0,0,0.04938271604938272,24.641975308641978,0)" xlink:href="#aV"/></g><path fill="#333" d="M238-95c0 69-44 99-111 99C63 4 22-25 22-93v-155h51v151c-1 38 19 59 55 60 90 1 49-130 58-211h52v153" id="bk"/><path fill="#333" d="M169-182c-1-43-94-46-97-3 18 66 151 10 154 114 3 95-165 93-204 36-6-8-10-19-12-30l50-8c3 46 112 56 116 5-17-69-150-10-154-114-4-87 153-88 188-35 5 8 8 18 10 28" id="bl"/><path fill="#333" d="M14-72v-43h91v43H14" id="bm"/><path fill="#333" d="M101-251c68 0 84 54 84 127C185-50 166 4 99 4S15-52 14-124c-1-75 17-127 87-127zm-1 216c37-5 36-46 36-89s4-89-36-89c-39 0-36 45-36 89 0 43-3 85 36 89" id="bn"/><path fill="#333" d="M128-127c34 4 56 21 59 58 7 91-148 94-172 28-4-9-6-17-7-26l51-5c1 24 16 35 40 36 23 0 39-12 38-36-1-31-31-36-65-34v-40c32 2 59-3 59-33 0-20-13-33-34-33s-33 13-35 32l-50-3c6-44 37-68 86-68 50 0 83 20 83 66 0 35-22 52-53 58" id="bo"/><g id="v"><use transform="matrix(0.04938271604938272,0,0,0.04938271604938272,0,0)" xlink:href="#bk"/><use transform="matrix(0.04938271604938272,0,0,0.04938271604938272,12.790123456790125,0)" xlink:href="#bl"/><use transform="matrix(0.04938271604938272,0,0,0.04938271604938272,24.641975308641978,0)" xlink:href="#bm"/><use transform="matrix(0.04938271604938272,0,0,0.04938271604938272,30.518518518518523,0)" xlink:href="#bn"/><use transform="matrix(0.04938271604938272,0,0,0.04938271604938272,40.39506172839506,0)" xlink:href="#bo"/><use transform="matrix(0.04938271604938272,0,0,0.04938271604938272,50.27160493827161,0)" xlink:href="#aU"/></g><path fill="#333" d="M67-125c0 54 23 88 75 88 28 0 53-7 68-21v-34h-60v-39h108v91C232-14 192 4 140 4 58 4 20-42 15-125 8-236 126-280 215-234c19 10 29 26 37 47l-47 15c-11-23-29-39-63-39-53 1-75 33-75 86" id="bp"/><path fill="#333" d="M136-208V0H84v-208H4v-40h212v40h-80" id="bq"/><g id="w"><use transform="matrix(0.04938271604938272,0,0,0.04938271604938272,0,0)" xlink:href="#bp"/><use transform="matrix(0.04938271604938272,0,0,0.04938271604938272,13.827160493827162,0)" xlink:href="#bj"/><use transform="matrix(0.04938271604938272,0,0,0.04938271604938272,25.679012345679016,0)" xlink:href="#bq"/></g><path fill="#333" d="M24 0v-248h52v208h133V0H24" id="br"/><path fill="#333" d="M199 0l-22-63H83L61 0H9l90-248h61L250 0h-51zm-33-102l-36-108c-10 38-24 72-36 108h72" id="bs"/><g id="x"><use transform="matrix(0.04938271604938272,0,0,0.04938271604938272,0,0)" xlink:href="#aW"/><use transform="matrix(0.04938271604938272,0,0,0.04938271604938272,12.790123456790125,0)" xlink:href="#br"/><use transform="matrix(0.04938271604938272,0,0,0.04938271604938272,23.60493827160494,0)" xlink:href="#bs"/><use transform="matrix(0.04938271604938272,0,0,0.04938271604938272,36.39506172839506,0)" xlink:href="#bl"/><use transform="matrix(0.04938271604938272,0,0,0.04938271604938272,48.24691358024692,0)" xlink:href="#bl"/></g><path fill="#333" d="M24 0v-248h52V0H24" id="bt"/><path fill="#333" d="M175 0L67-191c6 58 2 128 3 191H24v-248h59L193-55c-6-58-2-129-3-193h46V0h-61" id="bu"/><path fill="#333" d="M140-251c80 0 125 45 125 126S219 4 139 4C58 4 15-44 15-125s44-126 125-126zm-1 214c52 0 73-35 73-88 0-50-21-86-72-86-52 0-73 35-73 86s22 88 72 88" id="bv"/><path fill="#333" d="M230 0l2-204L168 0h-37L68-204 70 0H24v-248h70l56 185 57-185h69V0h-46" id="bw"/><g id="y"><use transform="matrix(0.04938271604938272,0,0,0.04938271604938272,0,0)" xlink:href="#bt"/><use transform="matrix(0.04938271604938272,0,0,0.04938271604938272,4.938271604938272,0)" xlink:href="#bu"/><use transform="matrix(0.04938271604938272,0,0,0.04938271604938272,17.7283950617284,0)" xlink:href="#aV"/><use transform="matrix(0.04938271604938272,0,0,0.04938271604938272,28.54320987654322,0)" xlink:href="#bv"/><use transform="matrix(0.04938271604938272,0,0,0.04938271604938272,42.37037037037038,0)" xlink:href="#bi"/><use transform="matrix(0.04938271604938272,0,0,0.04938271604938272,55.16049382716051,0)" xlink:href="#bw"/><use transform="matrix(0.04938271604938272,0,0,0.04938271604938272,69.92592592592594,0)" xlink:href="#bs"/><use transform="matrix(0.04938271604938272,0,0,0.04938271604938272,81.38271604938274,0)" xlink:href="#bq"/><use transform="matrix(0.04938271604938272,0,0,0.04938271604938272,92.19753086419755,0)" xlink:href="#bt"/><use transform="matrix(0.04938271604938272,0,0,0.04938271604938272,97.13580246913583,0)" xlink:href="#bv"/><use transform="matrix(0.04938271604938272,0,0,0.04938271604938272,110.96296296296299,0)" xlink:href="#bu"/></g><path d="M15-91v-56l181-69v40L49-119l147 57v40" id="bx"/><path d="M190-63c-7 42-38 67-86 67-59 0-84-38-90-98-12-110 154-137 174-36l-49 2c-2-19-15-32-35-32-30 0-35 28-38 64-6 74 65 87 74 30" id="by"/><path d="M185-48c-13 30-37 53-82 52C43 2 14-33 14-96s30-98 90-98c62 0 83 45 84 108H66c0 31 8 55 39 56 18 0 30-7 34-22zm-45-69c5-46-57-63-70-21-2 6-4 13-4 21h74" id="bz"/><path d="M15-22v-40l146-57-146-57v-40l181 69v56" id="bA"/><g id="z"><use transform="matrix(0.04938271604938272,0,0,0.04938271604938272,0,0)" xlink:href="#bx"/><use transform="matrix(0.04938271604938272,0,0,0.04938271604938272,10.370370370370372,0)" xlink:href="#bx"/><use transform="matrix(0.04938271604938272,0,0,0.04938271604938272,20.740740740740744,0)" xlink:href="#by"/><use transform="matrix(0.04938271604938272,0,0,0.04938271604938272,30.617283950617285,0)" xlink:href="#T"/><use transform="matrix(0.04938271604938272,0,0,0.04938271604938272,37.53086419753087,0)" xlink:href="#bz"/><use transform="matrix(0.04938271604938272,0,0,0.04938271604938272,47.40740740740741,0)" xlink:href="#P"/><use transform="matrix(0.04938271604938272,0,0,0.04938271604938272,57.283950617283956,0)" xlink:href="#U"/><use transform="matrix(0.04938271604938272,0,0,0.04938271604938272,63.1604938271605,0)" xlink:href="#bz"/><use transform="matrix(0.04938271604938272,0,0,0.04938271604938272,73.03703703703704,0)" xlink:href="#bA"/><use transform="matrix(0.04938271604938272,0,0,0.04938271604938272,83.4074074074074,0)" xlink:href="#bA"/></g><g id="A"><use transform="matrix(0.04938271604938272,0,0,0.04938271604938272,0,0)" xlink:href="#K"/><use transform="matrix(0.04938271604938272,0,0,0.04938271604938272,10.814814814814815,0)" xlink:href="#L"/><use transform="matrix(0.04938271604938272,0,0,0.04938271604938272,15.753086419753087,0)" xlink:href="#M"/><use transform="matrix(0.04938271604938272,0,0,0.04938271604938272,25.629629629629633,0)" xlink:href="#N"/><use transform="matrix(0.04938271604938272,0,0,0.04938271604938272,36.44444444444445,0)" xlink:href="#O"/><use transform="matrix(0.04938271604938272,0,0,0.04938271604938272,41.38271604938272,0)" xlink:href="#P"/><use transform="matrix(0.04938271604938272,0,0,0.04938271604938272,51.25925925925927,0)" xlink:href="#Q"/><use transform="matrix(0.04938271604938272,0,0,0.04938271604938272,61.13580246913581,0)" xlink:href="#V"/><use transform="matrix(0.04938271604938272,0,0,0.04938271604938272,67.01234567901236,0)" xlink:href="#K"/><use transform="matrix(0.04938271604938272,0,0,0.04938271604938272,77.82716049382717,0)" xlink:href="#P"/><use transform="matrix(0.04938271604938272,0,0,0.04938271604938272,87.70370370370371,0)" xlink:href="#U"/><use transform="matrix(0.04938271604938272,0,0,0.04938271604938272,93.58024691358025,0)" xlink:href="#P"/><use transform="matrix(0.04938271604938272,0,0,0.04938271604938272,103.4567901234568,0)" xlink:href="#W"/></g><path d="M85 4C-2 5 27-109 22-190h50c7 57-23 150 33 157 60-5 35-97 40-157h50l1 190h-47c-2-12 1-28-3-38-12 25-28 42-61 42" id="bB"/><path d="M76-208v77h127v40H76V0H24v-248h183v40H76" id="bC"/><path d="M121-226c-27-7-43 5-38 36h38v33H83V0H34v-157H6v-33h28c-9-59 32-81 87-68v32" id="bD"/><g id="C"><use transform="matrix(0.04938271604938272,0,0,0.04938271604938272,0,0)" xlink:href="#bB"/><use transform="matrix(0.04938271604938272,0,0,0.04938271604938272,10.814814814814815,0)" xlink:href="#N"/><use transform="matrix(0.04938271604938272,0,0,0.04938271604938272,21.62962962962963,0)" xlink:href="#K"/><use transform="matrix(0.04938271604938272,0,0,0.04938271604938272,32.44444444444444,0)" xlink:href="#P"/><use transform="matrix(0.04938271604938272,0,0,0.04938271604938272,42.32098765432099,0)" xlink:href="#U"/><use transform="matrix(0.04938271604938272,0,0,0.04938271604938272,48.19753086419753,0)" xlink:href="#bz"/><use transform="matrix(0.04938271604938272,0,0,0.04938271604938272,58.074074074074076,0)" xlink:href="#bC"/><use transform="matrix(0.04938271604938272,0,0,0.04938271604938272,68.88888888888889,0)" xlink:href="#L"/><use transform="matrix(0.04938271604938272,0,0,0.04938271604938272,73.82716049382717,0)" xlink:href="#bz"/><use transform="matrix(0.04938271604938272,0,0,0.04938271604938272,83.70370370370371,0)" xlink:href="#O"/><use transform="matrix(0.04938271604938272,0,0,0.04938271604938272,88.64197530864197,0)" xlink:href="#K"/><use transform="matrix(0.04938271604938272,0,0,0.04938271604938272,99.45679012345678,0)" xlink:href="#M"/><use transform="matrix(0.04938271604938272,0,0,0.04938271604938272,109.33333333333331,0)" xlink:href="#V"/><use transform="matrix(0.04938271604938272,0,0,0.04938271604938272,115.20987654320986,0)" xlink:href="#bD"/><use transform="matrix(0.04938271604938272,0,0,0.04938271604938272,121.0864197530864,0)" xlink:href="#L"/><use transform="matrix(0.04938271604938272,0,0,0.04938271604938272,126.02469135802468,0)" xlink:href="#bz"/><use transform="matrix(0.04938271604938272,0,0,0.04938271604938272,135.9012345679012,0)" xlink:href="#O"/><use transform="matrix(0.04938271604938272,0,0,0.04938271604938272,140.8395061728395,0)" xlink:href="#K"/><use transform="matrix(0.04938271604938272,0,0,0.04938271604938272,151.6543209876543,0)" xlink:href="#O"/><use transform="matrix(0.04938271604938272,0,0,0.04938271604938272,156.59259259259258,0)" xlink:href="#L"/><use transform="matrix(0.04938271604938272,0,0,0.04938271604938272,161.53086419753086,0)" xlink:href="#M"/><use transform="matrix(0.04938271604938272,0,0,0.04938271604938272,171.4074074074074,0)" xlink:href="#U"/><use transform="matrix(0.04938271604938272,0,0,0.04938271604938272,177.28395061728392,0)" xlink:href="#W"/></g><g id="D"><use transform="matrix(0.04938271604938272,0,0,0.04938271604938272,0,0)" xlink:href="#bD"/><use transform="matrix(0.04938271604938272,0,0,0.04938271604938272,5.8765432098765435,0)" xlink:href="#L"/><use transform="matrix(0.04938271604938272,0,0,0.04938271604938272,10.814814814814817,0)" xlink:href="#bz"/><use transform="matrix(0.04938271604938272,0,0,0.04938271604938272,20.69135802469136,0)" xlink:href="#O"/><use transform="matrix(0.04938271604938272,0,0,0.04938271604938272,25.629629629629633,0)" xlink:href="#K"/><use transform="matrix(0.04938271604938272,0,0,0.04938271604938272,36.44444444444445,0)" xlink:href="#O"/><use transform="matrix(0.04938271604938272,0,0,0.04938271604938272,41.38271604938272,0)" xlink:href="#L"/><use transform="matrix(0.04938271604938272,0,0,0.04938271604938272,46.320987654320994,0)" xlink:href="#M"/><use transform="matrix(0.04938271604938272,0,0,0.04938271604938272,56.19753086419754,0)" xlink:href="#U"/></g><path d="M240-174c0 40-23 61-54 70L253 0h-59l-57-94H76V0H24v-248c93 4 217-23 216 74zM76-134c48-2 112 12 112-38 0-48-66-32-112-35v73" id="bE"/><g id="E"><use transform="matrix(0.04938271604938272,0,0,0.04938271604938272,0,0)" xlink:href="#bE"/><use transform="matrix(0.04938271604938272,0,0,0.04938271604938272,12.790123456790125,0)" xlink:href="#bz"/><use transform="matrix(0.04938271604938272,0,0,0.04938271604938272,22.66666666666667,0)" xlink:href="#N"/><use transform="matrix(0.04938271604938272,0,0,0.04938271604938272,33.48148148148149,0)" xlink:href="#bz"/><use transform="matrix(0.04938271604938272,0,0,0.04938271604938272,43.35802469135803,0)" xlink:href="#P"/><use transform="matrix(0.04938271604938272,0,0,0.04938271604938272,53.23456790123457,0)" xlink:href="#U"/></g><path d="M110-194c64 0 96 36 96 99 0 64-35 99-97 99-61 0-95-36-95-99 0-62 34-99 96-99zm-1 164c35 0 45-28 45-65 0-40-10-65-43-65-34 0-45 26-45 65 0 36 10 65 43 65" id="bF"/><g id="F"><use transform="matrix(0.04938271604938272,0,0,0.04938271604938272,0,0)" xlink:href="#bD"/><use transform="matrix(0.04938271604938272,0,0,0.04938271604938272,5.8765432098765435,0)" xlink:href="#bF"/><use transform="matrix(0.04938271604938272,0,0,0.04938271604938272,16.691358024691358,0)" xlink:href="#T"/></g><path d="M220-157c-53 9-28 100-34 157h-49v-107c1-27-5-49-29-50C55-147 81-57 75 0H25l-1-190h47c2 12-1 28 3 38 10-53 101-56 108 0 13-22 24-43 59-42 82 1 51 116 57 194h-49v-107c-1-25-5-48-29-50" id="bG"/><g id="G"><use transform="matrix(0.04938271604938272,0,0,0.04938271604938272,0,0)" xlink:href="#O"/><use transform="matrix(0.04938271604938272,0,0,0.04938271604938272,4.938271604938272,0)" xlink:href="#L"/><use transform="matrix(0.04938271604938272,0,0,0.04938271604938272,9.876543209876544,0)" xlink:href="#bD"/><use transform="matrix(0.04938271604938272,0,0,0.04938271604938272,15.753086419753087,0)" xlink:href="#bz"/><use transform="matrix(0.04938271604938272,0,0,0.04938271604938272,25.629629629629633,0)" xlink:href="#U"/><use transform="matrix(0.04938271604938272,0,0,0.04938271604938272,31.506172839506174,0)" xlink:href="#L"/><use transform="matrix(0.04938271604938272,0,0,0.04938271604938272,36.44444444444445,0)" xlink:href="#bG"/><use transform="matrix(0.04938271604938272,0,0,0.04938271604938272,52.24691358024692,0)" xlink:href="#bz"/></g><g id="H"><use transform="matrix(0.04938271604938272,0,0,0.04938271604938272,0,0)" xlink:href="#bF"/><use transform="matrix(0.04938271604938272,0,0,0.04938271604938272,10.814814814814815,0)" xlink:href="#bD"/></g><path d="M195-6C206 82 75 100 31 46c-4-6-6-13-8-21l49-6c3 16 16 24 34 25 40 0 42-37 40-79-11 22-30 35-61 35-53 0-70-43-70-97 0-56 18-96 73-97 30 0 46 14 59 34l2-30h47zm-90-29c32 0 41-27 41-63 0-35-9-62-40-62-32 0-39 29-40 63 0 36 9 62 39 62" id="bH"/><g id="I"><use transform="matrix(0.04938271604938272,0,0,0.04938271604938272,0,0)" xlink:href="#N"/><use transform="matrix(0.04938271604938272,0,0,0.04938271604938272,10.814814814814815,0)" xlink:href="#P"/><use transform="matrix(0.04938271604938272,0,0,0.04938271604938272,20.69135802469136,0)" xlink:href="#bH"/><use transform="matrix(0.04938271604938272,0,0,0.04938271604938272,31.506172839506174,0)" xlink:href="#bz"/></g><g id="J"><use transform="matrix(0.04938271604938272,0,0,0.04938271604938272,0,0)" xlink:href="#bB"/><use transform="matrix(0.04938271604938272,0,0,0.04938271604938272,10.814814814814815,0)" xlink:href="#N"/><use transform="matrix(0.04938271604938272,0,0,0.04938271604938272,21.62962962962963,0)" xlink:href="#K"/><use transform="matrix(0.04938271604938272,0,0,0.04938271604938272,32.44444444444444,0)" xlink:href="#P"/><use transform="matrix(0.04938271604938272,0,0,0.04938271604938272,42.32098765432099,0)" xlink:href="#U"/><use transform="matrix(0.04938271604938272,0,0,0.04938271604938272,48.19753086419753,0)" xlink:href="#bz"/><use transform="matrix(0.04938271604938272,0,0,0.04938271604938272,58.074074074074076,0)" xlink:href="#bC"/><use transform="matrix(0.04938271604938272,0,0,0.04938271604938272,68.88888888888889,0)" xlink:href="#L"/><use transform="matrix(0.04938271604938272,0,0,0.04938271604938272,73.82716049382717,0)" xlink:href="#bz"/><use transform="matrix(0.04938271604938272,0,0,0.04938271604938272,83.70370370370371,0)" xlink:href="#O"/><use transform="matrix(0.04938271604938272,0,0,0.04938271604938272,88.64197530864197,0)" xlink:href="#K"/><use transform="matrix(0.04938271604938272,0,0,0.04938271604938272,99.45679012345678,0)" xlink:href="#M"/><use transform="matrix(0.04938271604938272,0,0,0.04938271604938272,109.33333333333331,0)" xlink:href="#V"/><use transform="matrix(0.04938271604938272,0,0,0.04938271604938272,115.20987654320986,0)" xlink:href="#bD"/><use transform="matrix(0.04938271604938272,0,0,0.04938271604938272,121.0864197530864,0)" xlink:href="#L"/><use transform="matrix(0.04938271604938272,0,0,0.04938271604938272,126.02469135802468,0)" xlink:href="#bz"/><use transform="matrix(0.04938271604938272,0,0,0.04938271604938272,135.9012345679012,0)" xlink:href="#O"/><use transform="matrix(0.04938271604938272,0,0,0.04938271604938272,140.8395061728395,0)" xlink:href="#K"/><use transform="matrix(0.04938271604938272,0,0,0.04938271604938272,151.6543209876543,0)" xlink:href="#O"/><use transform="matrix(0.04938271604938272,0,0,0.04938271604938272,156.59259259259258,0)" xlink:href="#L"/><use transform="matrix(0.04938271604938272,0,0,0.04938271604938272,161.53086419753086,0)" xlink:href="#M"/><use transform="matrix(0.04938271604938272,0,0,0.04938271604938272,171.4074074074074,0)" xlink:href="#U"/><use transform="matrix(0.04938271604938272,0,0,0.04938271604938272,177.28395061728392,0)" xlink:href="#W"/></g></defs></g></svg>