<svg xmlns="http://www.w3.org/2000/svg" xmlns:xlink="http://www.w3.org/1999/xlink" xmlns:lucid="lucid" width="1420" height="868"><g transform="translate(-20 -12)" lucid:page-tab-id="0_0"><path d="M40 32h380v280H40z" stroke="#2ba9e0" stroke-width="2" fill="#fff"/><path d="M40 66h380M40 114h380" stroke="#2ba9e0" stroke-width="2" fill="none"/><use xlink:href="#a" transform="matrix(1,0,0,1,48,32) translate(145.638671875 21.9658203125)"/><use xlink:href="#b" transform="matrix(1,0,0,1,52,121.51665140360228) translate(0 42.9404296875)"/><use xlink:href="#c" transform="matrix(1,0,0,1,52,121.51665140360228) translate(127.2744140625 42.9404296875)"/><use xlink:href="#d" transform="matrix(1,0,0,1,52,121.51665140360228) translate(137.953125 42.9404296875)"/><use xlink:href="#c" transform="matrix(1,0,0,1,52,121.51665140360228) translate(203.080078125 42.9404296875)"/><use xlink:href="#e" transform="matrix(1,0,0,1,52,121.51665140360228) translate(213.7587890625 42.9404296875)"/><use xlink:href="#f" transform="matrix(1,0,0,1,52,121.51665140360228) translate(0 69.703125)"/><use xlink:href="#c" transform="matrix(1,0,0,1,52,121.51665140360228) translate(182.0390625 69.703125)"/><use xlink:href="#g" transform="matrix(1,0,0,1,52,121.51665140360228) translate(192.7177734375 69.703125)"/><use xlink:href="#c" transform="matrix(1,0,0,1,52,121.51665140360228) translate(274.1396484375 69.703125)"/><use xlink:href="#h" transform="matrix(1,0,0,1,52,121.51665140360228) translate(284.818359375 69.703125)"/><use xlink:href="#i" transform="matrix(1,0,0,1,52,121.51665140360228) translate(0 96.4658203125)"/><use xlink:href="#c" transform="matrix(1,0,0,1,52,121.51665140360228) translate(194.4052734375 96.4658203125)"/><use xlink:href="#d" transform="matrix(1,0,0,1,52,121.51665140360228) translate(205.083984375 96.4658203125)"/><use xlink:href="#c" transform="matrix(1,0,0,1,52,121.51665140360228) translate(270.2109375 96.4658203125)"/><use xlink:href="#j" transform="matrix(1,0,0,1,52,121.51665140360228) translate(280.8896484375 96.4658203125)"/><use xlink:href="#k" transform="matrix(1,0,0,1,52,121.51665140360228) translate(0 123.228515625)"/><use xlink:href="#c" transform="matrix(1,0,0,1,52,121.51665140360228) translate(177.521484375 123.228515625)"/><use xlink:href="#d" transform="matrix(1,0,0,1,52,121.51665140360228) translate(188.2001953125 123.228515625)"/><use xlink:href="#c" transform="matrix(1,0,0,1,52,121.51665140360228) translate(253.3271484375 123.228515625)"/><use xlink:href="#l" transform="matrix(1,0,0,1,52,121.51665140360228) translate(264.005859375 123.228515625)"/><use xlink:href="#m" transform="matrix(1,0,0,1,52,121.51665140360228) translate(0 149.9912109375)"/><use xlink:href="#c" transform="matrix(1,0,0,1,52,121.51665140360228) translate(164.53125 149.9912109375)"/><use xlink:href="#n" transform="matrix(1,0,0,1,52,121.51665140360228) translate(175.2099609375 149.9912109375)"/><use xlink:href="#c" transform="matrix(1,0,0,1,52,121.51665140360228) translate(266.185546875 149.9912109375)"/><use xlink:href="#o" transform="matrix(1,0,0,1,52,121.51665140360228) translate(276.8642578125 149.9912109375)"/><path d="M560 32h360v115.14H560z" stroke="#2ba9e0" stroke-width="2" fill="#fff"/><path d="M560 66.14h360m-360 36h360" stroke="#2ba9e0" stroke-width="2" fill="none"/><use xlink:href="#p" transform="matrix(1,0,0,1,568,32) translate(115.890625 21.9658203125)"/><use xlink:href="#q" transform="matrix(1,0,0,1,572,110.55347207988805) translate(0 19.4658203125)"/><use xlink:href="#r" transform="matrix(1,0,0,1,572,110.55347207988805) translate(159.78515625 19.4658203125)"/><use xlink:href="#s" transform="matrix(1,0,0,1,572,110.55347207988805) translate(230.3173828125 19.4658203125)"/><path d="M1040 112h380v200h-380z" stroke="#2ba9e0" stroke-width="2" fill="#fff"/><path d="M1040 146h380m-380 83h380" stroke="#2ba9e0" stroke-width="2" fill="none"/><use xlink:href="#t" transform="matrix(1,0,0,1,1048,112) translate(128.13623046875 21.9658203125)"/><use xlink:href="#u" transform="matrix(1,0,0,1,1052,153.841796875) translate(0 25.58447265625)"/><use xlink:href="#v" transform="matrix(1,0,0,1,1052,153.841796875) translate(129.7529296875 25.58447265625)"/><use xlink:href="#w" transform="matrix(1,0,0,1,1052,153.841796875) translate(0 52.34716796875)"/><use xlink:href="#s" transform="matrix(1,0,0,1,1052,153.841796875) translate(134.19140625 52.34716796875)"/><use xlink:href="#x" transform="matrix(1,0,0,1,1052,236.9208984375) translate(0 25.58447265625)"/><use xlink:href="#y" transform="matrix(1,0,0,1,1052,236.9208984375) translate(128.548828125 25.58447265625)"/><use xlink:href="#h" transform="matrix(1,0,0,1,1052,236.9208984375) translate(224.9296875 25.58447265625)"/><use xlink:href="#z" transform="matrix(1,0,0,1,1052,236.9208984375) translate(0 52.34716796875)"/><use xlink:href="#A" transform="matrix(1,0,0,1,1052,236.9208984375) translate(187.4443359375 52.34716796875)"/><use xlink:href="#o" transform="matrix(1,0,0,1,1052,236.9208984375) translate(274.271484375 52.34716796875)"/><path d="M560 340h360v160H560z" stroke="#000" stroke-width="2" fill="#fff"/><path d="M560 399h360" stroke="#000" stroke-width="2" fill="none"/><use xlink:href="#B" transform="matrix(1,0,0,1,568,340) translate(113.57499999999999 22.799999999999997)"/><use xlink:href="#C" transform="matrix(1,0,0,1,568,340) translate(134.1 44.4)"/><use xlink:href="#D" transform="matrix(1,0,0,1,572,407.2) translate(0 24.5)"/><use xlink:href="#E" transform="matrix(1,0,0,1,572,407.2) translate(161.15 24.5)"/><use xlink:href="#F" transform="matrix(1,0,0,1,572,407.2) translate(224 24.5)"/><use xlink:href="#G" transform="matrix(1,0,0,1,572,407.2) translate(0 46.1)"/><use xlink:href="#H" transform="matrix(1,0,0,1,572,407.2) translate(124.20000000000002 46.1)"/><use xlink:href="#I" transform="matrix(1,0,0,1,572,407.2) translate(0 67.7)"/><path d="M230 313v107h327.04" fill="none"/><path d="M230 313v10.33m0 10.34v20.67m0 10.33v20.67m0 10.33v20.67m6.68 3.66h20.66m10.34 0h20.67m10.33 0h20.67m10.33 0h20.67m10.34 0h20.65m10.34 0h20.66m10.33 0h20.66m10.33 0h20.66m10.34 0h20.66m10.34 0h20.67m10.33 0h10.34" stroke="#000" stroke-width="2" fill="none"/><path d="M231 313h-2v-1h2zM559 420l-19.53 11.55-1.02-1.72 16.62-9.83-16.62-9.83 1.02-1.72z"/><path d="M421 89.57h138" stroke="#000" stroke-width="2" fill="none"/><path d="M421 90.57h-1v-2h1zM560 90.57h-1v-2h1z"/><g><use xlink:href="#J" transform="matrix(1,0,0,1,433.32184208106383,93.56818181818176) translate(0 14.4)"/></g><g><use xlink:href="#J" transform="matrix(1,0,0,1,538.6194101983599,63.96818181818182) translate(0 14.4)"/></g><path d="M421 212h618" stroke="#000" stroke-width="2" fill="none"/><path d="M421 213h-1v-2h1zM1040 213h-1v-2h1z"/><g><use xlink:href="#J" transform="matrix(1,0,0,1,428.18915411326583,215.99999999999997) translate(0 14.4)"/></g><g><use xlink:href="#J" transform="matrix(1,0,0,1,1017.9837374312968,186.39999999999998) translate(0 14.4)"/></g><path d="M740 148.14V207c2.76 0 5 2.24 5 5s-2.24 5-5 5v120.03" fill="none"/><path d="M740 148.14v9.8m0 9.82v19.62m0 9.8V207l2.95.96 1.8 2.46.25 1.58-.96 2.95-2.46 1.8-1.58.25v10m0 10V257.02m0 10v20.02m0 10v20m0 10v10" stroke="#000" stroke-width="2" fill="none"/><path d="M741 148.14h-2v-1h2zM751.55 319.47L740 339l-11.55-19.53 1.72-1.02 9.83 16.62 9.83-16.62z"/><path d="M1230 313v107H922.96" fill="none"/><path d="M1230 313v9.86m0 9.86v19.7m0 9.87V382m0 9.86v19.72m-1.44 8.42h-19.7m-9.87 0h-19.73m-9.86 0h-19.7m-9.86 0h-19.72m-9.85 0h-19.72m-9.86 0h-19.72m-9.86 0h-19.72m-9.86 0h-19.7m-9.87 0h-19.72m-9.85 0h-19.72m-9.86 0h-9.86" stroke="#000" stroke-width="2" fill="none"/><path d="M1231 313h-2v-1h2zM940.7 410.68L924.92 420l15.76 9.32-1.03 1.72L921 420l18.67-11.04z"/><path d="M300 680h360v180H300z" stroke="#0c7cba" stroke-width="2" fill="#fff"/><path d="M300 718h360m-360 87h360" stroke="#0c7cba" stroke-width="2" fill="none"/><g><use xlink:href="#K" transform="matrix(1,0,0,1,308,680) translate(139.05 22.6)"/></g><g><use xlink:href="#L" transform="matrix(1,0,0,1,312,725.6) translate(0 28.799999999999997)"/><use xlink:href="#M" transform="matrix(1,0,0,1,312,725.6) translate(60.9 28.799999999999997)"/><use xlink:href="#N" transform="matrix(1,0,0,1,312,725.6) translate(0 50.4)"/><use xlink:href="#O" transform="matrix(1,0,0,1,312,725.6) translate(76.8 50.4)"/><use xlink:href="#P" transform="matrix(1,0,0,1,312,725.6) translate(138.7 50.4)"/><use xlink:href="#Q" transform="matrix(1,0,0,1,312,725.6) translate(154.2 50.4)"/><use xlink:href="#R" transform="matrix(1,0,0,1,312,725.6) translate(191.2 50.4)"/></g><path d="M840 680h360v180H840z" stroke="#0c7cba" stroke-width="2" fill="#fff"/><path d="M840 718h360m-360 87h360" stroke="#0c7cba" stroke-width="2" fill="none"/><g><use xlink:href="#S" transform="matrix(1,0,0,1,848,680) translate(149.55 22.6)"/></g><g><use xlink:href="#T" transform="matrix(1,0,0,1,852,725.6) translate(0 28.799999999999997)"/><use xlink:href="#M" transform="matrix(1,0,0,1,852,725.6) translate(112.85000000000001 28.799999999999997)"/><use xlink:href="#N" transform="matrix(1,0,0,1,852,725.6) translate(0 50.4)"/><use xlink:href="#O" transform="matrix(1,0,0,1,852,725.6) translate(76.8 50.4)"/><use xlink:href="#P" transform="matrix(1,0,0,1,852,725.6) translate(138.7 50.4)"/><use xlink:href="#Q" transform="matrix(1,0,0,1,852,725.6) translate(154.2 50.4)"/><use xlink:href="#U" transform="matrix(1,0,0,1,852,725.6) translate(191.2 50.4)"/></g><path d="M1020 679v-89H825.76v-65.04" fill="none"/><path d="M1020 679v-9.67m0-9.68V640.3m0-9.67v-19.35m0-9.68V590h-7.74m-9.68 0h-19.35m-9.67 0H954.2m-9.66 0H925.2m-9.7 0h-19.34m-9.67 0h-19.36m-9.67 0h-19.35m-9.68 0h-2.68v-16.66m0-9.68V544.3m0-9.66v-9.68" stroke="#000" stroke-width="2" fill="none"/><path d="M1021 680h-2v-1h2z"/><path d="M838.48 524.48h-25.45l12.73-21.52z" fill="#fff"/><path d="M840.24 525.48h-28.96L825.76 501zm-25.46-2h21.95l-10.97-18.55z"/><path d="M480 679v-89h171.95v-65.04" fill="none"/><path d="M480 679v-9.88m0-9.88V639.5m0-9.9v-19.75m0-9.88V590h9.78m9.88 0h19.76m9.88 0h19.75m9.88 0h19.76m9.87 0h19.75m9.88 0h19.76m9.88 0h4.1v-15.64m0-9.88v-19.76m0-9.88v-9.88" stroke="#000" stroke-width="2" fill="none"/><path d="M481 680h-2v-1h2z"/><path d="M664.67 524.48h-25.45l12.73-21.52z" fill="#fff"/><path d="M666.43 525.48h-28.96L651.95 501zm-25.45-2h21.94l-10.97-18.55z"/><defs><path fill="#3d4752" d="M478 0H205v-1489h859v219H478v389h485v219H478V0" id="V"/><path fill="#3d4752" d="M102-744c-7-402 254-768 642-768 139 0 270 41 393 124l-138 175c-77-55-161-82-252-82-144 0-247 85-308 256-31 85-46 183-46 295 0 228 53 391 167 482 144 115 312 73 466-35l124 172C930 61 588 78 365-105 204-237 107-456 102-744" id="W"/><path fill="#3d4752" d="M736-1293c-233 0-343 288-343 549 0 222 54 382 163 479 68 60 150 86 248 60L632-457h252l87 128c191-263 138-964-235-964zM937-12C751 56 550 23 403-80 224-205 101-446 102-744c2-299 128-540 311-667 192-134 466-131 654 5 174 126 303 370 302 662 0 265-85 473-255 624l199 290h-251" id="X"/><path fill="#3d4752" d="M205-1489h426c365 0 548 153 548 458S998-573 635-573H478V0H205v-1489zm273 219v478h161c177 0 265-80 265-239s-88-239-265-239H478" id="Y"/><path fill="#3d4752" d="M711-687c-7-170-35-229-188-230-74 0-147 18-220 53l-88-179c111-51 229-76 353-76 303 0 405 148 405 459V0H717v-81C651-13 566 21 461 21 236 21 81-120 81-346c0-158 85-260 254-311 103-31 245-40 376-30zM326-329c0 101 84 155 189 155 91 0 157-36 196-109v-226c-23-4-49-6-78-6-205 0-307 62-307 186" id="Z"/><path fill="#3d4752" d="M1040 13c1 285-186 425-480 425-155 0-288-42-397-127l107-153c86 57 175 86 266 86 162 0 243-86 243-258v-81C700-18 607 20 498 20c-167 0-286-84-355-253-33-79-49-170-49-272 0-252 66-428 193-533 131-108 361-101 490 7v-64h263V13zM777-276v-551c-65-56-128-84-191-84-145 0-217 133-217 399 0 214 67 321 202 321 71 0 139-28 206-85" id="aa"/><path fill="#3d4752" d="M94-548c0-302 191-568 483-568 311 0 493 270 482 633H370c7 207 93 311 256 311 93 0 196-46 308-137l103 144C907-40 760 22 595 22 293 22 94-237 94-548zm282-120h403c-18-170-85-255-202-255s-184 85-201 255" id="ab"/><g id="a"><use transform="matrix(0.0087890625,0,0,0.0087890625,0,0)" xlink:href="#V"/><use transform="matrix(0.0087890625,0,0,0.0087890625,9.8525390625,0)" xlink:href="#W"/><use transform="matrix(0.0087890625,0,0,0.0087890625,19.9599609375,0)" xlink:href="#X"/><use transform="matrix(0.0087890625,0,0,0.0087890625,32.888671875,0)" xlink:href="#Y"/><use transform="matrix(0.0087890625,0,0,0.0087890625,43.06640625,0)" xlink:href="#Z"/><use transform="matrix(0.0087890625,0,0,0.0087890625,52.9716796875,0)" xlink:href="#aa"/><use transform="matrix(0.0087890625,0,0,0.0087890625,63.5888671875,0)" xlink:href="#ab"/></g><path fill="#3d4752" d="M1230-642H783v452H552v-452H106v-221h446v-452h231v452h447v221" id="ac"/><path fill="#3d4752" d="M925-326c0 213-197 348-437 348C341 22 194-16 47-93l93-183c121 69 236 103 345 103s164-42 164-127c0-41-24-75-72-100-19-10-61-25-126-44-165-49-270-109-315-179-27-41-40-94-40-158 0-210 193-335 432-335 111 0 229 34 354 103l-83 176c-101-56-191-84-271-84-107 0-161 40-161 121 0 37 23 66 70 89 16 12 285 99 327 123 105 60 161 144 161 262" id="ad"/><path fill="#3d4752" d="M431-770V0H168v-1094h263v110c156-133 232-175 396-74l-84 220c-129-52-218-25-312 68" id="ae"/><path fill="#3d4752" d="M94-547c0-294 207-569 494-569 131 0 260 50 386 150L872-811c-96-74-188-111-277-112-163-2-225 186-225 376 0 251 82 377 246 377 81 0 168-36 260-107l103 137C862-32 733 22 593 22 292 22 94-208 94-547" id="af"/><path fill="#3d4752" d="M784-1116c178 0 282 88 282 264V0H803v-754c0-92-46-138-138-138-74 0-152 32-234 95V0H168v-1580h263v579c117-77 234-115 353-115" id="ag"/><path fill="#3d4752" d="M669 468C453 236 245-116 245-520c0-243 71-485 214-726 63-106 132-205 209-296l156 95c-173 294-288 533-288 927 0 296 96 594 288 893" id="ah"/><path fill="#3d4752" d="M783-1116c173 0 283 89 283 264V0H803v-754c0-92-46-138-139-138-73 0-151 30-233 91V0H168v-1094h263v93c117-77 234-115 352-115" id="ai"/><path fill="#3d4752" d="M1420-1116c172-1 282 89 282 264V0h-263v-754c0-92-46-138-138-138-75 0-153 30-235 90V0H803v-754c0-92-46-138-138-138-71 0-149 30-234 90V0H168v-1094h263v93c117-77 234-115 353-115 121 0 206 45 254 134 124-89 251-134 382-134" id="aj"/><g id="b"><use transform="matrix(0.0087890625,0,0,0.0087890625,0,0)" xlink:href="#ac"/><use transform="matrix(0.0087890625,0,0,0.0087890625,11.7333984375,0)" xlink:href="#ad"/><use transform="matrix(0.0087890625,0,0,0.0087890625,20.5576171875,0)" xlink:href="#ab"/><use transform="matrix(0.0087890625,0,0,0.0087890625,30.69140625,0)" xlink:href="#Z"/><use transform="matrix(0.0087890625,0,0,0.0087890625,40.5966796875,0)" xlink:href="#ae"/><use transform="matrix(0.0087890625,0,0,0.0087890625,47.42578125,0)" xlink:href="#af"/><use transform="matrix(0.0087890625,0,0,0.0087890625,56.0302734375,0)" xlink:href="#ag"/><use transform="matrix(0.0087890625,0,0,0.0087890625,66.7529296875,0)" xlink:href="#ah"/><use transform="matrix(0.0087890625,0,0,0.0087890625,74.9267578125,0)" xlink:href="#ai"/><use transform="matrix(0.0087890625,0,0,0.0087890625,85.6494140625,0)" xlink:href="#Z"/><use transform="matrix(0.0087890625,0,0,0.0087890625,95.5546875,0)" xlink:href="#aj"/><use transform="matrix(0.0087890625,0,0,0.0087890625,111.8671875,0)" xlink:href="#ab"/></g><path fill="#3d4752" d="M452 0H163v-278h289V0zM163-1094h289v278H163v-278" id="ak"/><use transform="matrix(0.0087890625,0,0,0.0087890625,0,0)" xlink:href="#ak" id="c"/><path fill="#3d4752" d="M183-342c139 97 272 144 401 141 177-5 266-73 266-205 0-83-46-143-137-186-66-31-351-127-423-171-120-74-184-178-184-324 0-181 82-309 250-380 237-100 547-49 724 90l-107 195c-117-70-238-105-361-105-149 0-223 63-223 189 0 81 64 140 191 179 19 5 54 16 105 32 192 62 321 144 388 246 41 63 61 141 61 234 0 173-87 302-265 376C603 79 286 20 77-135" id="al"/><path fill="#3d4752" d="M503-384c-2 129 8 204 107 204 41 0 91-13 150-38l66 171C737-1 639 22 533 22c-230-2-293-122-293-358v-559H42v-199h198v-395h263v395h265v199H503v511" id="am"/><path fill="#3d4752" d="M431-1094V0H168v-1094h263zm0-190H168v-296h263v296" id="an"/><path fill="#3d4752" d="M261 468l-155-95c385-600 383-1225 0-1821l156-94c171 195 294 406 365 634 103 331 66 641-75 939-76 161-173 306-291 437" id="ao"/><g id="d"><use transform="matrix(0.0087890625,0,0,0.0087890625,0,0)" xlink:href="#al"/><use transform="matrix(0.0087890625,0,0,0.0087890625,10.7841796875,0)" xlink:href="#am"/><use transform="matrix(0.0087890625,0,0,0.0087890625,17.8857421875,0)" xlink:href="#ae"/><use transform="matrix(0.0087890625,0,0,0.0087890625,25.0751953125,0)" xlink:href="#an"/><use transform="matrix(0.0087890625,0,0,0.0087890625,30.33984375,0)" xlink:href="#ai"/><use transform="matrix(0.0087890625,0,0,0.0087890625,41.0625,0)" xlink:href="#aa"/><use transform="matrix(0.0087890625,0,0,0.0087890625,51.6796875,0)" xlink:href="#ao"/></g><path fill="#3d4752" d="M491-632h326l-163-487zM1028 0L887-418H421L279 0H11l527-1489h248L1312 0h-284" id="ap"/><path fill="#3d4752" d="M446 22C216 22 155-90 155-336v-1244h263v1196c0 75 6 126 18 153 27 62 110 61 177 31l67 172C603 5 525 22 446 22" id="aq"/><g id="e"><use transform="matrix(0.0087890625,0,0,0.0087890625,0,0)" xlink:href="#ap"/><use transform="matrix(0.0087890625,0,0,0.0087890625,11.9091796875,0)" xlink:href="#aq"/><use transform="matrix(0.0087890625,0,0,0.0087890625,17.6044921875,0)" xlink:href="#ab"/><use transform="matrix(0.0087890625,0,0,0.0087890625,27.73828125,0)" xlink:href="#ae"/><use transform="matrix(0.0087890625,0,0,0.0087890625,35.630859375,0)" xlink:href="#am"/></g><path fill="#3d4752" d="M437 22c-177 0-283-91-283-265v-851h263v755c0 91 46 137 139 137 75 0 152-32 233-95v-797h263V0H789v-93C670-16 552 22 437 22" id="ar"/><path fill="#3d4752" d="M690-1116c279 0 423 232 423 527 0 261-67 439-196 539C782 54 551 41 431-69v481H168v-1506h253v93c71-77 160-115 269-115zM431-810v545c64 56 127 84 189 84 145 0 218-134 218-402 0-214-68-321-203-321-71 0-139 31-204 94" id="as"/><path fill="#3d4752" d="M94-505c0-321 128-611 419-611 101 0 188 30 263 91v-555h263V-1H787v-91C712-16 620 22 509 22c-171 0-293-85-364-254-34-81-51-172-51-273zm682 228v-551c-64-56-127-84-189-84-145 0-218 134-218 401 0 213 68 320 203 320 69 0 137-29 204-86" id="at"/><path fill="#3d4752" d="M806-1530l-66 177c-158-82-260-41-259 189v70h264v199H481V0H218v-895H19v-199h199c-9-207 32-364 147-449 126-93 294-66 441 13" id="au"/><g id="f"><use transform="matrix(0.0087890625,0,0,0.0087890625,0,0)" xlink:href="#ac"/><use transform="matrix(0.0087890625,0,0,0.0087890625,11.7333984375,0)" xlink:href="#ar"/><use transform="matrix(0.0087890625,0,0,0.0087890625,22.4560546875,0)" xlink:href="#as"/><use transform="matrix(0.0087890625,0,0,0.0087890625,33.064453125,0)" xlink:href="#at"/><use transform="matrix(0.0087890625,0,0,0.0087890625,43.6728515625,0)" xlink:href="#Z"/><use transform="matrix(0.0087890625,0,0,0.0087890625,53.578125,0)" xlink:href="#am"/><use transform="matrix(0.0087890625,0,0,0.0087890625,60.6796875,0)" xlink:href="#ab"/><use transform="matrix(0.0087890625,0,0,0.0087890625,70.8134765625,0)" xlink:href="#V"/><use transform="matrix(0.0087890625,0,0,0.0087890625,80.666015625,0)" xlink:href="#an"/><use transform="matrix(0.0087890625,0,0,0.0087890625,85.9306640625,0)" xlink:href="#ab"/><use transform="matrix(0.0087890625,0,0,0.0087890625,96.064453125,0)" xlink:href="#aq"/><use transform="matrix(0.0087890625,0,0,0.0087890625,101.759765625,0)" xlink:href="#at"/><use transform="matrix(0.0087890625,0,0,0.0087890625,112.3681640625,0)" xlink:href="#ad"/><use transform="matrix(0.0087890625,0,0,0.0087890625,121.1923828125,0)" xlink:href="#ah"/><use transform="matrix(0.0087890625,0,0,0.0087890625,129.3662109375,0)" xlink:href="#au"/><use transform="matrix(0.0087890625,0,0,0.0087890625,136.2392578125,0)" xlink:href="#an"/><use transform="matrix(0.0087890625,0,0,0.0087890625,141.50390625,0)" xlink:href="#ab"/><use transform="matrix(0.0087890625,0,0,0.0087890625,151.6376953125,0)" xlink:href="#aq"/><use transform="matrix(0.0087890625,0,0,0.0087890625,157.3330078125,0)" xlink:href="#at"/><use transform="matrix(0.0087890625,0,0,0.0087890625,167.94140625,0)" xlink:href="#ad"/></g><path fill="#3d4752" d="M796 469H312v-2004h484v176H574V294h222v175" id="av"/><path fill="#3d4752" d="M131 469V294h222v-1653H131v-176h483V469H131" id="aw"/><g id="g"><use transform="matrix(0.0087890625,0,0,0.0087890625,0,0)" xlink:href="#al"/><use transform="matrix(0.0087890625,0,0,0.0087890625,10.7841796875,0)" xlink:href="#am"/><use transform="matrix(0.0087890625,0,0,0.0087890625,17.8857421875,0)" xlink:href="#ae"/><use transform="matrix(0.0087890625,0,0,0.0087890625,25.0751953125,0)" xlink:href="#an"/><use transform="matrix(0.0087890625,0,0,0.0087890625,30.33984375,0)" xlink:href="#ai"/><use transform="matrix(0.0087890625,0,0,0.0087890625,41.0625,0)" xlink:href="#aa"/><use transform="matrix(0.0087890625,0,0,0.0087890625,51.6796875,0)" xlink:href="#av"/><use transform="matrix(0.0087890625,0,0,0.0087890625,59.8271484375,0)" xlink:href="#aw"/><use transform="matrix(0.0087890625,0,0,0.0087890625,67.974609375,0)" xlink:href="#ao"/></g><g id="h"><use transform="matrix(0.0087890625,0,0,0.0087890625,0,0)" xlink:href="#ai"/><use transform="matrix(0.0087890625,0,0,0.0087890625,10.72265625,0)" xlink:href="#ar"/><use transform="matrix(0.0087890625,0,0,0.0087890625,21.4453125,0)" xlink:href="#aq"/><use transform="matrix(0.0087890625,0,0,0.0087890625,27.140625,0)" xlink:href="#aq"/></g><path fill="#3d4752" d="M729-499H112v-220h617v220" id="ax"/><path fill="#3d4752" d="M578-1116c196 0 337 93 423 279 40 87 60 183 60 290 0 225-77 390-230 494-74 50-158 75-253 75-197 0-338-93-424-279-40-87-60-183-60-290 0-226 77-391 231-495 73-49 158-74 253-74zm0 194c-139 0-208 125-208 375s69 375 208 375c138 0 207-125 207-375s-69-375-207-375" id="ay"/><path fill="#3d4752" d="M867-682L1342 0h-315L578-645H478V0H205v-1489h419c349 0 523 143 523 428 0 191-93 317-280 379zm-389-589v414h119c185 0 277-67 277-200 0-143-84-214-252-214H478" id="az"/><path fill="#3d4752" d="M776-276v-550c-61-57-124-86-189-86-145 0-218 134-218 401 0 214 68 321 203 321 73 0 141-29 204-86zM94-505c0-324 124-613 416-611 109 0 201 33 277 98v-76h252V412H776V-87C709-14 620 22 509 22 243 22 94-224 94-505" id="aA"/><g id="i"><use transform="matrix(0.0087890625,0,0,0.0087890625,0,0)" xlink:href="#ax"/><use transform="matrix(0.0087890625,0,0,0.0087890625,7.3916015625,0)" xlink:href="#au"/><use transform="matrix(0.0087890625,0,0,0.0087890625,13.904296875,0)" xlink:href="#ay"/><use transform="matrix(0.0087890625,0,0,0.0087890625,24.0556640625,0)" xlink:href="#ae"/><use transform="matrix(0.0087890625,0,0,0.0087890625,31.2451171875,0)" xlink:href="#aj"/><use transform="matrix(0.0087890625,0,0,0.0087890625,47.5576171875,0)" xlink:href="#Z"/><use transform="matrix(0.0087890625,0,0,0.0087890625,57.462890625,0)" xlink:href="#am"/><use transform="matrix(0.0087890625,0,0,0.0087890625,64.564453125,0)" xlink:href="#az"/><use transform="matrix(0.0087890625,0,0,0.0087890625,76.359375,0)" xlink:href="#ab"/><use transform="matrix(0.0087890625,0,0,0.0087890625,86.4931640625,0)" xlink:href="#aA"/><use transform="matrix(0.0087890625,0,0,0.0087890625,97.1015625,0)" xlink:href="#ar"/><use transform="matrix(0.0087890625,0,0,0.0087890625,107.82421875,0)" xlink:href="#ab"/><use transform="matrix(0.0087890625,0,0,0.0087890625,117.9580078125,0)" xlink:href="#ad"/><use transform="matrix(0.0087890625,0,0,0.0087890625,126.7822265625,0)" xlink:href="#am"/><use transform="matrix(0.0087890625,0,0,0.0087890625,133.8837890625,0)" xlink:href="#ah"/><use transform="matrix(0.0087890625,0,0,0.0087890625,142.0576171875,0)" xlink:href="#ai"/><use transform="matrix(0.0087890625,0,0,0.0087890625,152.7802734375,0)" xlink:href="#Z"/><use transform="matrix(0.0087890625,0,0,0.0087890625,162.685546875,0)" xlink:href="#aj"/><use transform="matrix(0.0087890625,0,0,0.0087890625,178.998046875,0)" xlink:href="#ab"/></g><g id="j"><use transform="matrix(0.0087890625,0,0,0.0087890625,0,0)" xlink:href="#al"/><use transform="matrix(0.0087890625,0,0,0.0087890625,10.7841796875,0)" xlink:href="#am"/><use transform="matrix(0.0087890625,0,0,0.0087890625,17.8857421875,0)" xlink:href="#ae"/><use transform="matrix(0.0087890625,0,0,0.0087890625,25.0751953125,0)" xlink:href="#an"/><use transform="matrix(0.0087890625,0,0,0.0087890625,30.33984375,0)" xlink:href="#ai"/><use transform="matrix(0.0087890625,0,0,0.0087890625,41.0625,0)" xlink:href="#aa"/></g><g id="k"><use transform="matrix(0.0087890625,0,0,0.0087890625,0,0)" xlink:href="#ax"/><use transform="matrix(0.0087890625,0,0,0.0087890625,7.3916015625,0)" xlink:href="#ad"/><use transform="matrix(0.0087890625,0,0,0.0087890625,16.2158203125,0)" xlink:href="#ab"/><use transform="matrix(0.0087890625,0,0,0.0087890625,26.349609375,0)" xlink:href="#ai"/><use transform="matrix(0.0087890625,0,0,0.0087890625,37.072265625,0)" xlink:href="#at"/><use transform="matrix(0.0087890625,0,0,0.0087890625,47.6806640625,0)" xlink:href="#az"/><use transform="matrix(0.0087890625,0,0,0.0087890625,59.4755859375,0)" xlink:href="#ab"/><use transform="matrix(0.0087890625,0,0,0.0087890625,69.609375,0)" xlink:href="#aA"/><use transform="matrix(0.0087890625,0,0,0.0087890625,80.2177734375,0)" xlink:href="#ar"/><use transform="matrix(0.0087890625,0,0,0.0087890625,90.9404296875,0)" xlink:href="#ab"/><use transform="matrix(0.0087890625,0,0,0.0087890625,101.07421875,0)" xlink:href="#ad"/><use transform="matrix(0.0087890625,0,0,0.0087890625,109.8984375,0)" xlink:href="#am"/><use transform="matrix(0.0087890625,0,0,0.0087890625,117,0)" xlink:href="#ah"/><use transform="matrix(0.0087890625,0,0,0.0087890625,125.173828125,0)" xlink:href="#ai"/><use transform="matrix(0.0087890625,0,0,0.0087890625,135.896484375,0)" xlink:href="#Z"/><use transform="matrix(0.0087890625,0,0,0.0087890625,145.8017578125,0)" xlink:href="#aj"/><use transform="matrix(0.0087890625,0,0,0.0087890625,162.1142578125,0)" xlink:href="#ab"/></g><path fill="#3d4752" d="M1113-589c0 325-126 613-421 611-108 0-198-32-271-96V0H168v-1580h263v560c76-64 164-96 265-96 269 0 417 244 417 527zM431-818v553c64 56 127 84 189 84 145 0 218-134 218-402 0-214-68-321-203-321-67 0-135 29-204 86" id="aB"/><g id="l"><use transform="matrix(0.0087890625,0,0,0.0087890625,0,0)" xlink:href="#Y"/><use transform="matrix(0.0087890625,0,0,0.0087890625,11.1357421875,0)" xlink:href="#aq"/><use transform="matrix(0.0087890625,0,0,0.0087890625,16.8310546875,0)" xlink:href="#ay"/><use transform="matrix(0.0087890625,0,0,0.0087890625,26.982421875,0)" xlink:href="#am"/><use transform="matrix(0.0087890625,0,0,0.0087890625,34.083984375,0)" xlink:href="#am"/><use transform="matrix(0.0087890625,0,0,0.0087890625,41.185546875,0)" xlink:href="#Z"/><use transform="matrix(0.0087890625,0,0,0.0087890625,51.0908203125,0)" xlink:href="#aB"/><use transform="matrix(0.0087890625,0,0,0.0087890625,61.69921875,0)" xlink:href="#aq"/><use transform="matrix(0.0087890625,0,0,0.0087890625,67.39453125,0)" xlink:href="#ab"/></g><path fill="#3d4752" d="M421-36L25-1094h272l251 717 263-717h249L649 1c-97 251-201 366-459 445L96 279c173-62 281-167 325-315" id="aC"/><g id="m"><use transform="matrix(0.0087890625,0,0,0.0087890625,0,0)" xlink:href="#ax"/><use transform="matrix(0.0087890625,0,0,0.0087890625,7.3916015625,0)" xlink:href="#at"/><use transform="matrix(0.0087890625,0,0,0.0087890625,18,0)" xlink:href="#an"/><use transform="matrix(0.0087890625,0,0,0.0087890625,23.2646484375,0)" xlink:href="#ad"/><use transform="matrix(0.0087890625,0,0,0.0087890625,32.0888671875,0)" xlink:href="#as"/><use transform="matrix(0.0087890625,0,0,0.0087890625,42.697265625,0)" xlink:href="#aq"/><use transform="matrix(0.0087890625,0,0,0.0087890625,48.392578125,0)" xlink:href="#Z"/><use transform="matrix(0.0087890625,0,0,0.0087890625,58.2978515625,0)" xlink:href="#aC"/><use transform="matrix(0.0087890625,0,0,0.0087890625,67.833984375,0)" xlink:href="#W"/><use transform="matrix(0.0087890625,0,0,0.0087890625,77.94140625,0)" xlink:href="#ag"/><use transform="matrix(0.0087890625,0,0,0.0087890625,88.6640625,0)" xlink:href="#Z"/><use transform="matrix(0.0087890625,0,0,0.0087890625,98.5693359375,0)" xlink:href="#ae"/><use transform="matrix(0.0087890625,0,0,0.0087890625,106.4619140625,0)" xlink:href="#am"/><use transform="matrix(0.0087890625,0,0,0.0087890625,113.5634765625,0)" xlink:href="#ah"/><use transform="matrix(0.0087890625,0,0,0.0087890625,121.7373046875,0)" xlink:href="#at"/><use transform="matrix(0.0087890625,0,0,0.0087890625,132.345703125,0)" xlink:href="#Z"/><use transform="matrix(0.0087890625,0,0,0.0087890625,142.2509765625,0)" xlink:href="#am"/><use transform="matrix(0.0087890625,0,0,0.0087890625,149.3525390625,0)" xlink:href="#Z"/></g><g id="n"><use transform="matrix(0.0087890625,0,0,0.0087890625,0,0)" xlink:href="#Y"/><use transform="matrix(0.0087890625,0,0,0.0087890625,11.1357421875,0)" xlink:href="#aq"/><use transform="matrix(0.0087890625,0,0,0.0087890625,16.8310546875,0)" xlink:href="#ay"/><use transform="matrix(0.0087890625,0,0,0.0087890625,26.982421875,0)" xlink:href="#am"/><use transform="matrix(0.0087890625,0,0,0.0087890625,34.083984375,0)" xlink:href="#am"/><use transform="matrix(0.0087890625,0,0,0.0087890625,41.185546875,0)" xlink:href="#Z"/><use transform="matrix(0.0087890625,0,0,0.0087890625,51.0908203125,0)" xlink:href="#aB"/><use transform="matrix(0.0087890625,0,0,0.0087890625,61.69921875,0)" xlink:href="#aq"/><use transform="matrix(0.0087890625,0,0,0.0087890625,67.39453125,0)" xlink:href="#ab"/><use transform="matrix(0.0087890625,0,0,0.0087890625,77.5283203125,0)" xlink:href="#ao"/></g><g id="o"><use transform="matrix(0.0087890625,0,0,0.0087890625,0,0)" xlink:href="#ai"/><use transform="matrix(0.0087890625,0,0,0.0087890625,10.72265625,0)" xlink:href="#ar"/><use transform="matrix(0.0087890625,0,0,0.0087890625,21.4453125,0)" xlink:href="#aq"/><use transform="matrix(0.0087890625,0,0,0.0087890625,27.140625,0)" xlink:href="#aq"/></g><path fill="#3d4752" d="M919-805c192 25 318 168 317 382 0 282-182 423-545 423H205v-1489h394c214 0 356 50 427 149 39 55 59 132 59 229 0 134-55 236-166 306zM695-219c182-5 263-51 263-220 0-149-88-223-263-223H478v443h217zM478-881h163c121 0 181-69 181-207 0-121-70-182-211-182H478v389" id="aD"/><g id="p"><use transform="matrix(0.0087890625,0,0,0.0087890625,0,0)" xlink:href="#X"/><use transform="matrix(0.0087890625,0,0,0.0087890625,12.9287109375,0)" xlink:href="#ar"/><use transform="matrix(0.0087890625,0,0,0.0087890625,23.6513671875,0)" xlink:href="#ab"/><use transform="matrix(0.0087890625,0,0,0.0087890625,33.78515625,0)" xlink:href="#ae"/><use transform="matrix(0.0087890625,0,0,0.0087890625,41.3349609375,0)" xlink:href="#aC"/><use transform="matrix(0.0087890625,0,0,0.0087890625,50.87109375,0)" xlink:href="#aD"/><use transform="matrix(0.0087890625,0,0,0.0087890625,62.6044921875,0)" xlink:href="#ar"/><use transform="matrix(0.0087890625,0,0,0.0087890625,73.3271484375,0)" xlink:href="#an"/><use transform="matrix(0.0087890625,0,0,0.0087890625,78.591796875,0)" xlink:href="#aq"/><use transform="matrix(0.0087890625,0,0,0.0087890625,84.287109375,0)" xlink:href="#at"/><use transform="matrix(0.0087890625,0,0,0.0087890625,94.8955078125,0)" xlink:href="#ab"/><use transform="matrix(0.0087890625,0,0,0.0087890625,105.029296875,0)" xlink:href="#ae"/></g><g id="q"><use transform="matrix(0.0087890625,0,0,0.0087890625,0,0)" xlink:href="#ac"/><use transform="matrix(0.0087890625,0,0,0.0087890625,11.7333984375,0)" xlink:href="#aa"/><use transform="matrix(0.0087890625,0,0,0.0087890625,22.3505859375,0)" xlink:href="#ab"/><use transform="matrix(0.0087890625,0,0,0.0087890625,32.484375,0)" xlink:href="#am"/><use transform="matrix(0.0087890625,0,0,0.0087890625,39.5859375,0)" xlink:href="#az"/><use transform="matrix(0.0087890625,0,0,0.0087890625,51.380859375,0)" xlink:href="#ab"/><use transform="matrix(0.0087890625,0,0,0.0087890625,61.5146484375,0)" xlink:href="#ad"/><use transform="matrix(0.0087890625,0,0,0.0087890625,70.3388671875,0)" xlink:href="#ar"/><use transform="matrix(0.0087890625,0,0,0.0087890625,81.0615234375,0)" xlink:href="#aq"/><use transform="matrix(0.0087890625,0,0,0.0087890625,86.7568359375,0)" xlink:href="#am"/><use transform="matrix(0.0087890625,0,0,0.0087890625,93.8583984375,0)" xlink:href="#ah"/><use transform="matrix(0.0087890625,0,0,0.0087890625,102.0322265625,0)" xlink:href="#ai"/><use transform="matrix(0.0087890625,0,0,0.0087890625,112.7548828125,0)" xlink:href="#Z"/><use transform="matrix(0.0087890625,0,0,0.0087890625,122.66015625,0)" xlink:href="#aj"/><use transform="matrix(0.0087890625,0,0,0.0087890625,138.97265625,0)" xlink:href="#ab"/><use transform="matrix(0.0087890625,0,0,0.0087890625,149.1064453125,0)" xlink:href="#ak"/></g><g id="r"><use transform="matrix(0.0087890625,0,0,0.0087890625,0,0)" xlink:href="#al"/><use transform="matrix(0.0087890625,0,0,0.0087890625,10.7841796875,0)" xlink:href="#am"/><use transform="matrix(0.0087890625,0,0,0.0087890625,17.8857421875,0)" xlink:href="#ae"/><use transform="matrix(0.0087890625,0,0,0.0087890625,25.0751953125,0)" xlink:href="#an"/><use transform="matrix(0.0087890625,0,0,0.0087890625,30.33984375,0)" xlink:href="#ai"/><use transform="matrix(0.0087890625,0,0,0.0087890625,41.0625,0)" xlink:href="#aa"/><use transform="matrix(0.0087890625,0,0,0.0087890625,51.6796875,0)" xlink:href="#ao"/><use transform="matrix(0.0087890625,0,0,0.0087890625,59.853515625,0)" xlink:href="#ak"/></g><g id="s"><use transform="matrix(0.0087890625,0,0,0.0087890625,0,0)" xlink:href="#Y"/><use transform="matrix(0.0087890625,0,0,0.0087890625,11.1357421875,0)" xlink:href="#aq"/><use transform="matrix(0.0087890625,0,0,0.0087890625,16.8310546875,0)" xlink:href="#ay"/><use transform="matrix(0.0087890625,0,0,0.0087890625,26.982421875,0)" xlink:href="#am"/><use transform="matrix(0.0087890625,0,0,0.0087890625,34.083984375,0)" xlink:href="#am"/><use transform="matrix(0.0087890625,0,0,0.0087890625,41.185546875,0)" xlink:href="#Z"/><use transform="matrix(0.0087890625,0,0,0.0087890625,51.0908203125,0)" xlink:href="#aB"/><use transform="matrix(0.0087890625,0,0,0.0087890625,61.69921875,0)" xlink:href="#aq"/><use transform="matrix(0.0087890625,0,0,0.0087890625,67.39453125,0)" xlink:href="#ab"/></g><path fill="#3d4752" d="M1282-743c0 396-250 743-634 743H205v-1489h417c437-2 660 295 660 746zM637-225c233 9 365-240 365-518 0-216-61-366-177-458-90-72-200-63-346-63v1039h158" id="aE"/><g id="t"><use transform="matrix(0.0087890625,0,0,0.0087890625,0,0)" xlink:href="#W"/><use transform="matrix(0.0087890625,0,0,0.0087890625,10.107421875,0)" xlink:href="#ag"/><use transform="matrix(0.0087890625,0,0,0.0087890625,20.830078125,0)" xlink:href="#Z"/><use transform="matrix(0.0087890625,0,0,0.0087890625,30.7353515625,0)" xlink:href="#ae"/><use transform="matrix(0.0087890625,0,0,0.0087890625,38.6279296875,0)" xlink:href="#am"/><use transform="matrix(0.0087890625,0,0,0.0087890625,45.7294921875,0)" xlink:href="#aE"/><use transform="matrix(0.0087890625,0,0,0.0087890625,57.8935546875,0)" xlink:href="#an"/><use transform="matrix(0.0087890625,0,0,0.0087890625,63.158203125,0)" xlink:href="#ad"/><use transform="matrix(0.0087890625,0,0,0.0087890625,71.982421875,0)" xlink:href="#as"/><use transform="matrix(0.0087890625,0,0,0.0087890625,82.5908203125,0)" xlink:href="#aq"/><use transform="matrix(0.0087890625,0,0,0.0087890625,88.2861328125,0)" xlink:href="#Z"/><use transform="matrix(0.0087890625,0,0,0.0087890625,98.19140625,0)" xlink:href="#aC"/></g><g id="u"><use transform="matrix(0.0087890625,0,0,0.0087890625,0,0)" xlink:href="#ax"/><use transform="matrix(0.0087890625,0,0,0.0087890625,7.3916015625,0)" xlink:href="#af"/><use transform="matrix(0.0087890625,0,0,0.0087890625,15.99609375,0)" xlink:href="#ar"/><use transform="matrix(0.0087890625,0,0,0.0087890625,26.71875,0)" xlink:href="#ae"/><use transform="matrix(0.0087890625,0,0,0.0087890625,33.908203125,0)" xlink:href="#ae"/><use transform="matrix(0.0087890625,0,0,0.0087890625,40.7373046875,0)" xlink:href="#ab"/><use transform="matrix(0.0087890625,0,0,0.0087890625,50.87109375,0)" xlink:href="#ai"/><use transform="matrix(0.0087890625,0,0,0.0087890625,61.59375,0)" xlink:href="#am"/><use transform="matrix(0.0087890625,0,0,0.0087890625,68.6953125,0)" xlink:href="#V"/><use transform="matrix(0.0087890625,0,0,0.0087890625,78.5478515625,0)" xlink:href="#an"/><use transform="matrix(0.0087890625,0,0,0.0087890625,83.8125,0)" xlink:href="#ab"/><use transform="matrix(0.0087890625,0,0,0.0087890625,93.9462890625,0)" xlink:href="#aq"/><use transform="matrix(0.0087890625,0,0,0.0087890625,99.6416015625,0)" xlink:href="#at"/><use transform="matrix(0.0087890625,0,0,0.0087890625,110.25,0)" xlink:href="#ad"/><use transform="matrix(0.0087890625,0,0,0.0087890625,119.07421875,0)" xlink:href="#ak"/></g><g id="v"><use transform="matrix(0.0087890625,0,0,0.0087890625,0,0)" xlink:href="#al"/><use transform="matrix(0.0087890625,0,0,0.0087890625,10.7841796875,0)" xlink:href="#am"/><use transform="matrix(0.0087890625,0,0,0.0087890625,17.8857421875,0)" xlink:href="#ae"/><use transform="matrix(0.0087890625,0,0,0.0087890625,25.0751953125,0)" xlink:href="#an"/><use transform="matrix(0.0087890625,0,0,0.0087890625,30.33984375,0)" xlink:href="#ai"/><use transform="matrix(0.0087890625,0,0,0.0087890625,41.0625,0)" xlink:href="#aa"/><use transform="matrix(0.0087890625,0,0,0.0087890625,51.6796875,0)" xlink:href="#av"/><use transform="matrix(0.0087890625,0,0,0.0087890625,59.8271484375,0)" xlink:href="#aw"/></g><g id="w"><use transform="matrix(0.0087890625,0,0,0.0087890625,0,0)" xlink:href="#ax"/><use transform="matrix(0.0087890625,0,0,0.0087890625,7.3916015625,0)" xlink:href="#af"/><use transform="matrix(0.0087890625,0,0,0.0087890625,15.99609375,0)" xlink:href="#ar"/><use transform="matrix(0.0087890625,0,0,0.0087890625,26.71875,0)" xlink:href="#ae"/><use transform="matrix(0.0087890625,0,0,0.0087890625,33.908203125,0)" xlink:href="#ae"/><use transform="matrix(0.0087890625,0,0,0.0087890625,40.7373046875,0)" xlink:href="#ab"/><use transform="matrix(0.0087890625,0,0,0.0087890625,50.87109375,0)" xlink:href="#ai"/><use transform="matrix(0.0087890625,0,0,0.0087890625,61.59375,0)" xlink:href="#am"/><use transform="matrix(0.0087890625,0,0,0.0087890625,68.6953125,0)" xlink:href="#az"/><use transform="matrix(0.0087890625,0,0,0.0087890625,80.490234375,0)" xlink:href="#ab"/><use transform="matrix(0.0087890625,0,0,0.0087890625,90.6240234375,0)" xlink:href="#ad"/><use transform="matrix(0.0087890625,0,0,0.0087890625,99.4482421875,0)" xlink:href="#ar"/><use transform="matrix(0.0087890625,0,0,0.0087890625,110.1708984375,0)" xlink:href="#aq"/><use transform="matrix(0.0087890625,0,0,0.0087890625,115.8662109375,0)" xlink:href="#am"/><use transform="matrix(0.0087890625,0,0,0.0087890625,123.5126953125,0)" xlink:href="#ak"/></g><g id="x"><use transform="matrix(0.0087890625,0,0,0.0087890625,0,0)" xlink:href="#ac"/><use transform="matrix(0.0087890625,0,0,0.0087890625,11.7333984375,0)" xlink:href="#at"/><use transform="matrix(0.0087890625,0,0,0.0087890625,22.341796875,0)" xlink:href="#an"/><use transform="matrix(0.0087890625,0,0,0.0087890625,27.6064453125,0)" xlink:href="#ad"/><use transform="matrix(0.0087890625,0,0,0.0087890625,36.4306640625,0)" xlink:href="#as"/><use transform="matrix(0.0087890625,0,0,0.0087890625,47.0390625,0)" xlink:href="#aq"/><use transform="matrix(0.0087890625,0,0,0.0087890625,52.734375,0)" xlink:href="#Z"/><use transform="matrix(0.0087890625,0,0,0.0087890625,62.6396484375,0)" xlink:href="#aC"/><use transform="matrix(0.0087890625,0,0,0.0087890625,72.17578125,0)" xlink:href="#ah"/><use transform="matrix(0.0087890625,0,0,0.0087890625,80.349609375,0)" xlink:href="#at"/><use transform="matrix(0.0087890625,0,0,0.0087890625,90.9580078125,0)" xlink:href="#Z"/><use transform="matrix(0.0087890625,0,0,0.0087890625,100.86328125,0)" xlink:href="#am"/><use transform="matrix(0.0087890625,0,0,0.0087890625,107.96484375,0)" xlink:href="#Z"/><use transform="matrix(0.0087890625,0,0,0.0087890625,117.8701171875,0)" xlink:href="#ak"/></g><g id="y"><use transform="matrix(0.0087890625,0,0,0.0087890625,0,0)" xlink:href="#Y"/><use transform="matrix(0.0087890625,0,0,0.0087890625,11.1357421875,0)" xlink:href="#aq"/><use transform="matrix(0.0087890625,0,0,0.0087890625,16.8310546875,0)" xlink:href="#ay"/><use transform="matrix(0.0087890625,0,0,0.0087890625,26.982421875,0)" xlink:href="#am"/><use transform="matrix(0.0087890625,0,0,0.0087890625,34.083984375,0)" xlink:href="#am"/><use transform="matrix(0.0087890625,0,0,0.0087890625,41.185546875,0)" xlink:href="#Z"/><use transform="matrix(0.0087890625,0,0,0.0087890625,51.0908203125,0)" xlink:href="#aB"/><use transform="matrix(0.0087890625,0,0,0.0087890625,61.69921875,0)" xlink:href="#aq"/><use transform="matrix(0.0087890625,0,0,0.0087890625,67.39453125,0)" xlink:href="#ab"/><use transform="matrix(0.0087890625,0,0,0.0087890625,77.5283203125,0)" xlink:href="#ao"/><use transform="matrix(0.0087890625,0,0,0.0087890625,85.7021484375,0)" xlink:href="#ak"/></g><g id="z"><use transform="matrix(0.0087890625,0,0,0.0087890625,0,0)" xlink:href="#ac"/><use transform="matrix(0.0087890625,0,0,0.0087890625,11.7333984375,0)" xlink:href="#ar"/><use transform="matrix(0.0087890625,0,0,0.0087890625,22.4560546875,0)" xlink:href="#as"/><use transform="matrix(0.0087890625,0,0,0.0087890625,33.064453125,0)" xlink:href="#at"/><use transform="matrix(0.0087890625,0,0,0.0087890625,43.6728515625,0)" xlink:href="#Z"/><use transform="matrix(0.0087890625,0,0,0.0087890625,53.578125,0)" xlink:href="#am"/><use transform="matrix(0.0087890625,0,0,0.0087890625,60.6796875,0)" xlink:href="#ab"/><use transform="matrix(0.0087890625,0,0,0.0087890625,70.8134765625,0)" xlink:href="#V"/><use transform="matrix(0.0087890625,0,0,0.0087890625,80.666015625,0)" xlink:href="#an"/><use transform="matrix(0.0087890625,0,0,0.0087890625,85.9306640625,0)" xlink:href="#ab"/><use transform="matrix(0.0087890625,0,0,0.0087890625,96.064453125,0)" xlink:href="#aq"/><use transform="matrix(0.0087890625,0,0,0.0087890625,101.759765625,0)" xlink:href="#at"/><use transform="matrix(0.0087890625,0,0,0.0087890625,112.3681640625,0)" xlink:href="#ad"/><use transform="matrix(0.0087890625,0,0,0.0087890625,121.1923828125,0)" xlink:href="#ah"/><use transform="matrix(0.0087890625,0,0,0.0087890625,129.3662109375,0)" xlink:href="#au"/><use transform="matrix(0.0087890625,0,0,0.0087890625,136.2392578125,0)" xlink:href="#an"/><use transform="matrix(0.0087890625,0,0,0.0087890625,141.50390625,0)" xlink:href="#ab"/><use transform="matrix(0.0087890625,0,0,0.0087890625,151.6376953125,0)" xlink:href="#aq"/><use transform="matrix(0.0087890625,0,0,0.0087890625,157.3330078125,0)" xlink:href="#at"/><use transform="matrix(0.0087890625,0,0,0.0087890625,167.94140625,0)" xlink:href="#ad"/><use transform="matrix(0.0087890625,0,0,0.0087890625,176.765625,0)" xlink:href="#ak"/></g><g id="A"><use transform="matrix(0.0087890625,0,0,0.0087890625,0,0)" xlink:href="#al"/><use transform="matrix(0.0087890625,0,0,0.0087890625,10.7841796875,0)" xlink:href="#am"/><use transform="matrix(0.0087890625,0,0,0.0087890625,17.8857421875,0)" xlink:href="#ae"/><use transform="matrix(0.0087890625,0,0,0.0087890625,25.0751953125,0)" xlink:href="#an"/><use transform="matrix(0.0087890625,0,0,0.0087890625,30.33984375,0)" xlink:href="#ai"/><use transform="matrix(0.0087890625,0,0,0.0087890625,41.0625,0)" xlink:href="#aa"/><use transform="matrix(0.0087890625,0,0,0.0087890625,51.6796875,0)" xlink:href="#av"/><use transform="matrix(0.0087890625,0,0,0.0087890625,59.8271484375,0)" xlink:href="#aw"/><use transform="matrix(0.0087890625,0,0,0.0087890625,67.974609375,0)" xlink:href="#ao"/><use transform="matrix(0.0087890625,0,0,0.0087890625,76.1484375,0)" xlink:href="#ak"/></g><path d="M15-91v-56l181-69v40L49-119l147 57v40" id="aF"/><path d="M25-224v-37h50v37H25zM25 0v-190h50V0H25" id="aG"/><path d="M135-194c87-1 58 113 63 194h-50c-7-57 23-157-34-157-59 0-34 97-39 157H25l-1-190h47c2 12-1 28 3 38 12-26 28-41 61-42" id="aH"/><path d="M115-3C79 11 28 4 28-45v-112H4v-33h27l15-45h31v45h36v33H77v99c-1 23 16 31 38 25v30" id="aI"/><path d="M185-48c-13 30-37 53-82 52C43 2 14-33 14-96s30-98 90-98c62 0 83 45 84 108H66c0 31 8 55 39 56 18 0 30-7 34-22zm-45-69c5-46-57-63-70-21-2 6-4 13-4 21h74" id="aJ"/><path d="M135-150c-39-12-60 13-60 57V0H25l-1-190h47c2 13-1 29 3 40 6-28 27-53 61-41v41" id="aK"/><path d="M121-226c-27-7-43 5-38 36h38v33H83V0H34v-157H6v-33h28c-9-59 32-81 87-68v32" id="aL"/><path d="M133-34C117-15 103 5 69 4 32 3 11-16 11-54c-1-60 55-63 116-61 1-26-3-47-28-47-18 1-26 9-28 27l-52-2c7-38 36-58 82-57s74 22 75 68l1 82c-1 14 12 18 25 15v27c-30 8-71 5-69-32zm-48 3c29 0 43-24 42-57-32 0-66-3-65 30 0 17 8 27 23 27" id="aM"/><path d="M190-63c-7 42-38 67-86 67-59 0-84-38-90-98-12-110 154-137 174-36l-49 2c-2-19-15-32-35-32-30 0-35 28-38 64-6 74 65 87 74 30" id="aN"/><path d="M15-22v-40l146-57-146-57v-40l181 69v56" id="aO"/><g id="B"><use transform="matrix(0.05,0,0,0.05,0,0)" xlink:href="#aF"/><use transform="matrix(0.05,0,0,0.05,10.5,0)" xlink:href="#aF"/><use transform="matrix(0.05,0,0,0.05,21,0)" xlink:href="#aG"/><use transform="matrix(0.05,0,0,0.05,26,0)" xlink:href="#aH"/><use transform="matrix(0.05,0,0,0.05,36.95,0)" xlink:href="#aI"/><use transform="matrix(0.05,0,0,0.05,42.900000000000006,0)" xlink:href="#aJ"/><use transform="matrix(0.05,0,0,0.05,52.900000000000006,0)" xlink:href="#aK"/><use transform="matrix(0.05,0,0,0.05,59.900000000000006,0)" xlink:href="#aL"/><use transform="matrix(0.05,0,0,0.05,65.85000000000001,0)" xlink:href="#aM"/><use transform="matrix(0.05,0,0,0.05,75.85000000000001,0)" xlink:href="#aN"/><use transform="matrix(0.05,0,0,0.05,85.85000000000001,0)" xlink:href="#aJ"/><use transform="matrix(0.05,0,0,0.05,95.85000000000001,0)" xlink:href="#aO"/><use transform="matrix(0.05,0,0,0.05,106.35000000000001,0)" xlink:href="#aO"/></g><path d="M24-248c93 1 206-16 204 79-1 75-69 88-152 82V0H24v-248zm52 121c47 0 100 7 100-41 0-47-54-39-100-39v80" id="aP"/><path d="M25 0v-261h50V0H25" id="aQ"/><path d="M110-194c64 0 96 36 96 99 0 64-35 99-97 99-61 0-95-36-95-99 0-62 34-99 96-99zm-1 164c35 0 45-28 45-65 0-40-10-65-43-65-34 0-45 26-45 65 0 36 10 65 43 65" id="aR"/><path d="M135-194c52 0 70 43 70 98 0 56-19 99-73 100-30 1-46-15-58-35L72 0H24l1-261h50v104c11-23 29-37 60-37zM114-30c31 0 40-27 40-66 0-37-7-63-39-63s-41 28-41 65c0 36 8 64 40 64" id="aS"/><g id="C"><use transform="matrix(0.05,0,0,0.05,0,0)" xlink:href="#aP"/><use transform="matrix(0.05,0,0,0.05,12,0)" xlink:href="#aQ"/><use transform="matrix(0.05,0,0,0.05,17,0)" xlink:href="#aR"/><use transform="matrix(0.05,0,0,0.05,27.950000000000003,0)" xlink:href="#aI"/><use transform="matrix(0.05,0,0,0.05,33.900000000000006,0)" xlink:href="#aI"/><use transform="matrix(0.05,0,0,0.05,39.85000000000001,0)" xlink:href="#aM"/><use transform="matrix(0.05,0,0,0.05,49.85000000000001,0)" xlink:href="#aS"/><use transform="matrix(0.05,0,0,0.05,60.80000000000001,0)" xlink:href="#aQ"/><use transform="matrix(0.05,0,0,0.05,65.80000000000001,0)" xlink:href="#aJ"/></g><path d="M118-107v75H92v-75H18v-26h74v-75h26v75h74v26h-74" id="aT"/><path d="M177-190C167-65 218 103 67 71c-23-6-38-20-44-43l32-5c15 47 100 32 89-28v-30C133-14 115 1 83 1 29 1 15-40 15-95c0-56 16-97 71-98 29-1 48 16 59 35 1-10 0-23 2-32h30zM94-22c36 0 50-32 50-73 0-42-14-75-50-75-39 0-46 34-46 75s6 73 46 73" id="aU"/><path d="M100-194c63 0 86 42 84 106H49c0 40 14 67 53 68 26 1 43-12 49-29l28 8c-11 28-37 45-77 45C44 4 14-33 15-96c1-61 26-98 85-98zm52 81c6-60-76-77-97-28-3 7-6 17-6 28h103" id="aV"/><path d="M59-47c-2 24 18 29 38 22v24C64 9 27 4 27-40v-127H5v-23h24l9-43h21v43h35v23H59v120" id="aW"/><path d="M63-220v92h138v28H63V0H30v-248h175v28H63" id="aX"/><path d="M24-231v-30h32v30H24zM24 0v-190h32V0H24" id="aY"/><path d="M24 0v-261h32V0H24" id="aZ"/><path d="M85-194c31 0 48 13 60 33l-1-100h32l1 261h-30c-2-10 0-23-3-31C134-8 116 4 85 4 32 4 16-35 15-94c0-66 23-100 70-100zm9 24c-40 0-46 34-46 75 0 40 6 74 45 74 42 0 51-32 51-76 0-42-9-74-50-73" id="ba"/><path d="M30-248c118-7 216 8 213 122C240-48 200 0 122 0H30v-248zM63-27c89 8 146-16 146-99s-60-101-146-95v194" id="bb"/><path d="M141-36C126-15 110 5 73 4 37 3 15-17 15-53c-1-64 63-63 125-63 3-35-9-54-41-54-24 1-41 7-42 31l-33-3c5-37 33-52 76-52 45 0 72 20 72 64v82c-1 20 7 32 28 27v20c-31 9-61-2-59-35zM48-53c0 20 12 33 32 33 41-3 63-29 60-74-43 2-92-5-92 41" id="bc"/><path d="M87 75C49 33 22-17 22-94c0-76 28-126 65-167h31c-38 41-64 92-64 168S80 34 118 75H87" id="bd"/><path d="M101-234c-31-9-42 10-38 44h38v23H63V0H32v-167H5v-23h27c-7-52 17-82 69-68v24" id="be"/><path d="M33-154v-36h34v36H33zM33 0v-36h34V0H33" id="bf"/><g id="D"><use transform="matrix(0.05,0,0,0.05,0,0)" xlink:href="#aT"/><use transform="matrix(0.05,0,0,0.05,10.5,0)" xlink:href="#aU"/><use transform="matrix(0.05,0,0,0.05,20.5,0)" xlink:href="#aV"/><use transform="matrix(0.05,0,0,0.05,30.5,0)" xlink:href="#aW"/><use transform="matrix(0.05,0,0,0.05,35.5,0)" xlink:href="#aX"/><use transform="matrix(0.05,0,0,0.05,46.45,0)" xlink:href="#aY"/><use transform="matrix(0.05,0,0,0.05,50.400000000000006,0)" xlink:href="#aV"/><use transform="matrix(0.05,0,0,0.05,60.400000000000006,0)" xlink:href="#aZ"/><use transform="matrix(0.05,0,0,0.05,64.35000000000001,0)" xlink:href="#ba"/><use transform="matrix(0.05,0,0,0.05,74.35000000000001,0)" xlink:href="#bb"/><use transform="matrix(0.05,0,0,0.05,87.30000000000001,0)" xlink:href="#bc"/><use transform="matrix(0.05,0,0,0.05,97.30000000000001,0)" xlink:href="#aW"/><use transform="matrix(0.05,0,0,0.05,102.30000000000001,0)" xlink:href="#bc"/><use transform="matrix(0.05,0,0,0.05,112.30000000000001,0)" xlink:href="#bd"/><use transform="matrix(0.05,0,0,0.05,118.25,0)" xlink:href="#be"/><use transform="matrix(0.05,0,0,0.05,123.25,0)" xlink:href="#aY"/><use transform="matrix(0.05,0,0,0.05,127.2,0)" xlink:href="#aV"/><use transform="matrix(0.05,0,0,0.05,137.20000000000002,0)" xlink:href="#aZ"/><use transform="matrix(0.05,0,0,0.05,141.15,0)" xlink:href="#ba"/><use transform="matrix(0.05,0,0,0.05,151.15,0)" xlink:href="#bf"/></g><path d="M185-189c-5-48-123-54-124 2 14 75 158 14 163 119 3 78-121 87-175 55-17-10-28-26-33-46l33-7c5 56 141 63 141-1 0-78-155-14-162-118-5-82 145-84 179-34 5 7 8 16 11 25" id="bg"/><path d="M114-163C36-179 61-72 57 0H25l-1-190h30c1 12-1 29 2 39 6-27 23-49 58-41v29" id="bh"/><path d="M117-194c89-4 53 116 60 194h-32v-121c0-31-8-49-39-48C34-167 62-67 57 0H25l-1-190h30c1 10-1 24 2 32 11-22 29-35 61-36" id="bi"/><path d="M33-261c38 41 65 92 65 168S71 34 33 75H2C39 34 66-17 66-93S39-220 2-261h31" id="bj"/><g id="E"><use transform="matrix(0.05,0,0,0.05,0,0)" xlink:href="#bg"/><use transform="matrix(0.05,0,0,0.05,12,0)" xlink:href="#aW"/><use transform="matrix(0.05,0,0,0.05,17,0)" xlink:href="#bh"/><use transform="matrix(0.05,0,0,0.05,22.95,0)" xlink:href="#aY"/><use transform="matrix(0.05,0,0,0.05,26.899999999999995,0)" xlink:href="#bi"/><use transform="matrix(0.05,0,0,0.05,36.9,0)" xlink:href="#aU"/><use transform="matrix(0.05,0,0,0.05,46.9,0)" xlink:href="#bj"/><use transform="matrix(0.05,0,0,0.05,52.85,0)" xlink:href="#bf"/></g><path d="M26 75v-336h71v23H56V52h41v23H26" id="bk"/><path d="M3 75V52h41v-290H3v-23h71V75H3" id="bl"/><g id="F"><use transform="matrix(0.05,0,0,0.05,0,0)" xlink:href="#aY"/><use transform="matrix(0.05,0,0,0.05,3.95,0)" xlink:href="#bi"/><use transform="matrix(0.05,0,0,0.05,13.949999999999998,0)" xlink:href="#aW"/><use transform="matrix(0.05,0,0,0.05,18.95,0)" xlink:href="#bk"/><use transform="matrix(0.05,0,0,0.05,23.95,0)" xlink:href="#bl"/></g><path d="M30 0v-248h33v221h125V0H30" id="bm"/><path d="M135-143c-3-34-86-38-87 0 15 53 115 12 119 90S17 21 10-45l28-5c4 36 97 45 98 0-10-56-113-15-118-90-4-57 82-63 122-42 12 7 21 19 24 35" id="bn"/><g id="G"><use transform="matrix(0.05,0,0,0.05,0,0)" xlink:href="#aT"/><use transform="matrix(0.05,0,0,0.05,10.5,0)" xlink:href="#aU"/><use transform="matrix(0.05,0,0,0.05,20.5,0)" xlink:href="#aV"/><use transform="matrix(0.05,0,0,0.05,30.5,0)" xlink:href="#aW"/><use transform="matrix(0.05,0,0,0.05,35.5,0)" xlink:href="#aX"/><use transform="matrix(0.05,0,0,0.05,46.45,0)" xlink:href="#aY"/><use transform="matrix(0.05,0,0,0.05,50.400000000000006,0)" xlink:href="#aV"/><use transform="matrix(0.05,0,0,0.05,60.400000000000006,0)" xlink:href="#aZ"/><use transform="matrix(0.05,0,0,0.05,64.35000000000001,0)" xlink:href="#ba"/><use transform="matrix(0.05,0,0,0.05,74.35000000000001,0)" xlink:href="#bm"/><use transform="matrix(0.05,0,0,0.05,84.35000000000001,0)" xlink:href="#aY"/><use transform="matrix(0.05,0,0,0.05,88.30000000000001,0)" xlink:href="#bn"/><use transform="matrix(0.05,0,0,0.05,97.30000000000001,0)" xlink:href="#aW"/><use transform="matrix(0.05,0,0,0.05,102.30000000000001,0)" xlink:href="#bd"/><use transform="matrix(0.05,0,0,0.05,108.25,0)" xlink:href="#bj"/><use transform="matrix(0.05,0,0,0.05,114.2,0)" xlink:href="#bf"/></g><g id="H"><use transform="matrix(0.05,0,0,0.05,0,0)" xlink:href="#bg"/><use transform="matrix(0.05,0,0,0.05,12,0)" xlink:href="#aW"/><use transform="matrix(0.05,0,0,0.05,17,0)" xlink:href="#bh"/><use transform="matrix(0.05,0,0,0.05,22.95,0)" xlink:href="#aY"/><use transform="matrix(0.05,0,0,0.05,26.899999999999995,0)" xlink:href="#bi"/><use transform="matrix(0.05,0,0,0.05,36.9,0)" xlink:href="#aU"/><use transform="matrix(0.05,0,0,0.05,46.9,0)" xlink:href="#bk"/><use transform="matrix(0.05,0,0,0.05,51.900000000000006,0)" xlink:href="#bl"/></g><path d="M27 0v-27h64v-190l-56 39v-29l58-41h29v221h61V0H27" id="bo"/><use transform="matrix(0.05,0,0,0.05,0,0)" xlink:href="#bo" id="J"/><path d="M96-169c-40 0-48 33-48 73s9 75 48 75c24 0 41-14 43-38l32 2c-6 37-31 61-74 61-59 0-76-41-82-99-10-93 101-131 147-64 4 7 5 14 7 22l-32 3c-4-21-16-35-41-35" id="bp"/><path d="M84 4C-5 8 30-112 23-190h32v120c0 31 7 50 39 49 72-2 45-101 50-169h31l1 190h-30c-1-10 1-25-2-33-11 22-28 36-60 37" id="bq"/><g id="K"><use transform="matrix(0.05,0,0,0.05,0,0)" xlink:href="#bm"/><use transform="matrix(0.05,0,0,0.05,10,0)" xlink:href="#aV"/><use transform="matrix(0.05,0,0,0.05,20,0)" xlink:href="#bp"/><use transform="matrix(0.05,0,0,0.05,29,0)" xlink:href="#aW"/><use transform="matrix(0.05,0,0,0.05,34,0)" xlink:href="#bq"/><use transform="matrix(0.05,0,0,0.05,44,0)" xlink:href="#bh"/><use transform="matrix(0.05,0,0,0.05,49.95,0)" xlink:href="#aV"/><use transform="matrix(0.05,0,0,0.05,59.95,0)" xlink:href="#bh"/></g><path d="M16-82v-28h88v28H16" id="br"/><path d="M210-169c-67 3-38 105-44 169h-31v-121c0-29-5-50-35-48C34-165 62-65 56 0H25l-1-190h30c1 10-1 24 2 32 10-44 99-50 107 0 11-21 27-35 58-36 85-2 47 119 55 194h-31v-121c0-29-5-49-35-48" id="bs"/><g id="L"><use transform="matrix(0.05,0,0,0.05,0,0)" xlink:href="#br"/><use transform="matrix(0.05,0,0,0.05,5.95,0)" xlink:href="#bi"/><use transform="matrix(0.05,0,0,0.05,15.949999999999998,0)" xlink:href="#bc"/><use transform="matrix(0.05,0,0,0.05,25.950000000000003,0)" xlink:href="#bs"/><use transform="matrix(0.05,0,0,0.05,40.9,0)" xlink:href="#aV"/><use transform="matrix(0.05,0,0,0.05,50.9,0)" xlink:href="#bf"/></g><g id="M"><use transform="matrix(0.05,0,0,0.05,0,0)" xlink:href="#bg"/><use transform="matrix(0.05,0,0,0.05,12,0)" xlink:href="#aW"/><use transform="matrix(0.05,0,0,0.05,17,0)" xlink:href="#bh"/><use transform="matrix(0.05,0,0,0.05,22.95,0)" xlink:href="#aY"/><use transform="matrix(0.05,0,0,0.05,26.899999999999995,0)" xlink:href="#bi"/><use transform="matrix(0.05,0,0,0.05,36.9,0)" xlink:href="#aU"/></g><g id="N"><use transform="matrix(0.05,0,0,0.05,0,0)" xlink:href="#br"/><use transform="matrix(0.05,0,0,0.05,5.95,0)" xlink:href="#be"/><use transform="matrix(0.05,0,0,0.05,10.95,0)" xlink:href="#aY"/><use transform="matrix(0.05,0,0,0.05,14.899999999999999,0)" xlink:href="#aV"/><use transform="matrix(0.05,0,0,0.05,24.9,0)" xlink:href="#aZ"/><use transform="matrix(0.05,0,0,0.05,28.849999999999994,0)" xlink:href="#ba"/><use transform="matrix(0.05,0,0,0.05,38.849999999999994,0)" xlink:href="#bm"/><use transform="matrix(0.05,0,0,0.05,48.849999999999994,0)" xlink:href="#aY"/><use transform="matrix(0.05,0,0,0.05,52.79999999999999,0)" xlink:href="#bn"/><use transform="matrix(0.05,0,0,0.05,61.79999999999999,0)" xlink:href="#aW"/><use transform="matrix(0.05,0,0,0.05,66.8,0)" xlink:href="#bf"/></g><g id="O"><use transform="matrix(0.05,0,0,0.05,0,0)" xlink:href="#bg"/><use transform="matrix(0.05,0,0,0.05,12,0)" xlink:href="#aW"/><use transform="matrix(0.05,0,0,0.05,17,0)" xlink:href="#bh"/><use transform="matrix(0.05,0,0,0.05,22.95,0)" xlink:href="#aY"/><use transform="matrix(0.05,0,0,0.05,26.899999999999995,0)" xlink:href="#bi"/><use transform="matrix(0.05,0,0,0.05,36.9,0)" xlink:href="#aU"/><use transform="matrix(0.05,0,0,0.05,46.9,0)" xlink:href="#bk"/><use transform="matrix(0.05,0,0,0.05,51.900000000000006,0)" xlink:href="#bl"/></g><path d="M18-150v-26h174v26H18zm0 90v-26h174v26H18" id="bt"/><use transform="matrix(0.05,0,0,0.05,0,0)" xlink:href="#bt" id="P"/><g id="Q"><use transform="matrix(0.05,0,0,0.05,0,0)" xlink:href="#bg"/><use transform="matrix(0.05,0,0,0.05,12,0)" xlink:href="#aV"/><use transform="matrix(0.05,0,0,0.05,22,0)" xlink:href="#aV"/></g><path d="M232-93c-1 65-40 97-104 97C67 4 28-28 28-90v-158h33c8 89-33 224 67 224 102 0 64-133 71-224h33v155" id="bu"/><path d="M101-251c68 0 85 55 85 127S166 4 100 4C33 4 14-52 14-124c0-73 17-127 87-127zm-1 229c47 0 54-49 54-102s-4-102-53-102c-51 0-55 48-55 102 0 53 5 102 54 102" id="bv"/><path d="M126-127c33 6 58 20 58 59 0 88-139 92-164 29-3-8-5-16-6-25l32-3c6 27 21 44 54 44 32 0 52-15 52-46 0-38-36-46-79-43v-28c39 1 72-4 72-42 0-27-17-43-46-43-28 0-47 15-49 41l-32-3c6-42 35-63 81-64 48-1 79 21 79 65 0 36-21 52-52 59" id="bw"/><g id="R"><use transform="matrix(0.05,0,0,0.05,0,0)" xlink:href="#bu"/><use transform="matrix(0.05,0,0,0.05,12.950000000000001,0)" xlink:href="#bg"/><use transform="matrix(0.05,0,0,0.05,24.950000000000003,0)" xlink:href="#br"/><use transform="matrix(0.05,0,0,0.05,30.900000000000002,0)" xlink:href="#bv"/><use transform="matrix(0.05,0,0,0.05,40.900000000000006,0)" xlink:href="#bw"/></g><path d="M212-179c-10-28-35-45-73-45-59 0-87 40-87 99 0 60 29 101 89 101 43 0 62-24 78-52l27 14C228-24 195 4 139 4 59 4 22-46 18-125c-6-104 99-153 187-111 19 9 31 26 39 46" id="bx"/><g id="S"><use transform="matrix(0.05,0,0,0.05,0,0)" xlink:href="#bx"/><use transform="matrix(0.05,0,0,0.05,12.950000000000001,0)" xlink:href="#aZ"/><use transform="matrix(0.05,0,0,0.05,16.900000000000002,0)" xlink:href="#bc"/><use transform="matrix(0.05,0,0,0.05,26.900000000000002,0)" xlink:href="#bn"/><use transform="matrix(0.05,0,0,0.05,35.900000000000006,0)" xlink:href="#bn"/></g><path d="M100-194c62-1 85 37 85 99 1 63-27 99-86 99S16-35 15-95c0-66 28-99 85-99zM99-20c44 1 53-31 53-75 0-43-8-75-51-75s-53 32-53 75 10 74 51 75" id="by"/><g id="T"><use transform="matrix(0.05,0,0,0.05,0,0)" xlink:href="#br"/><use transform="matrix(0.05,0,0,0.05,5.95,0)" xlink:href="#bp"/><use transform="matrix(0.05,0,0,0.05,14.949999999999998,0)" xlink:href="#by"/><use transform="matrix(0.05,0,0,0.05,24.95,0)" xlink:href="#bq"/><use transform="matrix(0.05,0,0,0.05,34.95,0)" xlink:href="#bh"/><use transform="matrix(0.05,0,0,0.05,40.900000000000006,0)" xlink:href="#bn"/><use transform="matrix(0.05,0,0,0.05,49.900000000000006,0)" xlink:href="#aV"/><use transform="matrix(0.05,0,0,0.05,59.900000000000006,0)" xlink:href="#bx"/><use transform="matrix(0.05,0,0,0.05,72.85000000000001,0)" xlink:href="#by"/><use transform="matrix(0.05,0,0,0.05,82.85000000000001,0)" xlink:href="#ba"/><use transform="matrix(0.05,0,0,0.05,92.85000000000001,0)" xlink:href="#aV"/><use transform="matrix(0.05,0,0,0.05,102.85000000000001,0)" xlink:href="#bf"/></g><path d="M155-56V0h-30v-56H8v-25l114-167h33v167h35v25h-35zm-30-156c-27 46-58 90-88 131h88v-131" id="bz"/><g id="U"><use transform="matrix(0.05,0,0,0.05,0,0)" xlink:href="#bu"/><use transform="matrix(0.05,0,0,0.05,12.950000000000001,0)" xlink:href="#bg"/><use transform="matrix(0.05,0,0,0.05,24.950000000000003,0)" xlink:href="#br"/><use transform="matrix(0.05,0,0,0.05,30.900000000000002,0)" xlink:href="#bv"/><use transform="matrix(0.05,0,0,0.05,40.900000000000006,0)" xlink:href="#bz"/></g></defs></g></svg>