<svg xmlns="http://www.w3.org/2000/svg" xmlns:xlink="http://www.w3.org/1999/xlink" xmlns:lucid="lucid" width="1737.62" height="1217.67"><g transform="translate(-12 6.666666666666671)" lucid:page-tab-id="0_0"><path d="M660 241v939" fill="none"/><path d="M660 241v10.1m0 10.1v20.2m0 10.08v20.2m0 10.1v20.2m0 10.08v20.2m0 10.1v20.2m0 10.1v20.18m0 10.1v20.2m0 10.1v20.18m0 10.1v20.2m0 10.1V554m0 10.1v20.2m0 10.1v20.18m0 10.1v20.2m0 10.1v20.18m0 10.1v20.2m0 10.1v20.18m0 10.1v20.2m0 10.1v20.18m0 10.1v20.2m0 10.1v20.18m0 10.1v20.2m0 10.1v20.18m0 10.1v20.2m0 10.1v20.18m0 10.1v20.2m0 10.1v20.2m0 10.08v20.2m0 10.1v20.2m0 10.08v20.2m0 10.1v20.2m0 10.08v10.1" stroke="#999" stroke-width="2" fill="none"/><path d="M661 241h-2v-1h2z" fill="#999"/><path d="M240 206.67V290" fill="none"/><path d="M240 206.67v9.26m0 9.26v18.5m0 9.26v18.52m0 9.26V290M240 206.67v-3" stroke="#999" stroke-width="2" fill="none"/><path d="M241 293h-2v-3h2z" fill="#999"/><path d="M640 285c0-2.76 2.24-5 5-5h30c2.76 0 5 2.24 5 5v830c0 2.76-2.24 5-5 5h-30c-2.76 0-5-2.24-5-5z" stroke="#666" stroke-width="2" fill="#f2f2f2"/><path d="M260 307h361.76" stroke="#999" stroke-width="2" fill="none"/><path fill="#999"/><path d="M636.76 307l-14.26 4.63v-9.27z" stroke="#999" stroke-width="2" fill="#999"/><use xlink:href="#a" transform="matrix(1,0,0,1,391.6,281.3980000000001) translate(0 14.4)"/><path d="M660 364c0-2.76 2.24-5 5-5h30c2.76 0 5 2.24 5 5v70c0 2.76-2.24 5-5 5h-30c-2.76 0-5-2.24-5-5z" stroke="#666" stroke-width="2" fill="#fff"/><path d="M739.57 319.1l2.12 2.92.3 1.9v70.24l-1.1 3.4-2.92 2.13-1.9.3h-16.84v-2h16.68l1.26-.2 2-1.46.82-2.5v-69.76l-.2-1.26-1.46-2-2.5-.82H680v-2h56.16z" fill="#999"/><path fill="#999"/><path d="M718.5 403.64L704.24 399l14.26-4.64z" fill="#999"/><path d="M719.5 405l-18.5-6 18.5-6zm-12.03-6l10.03 3.26v-6.52z" fill="#999"/><use xlink:href="#b" transform="matrix(1,0,0,1,749.0000000000001,326.8999999999999) translate(0 14.4)"/><use xlink:href="#c" transform="matrix(1,0,0,1,749.0000000000001,326.8999999999999) translate(0 36)"/><use xlink:href="#d" transform="matrix(1,0,0,1,741,339.5) translate(0 14.4)"/><path d="M660 525c0-2.76 2.24-5 5-5h30c2.76 0 5 2.24 5 5v390c0 2.76-2.24 5-5 5h-30c-2.76 0-5-2.24-5-5z" stroke="#666" stroke-width="2" fill="#fff"/><path d="M680 479h56c2.76 0 5 2.24 5 5v60.33c0 2.76-2.24 5-5 5h-16.76" stroke="#999" stroke-width="2" fill="none"/><path fill="#999"/><path d="M718.5 553.97l-14.26-4.64 14.26-4.63z" fill="#999"/><path d="M719.5 555.35l-18.5-6.02 18.5-6zm-12.03-6.02l10.03 3.26v-6.53z" fill="#999"/><use xlink:href="#e" transform="matrix(1,0,0,1,749,492.86666666666804) translate(0 14.4)"/><path d="M1080 641v559" fill="none"/><path d="M1080 641v9.8m0 9.8v19.63m0 9.8v19.62m0 9.8v19.62m0 9.8v19.62m0 9.8v19.6m0 9.82v19.6m0 9.82v19.6m0 9.82v19.62m0 9.8v19.62m0 9.8v19.62m0 9.8v19.62m0 9.8v19.62m0 9.8v19.62m0 9.8v19.62m0 9.8v19.62m0 9.8v19.62m0 9.8v19.62m0 9.8v19.63m0 9.8v9.8" stroke="#999" stroke-width="2" fill="none"/><path d="M1081 641h-2v-1h2z" fill="#999"/><path d="M1060 724c0-2.76 2.24-5 5-5h30c2.76 0 5 2.24 5 5v170c0 2.76-2.24 5-5 5h-30c-2.76 0-5-2.24-5-5z" stroke="#666" stroke-width="2" fill="#f2f2f2"/><path d="M701 725.88h178.73c.42 0 .77-.35.77-.77 0-.42.35-.77.77-.77h160.5" stroke="#999" stroke-width="2" fill="none"/><path d="M701 726.88h-1v-2h1zM1056.76 724.33l-14.26 4.64v-9.27z" fill="#999"/><path d="M1060 724.33l-18.5 6.02v-12.03zm-16.5 3.26l10.03-3.27-10.03-3.26z" fill="#999"/><use xlink:href="#f" transform="matrix(1,0,0,1,773.764480684865,677.136617048247) translate(0 14.4)"/><use xlink:href="#g" transform="matrix(1,0,0,1,773.764480684865,677.136617048247) translate(0 36)"/><path d="M32 18.33c0-2.76 2.24-5 5-5h938c2.76 0 5 2.24 5 5v75.34c0 2.76-2.24 5-5 5H37c-2.76 0-5-2.24-5-5z" fill="none"/><use xlink:href="#h" transform="matrix(1,0,0,1,32,13.333333333333329) translate(0 50.111111111111114)"/><use xlink:href="#i" transform="matrix(1,0,0,1,32,13.333333333333329) translate(110.41975308641976 50.111111111111114)"/><use xlink:href="#j" transform="matrix(1,0,0,1,32,13.333333333333329) translate(319.5061728395062 50.111111111111114)"/><use xlink:href="#k" transform="matrix(1,0,0,1,32,13.333333333333329) translate(498.7654320987655 50.111111111111114)"/><use xlink:href="#l" transform="matrix(1,0,0,1,32,13.333333333333329) translate(518.5185185185186 50.111111111111114)"/><use xlink:href="#m" transform="matrix(1,0,0,1,32,13.333333333333329) translate(540.1481481481483 50.111111111111114)"/><use xlink:href="#n" transform="matrix(1,0,0,1,32,13.333333333333329) translate(623.0123456790125 50.111111111111114)"/><use xlink:href="#o" transform="matrix(1,0,0,1,32,13.333333333333329) translate(825.8765432098767 50.111111111111114)"/><path d="M31.33 80H1728" stroke="#999" stroke-width="2" fill="none"/><path d="M1040 37c0-2.76 2.24-5 5-5h678c2.76 0 5 2.24 5 5v38c0 2.76-2.24 5-5 5h-678c-2.76 0-5-2.24-5-5z" fill="none"/><use xlink:href="#p" transform="matrix(1,0,0,1,1040,32) translate(129.72839506173386 28.4444444444444)"/><use xlink:href="#q" transform="matrix(1,0,0,1,1040,32) translate(181.51851851852348 28.4444444444444)"/><use xlink:href="#r" transform="matrix(1,0,0,1,1040,32) translate(302.3827160493865 28.4444444444444)"/><use xlink:href="#s" transform="matrix(1,0,0,1,1040,32) translate(314.72839506173204 28.4444444444444)"/><use xlink:href="#t" transform="matrix(1,0,0,1,1040,32) translate(393.61728395062016 28.4444444444444)"/><use xlink:href="#u" transform="matrix(1,0,0,1,1040,32) translate(482.44444444444645 28.4444444444444)"/><use xlink:href="#v" transform="matrix(1,0,0,1,1040,32) translate(506.70370370370546 28.4444444444444)"/><use xlink:href="#w" transform="matrix(1,0,0,1,1040,32) translate(601.580246913581 28.4444444444444)"/><use xlink:href="#x" transform="matrix(1,0,0,1,1040,32) translate(638.6172839506178 28.4444444444444)"/><path d="M259.75 129.75c0 10.9-8.84 19.75-19.75 19.75-10.9 0-19.75-8.84-19.75-19.75 0-10.9 8.84-19.75 19.75-19.75 10.9 0 19.75 8.84 19.75 19.75z" stroke="#3d4752" stroke-width="2" fill="#0c7cba"/><path d="M200 115c0-2.76 2.24-5 5-5h70c2.76 0 5 2.24 5 5v148c0 2.76-2.24 5-5 5h-70c-2.76 0-5-2.24-5-5z" fill="none"/><path d="M240 149.5v50.3c0 2.76 1.2 6.9 2.67 9.22L280 268m-40-63.2L200 268m0-98.75h80" stroke="#3d4752" stroke-width="2" fill="none"/><path d="M550 145c0-2.76 2.24-5 5-5h210c2.76 0 5 2.24 5 5v90c0 2.76-2.24 5-5 5H555c-2.76 0-5-2.24-5-5z" stroke="#666" stroke-width="2" fill="#a3d977"/><use xlink:href="#y" transform="matrix(1,0,0,1,550,140) translate(45.64999999999999 55.025)"/><path d="M970 545c0-2.76 2.24-5 5-5h210c2.76 0 5 2.24 5 5v90c0 2.76-2.24 5-5 5H975c-2.76 0-5-2.24-5-5z" stroke="#666" stroke-width="2" fill="#c7e8ac"/><use xlink:href="#z" transform="matrix(1,0,0,1,970,540) translate(11.200000000000017 55.025)"/><path d="M1390 145c0-2.76 2.24-5 5-5h210c2.76 0 5 2.24 5 5v90c0 2.76-2.24 5-5 5h-210c-2.76 0-5-2.24-5-5z" stroke="#666" stroke-width="2" fill="#7ab648"/><use xlink:href="#A" transform="matrix(1,0,0,1,1390,140) translate(53.55 42.525)"/><use xlink:href="#B" transform="matrix(1,0,0,1,1390,140) translate(48.62499999999999 64.125)"/><use xlink:href="#C" transform="matrix(1,0,0,1,1390,140) translate(91.525 64.125)"/><path d="M1500 241v938" fill="none"/><path d="M1500 241v10.1m0 10.07v20.17m0 10.1v20.16m0 10.1v20.16m0 10.1v20.16m0 10.08v20.18m0 10.08v20.17m0 10.1v20.16m0 10.08v20.17m0 10.1v20.16m0 10.1v20.17m0 10.08v20.17m0 10.1v20.16m0 10.1v20.16m0 10.1v20.16m0 10.08v20.18m0 10.08v20.18m0 10.08v20.17m0 10.1v20.16m0 10.1v20.16m0 10.08v20.17m0 10.08v20.18m0 10.1v20.16m0 10.1V947m0 10.1v20.16m0 10.1v20.16m0 10.08v20.18m0 10.08v20.17m0 10.1v20.16m0 10.1v20.17m0 10.1v20.16m0 10.08v10.1" stroke="#999" stroke-width="2" fill="none"/><path d="M1501 241h-2v-1h2z" fill="#999"/><path d="M1100 767h189c.28 0 .5.22.5.5s.22.5.5.5h170.76" stroke="#999" stroke-width="2" fill="none"/><path fill="#999"/><path d="M1475.76 768l-14.26 4.64v-9.28z" fill="#999"/><path d="M1479 768l-18.5 6v-12zm-16.5 3.26l10.03-3.26-10.03-3.26z" fill="#999"/><use xlink:href="#D" transform="matrix(1,0,0,1,1188.2052203648645,741.6674371048349) translate(0.0049999999999954525 14.222222222222223)"/><use xlink:href="#E" transform="matrix(1,0,0,1,1188.2052203648645,741.6674371048349) translate(50.8691975308642 14.222222222222223)"/><use xlink:href="#F" transform="matrix(1,0,0,1,1188.2052203648645,741.6674371048349) translate(92.3012962962963 14.222222222222223)"/><path d="M1480 765c0-2.76 2.24-5 5-5h30c2.76 0 5 2.24 5 5v110c0 2.76-2.24 5-5 5h-30c-2.76 0-5-2.24-5-5z" stroke="#666" stroke-width="2" fill="#f2f2f2"/><path d="M1479 864h-189c-.28 0-.5-.22-.5-.5s-.22-.5-.5-.5h-170.76" fill="none"/><path d="M1479 864h-10.5m-10.5 0h-21m-10.5 0h-21m-10.5 0h-21m-10.5 0h-21m-10.5 0h-21m-10.5 0H1290l-.35-.15-.15-.35-.15-.35-.35-.15h-9.5m-9.47 0h-18.98m-9.48 0h-18.98m-9.5 0h-18.97m-9.5 0h-18.96m-9.5 0h-18.96m-9.48 0h-9.48" stroke="#999" stroke-width="2" fill="none"/><path d="M1480 865h-1v-2h1z" fill="#999"/><path d="M1103.24 863l14.26-4.64v9.28z" stroke="#999" stroke-width="2" fill="#999"/><use xlink:href="#G" transform="matrix(1,0,0,1,1220.8698992388108,837.4015915135293) translate(0.0049999999999954525 14.4)"/><use xlink:href="#H" transform="matrix(1,0,0,1,1220.8698992388108,837.4015915135293) translate(51.504999999999995 14.4)"/><path d="M1059 887H718.24" fill="none"/><path d="M1059 887h-9.97m-9.97 0h-19.95m-9.96 0H989.2m-9.98 0h-19.94m-9.97 0h-19.94m-9.97 0h-19.96m-9.97 0h-20.72M858 887h-21.5m-10.75 0h-21.5m-10.76 0H772m-10.76 0h-21.5M729 887h-10.76" stroke="#999" stroke-width="2" fill="none"/><path d="M1060 888h-1v-2h1zM717.5 891.64L703.24 887l14.26-4.64z" fill="#999"/><path d="M718.5 893l-18.5-6 18.5-6zm-12.03-6l10.03 3.26v-6.52z" fill="#999"/><g><use xlink:href="#I" transform="matrix(1,0,0,1,861.05,861.4) translate(0.004999999999999005 14.4)"/></g><path d="M220 285c0-2.76 2.24-5 5-5h30c2.76 0 5 2.24 5 5v870c0 2.76-2.24 5-5 5h-30c-2.76 0-5-2.24-5-5z" stroke="#666" stroke-width="2" fill="#f2f2f2"/><path d="M660 1004c0-2.76 2.24-5 5-5h30c2.76 0 5 2.24 5 5v111c0 2.76-2.24 5-5 5h-30c-2.76 0-5-2.24-5-5z" stroke="#666" stroke-width="2" fill="#fff"/><path d="M681 960h54c2.76 0 5 2.24 5 5v54.33c0 2.76-2.24 5-5 5h-16.76" stroke="#999" stroke-width="2" fill="none"/><path d="M681 961h-1v-2h1zM717.5 1028.97l-14.26-4.64 14.26-4.63z" fill="#999"/><path d="M718.5 1030.35l-18.5-6.02 18.5-6zm-12.03-6.02l10.03 3.26v-6.53z" fill="#999"/><g><use xlink:href="#J" transform="matrix(1,0,0,1,748,972.0000000000019) translate(0.0049999999999954525 14.222222222222223)"/></g><path d="M290 885c0-2.76 2.24-5 5-5h293.8c2.76 0 6.58 1.58 8.54 3.54l9.12 9.12c1.96 1.96 3.54 5.78 3.54 8.54V956c0 2.76-2.24 5-5 5H295c-2.76 0-5-2.24-5-5z" stroke="#666" stroke-width="2" fill="#ffeca9"/><path d="M595 884.85c-.66-2.68.38-3.27 2.34-1.3l9.12 9.1c1.96 1.97 1.37 3-1.3 2.34l-3.27-.83c-2.7-.67-5.4-3.38-6.07-6.06z" stroke="#666" stroke-width="2" fill="#b3a576"/><g><use xlink:href="#K" transform="matrix(1,0,0,1,290,880) translate(5.534629629629629 32.25416666666667)"/><use xlink:href="#L" transform="matrix(1,0,0,1,290,880) translate(57.56425925925926 32.25416666666667)"/><use xlink:href="#M" transform="matrix(1,0,0,1,290,880) translate(90.69018518518519 32.25416666666667)"/><use xlink:href="#N" transform="matrix(1,0,0,1,290,880) translate(127.37166666666667 32.25416666666667)"/><use xlink:href="#O" transform="matrix(1,0,0,1,290,880) translate(224.43833333333333 32.25416666666667)"/><use xlink:href="#P" transform="matrix(1,0,0,1,290,880) translate(259.99388888888893 32.25416666666667)"/><use xlink:href="#Q" transform="matrix(1,0,0,1,290,880) translate(112.68648148148148 57.85416666666668)"/><use xlink:href="#R" transform="matrix(1,0,0,1,290,880) translate(133.96055555555554 57.85416666666668)"/></g><path d="M639.3 1116.98H279.25" stroke="#999" stroke-width="2" fill="none"/><path d="M640.25 1116.58l1.02 1.4h-1.96v-2h.86zM278.5 1121.6l-14.26-4.62 14.26-4.64z" fill="#999"/><path d="M279.5 1123l-18.5-6.02 18.5-6.02zm-12.03-6.02l10.03 3.26v-6.52z" fill="#999"/><g><use xlink:href="#S" transform="matrix(1,0,0,1,391.10107014814815,1087.3763470000001) translate(0.005000000000002558 17.06666666666667)"/><use xlink:href="#T" transform="matrix(1,0,0,1,391.10107014814815,1087.3763470000001) translate(59.14574074074074 17.06666666666667)"/></g><path d="M701 578.67h249.76" stroke="#999" stroke-width="2" fill="none"/><path d="M701 579.67h-1v-2h1zM965.76 578.67l-14.26 4.63v-9.27z" fill="#999"/><path d="M969 578.67l-18.5 6v-12.02zm-16.5 3.26l10.03-3.26-10.03-3.26z" fill="#999"/><g><use xlink:href="#U" transform="matrix(1,0,0,1,788.1111111111111,553.3333333333331) translate(0.005000000000002558 14.222222222222223)"/></g><defs><path fill="#333" d="M137-138c1-29-70-34-71-4 15 46 118 7 119 86 1 83-164 76-172 9l43-7c4 19 20 25 44 25 33 8 57-30 24-41C81-84 22-81 20-136c-2-80 154-74 161-7" id="V"/><path fill="#333" d="M185-48c-13 30-37 53-82 52C43 2 14-33 14-96s30-98 90-98c62 0 83 45 84 108H66c0 31 8 55 39 56 18 0 30-7 34-22zm-45-69c5-46-57-63-70-21-2 6-4 13-4 21h74" id="W"/><path fill="#333" d="M133-34C117-15 103 5 69 4 32 3 11-16 11-54c-1-60 55-63 116-61 1-26-3-47-28-47-18 1-26 9-28 27l-52-2c7-38 36-58 82-57s74 22 75 68l1 82c-1 14 12 18 25 15v27c-30 8-71 5-69-32zm-48 3c29 0 43-24 42-57-32 0-66-3-65 30 0 17 8 27 23 27" id="X"/><path fill="#333" d="M135-150c-39-12-60 13-60 57V0H25l-1-190h47c2 13-1 29 3 40 6-28 27-53 61-41v41" id="Y"/><path fill="#333" d="M190-63c-7 42-38 67-86 67-59 0-84-38-90-98-12-110 154-137 174-36l-49 2c-2-19-15-32-35-32-30 0-35 28-38 64-6 74 65 87 74 30" id="Z"/><path fill="#333" d="M114-157C55-157 80-60 75 0H25v-261h50l-1 109c12-26 28-41 61-42 86-1 58 113 63 194h-50c-7-57 23-157-34-157" id="aa"/><path fill="#333" d="M67-93c0 74 22 123 53 168H70C40 30 18-18 18-93s22-123 52-168h50c-32 44-53 94-53 168" id="ab"/><path fill="#333" d="M135-194c87-1 58 113 63 194h-50c-7-57 23-157-34-157-59 0-34 97-39 157H25l-1-190h47c2 12-1 28 3 38 12-26 28-41 61-42" id="ac"/><path fill="#333" d="M220-157c-53 9-28 100-34 157h-49v-107c1-27-5-49-29-50C55-147 81-57 75 0H25l-1-190h47c2 12-1 28 3 38 10-53 101-56 108 0 13-22 24-43 59-42 82 1 51 116 57 194h-49v-107c-1-25-5-48-29-50" id="ad"/><path fill="#333" d="M102-93c0 74-22 123-52 168H0C30 29 54-18 53-93c0-74-22-123-53-168h50c30 45 52 94 52 168" id="ae"/><g id="a"><use transform="matrix(0.05,0,0,0.05,0,0)" xlink:href="#V"/><use transform="matrix(0.05,0,0,0.05,10,0)" xlink:href="#W"/><use transform="matrix(0.05,0,0,0.05,20,0)" xlink:href="#X"/><use transform="matrix(0.05,0,0,0.05,30,0)" xlink:href="#Y"/><use transform="matrix(0.05,0,0,0.05,37,0)" xlink:href="#Z"/><use transform="matrix(0.05,0,0,0.05,47,0)" xlink:href="#aa"/><use transform="matrix(0.05,0,0,0.05,57.95,0)" xlink:href="#ab"/><use transform="matrix(0.05,0,0,0.05,63.900000000000006,0)" xlink:href="#ac"/><use transform="matrix(0.05,0,0,0.05,74.85000000000001,0)" xlink:href="#X"/><use transform="matrix(0.05,0,0,0.05,84.85000000000001,0)" xlink:href="#ad"/><use transform="matrix(0.05,0,0,0.05,100.85000000000001,0)" xlink:href="#W"/><use transform="matrix(0.05,0,0,0.05,110.85000000000001,0)" xlink:href="#ae"/></g><path fill="#333" d="M240-174c0 40-23 61-54 70L253 0h-59l-57-94H76V0H24v-248c93 4 217-23 216 74zM76-134c48-2 112 12 112-38 0-48-66-32-112-35v73" id="af"/><path fill="#333" d="M84 4C32 4 15-41 15-95c0-55 18-99 73-99 29 0 47 12 58 34l2-30h48l-1 265h-49V-32C136-9 114 4 84 4zm21-34c32 0 41-29 41-66 0-36-9-64-40-64-33 0-39 30-40 65 0 43 13 65 39 65" id="ag"/><path fill="#333" d="M85 4C-2 5 27-109 22-190h50c7 57-23 150 33 157 60-5 35-97 40-157h50l1 190h-47c-2-12 1-28-3-38-12 25-28 42-61 42" id="ah"/><path fill="#333" d="M115-3C79 11 28 4 28-45v-112H4v-33h27l15-45h31v45h36v33H77v99c-1 23 16 31 38 25v30" id="ai"/><path fill="#333" d="M175 0L67-191c6 58 2 128 3 191H24v-248h59L193-55c-6-58-2-129-3-193h46V0h-61" id="aj"/><path fill="#333" d="M15-148v-39h180v39H15zm0 97v-39h180v39H15" id="ak"/><g id="b"><use transform="matrix(0.05,0,0,0.05,0,0)" xlink:href="#af"/><use transform="matrix(0.05,0,0,0.05,12.950000000000001,0)" xlink:href="#W"/><use transform="matrix(0.05,0,0,0.05,22.950000000000003,0)" xlink:href="#ag"/><use transform="matrix(0.05,0,0,0.05,33.900000000000006,0)" xlink:href="#ah"/><use transform="matrix(0.05,0,0,0.05,44.85000000000001,0)" xlink:href="#W"/><use transform="matrix(0.05,0,0,0.05,54.85,0)" xlink:href="#V"/><use transform="matrix(0.05,0,0,0.05,64.85000000000001,0)" xlink:href="#ai"/><use transform="matrix(0.05,0,0,0.05,70.80000000000001,0)" xlink:href="#aj"/><use transform="matrix(0.05,0,0,0.05,83.75000000000001,0)" xlink:href="#X"/><use transform="matrix(0.05,0,0,0.05,93.75000000000001,0)" xlink:href="#ad"/><use transform="matrix(0.05,0,0,0.05,109.75,0)" xlink:href="#W"/><use transform="matrix(0.05,0,0,0.05,119.75,0)" xlink:href="#ak"/></g><path fill="#333" d="M121-226c-27-7-43 5-38 36h38v33H83V0H34v-157H6v-33h28c-9-59 32-81 87-68v32" id="al"/><path fill="#333" d="M110-194c64 0 96 36 96 99 0 64-35 99-97 99-61 0-95-36-95-99 0-62 34-99 96-99zm-1 164c35 0 45-28 45-65 0-40-10-65-43-65-34 0-45 26-45 65 0 36 10 65 43 65" id="am"/><g id="c"><use transform="matrix(0.05,0,0,0.05,0,0)" xlink:href="#al"/><use transform="matrix(0.05,0,0,0.05,5.95,0)" xlink:href="#am"/><use transform="matrix(0.05,0,0,0.05,16.900000000000002,0)" xlink:href="#Y"/><use transform="matrix(0.05,0,0,0.05,23.900000000000002,0)" xlink:href="#ad"/><use transform="matrix(0.05,0,0,0.05,39.900000000000006,0)" xlink:href="#X"/><use transform="matrix(0.05,0,0,0.05,49.900000000000006,0)" xlink:href="#ai"/><use transform="matrix(0.05,0,0,0.05,55.85,0)" xlink:href="#af"/><use transform="matrix(0.05,0,0,0.05,68.80000000000001,0)" xlink:href="#W"/><use transform="matrix(0.05,0,0,0.05,78.80000000000001,0)" xlink:href="#ag"/><use transform="matrix(0.05,0,0,0.05,89.75000000000001,0)" xlink:href="#ah"/><use transform="matrix(0.05,0,0,0.05,100.70000000000002,0)" xlink:href="#W"/><use transform="matrix(0.05,0,0,0.05,110.7,0)" xlink:href="#V"/><use transform="matrix(0.05,0,0,0.05,120.7,0)" xlink:href="#ai"/><use transform="matrix(0.05,0,0,0.05,126.65000000000003,0)" xlink:href="#ab"/><use transform="matrix(0.05,0,0,0.05,132.60000000000002,0)" xlink:href="#ac"/><use transform="matrix(0.05,0,0,0.05,143.55,0)" xlink:href="#X"/><use transform="matrix(0.05,0,0,0.05,153.55,0)" xlink:href="#ad"/><use transform="matrix(0.05,0,0,0.05,169.55,0)" xlink:href="#W"/><use transform="matrix(0.05,0,0,0.05,179.55,0)" xlink:href="#ae"/></g><path fill="#333" d="M88-194c31-1 46 15 58 34l-1-101h50l1 261h-48c-2-10 0-23-3-31C134-8 116 4 84 4 32 4 16-41 15-95c0-56 19-97 73-99zm17 164c33 0 40-30 41-66 1-37-9-64-41-64s-38 30-39 65c0 43 13 65 39 65" id="an"/><g id="e"><use transform="matrix(0.05,0,0,0.05,0,0)" xlink:href="#V"/><use transform="matrix(0.05,0,0,0.05,10,0)" xlink:href="#W"/><use transform="matrix(0.05,0,0,0.05,20,0)" xlink:href="#ac"/><use transform="matrix(0.05,0,0,0.05,30.950000000000003,0)" xlink:href="#an"/><use transform="matrix(0.05,0,0,0.05,41.900000000000006,0)" xlink:href="#af"/><use transform="matrix(0.05,0,0,0.05,54.85,0)" xlink:href="#W"/><use transform="matrix(0.05,0,0,0.05,64.85000000000001,0)" xlink:href="#ag"/><use transform="matrix(0.05,0,0,0.05,75.80000000000001,0)" xlink:href="#ah"/><use transform="matrix(0.05,0,0,0.05,86.75000000000001,0)" xlink:href="#W"/><use transform="matrix(0.05,0,0,0.05,96.75000000000001,0)" xlink:href="#V"/><use transform="matrix(0.05,0,0,0.05,106.75,0)" xlink:href="#ai"/><use transform="matrix(0.05,0,0,0.05,112.7,0)" xlink:href="#ab"/><use transform="matrix(0.05,0,0,0.05,118.65000000000003,0)" xlink:href="#af"/><use transform="matrix(0.05,0,0,0.05,131.60000000000002,0)" xlink:href="#W"/><use transform="matrix(0.05,0,0,0.05,141.60000000000002,0)" xlink:href="#ag"/><use transform="matrix(0.05,0,0,0.05,152.55,0)" xlink:href="#ah"/><use transform="matrix(0.05,0,0,0.05,163.5,0)" xlink:href="#W"/><use transform="matrix(0.05,0,0,0.05,173.5,0)" xlink:href="#V"/><use transform="matrix(0.05,0,0,0.05,183.5,0)" xlink:href="#ai"/><use transform="matrix(0.05,0,0,0.05,189.45,0)" xlink:href="#aj"/><use transform="matrix(0.05,0,0,0.05,202.39999999999998,0)" xlink:href="#X"/><use transform="matrix(0.05,0,0,0.05,212.39999999999998,0)" xlink:href="#ad"/><use transform="matrix(0.05,0,0,0.05,228.39999999999998,0)" xlink:href="#W"/><use transform="matrix(0.05,0,0,0.05,238.39999999999998,0)" xlink:href="#ae"/></g><g id="f"><use transform="matrix(0.05,0,0,0.05,0,0)" xlink:href="#an"/><use transform="matrix(0.05,0,0,0.05,10.950000000000001,0)" xlink:href="#X"/><use transform="matrix(0.05,0,0,0.05,20.950000000000003,0)" xlink:href="#ai"/><use transform="matrix(0.05,0,0,0.05,26.900000000000002,0)" xlink:href="#X"/><use transform="matrix(0.05,0,0,0.05,36.900000000000006,0)" xlink:href="#ak"/></g><path fill="#333" d="M195-6C206 82 75 100 31 46c-4-6-6-13-8-21l49-6c3 16 16 24 34 25 40 0 42-37 40-79-11 22-30 35-61 35-53 0-70-43-70-97 0-56 18-96 73-97 30 0 46 14 59 34l2-30h47zm-90-29c32 0 41-27 41-63 0-35-9-62-40-62-32 0-39 29-40 63 0 36 9 62 39 62" id="ao"/><path fill="#333" d="M25 0v-261h50V0H25" id="ap"/><g id="g"><use transform="matrix(0.05,0,0,0.05,0,0)" xlink:href="#ao"/><use transform="matrix(0.05,0,0,0.05,10.950000000000001,0)" xlink:href="#W"/><use transform="matrix(0.05,0,0,0.05,20.950000000000003,0)" xlink:href="#ai"/><use transform="matrix(0.05,0,0,0.05,26.900000000000002,0)" xlink:href="#af"/><use transform="matrix(0.05,0,0,0.05,39.85,0)" xlink:href="#W"/><use transform="matrix(0.05,0,0,0.05,49.85,0)" xlink:href="#V"/><use transform="matrix(0.05,0,0,0.05,59.85,0)" xlink:href="#ah"/><use transform="matrix(0.05,0,0,0.05,70.8,0)" xlink:href="#ap"/><use transform="matrix(0.05,0,0,0.05,75.8,0)" xlink:href="#ai"/><use transform="matrix(0.05,0,0,0.05,81.75,0)" xlink:href="#ab"/><use transform="matrix(0.05,0,0,0.05,87.7,0)" xlink:href="#af"/><use transform="matrix(0.05,0,0,0.05,100.65,0)" xlink:href="#W"/><use transform="matrix(0.05,0,0,0.05,110.65,0)" xlink:href="#ag"/><use transform="matrix(0.05,0,0,0.05,121.60000000000001,0)" xlink:href="#ah"/><use transform="matrix(0.05,0,0,0.05,132.55,0)" xlink:href="#W"/><use transform="matrix(0.05,0,0,0.05,142.55,0)" xlink:href="#V"/><use transform="matrix(0.05,0,0,0.05,152.55,0)" xlink:href="#ai"/><use transform="matrix(0.05,0,0,0.05,158.5,0)" xlink:href="#aj"/><use transform="matrix(0.05,0,0,0.05,171.45,0)" xlink:href="#X"/><use transform="matrix(0.05,0,0,0.05,181.45,0)" xlink:href="#ad"/><use transform="matrix(0.05,0,0,0.05,197.45,0)" xlink:href="#W"/><use transform="matrix(0.05,0,0,0.05,207.44999999999996,0)" xlink:href="#ae"/></g><path fill="#999" d="M238-95c0 69-44 99-111 99C63 4 22-25 22-93v-155h51v151c-1 38 19 59 55 60 90 1 49-130 58-211h52v153" id="aq"/><path fill="#999" d="M169-182c-1-43-94-46-97-3 18 66 151 10 154 114 3 95-165 93-204 36-6-8-10-19-12-30l50-8c3 46 112 56 116 5-17-69-150-10-154-114-4-87 153-88 188-35 5 8 8 18 10 28" id="ar"/><path fill="#999" d="M14-72v-43h91v43H14" id="as"/><path fill="#999" d="M101-251c68 0 84 54 84 127C185-50 166 4 99 4S15-52 14-124c-1-75 17-127 87-127zm-1 216c37-5 36-46 36-89s4-89-36-89c-39 0-36 45-36 89 0 43-3 85 36 89" id="at"/><path fill="#999" d="M23 0v-37h61v-169l-59 37v-38l62-41h46v211h57V0H23" id="au"/><g id="h"><use transform="matrix(0.09876543209876544,0,0,0.09876543209876544,0,0)" xlink:href="#aq"/><use transform="matrix(0.09876543209876544,0,0,0.09876543209876544,25.58024691358025,0)" xlink:href="#ar"/><use transform="matrix(0.09876543209876544,0,0,0.09876543209876544,49.283950617283956,0)" xlink:href="#as"/><use transform="matrix(0.09876543209876544,0,0,0.09876543209876544,61.037037037037045,0)" xlink:href="#at"/><use transform="matrix(0.09876543209876544,0,0,0.09876543209876544,80.79012345679013,0)" xlink:href="#au"/></g><path fill="#999" d="M24 0v-248h195v40H76v63h132v40H76v65h150V0H24" id="av"/><path fill="#999" d="M140-251c80 0 125 45 125 126 0 70-33 111-92 124 6 28 34 38 68 31l-1 36C177 83 129 55 120 2 51-6 15-50 15-125c0-81 44-126 125-126zm-1 214c52 0 73-35 73-88 0-50-21-86-72-86-52 0-73 35-73 86s22 88 72 88" id="aw"/><path fill="#999" d="M175 0L67-191c6 58 2 128 3 191H24v-248h59L193-55c-6-58-2-129-3-193h46V0h-61" id="ax"/><path fill="#999" d="M67-125c0 53 21 87 73 88 37 1 54-22 65-47l45 17C233-25 199 4 140 4 58 4 20-42 15-125 8-235 124-281 211-232c18 10 29 29 36 50l-46 12c-8-25-30-41-62-41-52 0-71 34-72 86" id="ay"/><g id="i"><use transform="matrix(0.09876543209876544,0,0,0.09876543209876544,0,0)" xlink:href="#ar"/><use transform="matrix(0.09876543209876544,0,0,0.09876543209876544,23.703703703703706,0)" xlink:href="#av"/><use transform="matrix(0.09876543209876544,0,0,0.09876543209876544,47.40740740740741,0)" xlink:href="#aw"/><use transform="matrix(0.09876543209876544,0,0,0.09876543209876544,75.06172839506173,0)" xlink:href="#aq"/><use transform="matrix(0.09876543209876544,0,0,0.09876543209876544,100.64197530864199,0)" xlink:href="#av"/><use transform="matrix(0.09876543209876544,0,0,0.09876543209876544,124.34567901234568,0)" xlink:href="#ax"/><use transform="matrix(0.09876543209876544,0,0,0.09876543209876544,149.92592592592595,0)" xlink:href="#ay"/><use transform="matrix(0.09876543209876544,0,0,0.09876543209876544,175.5061728395062,0)" xlink:href="#av"/></g><path fill="#999" d="M24-248c120-7 223 5 221 122C244-46 201 0 124 0H24v-248zM76-40c74 7 117-18 117-86 0-67-45-88-117-82v168" id="az"/><path fill="#999" d="M24 0v-248h52V0H24" id="aA"/><path fill="#999" d="M199 0l-22-63H83L61 0H9l90-248h61L250 0h-51zm-33-102l-36-108c-10 38-24 72-36 108h72" id="aB"/><path fill="#999" d="M67-125c0 54 23 88 75 88 28 0 53-7 68-21v-34h-60v-39h108v91C232-14 192 4 140 4 58 4 20-42 15-125 8-236 126-280 215-234c19 10 29 26 37 47l-47 15c-11-23-29-39-63-39-53 1-75 33-75 86" id="aC"/><path fill="#999" d="M240-174c0 40-23 61-54 70L253 0h-59l-57-94H76V0H24v-248c93 4 217-23 216 74zM76-134c48-2 112 12 112-38 0-48-66-32-112-35v73" id="aD"/><path fill="#999" d="M230 0l2-204L168 0h-37L68-204 70 0H24v-248h70l56 185 57-185h69V0h-46" id="aE"/><g id="j"><use transform="matrix(0.09876543209876544,0,0,0.09876543209876544,0,0)" xlink:href="#az"/><use transform="matrix(0.09876543209876544,0,0,0.09876543209876544,25.58024691358025,0)" xlink:href="#aA"/><use transform="matrix(0.09876543209876544,0,0,0.09876543209876544,35.4567901234568,0)" xlink:href="#aB"/><use transform="matrix(0.09876543209876544,0,0,0.09876543209876544,61.03703703703705,0)" xlink:href="#aC"/><use transform="matrix(0.09876543209876544,0,0,0.09876543209876544,88.69135802469137,0)" xlink:href="#aD"/><use transform="matrix(0.09876543209876544,0,0,0.09876543209876544,114.27160493827161,0)" xlink:href="#aB"/><use transform="matrix(0.09876543209876544,0,0,0.09876543209876544,139.85185185185188,0)" xlink:href="#aE"/></g><path fill="#999" d="M182-182c0 78-84 86-111 141h115V0H12c-6-101 99-100 120-180 1-22-12-31-33-32-23 0-32 14-35 34l-49-3c5-45 32-70 84-70 51 0 83 22 83 69" id="aF"/><use transform="matrix(0.09876543209876544,0,0,0.09876543209876544,0,0)" xlink:href="#aF" id="k"/><path fill="#999" d="M35-132v-50h50v50H35zM35 0v-49h50V0H35" id="aG"/><use transform="matrix(0.09876543209876544,0,0,0.09876543209876544,0,0)" xlink:href="#aG" id="l"/><path fill="#999" d="M136-208V0H84v-208H4v-40h212v40h-80" id="aH"/><g id="m"><use transform="matrix(0.09876543209876544,0,0,0.09876543209876544,0,0)" xlink:href="#aC"/><use transform="matrix(0.09876543209876544,0,0,0.09876543209876544,27.654320987654323,0)" xlink:href="#av"/><use transform="matrix(0.09876543209876544,0,0,0.09876543209876544,51.35802469135803,0)" xlink:href="#aH"/></g><path fill="#999" d="M24 0v-248h52v208h133V0H24" id="aI"/><g id="n"><use transform="matrix(0.09876543209876544,0,0,0.09876543209876544,0,0)" xlink:href="#aI"/><use transform="matrix(0.09876543209876544,0,0,0.09876543209876544,21.62962962962963,0)" xlink:href="#av"/><use transform="matrix(0.09876543209876544,0,0,0.09876543209876544,45.333333333333336,0)" xlink:href="#ay"/><use transform="matrix(0.09876543209876544,0,0,0.09876543209876544,70.91358024691358,0)" xlink:href="#aH"/><use transform="matrix(0.09876543209876544,0,0,0.09876543209876544,92.54320987654322,0)" xlink:href="#aq"/><use transform="matrix(0.09876543209876544,0,0,0.09876543209876544,118.12345679012347,0)" xlink:href="#aD"/><use transform="matrix(0.09876543209876544,0,0,0.09876543209876544,143.70370370370372,0)" xlink:href="#av"/><use transform="matrix(0.09876543209876544,0,0,0.09876543209876544,167.40740740740742,0)" xlink:href="#aD"/></g><path fill="#999" d="M76-208v77h127v40H76V0H24v-248h183v40H76" id="aJ"/><path fill="#999" d="M140-251c80 0 125 45 125 126S219 4 139 4C58 4 15-44 15-125s44-126 125-126zm-1 214c52 0 73-35 73-88 0-50-21-86-72-86-52 0-73 35-73 86s22 88 72 88" id="aK"/><g id="o"><use transform="matrix(0.09876543209876544,0,0,0.09876543209876544,0,0)" xlink:href="#aA"/><use transform="matrix(0.09876543209876544,0,0,0.09876543209876544,9.876543209876544,0)" xlink:href="#ax"/><use transform="matrix(0.09876543209876544,0,0,0.09876543209876544,35.4567901234568,0)" xlink:href="#aJ"/><use transform="matrix(0.09876543209876544,0,0,0.09876543209876544,57.08641975308644,0)" xlink:href="#aK"/></g><path fill="#999" d="M185-189c-5-48-123-54-124 2 14 75 158 14 163 119 3 78-121 87-175 55-17-10-28-26-33-46l33-7c5 56 141 63 141-1 0-78-155-14-162-118-5-82 145-84 179-34 5 7 8 16 11 25" id="aL"/><path fill="#999" d="M141-36C126-15 110 5 73 4 37 3 15-17 15-53c-1-64 63-63 125-63 3-35-9-54-41-54-24 1-41 7-42 31l-33-3c5-37 33-52 76-52 45 0 72 20 72 64v82c-1 20 7 32 28 27v20c-31 9-61-2-59-35zM48-53c0 20 12 33 32 33 41-3 63-29 60-74-43 2-92-5-92 41" id="aM"/><path fill="#999" d="M210-169c-67 3-38 105-44 169h-31v-121c0-29-5-50-35-48C34-165 62-65 56 0H25l-1-190h30c1 10-1 24 2 32 10-44 99-50 107 0 11-21 27-35 58-36 85-2 47 119 55 194h-31v-121c0-29-5-49-35-48" id="aN"/><g id="p"><use transform="matrix(0.06172839506172778,0,0,0.06172839506172778,0,0)" xlink:href="#aL"/><use transform="matrix(0.06172839506172778,0,0,0.06172839506172778,14.814814814814667,0)" xlink:href="#aM"/><use transform="matrix(0.06172839506172778,0,0,0.06172839506172778,27.160493827160224,0)" xlink:href="#aN"/></g><path fill="#999" d="M212-179c-10-28-35-45-73-45-59 0-87 40-87 99 0 60 29 101 89 101 43 0 62-24 78-52l27 14C228-24 195 4 139 4 59 4 22-46 18-125c-6-104 99-153 187-111 19 9 31 26 39 46" id="aO"/><path fill="#999" d="M84 4C-5 8 30-112 23-190h32v120c0 31 7 50 39 49 72-2 45-101 50-169h31l1 190h-30c-1-10 1-25-2-33-11 22-28 36-60 37" id="aP"/><path fill="#999" d="M59-47c-2 24 18 29 38 22v24C64 9 27 4 27-40v-127H5v-23h24l9-43h21v43h35v23H59v120" id="aQ"/><path fill="#999" d="M106-169C34-169 62-67 57 0H25v-261h32l-1 103c12-21 28-36 61-36 89 0 53 116 60 194h-32v-121c2-32-8-49-39-48" id="aR"/><path fill="#999" d="M115-194c53 0 69 39 70 98 0 66-23 100-70 100C84 3 66-7 56-30L54 0H23l1-261h32v101c10-23 28-34 59-34zm-8 174c40 0 45-34 45-75 0-40-5-75-45-74-42 0-51 32-51 76 0 43 10 73 51 73" id="aS"/><path fill="#999" d="M100-194c63 0 86 42 84 106H49c0 40 14 67 53 68 26 1 43-12 49-29l28 8c-11 28-37 45-77 45C44 4 14-33 15-96c1-61 26-98 85-98zm52 81c6-60-76-77-97-28-3 7-6 17-6 28h103" id="aT"/><path fill="#999" d="M114-163C36-179 61-72 57 0H25l-1-190h30c1 12-1 29 2 39 6-27 23-49 58-41v29" id="aU"/><path fill="#999" d="M135-143c-3-34-86-38-87 0 15 53 115 12 119 90S17 21 10-45l28-5c4 36 97 45 98 0-10-56-113-15-118-90-4-57 82-63 122-42 12 7 21 19 24 35" id="aV"/><path fill="#999" d="M100-194c62-1 85 37 85 99 1 63-27 99-86 99S16-35 15-95c0-66 28-99 85-99zM99-20c44 1 53-31 53-75 0-43-8-75-51-75s-53 32-53 75 10 74 51 75" id="aW"/><path fill="#999" d="M117-194c89-4 53 116 60 194h-32v-121c0-31-8-49-39-48C34-167 62-67 57 0H25l-1-190h30c1 10-1 24 2 32 11-22 29-35 61-36" id="aX"/><g id="q"><use transform="matrix(0.06172839506172778,0,0,0.06172839506172778,0,0)" xlink:href="#aO"/><use transform="matrix(0.06172839506172778,0,0,0.06172839506172778,15.987654320987495,0)" xlink:href="#aP"/><use transform="matrix(0.06172839506172778,0,0,0.06172839506172778,28.33333333333305,0)" xlink:href="#aQ"/><use transform="matrix(0.06172839506172778,0,0,0.06172839506172778,34.50617283950583,0)" xlink:href="#aR"/><use transform="matrix(0.06172839506172778,0,0,0.06172839506172778,46.851851851851386,0)" xlink:href="#aS"/><use transform="matrix(0.06172839506172778,0,0,0.06172839506172778,59.19753086419694,0)" xlink:href="#aT"/><use transform="matrix(0.06172839506172778,0,0,0.06172839506172778,71.5432098765425,0)" xlink:href="#aU"/><use transform="matrix(0.06172839506172778,0,0,0.06172839506172778,78.88888888888812,0)" xlink:href="#aQ"/><use transform="matrix(0.06172839506172778,0,0,0.06172839506172778,85.0617283950609,0)" xlink:href="#aV"/><use transform="matrix(0.06172839506172778,0,0,0.06172839506172778,96.1728395061719,0)" xlink:href="#aW"/><use transform="matrix(0.06172839506172778,0,0,0.06172839506172778,108.51851851851745,0)" xlink:href="#aX"/></g><path fill="#999" d="M68-38c1 34 0 65-14 84H32c9-13 17-26 17-46H33v-38h35" id="aY"/><use transform="matrix(0.06172839506172778,0,0,0.06172839506172778,0,0)" xlink:href="#aY" id="r"/><g id="s"><use transform="matrix(0.06172839506172778,0,0,0.06172839506172778,0,0)" xlink:href="#aO"/><use transform="matrix(0.06172839506172778,0,0,0.06172839506172778,15.987654320987495,0)" xlink:href="#aW"/><use transform="matrix(0.06172839506172778,0,0,0.06172839506172778,28.33333333333305,0)" xlink:href="#aX"/><use transform="matrix(0.06172839506172778,0,0,0.06172839506172778,40.67901234567861,0)" xlink:href="#aX"/><use transform="matrix(0.06172839506172778,0,0,0.06172839506172778,53.024691358024164,0)" xlink:href="#aW"/><use transform="matrix(0.06172839506172778,0,0,0.06172839506172778,65.37037037036973,0)" xlink:href="#aU"/></g><path fill="#999" d="M197 0v-115H63V0H30v-248h33v105h134v-105h34V0h-34" id="aZ"/><path fill="#999" d="M85-194c31 0 48 13 60 33l-1-100h32l1 261h-30c-2-10 0-23-3-31C134-8 116 4 85 4 32 4 16-35 15-94c0-66 23-100 70-100zm9 24c-40 0-46 34-46 75 0 40 6 74 45 74 42 0 51-32 51-76 0-42-9-74-50-73" id="ba"/><g id="t"><use transform="matrix(0.06172839506172778,0,0,0.06172839506172778,0,0)" xlink:href="#aZ"/><use transform="matrix(0.06172839506172778,0,0,0.06172839506172778,15.987654320987495,0)" xlink:href="#aP"/><use transform="matrix(0.06172839506172778,0,0,0.06172839506172778,28.33333333333305,0)" xlink:href="#ba"/><use transform="matrix(0.06172839506172778,0,0,0.06172839506172778,40.67901234567861,0)" xlink:href="#aV"/><use transform="matrix(0.06172839506172778,0,0,0.06172839506172778,51.79012345678961,0)" xlink:href="#aW"/><use transform="matrix(0.06172839506172778,0,0,0.06172839506172778,64.13580246913517,0)" xlink:href="#aX"/></g><path fill="#999" d="M32 76v-337h29V76H32" id="bb"/><use transform="matrix(0.06172839506172778,0,0,0.06172839506172778,0,0)" xlink:href="#bb" id="u"/><path fill="#999" d="M63-220v92h138v28H63V0H30v-248h175v28H63" id="bc"/><path fill="#999" d="M179-190L93 31C79 59 56 82 12 73V49c39 6 53-20 64-50L1-190h34L92-34l54-156h33" id="bd"/><g id="v"><use transform="matrix(0.06172839506172778,0,0,0.06172839506172778,0,0)" xlink:href="#bc"/><use transform="matrix(0.06172839506172778,0,0,0.06172839506172778,13.518518518518384,0)" xlink:href="#aT"/><use transform="matrix(0.06172839506172778,0,0,0.06172839506172778,25.86419753086394,0)" xlink:href="#aS"/><use transform="matrix(0.06172839506172778,0,0,0.06172839506172778,38.209876543209496,0)" xlink:href="#aU"/><use transform="matrix(0.06172839506172778,0,0,0.06172839506172778,45.5555555555551,0)" xlink:href="#aP"/><use transform="matrix(0.06172839506172778,0,0,0.06172839506172778,57.90123456790066,0)" xlink:href="#aM"/><use transform="matrix(0.06172839506172778,0,0,0.06172839506172778,70.24691358024621,0)" xlink:href="#aU"/><use transform="matrix(0.06172839506172778,0,0,0.06172839506172778,77.59259259259181,0)" xlink:href="#bd"/></g><path fill="#999" d="M101-251c82-7 93 87 43 132L82-64C71-53 59-42 53-27h129V0H18c2-99 128-94 128-182 0-28-16-43-45-43s-46 15-49 41l-32-3c6-41 34-60 81-64" id="be"/><path fill="#999" d="M134-131c28 9 52 24 51 62-1 50-34 73-85 73S17-19 16-69c0-36 21-54 49-61-75-25-45-126 34-121 46 3 78 18 79 63 0 33-17 51-44 57zm-34-11c31 1 46-15 46-44 0-28-17-43-47-42-29 0-46 13-45 42 1 28 16 44 46 44zm1 122c35 0 51-18 51-52 0-30-18-46-53-46-33 0-51 17-51 47 0 34 19 51 53 51" id="bf"/><g id="w"><use transform="matrix(0.06172839506172778,0,0,0.06172839506172778,0,0)" xlink:href="#be"/><use transform="matrix(0.06172839506172778,0,0,0.06172839506172778,12.345679012345556,0)" xlink:href="#bf"/><use transform="matrix(0.06172839506172778,0,0,0.06172839506172778,24.691358024691112,0)" xlink:href="#aY"/></g><path fill="#999" d="M101-251c68 0 85 55 85 127S166 4 100 4C33 4 14-52 14-124c0-73 17-127 87-127zm-1 229c47 0 54-49 54-102s-4-102-53-102c-51 0-55 48-55 102 0 53 5 102 54 102" id="bg"/><path fill="#999" d="M27 0v-27h64v-190l-56 39v-29l58-41h29v221h61V0H27" id="bh"/><g id="x"><use transform="matrix(0.06172839506172778,0,0,0.06172839506172778,0,0)" xlink:href="#be"/><use transform="matrix(0.06172839506172778,0,0,0.06172839506172778,12.345679012345556,0)" xlink:href="#bg"/><use transform="matrix(0.06172839506172778,0,0,0.06172839506172778,24.691358024691112,0)" xlink:href="#bh"/><use transform="matrix(0.06172839506172778,0,0,0.06172839506172778,37.03703703703667,0)" xlink:href="#bf"/></g><path fill="#333" d="M135-194c53 0 70 44 70 98 0 56-19 98-73 100-31 1-45-17-59-34 3 33 2 69 2 105H25l-1-265h48c2 10 0 23 3 31 11-24 29-35 60-35zM114-30c33 0 39-31 40-66 0-38-9-64-40-64-56 0-55 130 0 130" id="bi"/><path fill="#333" d="M35-132v-50h50v50H35zM35 0v-49h50V0H35" id="bj"/><path fill="#333" d="M76-208v77h127v40H76V0H24v-248h183v40H76" id="bk"/><path fill="#333" d="M67-125c0 53 21 87 73 88 37 1 54-22 65-47l45 17C233-25 199 4 140 4 58 4 20-42 15-125 8-235 124-281 211-232c18 10 29 29 36 50l-46 12c-8-25-30-41-62-41-52 0-71 34-72 86" id="bl"/><path fill="#333" d="M140-251c80 0 125 45 125 126 0 70-33 111-92 124 6 28 34 38 68 31l-1 36C177 83 129 55 120 2 51-6 15-50 15-125c0-81 44-126 125-126zm-1 214c52 0 73-35 73-88 0-50-21-86-72-86-52 0-73 35-73 86s22 88 72 88" id="bm"/><path fill="#333" d="M24-248c93 1 206-16 204 79-1 75-69 88-152 82V0H24v-248zm52 121c47 0 100 7 100-41 0-47-54-39-100-39v80" id="bn"/><g id="y"><use transform="matrix(0.05,0,0,0.05,0,0)" xlink:href="#bi"/><use transform="matrix(0.05,0,0,0.05,10.950000000000001,0)" xlink:href="#X"/><use transform="matrix(0.05,0,0,0.05,20.950000000000003,0)" xlink:href="#ao"/><use transform="matrix(0.05,0,0,0.05,31.900000000000006,0)" xlink:href="#W"/><use transform="matrix(0.05,0,0,0.05,41.900000000000006,0)" xlink:href="#bj"/><use transform="matrix(0.05,0,0,0.05,47.85000000000001,0)" xlink:href="#bk"/><use transform="matrix(0.05,0,0,0.05,58.80000000000001,0)" xlink:href="#bl"/><use transform="matrix(0.05,0,0,0.05,71.75000000000001,0)" xlink:href="#bm"/><use transform="matrix(0.05,0,0,0.05,85.75000000000001,0)" xlink:href="#bn"/><use transform="matrix(0.05,0,0,0.05,97.75000000000001,0)" xlink:href="#X"/><use transform="matrix(0.05,0,0,0.05,107.75,0)" xlink:href="#ao"/><use transform="matrix(0.05,0,0,0.05,118.7,0)" xlink:href="#W"/><path fill="#333" d="M-.9.97h130.5v1.9H-.9z"/></g><path fill="#333" d="M135-194c52 0 70 43 70 98 0 56-19 99-73 100-30 1-46-15-58-35L72 0H24l1-261h50v104c11-23 29-37 60-37zM114-30c31 0 40-27 40-66 0-37-7-63-39-63s-41 28-41 65c0 36 8 64 40 64" id="bo"/><path fill="#333" d="M35-132v-50h51v50H35zm51 83c1 42 0 83-19 105H34C46 42 56 24 58 0H35v-49h51" id="bp"/><path fill="#333" d="M123 10C108 53 80 86 19 72V37c35 8 53-11 59-39L3-190h52l48 148c12-52 28-100 44-148h51" id="bq"/><path fill="#333" d="M182-130c37 4 62 22 62 59C244 23 116-4 24 0v-248c84 5 203-23 205 63 0 31-19 50-47 55zM76-148c40-3 101 13 101-30 0-44-60-28-101-31v61zm0 110c48-3 116 14 116-37 0-48-69-32-116-35v72" id="br"/><path fill="#333" d="M25-224v-37h50v37H25zM25 0v-190h50V0H25" id="bs"/><g id="z"><use transform="matrix(0.05,0,0,0.05,0,0)" xlink:href="#an"/><use transform="matrix(0.05,0,0,0.05,10.950000000000001,0)" xlink:href="#X"/><use transform="matrix(0.05,0,0,0.05,20.950000000000003,0)" xlink:href="#ai"/><use transform="matrix(0.05,0,0,0.05,26.900000000000002,0)" xlink:href="#X"/><use transform="matrix(0.05,0,0,0.05,36.900000000000006,0)" xlink:href="#bo"/><use transform="matrix(0.05,0,0,0.05,47.85000000000001,0)" xlink:href="#X"/><use transform="matrix(0.05,0,0,0.05,57.85,0)" xlink:href="#V"/><use transform="matrix(0.05,0,0,0.05,67.85000000000001,0)" xlink:href="#W"/><use transform="matrix(0.05,0,0,0.05,77.85000000000001,0)" xlink:href="#bp"/><use transform="matrix(0.05,0,0,0.05,83.80000000000001,0)" xlink:href="#bm"/><use transform="matrix(0.05,0,0,0.05,97.80000000000001,0)" xlink:href="#ah"/><use transform="matrix(0.05,0,0,0.05,108.75,0)" xlink:href="#W"/><use transform="matrix(0.05,0,0,0.05,118.75,0)" xlink:href="#Y"/><use transform="matrix(0.05,0,0,0.05,125.75,0)" xlink:href="#bq"/><use transform="matrix(0.05,0,0,0.05,135.75,0)" xlink:href="#br"/><use transform="matrix(0.05,0,0,0.05,148.7,0)" xlink:href="#ah"/><use transform="matrix(0.05,0,0,0.05,159.64999999999998,0)" xlink:href="#bs"/><use transform="matrix(0.05,0,0,0.05,164.64999999999998,0)" xlink:href="#ap"/><use transform="matrix(0.05,0,0,0.05,169.64999999999998,0)" xlink:href="#an"/><use transform="matrix(0.05,0,0,0.05,180.59999999999997,0)" xlink:href="#W"/><use transform="matrix(0.05,0,0,0.05,190.59999999999997,0)" xlink:href="#Y"/><path fill="#333" d="M-.9.97h199.4v1.9H-.9z"/></g><path fill="#333" d="M15-91v-56l181-69v40L49-119l147 57v40" id="bt"/><path fill="#333" d="M24 0v-248h195v40H76v63h132v40H76v65h150V0H24" id="bu"/><path fill="#333" d="M144 0l-44-69L55 0H2l70-98-66-92h53l41 62 40-62h54l-67 91 71 99h-54" id="bv"/><path fill="#333" d="M15-22v-40l146-57-146-57v-40l181 69v56" id="bw"/><g id="A"><use transform="matrix(0.05,0,0,0.05,0,0)" xlink:href="#bt"/><use transform="matrix(0.05,0,0,0.05,10.5,0)" xlink:href="#bt"/><use transform="matrix(0.05,0,0,0.05,21,0)" xlink:href="#bu"/><use transform="matrix(0.05,0,0,0.05,33,0)" xlink:href="#bv"/><use transform="matrix(0.05,0,0,0.05,43,0)" xlink:href="#ai"/><use transform="matrix(0.05,0,0,0.05,48.95,0)" xlink:href="#W"/><use transform="matrix(0.05,0,0,0.05,58.95,0)" xlink:href="#Y"/><use transform="matrix(0.05,0,0,0.05,65.95,0)" xlink:href="#ac"/><use transform="matrix(0.05,0,0,0.05,76.9,0)" xlink:href="#X"/><use transform="matrix(0.05,0,0,0.05,86.9,0)" xlink:href="#ap"/><use transform="matrix(0.05,0,0,0.05,91.9,0)" xlink:href="#bw"/><use transform="matrix(0.05,0,0,0.05,102.4,0)" xlink:href="#bw"/></g><g id="B"><use transform="matrix(0.05,0,0,0.05,0,0)" xlink:href="#bk"/><use transform="matrix(0.05,0,0,0.05,10.950000000000001,0)" xlink:href="#bl"/><use transform="matrix(0.05,0,0,0.05,23.900000000000002,0)" xlink:href="#bm"/></g><path fill="#333" d="M24-248c120-7 223 5 221 122C244-46 201 0 124 0H24v-248zM76-40c74 7 117-18 117-86 0-67-45-88-117-82v168" id="bx"/><g id="C"><use transform="matrix(0.05,0,0,0.05,0,0)" xlink:href="#bx"/><use transform="matrix(0.05,0,0,0.05,12.950000000000001,0)" xlink:href="#X"/><use transform="matrix(0.05,0,0,0.05,22.950000000000003,0)" xlink:href="#ai"/><use transform="matrix(0.05,0,0,0.05,28.900000000000002,0)" xlink:href="#X"/><use transform="matrix(0.05,0,0,0.05,38.900000000000006,0)" xlink:href="#bo"/><use transform="matrix(0.05,0,0,0.05,49.85000000000001,0)" xlink:href="#X"/><use transform="matrix(0.05,0,0,0.05,59.85,0)" xlink:href="#V"/><use transform="matrix(0.05,0,0,0.05,69.85000000000001,0)" xlink:href="#W"/></g><path fill="#333" d="M186 0v-106H76V0H24v-248h52v99h110v-99h50V0h-50" id="by"/><path fill="#333" d="M136-208V0H84v-208H4v-40h212v40h-80" id="bz"/><g id="D"><use transform="matrix(0.04938271604938272,0,0,0.04938271604938272,0,0)" xlink:href="#by"/><use transform="matrix(0.04938271604938272,0,0,0.04938271604938272,12.790123456790125,0)" xlink:href="#bz"/><use transform="matrix(0.04938271604938272,0,0,0.04938271604938272,23.60493827160494,0)" xlink:href="#bz"/><use transform="matrix(0.04938271604938272,0,0,0.04938271604938272,34.41975308641975,0)" xlink:href="#bn"/></g><path fill="#333" d="M67-125c0 54 23 88 75 88 28 0 53-7 68-21v-34h-60v-39h108v91C232-14 192 4 140 4 58 4 20-42 15-125 8-236 126-280 215-234c19 10 29 26 37 47l-47 15c-11-23-29-39-63-39-53 1-75 33-75 86" id="bA"/><g id="E"><use transform="matrix(0.04938271604938272,0,0,0.04938271604938272,0,0)" xlink:href="#bA"/><use transform="matrix(0.04938271604938272,0,0,0.04938271604938272,13.827160493827162,0)" xlink:href="#bu"/><use transform="matrix(0.04938271604938272,0,0,0.04938271604938272,25.679012345679016,0)" xlink:href="#bz"/></g><path fill="#333" d="M133 41v34c-50 4-88-6-87-53 0-46 9-101-40-98v-34c48 2 40-52 40-98-1-47 37-57 87-53v34c-79-14-6 124-77 134 73 11-4 147 77 134" id="bB"/><path fill="#333" d="M24 0v-248h52v208h133V0H24" id="bC"/><path fill="#333" d="M238-95c0 69-44 99-111 99C63 4 22-25 22-93v-155h51v151c-1 38 19 59 55 60 90 1 49-130 58-211h52v153" id="bD"/><path fill="#333" d="M94-36c2 56 4 113-52 111H8V41C85 54 13-83 84-94c-39-5-38-51-36-97 1-27-12-38-40-36v-34c49-4 87 6 86 53s-8 101 41 98v34c-26 1-42 13-41 40" id="bE"/><g id="F"><use transform="matrix(0.04938271604938272,0,0,0.04938271604938272,0,0)" xlink:href="#bB"/><use transform="matrix(0.04938271604938272,0,0,0.04938271604938272,6.913580246913581,0)" xlink:href="#bC"/><use transform="matrix(0.04938271604938272,0,0,0.04938271604938272,17.728395061728396,0)" xlink:href="#bu"/><use transform="matrix(0.04938271604938272,0,0,0.04938271604938272,29.58024691358025,0)" xlink:href="#bl"/><use transform="matrix(0.04938271604938272,0,0,0.04938271604938272,42.370370370370374,0)" xlink:href="#bz"/><use transform="matrix(0.04938271604938272,0,0,0.04938271604938272,53.18518518518519,0)" xlink:href="#bD"/><use transform="matrix(0.04938271604938272,0,0,0.04938271604938272,65.97530864197532,0)" xlink:href="#af"/><use transform="matrix(0.04938271604938272,0,0,0.04938271604938272,78.76543209876544,0)" xlink:href="#bu"/><use transform="matrix(0.04938271604938272,0,0,0.04938271604938272,90.61728395061729,0)" xlink:href="#af"/><use transform="matrix(0.04938271604938272,0,0,0.04938271604938272,103.40740740740742,0)" xlink:href="#bE"/></g><g id="G"><use transform="matrix(0.05,0,0,0.05,0,0)" xlink:href="#by"/><use transform="matrix(0.05,0,0,0.05,12.950000000000001,0)" xlink:href="#bz"/><use transform="matrix(0.05,0,0,0.05,23.900000000000002,0)" xlink:href="#bz"/><use transform="matrix(0.05,0,0,0.05,34.85,0)" xlink:href="#bn"/></g><g id="H"><use transform="matrix(0.05,0,0,0.05,0,0)" xlink:href="#af"/><use transform="matrix(0.05,0,0,0.05,12.950000000000001,0)" xlink:href="#W"/><use transform="matrix(0.05,0,0,0.05,22.950000000000003,0)" xlink:href="#V"/><use transform="matrix(0.05,0,0,0.05,32.95,0)" xlink:href="#bi"/><use transform="matrix(0.05,0,0,0.05,43.900000000000006,0)" xlink:href="#am"/><use transform="matrix(0.05,0,0,0.05,54.85,0)" xlink:href="#ac"/><use transform="matrix(0.05,0,0,0.05,65.80000000000001,0)" xlink:href="#V"/><use transform="matrix(0.05,0,0,0.05,75.80000000000001,0)" xlink:href="#W"/></g><g id="I"><use transform="matrix(0.05,0,0,0.05,0,0)" xlink:href="#an"/><use transform="matrix(0.05,0,0,0.05,10.950000000000001,0)" xlink:href="#X"/><use transform="matrix(0.05,0,0,0.05,20.950000000000003,0)" xlink:href="#ai"/><use transform="matrix(0.05,0,0,0.05,26.900000000000002,0)" xlink:href="#X"/></g><path d="M88-194c31-1 46 15 58 34l-1-101h50l1 261h-48c-2-10 0-23-3-31C134-8 116 4 84 4 32 4 16-41 15-95c0-56 19-97 73-99zm17 164c33 0 40-30 41-66 1-37-9-64-41-64s-38 30-39 65c0 43 13 65 39 65" id="bF"/><path d="M25-224v-37h50v37H25zM25 0v-190h50V0H25" id="bG"/><path d="M137-138c1-29-70-34-71-4 15 46 118 7 119 86 1 83-164 76-172 9l43-7c4 19 20 25 44 25 33 8 57-30 24-41C81-84 22-81 20-136c-2-80 154-74 161-7" id="bH"/><path d="M135-194c53 0 70 44 70 98 0 56-19 98-73 100-31 1-45-17-59-34 3 33 2 69 2 105H25l-1-265h48c2 10 0 23 3 31 11-24 29-35 60-35zM114-30c33 0 39-31 40-66 0-38-9-64-40-64-56 0-55 130 0 130" id="bI"/><path d="M25 0v-261h50V0H25" id="bJ"/><path d="M133-34C117-15 103 5 69 4 32 3 11-16 11-54c-1-60 55-63 116-61 1-26-3-47-28-47-18 1-26 9-28 27l-52-2c7-38 36-58 82-57s74 22 75 68l1 82c-1 14 12 18 25 15v27c-30 8-71 5-69-32zm-48 3c29 0 43-24 42-57-32 0-66-3-65 30 0 17 8 27 23 27" id="bK"/><path d="M123 10C108 53 80 86 19 72V37c35 8 53-11 59-39L3-190h52l48 148c12-52 28-100 44-148h51" id="bL"/><path d="M67-125c0 53 21 87 73 88 37 1 54-22 65-47l45 17C233-25 199 4 140 4 58 4 20-42 15-125 8-235 124-281 211-232c18 10 29 29 36 50l-46 12c-8-25-30-41-62-41-52 0-71 34-72 86" id="bM"/><path d="M114-157C55-157 80-60 75 0H25v-261h50l-1 109c12-26 28-41 61-42 86-1 58 113 63 194h-50c-7-57 23-157-34-157" id="bN"/><path d="M135-150c-39-12-60 13-60 57V0H25l-1-190h47c2 13-1 29 3 40 6-28 27-53 61-41v41" id="bO"/><path d="M115-3C79 11 28 4 28-45v-112H4v-33h27l15-45h31v45h36v33H77v99c-1 23 16 31 38 25v30" id="bP"/><path d="M67-93c0 74 22 123 53 168H70C40 30 18-18 18-93s22-123 52-168h50c-32 44-53 94-53 168" id="bQ"/><path d="M102-93c0 74-22 123-52 168H0C30 29 54-18 53-93c0-74-22-123-53-168h50c30 45 52 94 52 168" id="bR"/><g id="J"><use transform="matrix(0.04938271604938272,0,0,0.04938271604938272,0,0)" xlink:href="#bF"/><use transform="matrix(0.04938271604938272,0,0,0.04938271604938272,10.814814814814815,0)" xlink:href="#bG"/><use transform="matrix(0.04938271604938272,0,0,0.04938271604938272,15.753086419753087,0)" xlink:href="#bH"/><use transform="matrix(0.04938271604938272,0,0,0.04938271604938272,25.629629629629633,0)" xlink:href="#bI"/><use transform="matrix(0.04938271604938272,0,0,0.04938271604938272,36.44444444444445,0)" xlink:href="#bJ"/><use transform="matrix(0.04938271604938272,0,0,0.04938271604938272,41.38271604938272,0)" xlink:href="#bK"/><use transform="matrix(0.04938271604938272,0,0,0.04938271604938272,51.25925925925927,0)" xlink:href="#bL"/><use transform="matrix(0.04938271604938272,0,0,0.04938271604938272,61.13580246913581,0)" xlink:href="#bM"/><use transform="matrix(0.04938271604938272,0,0,0.04938271604938272,73.92592592592594,0)" xlink:href="#bN"/><use transform="matrix(0.04938271604938272,0,0,0.04938271604938272,84.74074074074075,0)" xlink:href="#bK"/><use transform="matrix(0.04938271604938272,0,0,0.04938271604938272,94.61728395061729,0)" xlink:href="#bO"/><use transform="matrix(0.04938271604938272,0,0,0.04938271604938272,101.53086419753087,0)" xlink:href="#bP"/><use transform="matrix(0.04938271604938272,0,0,0.04938271604938272,107.40740740740742,0)" xlink:href="#bQ"/><use transform="matrix(0.04938271604938272,0,0,0.04938271604938272,113.28395061728396,0)" xlink:href="#bF"/><use transform="matrix(0.04938271604938272,0,0,0.04938271604938272,124.09876543209877,0)" xlink:href="#bK"/><use transform="matrix(0.04938271604938272,0,0,0.04938271604938272,133.97530864197532,0)" xlink:href="#bP"/><use transform="matrix(0.04938271604938272,0,0,0.04938271604938272,139.85185185185185,0)" xlink:href="#bK"/><use transform="matrix(0.04938271604938272,0,0,0.04938271604938272,149.7283950617284,0)" xlink:href="#bR"/></g><path d="M197 0v-115H63V0H30v-248h33v105h134v-105h34V0h-34" id="bS"/><path d="M100-194c63 0 86 42 84 106H49c0 40 14 67 53 68 26 1 43-12 49-29l28 8c-11 28-37 45-77 45C44 4 14-33 15-96c1-61 26-98 85-98zm52 81c6-60-76-77-97-28-3 7-6 17-6 28h103" id="bT"/><path d="M114-163C36-179 61-72 57 0H25l-1-190h30c1 12-1 29 2 39 6-27 23-49 58-41v29" id="bU"/><g id="K"><use transform="matrix(0.05925925925925927,0,0,0.05925925925925927,0,0)" xlink:href="#bS"/><use transform="matrix(0.05925925925925927,0,0,0.05925925925925927,15.34814814814815,0)" xlink:href="#bT"/><use transform="matrix(0.05925925925925927,0,0,0.05925925925925927,27.200000000000003,0)" xlink:href="#bU"/><use transform="matrix(0.05925925925925927,0,0,0.05925925925925927,34.25185185185185,0)" xlink:href="#bT"/></g><path d="M206 0h-36l-40-164L89 0H53L-1-190h32L70-26l43-164h34l41 164 42-164h31" id="bV"/><g id="L"><use transform="matrix(0.05925925925925927,0,0,0.05925925925925927,0,0)" xlink:href="#bV"/><use transform="matrix(0.05925925925925927,0,0,0.05925925925925927,15.34814814814815,0)" xlink:href="#bT"/></g><path d="M141-36C126-15 110 5 73 4 37 3 15-17 15-53c-1-64 63-63 125-63 3-35-9-54-41-54-24 1-41 7-42 31l-33-3c5-37 33-52 76-52 45 0 72 20 72 64v82c-1 20 7 32 28 27v20c-31 9-61-2-59-35zM48-53c0 20 12 33 32 33 41-3 63-29 60-74-43 2-92-5-92 41" id="bW"/><g id="M"><use transform="matrix(0.05925925925925927,0,0,0.05925925925925927,0,0)" xlink:href="#bW"/><use transform="matrix(0.05925925925925927,0,0,0.05925925925925927,11.851851851851853,0)" xlink:href="#bU"/><use transform="matrix(0.05925925925925927,0,0,0.05925925925925927,18.903703703703705,0)" xlink:href="#bT"/></g><path d="M135-143c-3-34-86-38-87 0 15 53 115 12 119 90S17 21 10-45l28-5c4 36 97 45 98 0-10-56-113-15-118-90-4-57 82-63 122-42 12 7 21 19 24 35" id="bX"/><path d="M84 4C-5 8 30-112 23-190h32v120c0 31 7 50 39 49 72-2 45-101 50-169h31l1 190h-30c-1-10 1-25-2-33-11 22-28 36-60 37" id="bY"/><path d="M210-169c-67 3-38 105-44 169h-31v-121c0-29-5-50-35-48C34-165 62-65 56 0H25l-1-190h30c1 10-1 24 2 32 10-44 99-50 107 0 11-21 27-35 58-36 85-2 47 119 55 194h-31v-121c0-29-5-49-35-48" id="bZ"/><path d="M24-231v-30h32v30H24zM24 0v-190h32V0H24" id="ca"/><path d="M117-194c89-4 53 116 60 194h-32v-121c0-31-8-49-39-48C34-167 62-67 57 0H25l-1-190h30c1 10-1 24 2 32 11-22 29-35 61-36" id="cb"/><path d="M177-190C167-65 218 103 67 71c-23-6-38-20-44-43l32-5c15 47 100 32 89-28v-30C133-14 115 1 83 1 29 1 15-40 15-95c0-56 16-97 71-98 29-1 48 16 59 35 1-10 0-23 2-32h30zM94-22c36 0 50-32 50-73 0-42-14-75-50-75-39 0-46 34-46 75s6 73 46 73" id="cc"/><g id="N"><use transform="matrix(0.05925925925925927,0,0,0.05925925925925927,0,0)" xlink:href="#bW"/><use transform="matrix(0.05925925925925927,0,0,0.05925925925925927,11.851851851851853,0)" xlink:href="#bX"/><use transform="matrix(0.05925925925925927,0,0,0.05925925925925927,22.51851851851852,0)" xlink:href="#bX"/><use transform="matrix(0.05925925925925927,0,0,0.05925925925925927,33.18518518518519,0)" xlink:href="#bY"/><use transform="matrix(0.05925925925925927,0,0,0.05925925925925927,45.037037037037045,0)" xlink:href="#bZ"/><use transform="matrix(0.05925925925925927,0,0,0.05925925925925927,62.75555555555557,0)" xlink:href="#ca"/><use transform="matrix(0.05925925925925927,0,0,0.05925925925925927,67.43703703703704,0)" xlink:href="#cb"/><use transform="matrix(0.05925925925925927,0,0,0.05925925925925927,79.28888888888889,0)" xlink:href="#cc"/></g><path d="M59-47c-2 24 18 29 38 22v24C64 9 27 4 27-40v-127H5v-23h24l9-43h21v43h35v23H59v120" id="cd"/><path d="M106-169C34-169 62-67 57 0H25v-261h32l-1 103c12-21 28-36 61-36 89 0 53 116 60 194h-32v-121c2-32-8-49-39-48" id="ce"/><g id="O"><use transform="matrix(0.05925925925925927,0,0,0.05925925925925927,0,0)" xlink:href="#cd"/><use transform="matrix(0.05925925925925927,0,0,0.05925925925925927,5.9259259259259265,0)" xlink:href="#ce"/><use transform="matrix(0.05925925925925927,0,0,0.05925925925925927,17.77777777777778,0)" xlink:href="#bT"/></g><path d="M85-194c31 0 48 13 60 33l-1-100h32l1 261h-30c-2-10 0-23-3-31C134-8 116 4 85 4 32 4 16-35 15-94c0-66 23-100 70-100zm9 24c-40 0-46 34-46 75 0 40 6 74 45 74 42 0 51-32 51-76 0-42-9-74-50-73" id="cf"/><g id="P"><use transform="matrix(0.05925925925925927,0,0,0.05925925925925927,0,0)" xlink:href="#cf"/><use transform="matrix(0.05925925925925927,0,0,0.05925925925925927,11.851851851851853,0)" xlink:href="#bW"/><use transform="matrix(0.05925925925925927,0,0,0.05925925925925927,23.703703703703706,0)" xlink:href="#cd"/><use transform="matrix(0.05925925925925927,0,0,0.05925925925925927,29.629629629629633,0)" xlink:href="#bW"/></g><g id="Q"><use transform="matrix(0.05925925925925927,0,0,0.05925925925925927,0,0)" xlink:href="#ca"/><use transform="matrix(0.05925925925925927,0,0,0.05925925925925927,4.681481481481482,0)" xlink:href="#bX"/></g><path d="M135-194c87-1 58 113 63 194h-50c-7-57 23-157-34-157-59 0-34 97-39 157H25l-1-190h47c2 12-1 28 3 38 12-26 28-41 61-42" id="cg"/><path d="M128 0H69L1-190h53L99-40l48-150h52" id="ch"/><path d="M33 0v-38h34V0H33" id="ci"/><g id="R"><use transform="matrix(0.05925925925925927,0,0,0.05925925925925927,0,0)" xlink:href="#bG"/><use transform="matrix(0.05925925925925927,0,0,0.05925925925925927,5.9259259259259265,0)" xlink:href="#cg"/><use transform="matrix(0.05925925925925927,0,0,0.05925925925925927,18.903703703703705,0)" xlink:href="#ch"/><use transform="matrix(0.05925925925925927,0,0,0.05925925925925927,30.75555555555556,0)" xlink:href="#bK"/><use transform="matrix(0.05925925925925927,0,0,0.05925925925925927,42.607407407407415,0)" xlink:href="#bJ"/><use transform="matrix(0.05925925925925927,0,0,0.05925925925925927,48.53333333333334,0)" xlink:href="#bG"/><use transform="matrix(0.05925925925925927,0,0,0.05925925925925927,54.45925925925926,0)" xlink:href="#bF"/><path d="M-1.07 1.15H68.5V3.4H-1.07z"/><use transform="matrix(0.05925925925925927,0,0,0.05925925925925927,67.43703703703704,0)" xlink:href="#ci"/></g><path d="M26 75v-336h71v23H56V52h41v23H26" id="cj"/><path d="M24 0v-261h32V0H24" id="ck"/><path d="M3 75V52h41v-290H3v-23h71V75H3" id="cl"/><g id="S"><use transform="matrix(0.05925925925925927,0,0,0.05925925925925927,0,0)" xlink:href="#cj"/><use transform="matrix(0.05925925925925927,0,0,0.05925925925925927,5.9259259259259265,0)" xlink:href="#bW"/><use transform="matrix(0.05925925925925927,0,0,0.05925925925925927,17.77777777777778,0)" xlink:href="#ck"/><use transform="matrix(0.05925925925925927,0,0,0.05925925925925927,22.459259259259262,0)" xlink:href="#bT"/><use transform="matrix(0.05925925925925927,0,0,0.05925925925925927,34.31111111111112,0)" xlink:href="#bU"/><use transform="matrix(0.05925925925925927,0,0,0.05925925925925927,41.36296296296297,0)" xlink:href="#cd"/><use transform="matrix(0.05925925925925927,0,0,0.05925925925925927,47.28888888888889,0)" xlink:href="#cl"/></g><path d="M100-194c62-1 85 37 85 99 1 63-27 99-86 99S16-35 15-95c0-66 28-99 85-99zM99-20c44 1 53-31 53-75 0-43-8-75-51-75s-53 32-53 75 10 74 51 75" id="cm"/><path d="M87 75C49 33 22-17 22-94c0-76 28-126 65-167h31c-38 41-64 92-64 168S80 34 118 75H87" id="cn"/><path d="M33-261c38 41 65 92 65 168S71 34 33 75H2C39 34 66-17 66-93S39-220 2-261h31" id="co"/><g id="T"><use transform="matrix(0.05925925925925927,0,0,0.05925925925925927,0,0)" xlink:href="#bT"/><use transform="matrix(0.05925925925925927,0,0,0.05925925925925927,11.851851851851853,0)" xlink:href="#bU"/><use transform="matrix(0.05925925925925927,0,0,0.05925925925925927,18.903703703703705,0)" xlink:href="#bU"/><use transform="matrix(0.05925925925925927,0,0,0.05925925925925927,25.95555555555556,0)" xlink:href="#cm"/><use transform="matrix(0.05925925925925927,0,0,0.05925925925925927,37.80740740740741,0)" xlink:href="#bU"/><use transform="matrix(0.05925925925925927,0,0,0.05925925925925927,44.85925925925926,0)" xlink:href="#cn"/><use transform="matrix(0.05925925925925927,0,0,0.05925925925925927,51.91111111111111,0)" xlink:href="#co"/></g><path d="M15-91v-56l181-69v40L49-119l147 57v40" id="cp"/><path d="M190-63c-7 42-38 67-86 67-59 0-84-38-90-98-12-110 154-137 174-36l-49 2c-2-19-15-32-35-32-30 0-35 28-38 64-6 74 65 87 74 30" id="cq"/><path d="M185-48c-13 30-37 53-82 52C43 2 14-33 14-96s30-98 90-98c62 0 83 45 84 108H66c0 31 8 55 39 56 18 0 30-7 34-22zm-45-69c5-46-57-63-70-21-2 6-4 13-4 21h74" id="cr"/><path d="M15-22v-40l146-57-146-57v-40l181 69v56" id="cs"/><g id="U"><use transform="matrix(0.04938271604938272,0,0,0.04938271604938272,0,0)" xlink:href="#cp"/><use transform="matrix(0.04938271604938272,0,0,0.04938271604938272,10.370370370370372,0)" xlink:href="#cp"/><use transform="matrix(0.04938271604938272,0,0,0.04938271604938272,20.740740740740744,0)" xlink:href="#cq"/><use transform="matrix(0.04938271604938272,0,0,0.04938271604938272,30.617283950617285,0)" xlink:href="#bO"/><use transform="matrix(0.04938271604938272,0,0,0.04938271604938272,37.53086419753087,0)" xlink:href="#cr"/><use transform="matrix(0.04938271604938272,0,0,0.04938271604938272,47.40740740740741,0)" xlink:href="#bK"/><use transform="matrix(0.04938271604938272,0,0,0.04938271604938272,57.283950617283956,0)" xlink:href="#bP"/><use transform="matrix(0.04938271604938272,0,0,0.04938271604938272,63.1604938271605,0)" xlink:href="#cr"/><use transform="matrix(0.04938271604938272,0,0,0.04938271604938272,73.03703703703704,0)" xlink:href="#cs"/><use transform="matrix(0.04938271604938272,0,0,0.04938271604938272,83.4074074074074,0)" xlink:href="#cs"/></g></defs></g></svg>