<svg xmlns="http://www.w3.org/2000/svg" xmlns:xlink="http://www.w3.org/1999/xlink" xmlns:lucid="lucid" width="1840" height="1440"><g transform="translate(0 0)" lucid:page-tab-id="0_0"><path d="M40 640h380v180H40z" stroke="#2ba9e0" stroke-width="2" fill="#fff"/><path d="M40 674h380M40 741h380" stroke="#2ba9e0" stroke-width="2" fill="none"/><use xlink:href="#a" transform="matrix(1,0,0,1,47.99999999999997,640) translate(145.638671875 21.9658203125)"/><use xlink:href="#b" transform="matrix(1,0,0,1,51.99999999999997,681.841796875) translate(0 18.299999999999997)"/><use xlink:href="#c" transform="matrix(1,0,0,1,51.99999999999997,681.841796875) translate(115.8 18.299999999999997)"/><use xlink:href="#d" transform="matrix(1,0,0,1,51.99999999999997,681.841796875) translate(125.8 18.299999999999997)"/><use xlink:href="#e" transform="matrix(1,0,0,1,51.99999999999997,681.841796875) translate(0 39.9)"/><use xlink:href="#f" transform="matrix(1,0,0,1,51.99999999999997,681.841796875) translate(120.9 39.9)"/><use xlink:href="#g" transform="matrix(1,0,0,1,51.99999999999997,748.8121190499226) translate(0 19.4)"/><use xlink:href="#c" transform="matrix(1,0,0,1,51.99999999999997,748.8121190499226) translate(120.35000000000001 19.4)"/><use xlink:href="#h" transform="matrix(1,0,0,1,51.99999999999997,748.8121190499226) translate(130.35000000000002 19.4)"/><use xlink:href="#i" transform="matrix(1,0,0,1,51.99999999999997,748.8121190499226) translate(193.20000000000002 19.4)"/><use xlink:href="#j" transform="matrix(1,0,0,1,51.99999999999997,748.8121190499226) translate(0 51.800000000000004)"/><use xlink:href="#c" transform="matrix(1,0,0,1,51.99999999999997,748.8121190499226) translate(151.7 51.800000000000004)"/><use xlink:href="#k" transform="matrix(1,0,0,1,51.99999999999997,748.8121190499226) translate(161.7 51.800000000000004)"/><use xlink:href="#l" transform="matrix(1,0,0,1,51.99999999999997,748.8121190499226) translate(247.55 51.800000000000004)"/><path d="M920 50h360v120H920z" stroke="#2ba9e0" stroke-width="2" fill="#fff"/><path d="M920 84h360m-360 41h360" stroke="#2ba9e0" stroke-width="2" fill="none"/><use xlink:href="#m" transform="matrix(1,0,0,1,928,50) translate(106.6357421875 21.9658203125)"/><use xlink:href="#n" transform="matrix(1,0,0,1,932,132.65471783740043) translate(0 18.6)"/><use xlink:href="#h" transform="matrix(1,0,0,1,932,132.65471783740043) translate(166.3 18.6)"/><use xlink:href="#o" transform="matrix(1,0,0,1,932,132.65471783740043) translate(229.15 18.6)"/><path d="M1040 620h380v220h-380z" stroke="#2ba9e0" stroke-width="2" fill="#fff"/><path d="M1040 654h380m-380 93h380" stroke="#2ba9e0" stroke-width="2" fill="none"/><use xlink:href="#p" transform="matrix(1,0,0,1,1048,620) translate(128.13623046875 21.9658203125)"/><use xlink:href="#q" transform="matrix(1,0,0,1,1052,661.841796875) translate(0 26.4)"/><use xlink:href="#r" transform="matrix(1,0,0,1,1052,661.841796875) translate(119.7 26.4)"/><use xlink:href="#s" transform="matrix(1,0,0,1,1052,661.841796875) translate(0 58.800000000000004)"/><use xlink:href="#o" transform="matrix(1,0,0,1,1052,661.841796875) translate(122.75 58.800000000000004)"/><use xlink:href="#t" transform="matrix(1,0,0,1,1052,754.9208984375) translate(0 26.4)"/><use xlink:href="#k" transform="matrix(1,0,0,1,1052,754.9208984375) translate(117.35000000000001 26.4)"/><use xlink:href="#i" transform="matrix(1,0,0,1,1052,754.9208984375) translate(203.20000000000002 26.4)"/><use xlink:href="#u" transform="matrix(1,0,0,1,1052,754.9208984375) translate(0 58.800000000000004)"/><use xlink:href="#v" transform="matrix(1,0,0,1,1052,754.9208984375) translate(171.2 58.800000000000004)"/><use xlink:href="#l" transform="matrix(1,0,0,1,1052,754.9208984375) translate(244.04999999999998 58.800000000000004)"/><path d="M550 868h360v160H550z" stroke="#000" stroke-width="2" fill="#fff"/><path d="M550 927h360" stroke="#000" stroke-width="2" fill="none"/><use xlink:href="#w" transform="matrix(1,0,0,1,558,868) translate(113.57499999999999 22.799999999999997)"/><use xlink:href="#x" transform="matrix(1,0,0,1,558,868) translate(134.1 44.4)"/><use xlink:href="#y" transform="matrix(1,0,0,1,562,935.2) translate(0 24.5)"/><use xlink:href="#z" transform="matrix(1,0,0,1,562,935.2) translate(161.15 24.5)"/><use xlink:href="#A" transform="matrix(1,0,0,1,562,935.2) translate(215.95000000000002 24.5)"/><use xlink:href="#B" transform="matrix(1,0,0,1,562,935.2) translate(0 46.1)"/><use xlink:href="#C" transform="matrix(1,0,0,1,562,935.2) translate(124.20000000000002 46.1)"/><use xlink:href="#D" transform="matrix(1,0,0,1,562,935.2) translate(0 67.7)"/><use xlink:href="#E" transform="matrix(1,0,0,1,562,935.2) translate(95.95 67.7)"/><path d="M230 821v127h317.04" fill="none"/><path d="M230 821v9.87m0 9.86v19.74m0 9.87v19.73m0 9.87v19.73m0 9.87V948h1.28m9.86 0h19.74m9.87 0h19.73m9.87 0h19.73m9.87 0h19.74m9.85 0h19.74m9.86 0h19.73m9.86 0h19.73m9.86 0h19.74m9.86 0h19.74m9.87 0h19.73m9.87 0h9.87" stroke="#000" stroke-width="2" fill="none"/><path d="M231 821h-2v-1h2zM549 948l-19.53 11.55-1.02-1.72 16.62-9.83-16.62-9.83 1.02-1.72z"/><path d="M421 730h618" stroke="#000" stroke-width="2" fill="none"/><path d="M421 731h-1v-2h1zM1040 731h-1v-2h1z"/><use xlink:href="#F" transform="matrix(1,0,0,1,428.18915411326583,734.0000000000001) translate(0 14.4)"/><use xlink:href="#F" transform="matrix(1,0,0,1,1017.9837374312968,704.4000000000001) translate(0 14.4)"/><path d="M1230 841v107H912.96" fill="none"/><path d="M1230 841v10.1m0 10.1v20.18m0 10.1v20.2m0 10.1v20.18m-4.06 6.04h-20.2m-10.1 0h-20.18m-10.1 0h-20.2m-10.08 0h-20.2m-10.1 0h-20.18m-10.1 0h-20.2m-10.1 0h-20.18m-10.1 0h-20.2m-10.08 0h-20.2m-10.1 0h-20.18m-10.1 0h-10.1" stroke="#000" stroke-width="2" fill="none"/><path d="M1231 841h-2v-1h2zM930.7 938.68L914.92 948l15.76 9.32-1.03 1.72L911 948l18.67-11.04z"/><path d="M290 1208h360v200H290z" stroke="#0c7cba" stroke-width="2" fill="#fff"/><path d="M290 1246h360m-360 93h360" stroke="#0c7cba" stroke-width="2" fill="none"/><use xlink:href="#G" transform="matrix(1,0,0,1,298,1208) translate(136.075 22.6)"/><use xlink:href="#H" transform="matrix(1,0,0,1,302,1253.6) translate(0 21)"/><use xlink:href="#I" transform="matrix(1,0,0,1,302,1253.6) translate(60.9 21)"/><use xlink:href="#J" transform="matrix(1,0,0,1,302,1253.6) translate(0 42.6)"/><use xlink:href="#K" transform="matrix(1,0,0,1,302,1253.6) translate(76.8 42.6)"/><use xlink:href="#L" transform="matrix(1,0,0,1,302,1253.6) translate(0 64.2)"/><use xlink:href="#M" transform="matrix(1,0,0,1,302,1253.6) translate(52.85 64.2)"/><use xlink:href="#N" transform="matrix(1,0,0,1,302,1347.328) translate(0 19.299999999999997)"/><use xlink:href="#O" transform="matrix(1,0,0,1,302,1347.328) translate(137.3 19.299999999999997)"/><use xlink:href="#P" transform="matrix(1,0,0,1,302,1347.328) translate(0 40.9)"/><use xlink:href="#Q" transform="matrix(1,0,0,1,302,1347.328) translate(171.2 40.9)"/><path d="M830 1208h360v180H830z" stroke="#0c7cba" stroke-width="2" fill="#fff"/><path d="M830 1246h360m-360 82h360" stroke="#0c7cba" stroke-width="2" fill="none"/><use xlink:href="#R" transform="matrix(1,0,0,1,838,1208) translate(141.075 22.6)"/><use xlink:href="#S" transform="matrix(1,0,0,1,842,1253.6) translate(0 15.500000000000002)"/><use xlink:href="#I" transform="matrix(1,0,0,1,842,1253.6) translate(112.85000000000001 15.500000000000002)"/><use xlink:href="#J" transform="matrix(1,0,0,1,842,1253.6) translate(0 37.1)"/><use xlink:href="#K" transform="matrix(1,0,0,1,842,1253.6) translate(76.8 37.1)"/><use xlink:href="#L" transform="matrix(1,0,0,1,842,1253.6) translate(0 58.7)"/><use xlink:href="#M" transform="matrix(1,0,0,1,842,1253.6) translate(52.85 58.7)"/><use xlink:href="#T" transform="matrix(1,0,0,1,842,1335.7851428571428) translate(0 15.299999999999999)"/><use xlink:href="#O" transform="matrix(1,0,0,1,842,1335.7851428571428) translate(181.25 15.299999999999999)"/><use xlink:href="#U" transform="matrix(1,0,0,1,842,1335.7851428571428) translate(0 36.9)"/><use xlink:href="#Q" transform="matrix(1,0,0,1,842,1335.7851428571428) translate(158.25 36.9)"/><path d="M1010 1207v-89H815.76v-65.04" fill="none"/><path d="M1010 1207v-9.67m0-9.68v-19.35m0-9.67v-19.35m0-9.68V1118h-7.74m-9.68 0h-19.35m-9.67 0H944.2m-9.66 0H915.2m-9.7 0h-19.34m-9.67 0h-19.36m-9.67 0h-19.35m-9.68 0h-2.68v-16.66m0-9.68v-19.35m0-9.66v-9.68" stroke="#000" stroke-width="2" fill="none"/><path d="M1011 1208h-2v-1h2z"/><path d="M828.48 1052.48h-25.45l12.73-21.52z" fill="#fff"/><path d="M830.24 1053.48h-28.96l14.48-24.48zm-25.46-2h21.95l-10.97-18.55z"/><path d="M470 1207v-89h171.95v-65.04" fill="none"/><path d="M470 1207v-9.88m0-9.88v-19.75m0-9.9v-19.75m0-9.88V1118h9.78m9.88 0h19.76m9.88 0h19.75m9.88 0h19.76m9.87 0h19.75m9.88 0h19.76m9.88 0h4.1v-15.64m0-9.88v-19.76m0-9.88v-9.88" stroke="#000" stroke-width="2" fill="none"/><path d="M471 1208h-2v-1h2z"/><path d="M654.67 1052.48h-25.45l12.73-21.52z" fill="#fff"/><path d="M656.43 1053.48h-28.96l14.48-24.48zm-25.45-2h21.94l-10.97-18.55z"/><path d="M1460 860h360v260h-360z" stroke="#2ba9e0" stroke-width="2" fill="#fff"/><path d="M1460 898h360m-360 64h360" stroke="#2ba9e0" stroke-width="2" fill="none"/><g><use xlink:href="#V" transform="matrix(1,0,0,1,1468,860) translate(152.575 22.6)"/></g><g><use xlink:href="#W" transform="matrix(1,0,0,1,1472,905.6) translate(0 17.299999999999997)"/><use xlink:href="#X" transform="matrix(1,0,0,1,1472,905.6) translate(67.9 17.299999999999997)"/><use xlink:href="#Y" transform="matrix(1,0,0,1,1472,905.6) translate(0 38.9)"/><use xlink:href="#Z" transform="matrix(1,0,0,1,1472,905.6) translate(60.9 38.9)"/></g><g><use xlink:href="#aa" transform="matrix(1,0,0,1,1472,969.8875) translate(0 21.1)"/><use xlink:href="#ab" transform="matrix(1,0,0,1,1472,969.8875) translate(110.25000000000001 21.1)"/><use xlink:href="#ac" transform="matrix(1,0,0,1,1472,969.8875) translate(0 42.7)"/><use xlink:href="#X" transform="matrix(1,0,0,1,1472,969.8875) translate(111 42.7)"/><use xlink:href="#ad" transform="matrix(1,0,0,1,1472,969.8875) translate(0 64.30000000000001)"/><use xlink:href="#ae" transform="matrix(1,0,0,1,1472,969.8875) translate(105.30000000000001 64.30000000000001)"/><use xlink:href="#af" transform="matrix(1,0,0,1,1472,969.8875) translate(0 85.90000000000002)"/><use xlink:href="#ag" transform="matrix(1,0,0,1,1472,969.8875) translate(156 85.90000000000002)"/><use xlink:href="#ah" transform="matrix(1,0,0,1,1472,969.8875) translate(200.9 85.90000000000002)"/><use xlink:href="#ai" transform="matrix(1,0,0,1,1472,969.8875) translate(0 107.50000000000001)"/><use xlink:href="#aj" transform="matrix(1,0,0,1,1472,969.8875) translate(208.6 107.50000000000001)"/><use xlink:href="#ah" transform="matrix(1,0,0,1,1472,969.8875) translate(243.5 107.50000000000001)"/><use xlink:href="#ak" transform="matrix(1,0,0,1,1472,969.8875) translate(0 129.1)"/><use xlink:href="#al" transform="matrix(1,0,0,1,1472,969.8875) translate(179.2 129.1)"/><use xlink:href="#am" transform="matrix(1,0,0,1,1472,969.8875) translate(242.04999999999998 129.1)"/></g><path d="M911 990h548" stroke="#000" stroke-width="2" fill="none"/><path d="M911 991h-1v-2h1zM1460 991h-1v-2h1z"/><g><use xlink:href="#an" transform="matrix(1,0,0,1,925.6666666666667,994) translate(0 14.4)"/></g><g><use xlink:href="#ao" transform="matrix(1,0,0,1,1441.8333333333333,994) translate(0 14.4)"/></g><path d="M550 360h360v160H550z" stroke="#000" stroke-width="2" fill="#fff"/><path d="M550 419h360" stroke="#000" stroke-width="2" fill="none"/><g><use xlink:href="#ap" transform="matrix(1,0,0,1,558,360) translate(113.57499999999999 22.799999999999997)"/><use xlink:href="#aq" transform="matrix(1,0,0,1,558,360) translate(129.6 44.4)"/></g><g><use xlink:href="#ar" transform="matrix(1,0,0,1,562,427.2) translate(0 46.1)"/><use xlink:href="#al" transform="matrix(1,0,0,1,562,427.2) translate(166.3 46.1)"/><use xlink:href="#as" transform="matrix(1,0,0,1,562,427.2) translate(229.15 46.1)"/></g><path d="M730 521v204c2.76 0 5 2.24 5 5s-2.24 5-5 5v130.04" fill="none"/><path d="M730 521v9.7m0 9.73v19.43m0 9.7V589m0 9.7v19.44m0 9.72v19.43m0 9.7v19.43m0 9.7v19.44m0 9.72v9.7l2.95.96 1.8 2.46.25 1.58-.96 2.95-2.46 1.8-1.58.25v10.84m0 10.83v21.68m0 10.83v21.67m0 10.84v21.66m0 10.84v10.84" stroke="#000" stroke-width="2" fill="none"/><path d="M731 521h-2v-1h2zM741.55 847.47L730 867l-11.55-19.53 1.72-1.02 9.83 16.62 9.83-16.62z"/><path d="M1100 171v94H730v70.04" fill="none"/><path d="M1100 171v9.9m0 9.88v19.78m0 9.9v19.77m0 9.9V265h-4.9m-9.9 0h-19.76m-9.9 0h-19.77m-9.9 0h-19.77m-9.9 0h-19.77m-9.9 0h-19.77m-9.9 0H917.1m-9.9 0h-19.78m-9.9 0h-19.76m-9.9 0H828.1m-9.9 0h-19.78m-9.9 0h-19.77m-9.9 0H739.1m-9.08.8v19.8m0 9.88v19.78m0 9.9v9.88" stroke="#000" stroke-width="2" fill="none"/><path d="M1101 171h-2v-1h2z"/><path d="M730 357.04l-12.73-21.52h25.46z" fill="#fff"/><path d="M730 359l-14.48-24.48h28.96zm-10.97-22.48L730 355.07l10.97-18.55z"/><path d="M220 40h360v140H220z" stroke="#2ba9e0" stroke-width="2" fill="#fff"/><path d="M220 74h360m-360 65h360" stroke="#2ba9e0" stroke-width="2" fill="none"/><g><use xlink:href="#at" transform="matrix(1,0,0,1,228,40) translate(105.9150390625 21.9658203125)"/></g><g><use xlink:href="#au" transform="matrix(1,0,0,1,232,81.841796875) translate(0 17.299999999999997)"/><use xlink:href="#av" transform="matrix(1,0,0,1,232,81.841796875) translate(128.85000000000002 17.299999999999997)"/><use xlink:href="#aw" transform="matrix(1,0,0,1,232,81.841796875) translate(0 38.9)"/><use xlink:href="#ax" transform="matrix(1,0,0,1,232,81.841796875) translate(104.80000000000001 38.9)"/><use xlink:href="#ay" transform="matrix(1,0,0,1,232,81.841796875) translate(207.15000000000003 38.9)"/></g><g><use xlink:href="#n" transform="matrix(1,0,0,1,232,146.7649954803719) translate(0 16.6)"/><use xlink:href="#h" transform="matrix(1,0,0,1,232,146.7649954803719) translate(166.3 16.6)"/><use xlink:href="#o" transform="matrix(1,0,0,1,232,146.7649954803719) translate(229.15 16.6)"/></g><path d="M400 181v89h330v65.04" fill="none"/><path d="M400 181v10.08m0 10.1v20.16m0 10.08v20.17m0 10.07V270h11.84m10.08 0h20.17m10.08 0h20.17m10.08 0h20.17m10.08 0h20.17m10.08 0h20.17m10.1 0h20.15m10.1 0h20.16m10.1 0h20.16m10.08 0h20.17m10.1 0h20.16m10.1 0H730v14.62m0 10.08v20.17m0 10.08v10.1" stroke="#000" stroke-width="2" fill="none"/><path d="M401 181h-2v-1h2z"/><path d="M730 357.04l-12.73-21.52h25.46z" fill="#fff"/><path d="M730 359l-14.48-24.48h28.96zm-10.97-22.48L730 355.07l10.97-18.55z"/><path d="M581 110h319.76" stroke="#000" stroke-width="2" fill="none"/><path d="M581 111h-1v-2h1zM915.76 110l-14.26 4.64v-9.28z"/><path d="M919 110l-18.5 6v-12zm-16.5 3.26l10.03-3.26-10.03-3.26z"/><g><use xlink:href="#az" transform="matrix(1,0,0,1,588.1916666666667,84.4) translate(0 14.4)"/></g><path d="M230 639V440h317.04" fill="none"/><path d="M230 639v-10.12m0-10.12v-20.23m0-10.12v-20.23m0-10.12v-20.23m0-10.12v-20.24m0-10.12V477.1m0-10.1v-20.25m3.37-6.75h20.23m10.12 0h20.24m10.12 0h20.23m10.13 0h20.24m10.12 0H375m10.12 0h20.24m10.12 0h20.23m10.12 0h20.24m10.1 0h20.24m10.12 0h20.24m10.12 0h10.12" stroke="#000" stroke-width="2" fill="none"/><path d="M231 640h-2v-1h2zM549 440l-19.53 11.55-1.02-1.72 16.62-9.83-16.62-9.83 1.02-1.72z"/><defs><path fill="#3d4752" d="M478 0H205v-1489h859v219H478v389h485v219H478V0" id="aA"/><path fill="#3d4752" d="M102-744c-7-402 254-768 642-768 139 0 270 41 393 124l-138 175c-77-55-161-82-252-82-144 0-247 85-308 256-31 85-46 183-46 295 0 228 53 391 167 482 144 115 312 73 466-35l124 172C930 61 588 78 365-105 204-237 107-456 102-744" id="aB"/><path fill="#3d4752" d="M736-1293c-233 0-343 288-343 549 0 222 54 382 163 479 68 60 150 86 248 60L632-457h252l87 128c191-263 138-964-235-964zM937-12C751 56 550 23 403-80 224-205 101-446 102-744c2-299 128-540 311-667 192-134 466-131 654 5 174 126 303 370 302 662 0 265-85 473-255 624l199 290h-251" id="aC"/><path fill="#3d4752" d="M205-1489h426c365 0 548 153 548 458S998-573 635-573H478V0H205v-1489zm273 219v478h161c177 0 265-80 265-239s-88-239-265-239H478" id="aD"/><path fill="#3d4752" d="M711-687c-7-170-35-229-188-230-74 0-147 18-220 53l-88-179c111-51 229-76 353-76 303 0 405 148 405 459V0H717v-81C651-13 566 21 461 21 236 21 81-120 81-346c0-158 85-260 254-311 103-31 245-40 376-30zM326-329c0 101 84 155 189 155 91 0 157-36 196-109v-226c-23-4-49-6-78-6-205 0-307 62-307 186" id="aE"/><path fill="#3d4752" d="M1040 13c1 285-186 425-480 425-155 0-288-42-397-127l107-153c86 57 175 86 266 86 162 0 243-86 243-258v-81C700-18 607 20 498 20c-167 0-286-84-355-253-33-79-49-170-49-272 0-252 66-428 193-533 131-108 361-101 490 7v-64h263V13zM777-276v-551c-65-56-128-84-191-84-145 0-217 133-217 399 0 214 67 321 202 321 71 0 139-28 206-85" id="aF"/><path fill="#3d4752" d="M94-548c0-302 191-568 483-568 311 0 493 270 482 633H370c7 207 93 311 256 311 93 0 196-46 308-137l103 144C907-40 760 22 595 22 293 22 94-237 94-548zm282-120h403c-18-170-85-255-202-255s-184 85-201 255" id="aG"/><g id="a"><use transform="matrix(0.0087890625,0,0,0.0087890625,0,0)" xlink:href="#aA"/><use transform="matrix(0.0087890625,0,0,0.0087890625,9.8525390625,0)" xlink:href="#aB"/><use transform="matrix(0.0087890625,0,0,0.0087890625,19.9599609375,0)" xlink:href="#aC"/><use transform="matrix(0.0087890625,0,0,0.0087890625,32.888671875,0)" xlink:href="#aD"/><use transform="matrix(0.0087890625,0,0,0.0087890625,43.06640625,0)" xlink:href="#aE"/><use transform="matrix(0.0087890625,0,0,0.0087890625,52.9716796875,0)" xlink:href="#aF"/><use transform="matrix(0.0087890625,0,0,0.0087890625,63.5888671875,0)" xlink:href="#aG"/></g><path fill="#3d4752" d="M16-82v-28h88v28H16" id="aH"/><path fill="#3d4752" d="M96-169c-40 0-48 33-48 73s9 75 48 75c24 0 41-14 43-38l32 2c-6 37-31 61-74 61-59 0-76-41-82-99-10-93 101-131 147-64 4 7 5 14 7 22l-32 3c-4-21-16-35-41-35" id="aI"/><path fill="#3d4752" d="M84 4C-5 8 30-112 23-190h32v120c0 31 7 50 39 49 72-2 45-101 50-169h31l1 190h-30c-1-10 1-25-2-33-11 22-28 36-60 37" id="aJ"/><path fill="#3d4752" d="M114-163C36-179 61-72 57 0H25l-1-190h30c1 12-1 29 2 39 6-27 23-49 58-41v29" id="aK"/><path fill="#3d4752" d="M100-194c63 0 86 42 84 106H49c0 40 14 67 53 68 26 1 43-12 49-29l28 8c-11 28-37 45-77 45C44 4 14-33 15-96c1-61 26-98 85-98zm52 81c6-60-76-77-97-28-3 7-6 17-6 28h103" id="aL"/><path fill="#3d4752" d="M117-194c89-4 53 116 60 194h-32v-121c0-31-8-49-39-48C34-167 62-67 57 0H25l-1-190h30c1 10-1 24 2 32 11-22 29-35 61-36" id="aM"/><path fill="#3d4752" d="M59-47c-2 24 18 29 38 22v24C64 9 27 4 27-40v-127H5v-23h24l9-43h21v43h35v23H59v120" id="aN"/><path fill="#3d4752" d="M140-251c81 0 123 46 123 126C263-53 228-8 163 1c7 30 30 48 69 40v23c-55 16-95-15-103-61C56-3 17-48 17-125c0-80 42-126 123-126zm0 227c63 0 89-41 89-101s-29-99-89-99c-61 0-89 39-89 99S79-25 140-24" id="aO"/><path fill="#3d4752" d="M179-190L93 31C79 59 56 82 12 73V49c39 6 53-20 64-50L1-190h34L92-34l54-156h33" id="aP"/><g id="b"><use transform="matrix(0.05,0,0,0.05,0,0)" xlink:href="#aH"/><use transform="matrix(0.05,0,0,0.05,5.95,0)" xlink:href="#aI"/><use transform="matrix(0.05,0,0,0.05,14.949999999999998,0)" xlink:href="#aJ"/><use transform="matrix(0.05,0,0,0.05,24.95,0)" xlink:href="#aK"/><use transform="matrix(0.05,0,0,0.05,30.899999999999995,0)" xlink:href="#aK"/><use transform="matrix(0.05,0,0,0.05,36.85,0)" xlink:href="#aL"/><use transform="matrix(0.05,0,0,0.05,46.85,0)" xlink:href="#aM"/><use transform="matrix(0.05,0,0,0.05,56.85,0)" xlink:href="#aN"/><use transform="matrix(0.05,0,0,0.05,61.85,0)" xlink:href="#aO"/><use transform="matrix(0.05,0,0,0.05,75.85,0)" xlink:href="#aJ"/><use transform="matrix(0.05,0,0,0.05,85.85,0)" xlink:href="#aL"/><use transform="matrix(0.05,0,0,0.05,95.85,0)" xlink:href="#aK"/><use transform="matrix(0.05,0,0,0.05,101.8,0)" xlink:href="#aP"/></g><path fill="#3d4752" d="M33-154v-36h34v36H33zM33 0v-36h34V0H33" id="aQ"/><use transform="matrix(0.05,0,0,0.05,0,0)" xlink:href="#aQ" id="c"/><path fill="#3d4752" d="M30-248c87 1 191-15 191 75 0 78-77 80-158 76V0H30v-248zm33 125c57 0 124 11 124-50 0-59-68-47-124-48v98" id="aR"/><path fill="#3d4752" d="M24 0v-261h32V0H24" id="aS"/><path fill="#3d4752" d="M100-194c62-1 85 37 85 99 1 63-27 99-86 99S16-35 15-95c0-66 28-99 85-99zM99-20c44 1 53-31 53-75 0-43-8-75-51-75s-53 32-53 75 10 74 51 75" id="aT"/><path fill="#3d4752" d="M141-36C126-15 110 5 73 4 37 3 15-17 15-53c-1-64 63-63 125-63 3-35-9-54-41-54-24 1-41 7-42 31l-33-3c5-37 33-52 76-52 45 0 72 20 72 64v82c-1 20 7 32 28 27v20c-31 9-61-2-59-35zM48-53c0 20 12 33 32 33 41-3 63-29 60-74-43 2-92-5-92 41" id="aU"/><path fill="#3d4752" d="M115-194c53 0 69 39 70 98 0 66-23 100-70 100C84 3 66-7 56-30L54 0H23l1-261h32v101c10-23 28-34 59-34zm-8 174c40 0 45-34 45-75 0-40-5-75-45-74-42 0-51 32-51 76 0 43 10 73 51 73" id="aV"/><g id="d"><use transform="matrix(0.05,0,0,0.05,0,0)" xlink:href="#aR"/><use transform="matrix(0.05,0,0,0.05,12,0)" xlink:href="#aS"/><use transform="matrix(0.05,0,0,0.05,15.949999999999998,0)" xlink:href="#aT"/><use transform="matrix(0.05,0,0,0.05,25.950000000000003,0)" xlink:href="#aN"/><use transform="matrix(0.05,0,0,0.05,30.950000000000003,0)" xlink:href="#aN"/><use transform="matrix(0.05,0,0,0.05,35.95,0)" xlink:href="#aU"/><use transform="matrix(0.05,0,0,0.05,45.95,0)" xlink:href="#aV"/><use transform="matrix(0.05,0,0,0.05,55.95,0)" xlink:href="#aS"/><use transform="matrix(0.05,0,0,0.05,59.900000000000006,0)" xlink:href="#aL"/></g><path fill="#3d4752" d="M85-194c31 0 48 13 60 33l-1-100h32l1 261h-30c-2-10 0-23-3-31C134-8 116 4 85 4 32 4 16-35 15-94c0-66 23-100 70-100zm9 24c-40 0-46 34-46 75 0 40 6 74 45 74 42 0 51-32 51-76 0-42-9-74-50-73" id="aW"/><path fill="#3d4752" d="M33 0v-248h34V0H33" id="aX"/><path fill="#3d4752" d="M101-234c-31-9-42 10-38 44h38v23H63V0H32v-167H5v-23h27c-7-52 17-82 69-68v24" id="aY"/><g id="e"><use transform="matrix(0.05,0,0,0.05,0,0)" xlink:href="#aH"/><use transform="matrix(0.05,0,0,0.05,5.95,0)" xlink:href="#aW"/><use transform="matrix(0.05,0,0,0.05,15.949999999999998,0)" xlink:href="#aU"/><use transform="matrix(0.05,0,0,0.05,25.950000000000003,0)" xlink:href="#aN"/><use transform="matrix(0.05,0,0,0.05,30.950000000000003,0)" xlink:href="#aU"/><use transform="matrix(0.05,0,0,0.05,40.95,0)" xlink:href="#aX"/><use transform="matrix(0.05,0,0,0.05,45.95,0)" xlink:href="#aM"/><use transform="matrix(0.05,0,0,0.05,55.95,0)" xlink:href="#aN"/><use transform="matrix(0.05,0,0,0.05,60.95,0)" xlink:href="#aL"/><use transform="matrix(0.05,0,0,0.05,70.95,0)" xlink:href="#aK"/><use transform="matrix(0.05,0,0,0.05,76.9,0)" xlink:href="#aY"/><use transform="matrix(0.05,0,0,0.05,81.9,0)" xlink:href="#aU"/><use transform="matrix(0.05,0,0,0.05,91.9,0)" xlink:href="#aI"/><use transform="matrix(0.05,0,0,0.05,100.9,0)" xlink:href="#aL"/><use transform="matrix(0.05,0,0,0.05,110.9,0)" xlink:href="#aQ"/></g><path fill="#3d4752" d="M30-248c118-7 216 8 213 122C240-48 200 0 122 0H30v-248zM63-27c89 8 146-16 146-99s-60-101-146-95v194" id="aZ"/><path fill="#3d4752" d="M185-189c-5-48-123-54-124 2 14 75 158 14 163 119 3 78-121 87-175 55-17-10-28-26-33-46l33-7c5 56 141 63 141-1 0-78-155-14-162-118-5-82 145-84 179-34 5 7 8 16 11 25" id="ba"/><g id="f"><use transform="matrix(0.05,0,0,0.05,0,0)" xlink:href="#aZ"/><use transform="matrix(0.05,0,0,0.05,12.950000000000001,0)" xlink:href="#aU"/><use transform="matrix(0.05,0,0,0.05,22.950000000000003,0)" xlink:href="#aN"/><use transform="matrix(0.05,0,0,0.05,27.950000000000003,0)" xlink:href="#aU"/><use transform="matrix(0.05,0,0,0.05,37.95,0)" xlink:href="#ba"/><use transform="matrix(0.05,0,0,0.05,49.95,0)" xlink:href="#aN"/><use transform="matrix(0.05,0,0,0.05,54.95,0)" xlink:href="#aT"/><use transform="matrix(0.05,0,0,0.05,64.95,0)" xlink:href="#aK"/><use transform="matrix(0.05,0,0,0.05,70.9,0)" xlink:href="#aL"/></g><path fill="#3d4752" d="M118-107v75H92v-75H18v-26h74v-75h26v75h74v26h-74" id="bb"/><path fill="#3d4752" d="M135-143c-3-34-86-38-87 0 15 53 115 12 119 90S17 21 10-45l28-5c4 36 97 45 98 0-10-56-113-15-118-90-4-57 82-63 122-42 12 7 21 19 24 35" id="bc"/><path fill="#3d4752" d="M106-169C34-169 62-67 57 0H25v-261h32l-1 103c12-21 28-36 61-36 89 0 53 116 60 194h-32v-121c2-32-8-49-39-48" id="bd"/><path fill="#3d4752" d="M87 75C49 33 22-17 22-94c0-76 28-126 65-167h31c-38 41-64 92-64 168S80 34 118 75H87" id="be"/><path fill="#3d4752" d="M210-169c-67 3-38 105-44 169h-31v-121c0-29-5-50-35-48C34-165 62-65 56 0H25l-1-190h30c1 10-1 24 2 32 10-44 99-50 107 0 11-21 27-35 58-36 85-2 47 119 55 194h-31v-121c0-29-5-49-35-48" id="bf"/><g id="g"><use transform="matrix(0.05,0,0,0.05,0,0)" xlink:href="#bb"/><use transform="matrix(0.05,0,0,0.05,10.5,0)" xlink:href="#bc"/><use transform="matrix(0.05,0,0,0.05,19.5,0)" xlink:href="#aL"/><use transform="matrix(0.05,0,0,0.05,29.5,0)" xlink:href="#aU"/><use transform="matrix(0.05,0,0,0.05,39.5,0)" xlink:href="#aK"/><use transform="matrix(0.05,0,0,0.05,45.45,0)" xlink:href="#aI"/><use transform="matrix(0.05,0,0,0.05,54.45,0)" xlink:href="#bd"/><use transform="matrix(0.05,0,0,0.05,64.45,0)" xlink:href="#be"/><use transform="matrix(0.05,0,0,0.05,70.4,0)" xlink:href="#aM"/><use transform="matrix(0.05,0,0,0.05,80.4,0)" xlink:href="#aU"/><use transform="matrix(0.05,0,0,0.05,90.4,0)" xlink:href="#bf"/><use transform="matrix(0.05,0,0,0.05,105.35000000000001,0)" xlink:href="#aL"/></g><path fill="#3d4752" d="M24-231v-30h32v30H24zM24 0v-190h32V0H24" id="bg"/><path fill="#3d4752" d="M177-190C167-65 218 103 67 71c-23-6-38-20-44-43l32-5c15 47 100 32 89-28v-30C133-14 115 1 83 1 29 1 15-40 15-95c0-56 16-97 71-98 29-1 48 16 59 35 1-10 0-23 2-32h30zM94-22c36 0 50-32 50-73 0-42-14-75-50-75-39 0-46 34-46 75s6 73 46 73" id="bh"/><path fill="#3d4752" d="M33-261c38 41 65 92 65 168S71 34 33 75H2C39 34 66-17 66-93S39-220 2-261h31" id="bi"/><g id="h"><use transform="matrix(0.05,0,0,0.05,0,0)" xlink:href="#ba"/><use transform="matrix(0.05,0,0,0.05,12,0)" xlink:href="#aN"/><use transform="matrix(0.05,0,0,0.05,17,0)" xlink:href="#aK"/><use transform="matrix(0.05,0,0,0.05,22.95,0)" xlink:href="#bg"/><use transform="matrix(0.05,0,0,0.05,26.899999999999995,0)" xlink:href="#aM"/><use transform="matrix(0.05,0,0,0.05,36.9,0)" xlink:href="#bh"/><use transform="matrix(0.05,0,0,0.05,46.9,0)" xlink:href="#bi"/><use transform="matrix(0.05,0,0,0.05,52.85,0)" xlink:href="#aQ"/></g><path fill="#3d4752" d="M108 0H70L1-190h34L89-25l56-165h34" id="bj"/><g id="i"><use transform="matrix(0.05,0,0,0.05,0,0)" xlink:href="#bj"/><use transform="matrix(0.05,0,0,0.05,9,0)" xlink:href="#aT"/><use transform="matrix(0.05,0,0,0.05,19,0)" xlink:href="#bg"/><use transform="matrix(0.05,0,0,0.05,22.95,0)" xlink:href="#aW"/></g><path fill="#3d4752" d="M115-194c55 1 70 41 70 98S169 2 115 4C84 4 66-9 55-30l1 105H24l-1-265h31l2 30c10-21 28-34 59-34zm-8 174c40 0 45-34 45-75s-6-73-45-74c-42 0-51 32-51 76 0 43 10 73 51 73" id="bk"/><path fill="#3d4752" d="M212-179c-10-28-35-45-73-45-59 0-87 40-87 99 0 60 29 101 89 101 43 0 62-24 78-52l27 14C228-24 195 4 139 4 59 4 22-46 18-125c-6-104 99-153 187-111 19 9 31 26 39 46" id="bl"/><g id="j"><use transform="matrix(0.05,0,0,0.05,0,0)" xlink:href="#aH"/><use transform="matrix(0.05,0,0,0.05,5.95,0)" xlink:href="#aW"/><use transform="matrix(0.05,0,0,0.05,15.949999999999998,0)" xlink:href="#bg"/><use transform="matrix(0.05,0,0,0.05,19.9,0)" xlink:href="#bc"/><use transform="matrix(0.05,0,0,0.05,28.899999999999995,0)" xlink:href="#bk"/><use transform="matrix(0.05,0,0,0.05,38.9,0)" xlink:href="#aS"/><use transform="matrix(0.05,0,0,0.05,42.85,0)" xlink:href="#aU"/><use transform="matrix(0.05,0,0,0.05,52.85,0)" xlink:href="#aP"/><use transform="matrix(0.05,0,0,0.05,61.85,0)" xlink:href="#bl"/><use transform="matrix(0.05,0,0,0.05,74.8,0)" xlink:href="#bd"/><use transform="matrix(0.05,0,0,0.05,84.8,0)" xlink:href="#aU"/><use transform="matrix(0.05,0,0,0.05,94.8,0)" xlink:href="#aK"/><use transform="matrix(0.05,0,0,0.05,100.75,0)" xlink:href="#aN"/><use transform="matrix(0.05,0,0,0.05,105.75,0)" xlink:href="#be"/><use transform="matrix(0.05,0,0,0.05,111.7,0)" xlink:href="#aW"/><use transform="matrix(0.05,0,0,0.05,121.7,0)" xlink:href="#aU"/><use transform="matrix(0.05,0,0,0.05,131.7,0)" xlink:href="#aN"/><use transform="matrix(0.05,0,0,0.05,136.7,0)" xlink:href="#aU"/></g><g id="k"><use transform="matrix(0.05,0,0,0.05,0,0)" xlink:href="#aR"/><use transform="matrix(0.05,0,0,0.05,12,0)" xlink:href="#aS"/><use transform="matrix(0.05,0,0,0.05,15.949999999999998,0)" xlink:href="#aT"/><use transform="matrix(0.05,0,0,0.05,25.950000000000003,0)" xlink:href="#aN"/><use transform="matrix(0.05,0,0,0.05,30.950000000000003,0)" xlink:href="#aN"/><use transform="matrix(0.05,0,0,0.05,35.95,0)" xlink:href="#aU"/><use transform="matrix(0.05,0,0,0.05,45.95,0)" xlink:href="#aV"/><use transform="matrix(0.05,0,0,0.05,55.95,0)" xlink:href="#aS"/><use transform="matrix(0.05,0,0,0.05,59.900000000000006,0)" xlink:href="#aL"/><use transform="matrix(0.05,0,0,0.05,69.9,0)" xlink:href="#bi"/><use transform="matrix(0.05,0,0,0.05,75.85000000000001,0)" xlink:href="#aQ"/></g><g id="l"><use transform="matrix(0.05,0,0,0.05,0,0)" xlink:href="#bj"/><use transform="matrix(0.05,0,0,0.05,9,0)" xlink:href="#aT"/><use transform="matrix(0.05,0,0,0.05,19,0)" xlink:href="#bg"/><use transform="matrix(0.05,0,0,0.05,22.95,0)" xlink:href="#aW"/></g><path fill="#3d4752" d="M1236-1489V0H963v-662H478V0H205v-1489h273v608h485v-608h273" id="bm"/><path fill="#3d4752" d="M45-1270v-219h1063v219H713V0H440v-1270H45" id="bn"/><path fill="#3d4752" d="M867-682L1342 0h-315L578-645H478V0H205v-1489h419c349 0 523 143 523 428 0 191-93 317-280 379zm-389-589v414h119c185 0 277-67 277-200 0-143-84-214-252-214H478" id="bo"/><path fill="#3d4752" d="M776-276v-550c-61-57-124-86-189-86-145 0-218 134-218 401 0 214 68 321 203 321 73 0 141-29 204-86zM94-505c0-324 124-613 416-611 109 0 201 33 277 98v-76h252V412H776V-87C709-14 620 22 509 22 243 22 94-224 94-505" id="bp"/><path fill="#3d4752" d="M437 22c-177 0-283-91-283-265v-851h263v755c0 91 46 137 139 137 75 0 152-32 233-95v-797h263V0H789v-93C670-16 552 22 437 22" id="bq"/><path fill="#3d4752" d="M925-326c0 213-197 348-437 348C341 22 194-16 47-93l93-183c121 69 236 103 345 103s164-42 164-127c0-41-24-75-72-100-19-10-61-25-126-44-165-49-270-109-315-179-27-41-40-94-40-158 0-210 193-335 432-335 111 0 229 34 354 103l-83 176c-101-56-191-84-271-84-107 0-161 40-161 121 0 37 23 66 70 89 16 12 285 99 327 123 105 60 161 144 161 262" id="br"/><path fill="#3d4752" d="M503-384c-2 129 8 204 107 204 41 0 91-13 150-38l66 171C737-1 639 22 533 22c-230-2-293-122-293-358v-559H42v-199h198v-395h263v395h265v199H503v511" id="bs"/><path fill="#3d4752" d="M578-1116c196 0 337 93 423 279 40 87 60 183 60 290 0 225-77 390-230 494-74 50-158 75-253 75-197 0-338-93-424-279-40-87-60-183-60-290 0-226 77-391 231-495 73-49 158-74 253-74zm0 194c-139 0-208 125-208 375s69 375 208 375c138 0 207-125 207-375s-69-375-207-375" id="bt"/><path fill="#3d4752" d="M431-770V0H168v-1094h263v110c156-133 232-175 396-74l-84 220c-129-52-218-25-312 68" id="bu"/><g id="m"><use transform="matrix(0.0087890625,0,0,0.0087890625,0,0)" xlink:href="#bm"/><use transform="matrix(0.0087890625,0,0,0.0087890625,12.6650390625,0)" xlink:href="#bn"/><use transform="matrix(0.0087890625,0,0,0.0087890625,22.798828125,0)" xlink:href="#bn"/><use transform="matrix(0.0087890625,0,0,0.0087890625,32.9326171875,0)" xlink:href="#aD"/><use transform="matrix(0.0087890625,0,0,0.0087890625,44.068359375,0)" xlink:href="#bo"/><use transform="matrix(0.0087890625,0,0,0.0087890625,55.86328125,0)" xlink:href="#aG"/><use transform="matrix(0.0087890625,0,0,0.0087890625,65.9970703125,0)" xlink:href="#bp"/><use transform="matrix(0.0087890625,0,0,0.0087890625,76.60546875,0)" xlink:href="#bq"/><use transform="matrix(0.0087890625,0,0,0.0087890625,87.328125,0)" xlink:href="#aG"/><use transform="matrix(0.0087890625,0,0,0.0087890625,97.4619140625,0)" xlink:href="#br"/><use transform="matrix(0.0087890625,0,0,0.0087890625,106.2861328125,0)" xlink:href="#bs"/><use transform="matrix(0.0087890625,0,0,0.0087890625,113.3876953125,0)" xlink:href="#bt"/><use transform="matrix(0.0087890625,0,0,0.0087890625,123.5390625,0)" xlink:href="#bu"/></g><g id="n"><use transform="matrix(0.05,0,0,0.05,0,0)" xlink:href="#bb"/><use transform="matrix(0.05,0,0,0.05,10.5,0)" xlink:href="#bh"/><use transform="matrix(0.05,0,0,0.05,20.5,0)" xlink:href="#aL"/><use transform="matrix(0.05,0,0,0.05,30.5,0)" xlink:href="#aN"/><use transform="matrix(0.05,0,0,0.05,35.5,0)" xlink:href="#aR"/><use transform="matrix(0.05,0,0,0.05,47.5,0)" xlink:href="#aS"/><use transform="matrix(0.05,0,0,0.05,51.45,0)" xlink:href="#aT"/><use transform="matrix(0.05,0,0,0.05,61.45,0)" xlink:href="#aN"/><use transform="matrix(0.05,0,0,0.05,66.45,0)" xlink:href="#aN"/><use transform="matrix(0.05,0,0,0.05,71.45,0)" xlink:href="#aU"/><use transform="matrix(0.05,0,0,0.05,81.45,0)" xlink:href="#aV"/><use transform="matrix(0.05,0,0,0.05,91.45,0)" xlink:href="#aS"/><use transform="matrix(0.05,0,0,0.05,95.4,0)" xlink:href="#aL"/><use transform="matrix(0.05,0,0,0.05,105.4,0)" xlink:href="#be"/><use transform="matrix(0.05,0,0,0.05,111.35000000000001,0)" xlink:href="#aM"/><use transform="matrix(0.05,0,0,0.05,121.35000000000001,0)" xlink:href="#aU"/><use transform="matrix(0.05,0,0,0.05,131.35000000000002,0)" xlink:href="#bf"/><use transform="matrix(0.05,0,0,0.05,146.3,0)" xlink:href="#aL"/><use transform="matrix(0.05,0,0,0.05,156.3,0)" xlink:href="#aQ"/></g><g id="o"><use transform="matrix(0.05,0,0,0.05,0,0)" xlink:href="#aR"/><use transform="matrix(0.05,0,0,0.05,12,0)" xlink:href="#aS"/><use transform="matrix(0.05,0,0,0.05,15.949999999999998,0)" xlink:href="#aT"/><use transform="matrix(0.05,0,0,0.05,25.950000000000003,0)" xlink:href="#aN"/><use transform="matrix(0.05,0,0,0.05,30.950000000000003,0)" xlink:href="#aN"/><use transform="matrix(0.05,0,0,0.05,35.95,0)" xlink:href="#aU"/><use transform="matrix(0.05,0,0,0.05,45.95,0)" xlink:href="#aV"/><use transform="matrix(0.05,0,0,0.05,55.95,0)" xlink:href="#aS"/><use transform="matrix(0.05,0,0,0.05,59.900000000000006,0)" xlink:href="#aL"/></g><path fill="#3d4752" d="M784-1116c178 0 282 88 282 264V0H803v-754c0-92-46-138-138-138-74 0-152 32-234 95V0H168v-1580h263v579c117-77 234-115 353-115" id="bv"/><path fill="#3d4752" d="M1282-743c0 396-250 743-634 743H205v-1489h417c437-2 660 295 660 746zM637-225c233 9 365-240 365-518 0-216-61-366-177-458-90-72-200-63-346-63v1039h158" id="bw"/><path fill="#3d4752" d="M431-1094V0H168v-1094h263zm0-190H168v-296h263v296" id="bx"/><path fill="#3d4752" d="M690-1116c279 0 423 232 423 527 0 261-67 439-196 539C782 54 551 41 431-69v481H168v-1506h253v93c71-77 160-115 269-115zM431-810v545c64 56 127 84 189 84 145 0 218-134 218-402 0-214-68-321-203-321-71 0-139 31-204 94" id="by"/><path fill="#3d4752" d="M446 22C216 22 155-90 155-336v-1244h263v1196c0 75 6 126 18 153 27 62 110 61 177 31l67 172C603 5 525 22 446 22" id="bz"/><path fill="#3d4752" d="M421-36L25-1094h272l251 717 263-717h249L649 1c-97 251-201 366-459 445L96 279c173-62 281-167 325-315" id="bA"/><g id="p"><use transform="matrix(0.0087890625,0,0,0.0087890625,0,0)" xlink:href="#aB"/><use transform="matrix(0.0087890625,0,0,0.0087890625,10.107421875,0)" xlink:href="#bv"/><use transform="matrix(0.0087890625,0,0,0.0087890625,20.830078125,0)" xlink:href="#aE"/><use transform="matrix(0.0087890625,0,0,0.0087890625,30.7353515625,0)" xlink:href="#bu"/><use transform="matrix(0.0087890625,0,0,0.0087890625,38.6279296875,0)" xlink:href="#bs"/><use transform="matrix(0.0087890625,0,0,0.0087890625,45.7294921875,0)" xlink:href="#bw"/><use transform="matrix(0.0087890625,0,0,0.0087890625,57.8935546875,0)" xlink:href="#bx"/><use transform="matrix(0.0087890625,0,0,0.0087890625,63.158203125,0)" xlink:href="#br"/><use transform="matrix(0.0087890625,0,0,0.0087890625,71.982421875,0)" xlink:href="#by"/><use transform="matrix(0.0087890625,0,0,0.0087890625,82.5908203125,0)" xlink:href="#bz"/><use transform="matrix(0.0087890625,0,0,0.0087890625,88.2861328125,0)" xlink:href="#aE"/><use transform="matrix(0.0087890625,0,0,0.0087890625,98.19140625,0)" xlink:href="#bA"/></g><path fill="#3d4752" d="M63-220v92h138v28H63V0H30v-248h175v28H63" id="bB"/><g id="q"><use transform="matrix(0.05,0,0,0.05,0,0)" xlink:href="#aH"/><use transform="matrix(0.05,0,0,0.05,5.95,0)" xlink:href="#aI"/><use transform="matrix(0.05,0,0,0.05,14.949999999999998,0)" xlink:href="#aJ"/><use transform="matrix(0.05,0,0,0.05,24.95,0)" xlink:href="#aK"/><use transform="matrix(0.05,0,0,0.05,30.899999999999995,0)" xlink:href="#aK"/><use transform="matrix(0.05,0,0,0.05,36.85,0)" xlink:href="#aL"/><use transform="matrix(0.05,0,0,0.05,46.85,0)" xlink:href="#aM"/><use transform="matrix(0.05,0,0,0.05,56.85,0)" xlink:href="#aN"/><use transform="matrix(0.05,0,0,0.05,61.85,0)" xlink:href="#bB"/><use transform="matrix(0.05,0,0,0.05,72.8,0)" xlink:href="#bg"/><use transform="matrix(0.05,0,0,0.05,76.75,0)" xlink:href="#aL"/><use transform="matrix(0.05,0,0,0.05,86.75,0)" xlink:href="#aS"/><use transform="matrix(0.05,0,0,0.05,90.7,0)" xlink:href="#aW"/><use transform="matrix(0.05,0,0,0.05,100.7,0)" xlink:href="#bc"/><use transform="matrix(0.05,0,0,0.05,109.7,0)" xlink:href="#aQ"/></g><path fill="#3d4752" d="M26 75v-336h71v23H56V52h41v23H26" id="bC"/><path fill="#3d4752" d="M3 75V52h41v-290H3v-23h71V75H3" id="bD"/><g id="r"><use transform="matrix(0.05,0,0,0.05,0,0)" xlink:href="#ba"/><use transform="matrix(0.05,0,0,0.05,12,0)" xlink:href="#aN"/><use transform="matrix(0.05,0,0,0.05,17,0)" xlink:href="#aK"/><use transform="matrix(0.05,0,0,0.05,22.95,0)" xlink:href="#bg"/><use transform="matrix(0.05,0,0,0.05,26.899999999999995,0)" xlink:href="#aM"/><use transform="matrix(0.05,0,0,0.05,36.9,0)" xlink:href="#bh"/><use transform="matrix(0.05,0,0,0.05,46.9,0)" xlink:href="#bC"/><use transform="matrix(0.05,0,0,0.05,51.900000000000006,0)" xlink:href="#bD"/></g><path fill="#3d4752" d="M233-177c-1 41-23 64-60 70L243 0h-38l-65-103H63V0H30v-248c88 3 205-21 203 71zM63-129c60-2 137 13 137-47 0-61-80-42-137-45v92" id="bE"/><g id="s"><use transform="matrix(0.05,0,0,0.05,0,0)" xlink:href="#aH"/><use transform="matrix(0.05,0,0,0.05,5.95,0)" xlink:href="#aI"/><use transform="matrix(0.05,0,0,0.05,14.949999999999998,0)" xlink:href="#aJ"/><use transform="matrix(0.05,0,0,0.05,24.95,0)" xlink:href="#aK"/><use transform="matrix(0.05,0,0,0.05,30.899999999999995,0)" xlink:href="#aK"/><use transform="matrix(0.05,0,0,0.05,36.85,0)" xlink:href="#aL"/><use transform="matrix(0.05,0,0,0.05,46.85,0)" xlink:href="#aM"/><use transform="matrix(0.05,0,0,0.05,56.85,0)" xlink:href="#aN"/><use transform="matrix(0.05,0,0,0.05,61.85,0)" xlink:href="#bE"/><use transform="matrix(0.05,0,0,0.05,74.8,0)" xlink:href="#aL"/><use transform="matrix(0.05,0,0,0.05,84.8,0)" xlink:href="#bc"/><use transform="matrix(0.05,0,0,0.05,93.8,0)" xlink:href="#aJ"/><use transform="matrix(0.05,0,0,0.05,103.80000000000001,0)" xlink:href="#aS"/><use transform="matrix(0.05,0,0,0.05,107.75,0)" xlink:href="#aN"/><use transform="matrix(0.05,0,0,0.05,112.75,0)" xlink:href="#aQ"/></g><g id="t"><use transform="matrix(0.05,0,0,0.05,0,0)" xlink:href="#bb"/><use transform="matrix(0.05,0,0,0.05,10.5,0)" xlink:href="#aW"/><use transform="matrix(0.05,0,0,0.05,20.5,0)" xlink:href="#bg"/><use transform="matrix(0.05,0,0,0.05,24.45,0)" xlink:href="#bc"/><use transform="matrix(0.05,0,0,0.05,33.45,0)" xlink:href="#bk"/><use transform="matrix(0.05,0,0,0.05,43.45,0)" xlink:href="#aS"/><use transform="matrix(0.05,0,0,0.05,47.400000000000006,0)" xlink:href="#aU"/><use transform="matrix(0.05,0,0,0.05,57.400000000000006,0)" xlink:href="#aP"/><use transform="matrix(0.05,0,0,0.05,66.4,0)" xlink:href="#be"/><use transform="matrix(0.05,0,0,0.05,72.35000000000001,0)" xlink:href="#aW"/><use transform="matrix(0.05,0,0,0.05,82.35000000000001,0)" xlink:href="#aU"/><use transform="matrix(0.05,0,0,0.05,92.35000000000001,0)" xlink:href="#aN"/><use transform="matrix(0.05,0,0,0.05,97.35000000000001,0)" xlink:href="#aU"/><use transform="matrix(0.05,0,0,0.05,107.35000000000001,0)" xlink:href="#aQ"/></g><g id="u"><use transform="matrix(0.05,0,0,0.05,0,0)" xlink:href="#bb"/><use transform="matrix(0.05,0,0,0.05,10.5,0)" xlink:href="#aJ"/><use transform="matrix(0.05,0,0,0.05,20.5,0)" xlink:href="#bk"/><use transform="matrix(0.05,0,0,0.05,30.5,0)" xlink:href="#aW"/><use transform="matrix(0.05,0,0,0.05,40.5,0)" xlink:href="#aU"/><use transform="matrix(0.05,0,0,0.05,50.5,0)" xlink:href="#aN"/><use transform="matrix(0.05,0,0,0.05,55.5,0)" xlink:href="#aL"/><use transform="matrix(0.05,0,0,0.05,65.5,0)" xlink:href="#bB"/><use transform="matrix(0.05,0,0,0.05,76.45,0)" xlink:href="#bg"/><use transform="matrix(0.05,0,0,0.05,80.4,0)" xlink:href="#aL"/><use transform="matrix(0.05,0,0,0.05,90.4,0)" xlink:href="#aS"/><use transform="matrix(0.05,0,0,0.05,94.35000000000001,0)" xlink:href="#aW"/><use transform="matrix(0.05,0,0,0.05,104.35000000000001,0)" xlink:href="#bc"/><use transform="matrix(0.05,0,0,0.05,113.35000000000001,0)" xlink:href="#be"/><use transform="matrix(0.05,0,0,0.05,119.30000000000001,0)" xlink:href="#aY"/><use transform="matrix(0.05,0,0,0.05,124.30000000000001,0)" xlink:href="#bg"/><use transform="matrix(0.05,0,0,0.05,128.25,0)" xlink:href="#aL"/><use transform="matrix(0.05,0,0,0.05,138.25,0)" xlink:href="#aS"/><use transform="matrix(0.05,0,0,0.05,142.2,0)" xlink:href="#aW"/><use transform="matrix(0.05,0,0,0.05,152.2,0)" xlink:href="#bc"/><use transform="matrix(0.05,0,0,0.05,161.2,0)" xlink:href="#aQ"/></g><g id="v"><use transform="matrix(0.05,0,0,0.05,0,0)" xlink:href="#ba"/><use transform="matrix(0.05,0,0,0.05,12,0)" xlink:href="#aN"/><use transform="matrix(0.05,0,0,0.05,17,0)" xlink:href="#aK"/><use transform="matrix(0.05,0,0,0.05,22.95,0)" xlink:href="#bg"/><use transform="matrix(0.05,0,0,0.05,26.899999999999995,0)" xlink:href="#aM"/><use transform="matrix(0.05,0,0,0.05,36.9,0)" xlink:href="#bh"/><use transform="matrix(0.05,0,0,0.05,46.9,0)" xlink:href="#bC"/><use transform="matrix(0.05,0,0,0.05,51.900000000000006,0)" xlink:href="#bD"/><use transform="matrix(0.05,0,0,0.05,56.900000000000006,0)" xlink:href="#bi"/><use transform="matrix(0.05,0,0,0.05,62.85,0)" xlink:href="#aQ"/></g><path d="M15-91v-56l181-69v40L49-119l147 57v40" id="bF"/><path d="M25-224v-37h50v37H25zM25 0v-190h50V0H25" id="bG"/><path d="M135-194c87-1 58 113 63 194h-50c-7-57 23-157-34-157-59 0-34 97-39 157H25l-1-190h47c2 12-1 28 3 38 12-26 28-41 61-42" id="bH"/><path d="M115-3C79 11 28 4 28-45v-112H4v-33h27l15-45h31v45h36v33H77v99c-1 23 16 31 38 25v30" id="bI"/><path d="M185-48c-13 30-37 53-82 52C43 2 14-33 14-96s30-98 90-98c62 0 83 45 84 108H66c0 31 8 55 39 56 18 0 30-7 34-22zm-45-69c5-46-57-63-70-21-2 6-4 13-4 21h74" id="bJ"/><path d="M135-150c-39-12-60 13-60 57V0H25l-1-190h47c2 13-1 29 3 40 6-28 27-53 61-41v41" id="bK"/><path d="M121-226c-27-7-43 5-38 36h38v33H83V0H34v-157H6v-33h28c-9-59 32-81 87-68v32" id="bL"/><path d="M133-34C117-15 103 5 69 4 32 3 11-16 11-54c-1-60 55-63 116-61 1-26-3-47-28-47-18 1-26 9-28 27l-52-2c7-38 36-58 82-57s74 22 75 68l1 82c-1 14 12 18 25 15v27c-30 8-71 5-69-32zm-48 3c29 0 43-24 42-57-32 0-66-3-65 30 0 17 8 27 23 27" id="bM"/><path d="M190-63c-7 42-38 67-86 67-59 0-84-38-90-98-12-110 154-137 174-36l-49 2c-2-19-15-32-35-32-30 0-35 28-38 64-6 74 65 87 74 30" id="bN"/><path d="M15-22v-40l146-57-146-57v-40l181 69v56" id="bO"/><g id="w"><use transform="matrix(0.05,0,0,0.05,0,0)" xlink:href="#bF"/><use transform="matrix(0.05,0,0,0.05,10.5,0)" xlink:href="#bF"/><use transform="matrix(0.05,0,0,0.05,21,0)" xlink:href="#bG"/><use transform="matrix(0.05,0,0,0.05,26,0)" xlink:href="#bH"/><use transform="matrix(0.05,0,0,0.05,36.95,0)" xlink:href="#bI"/><use transform="matrix(0.05,0,0,0.05,42.900000000000006,0)" xlink:href="#bJ"/><use transform="matrix(0.05,0,0,0.05,52.900000000000006,0)" xlink:href="#bK"/><use transform="matrix(0.05,0,0,0.05,59.900000000000006,0)" xlink:href="#bL"/><use transform="matrix(0.05,0,0,0.05,65.85000000000001,0)" xlink:href="#bM"/><use transform="matrix(0.05,0,0,0.05,75.85000000000001,0)" xlink:href="#bN"/><use transform="matrix(0.05,0,0,0.05,85.85000000000001,0)" xlink:href="#bJ"/><use transform="matrix(0.05,0,0,0.05,95.85000000000001,0)" xlink:href="#bO"/><use transform="matrix(0.05,0,0,0.05,106.35000000000001,0)" xlink:href="#bO"/></g><path d="M24-248c93 1 206-16 204 79-1 75-69 88-152 82V0H24v-248zm52 121c47 0 100 7 100-41 0-47-54-39-100-39v80" id="bP"/><path d="M25 0v-261h50V0H25" id="bQ"/><path d="M110-194c64 0 96 36 96 99 0 64-35 99-97 99-61 0-95-36-95-99 0-62 34-99 96-99zm-1 164c35 0 45-28 45-65 0-40-10-65-43-65-34 0-45 26-45 65 0 36 10 65 43 65" id="bR"/><path d="M135-194c52 0 70 43 70 98 0 56-19 99-73 100-30 1-46-15-58-35L72 0H24l1-261h50v104c11-23 29-37 60-37zM114-30c31 0 40-27 40-66 0-37-7-63-39-63s-41 28-41 65c0 36 8 64 40 64" id="bS"/><g id="x"><use transform="matrix(0.05,0,0,0.05,0,0)" xlink:href="#bP"/><use transform="matrix(0.05,0,0,0.05,12,0)" xlink:href="#bQ"/><use transform="matrix(0.05,0,0,0.05,17,0)" xlink:href="#bR"/><use transform="matrix(0.05,0,0,0.05,27.950000000000003,0)" xlink:href="#bI"/><use transform="matrix(0.05,0,0,0.05,33.900000000000006,0)" xlink:href="#bI"/><use transform="matrix(0.05,0,0,0.05,39.85000000000001,0)" xlink:href="#bM"/><use transform="matrix(0.05,0,0,0.05,49.85000000000001,0)" xlink:href="#bS"/><use transform="matrix(0.05,0,0,0.05,60.80000000000001,0)" xlink:href="#bQ"/><use transform="matrix(0.05,0,0,0.05,65.80000000000001,0)" xlink:href="#bJ"/></g><path d="M118-107v75H92v-75H18v-26h74v-75h26v75h74v26h-74" id="bT"/><path d="M177-190C167-65 218 103 67 71c-23-6-38-20-44-43l32-5c15 47 100 32 89-28v-30C133-14 115 1 83 1 29 1 15-40 15-95c0-56 16-97 71-98 29-1 48 16 59 35 1-10 0-23 2-32h30zM94-22c36 0 50-32 50-73 0-42-14-75-50-75-39 0-46 34-46 75s6 73 46 73" id="bU"/><path d="M100-194c63 0 86 42 84 106H49c0 40 14 67 53 68 26 1 43-12 49-29l28 8c-11 28-37 45-77 45C44 4 14-33 15-96c1-61 26-98 85-98zm52 81c6-60-76-77-97-28-3 7-6 17-6 28h103" id="bV"/><path d="M59-47c-2 24 18 29 38 22v24C64 9 27 4 27-40v-127H5v-23h24l9-43h21v43h35v23H59v120" id="bW"/><path d="M63-220v92h138v28H63V0H30v-248h175v28H63" id="bX"/><path d="M24-231v-30h32v30H24zM24 0v-190h32V0H24" id="bY"/><path d="M24 0v-261h32V0H24" id="bZ"/><path d="M85-194c31 0 48 13 60 33l-1-100h32l1 261h-30c-2-10 0-23-3-31C134-8 116 4 85 4 32 4 16-35 15-94c0-66 23-100 70-100zm9 24c-40 0-46 34-46 75 0 40 6 74 45 74 42 0 51-32 51-76 0-42-9-74-50-73" id="ca"/><path d="M30-248c118-7 216 8 213 122C240-48 200 0 122 0H30v-248zM63-27c89 8 146-16 146-99s-60-101-146-95v194" id="cb"/><path d="M141-36C126-15 110 5 73 4 37 3 15-17 15-53c-1-64 63-63 125-63 3-35-9-54-41-54-24 1-41 7-42 31l-33-3c5-37 33-52 76-52 45 0 72 20 72 64v82c-1 20 7 32 28 27v20c-31 9-61-2-59-35zM48-53c0 20 12 33 32 33 41-3 63-29 60-74-43 2-92-5-92 41" id="cc"/><path d="M87 75C49 33 22-17 22-94c0-76 28-126 65-167h31c-38 41-64 92-64 168S80 34 118 75H87" id="cd"/><path d="M101-234c-31-9-42 10-38 44h38v23H63V0H32v-167H5v-23h27c-7-52 17-82 69-68v24" id="ce"/><path d="M33-154v-36h34v36H33zM33 0v-36h34V0H33" id="cf"/><g id="y"><use transform="matrix(0.05,0,0,0.05,0,0)" xlink:href="#bT"/><use transform="matrix(0.05,0,0,0.05,10.5,0)" xlink:href="#bU"/><use transform="matrix(0.05,0,0,0.05,20.5,0)" xlink:href="#bV"/><use transform="matrix(0.05,0,0,0.05,30.5,0)" xlink:href="#bW"/><use transform="matrix(0.05,0,0,0.05,35.5,0)" xlink:href="#bX"/><use transform="matrix(0.05,0,0,0.05,46.45,0)" xlink:href="#bY"/><use transform="matrix(0.05,0,0,0.05,50.400000000000006,0)" xlink:href="#bV"/><use transform="matrix(0.05,0,0,0.05,60.400000000000006,0)" xlink:href="#bZ"/><use transform="matrix(0.05,0,0,0.05,64.35000000000001,0)" xlink:href="#ca"/><use transform="matrix(0.05,0,0,0.05,74.35000000000001,0)" xlink:href="#cb"/><use transform="matrix(0.05,0,0,0.05,87.30000000000001,0)" xlink:href="#cc"/><use transform="matrix(0.05,0,0,0.05,97.30000000000001,0)" xlink:href="#bW"/><use transform="matrix(0.05,0,0,0.05,102.30000000000001,0)" xlink:href="#cc"/><use transform="matrix(0.05,0,0,0.05,112.30000000000001,0)" xlink:href="#cd"/><use transform="matrix(0.05,0,0,0.05,118.25,0)" xlink:href="#ce"/><use transform="matrix(0.05,0,0,0.05,123.25,0)" xlink:href="#bY"/><use transform="matrix(0.05,0,0,0.05,127.2,0)" xlink:href="#bV"/><use transform="matrix(0.05,0,0,0.05,137.20000000000002,0)" xlink:href="#bZ"/><use transform="matrix(0.05,0,0,0.05,141.15,0)" xlink:href="#ca"/><use transform="matrix(0.05,0,0,0.05,151.15,0)" xlink:href="#cf"/></g><path d="M33-261c38 41 65 92 65 168S71 34 33 75H2C39 34 66-17 66-93S39-220 2-261h31" id="cg"/><g id="z"><use transform="matrix(0.05,0,0,0.05,0,0)" xlink:href="#bX"/><use transform="matrix(0.05,0,0,0.05,10.950000000000001,0)" xlink:href="#bY"/><use transform="matrix(0.05,0,0,0.05,14.9,0)" xlink:href="#bV"/><use transform="matrix(0.05,0,0,0.05,24.900000000000002,0)" xlink:href="#bZ"/><use transform="matrix(0.05,0,0,0.05,28.85,0)" xlink:href="#ca"/><use transform="matrix(0.05,0,0,0.05,38.85,0)" xlink:href="#cg"/><use transform="matrix(0.05,0,0,0.05,44.800000000000004,0)" xlink:href="#cf"/></g><path d="M117-194c89-4 53 116 60 194h-32v-121c0-31-8-49-39-48C34-167 62-67 57 0H25l-1-190h30c1 10-1 24 2 32 11-22 29-35 61-36" id="ch"/><path d="M26 75v-336h71v23H56V52h41v23H26" id="ci"/><path d="M3 75V52h41v-290H3v-23h71V75H3" id="cj"/><g id="A"><use transform="matrix(0.05,0,0,0.05,0,0)" xlink:href="#bY"/><use transform="matrix(0.05,0,0,0.05,3.95,0)" xlink:href="#ch"/><use transform="matrix(0.05,0,0,0.05,13.949999999999998,0)" xlink:href="#bW"/><use transform="matrix(0.05,0,0,0.05,18.95,0)" xlink:href="#ci"/><use transform="matrix(0.05,0,0,0.05,23.95,0)" xlink:href="#cj"/></g><path d="M30 0v-248h33v221h125V0H30" id="ck"/><path d="M135-143c-3-34-86-38-87 0 15 53 115 12 119 90S17 21 10-45l28-5c4 36 97 45 98 0-10-56-113-15-118-90-4-57 82-63 122-42 12 7 21 19 24 35" id="cl"/><g id="B"><use transform="matrix(0.05,0,0,0.05,0,0)" xlink:href="#bT"/><use transform="matrix(0.05,0,0,0.05,10.5,0)" xlink:href="#bU"/><use transform="matrix(0.05,0,0,0.05,20.5,0)" xlink:href="#bV"/><use transform="matrix(0.05,0,0,0.05,30.5,0)" xlink:href="#bW"/><use transform="matrix(0.05,0,0,0.05,35.5,0)" xlink:href="#bX"/><use transform="matrix(0.05,0,0,0.05,46.45,0)" xlink:href="#bY"/><use transform="matrix(0.05,0,0,0.05,50.400000000000006,0)" xlink:href="#bV"/><use transform="matrix(0.05,0,0,0.05,60.400000000000006,0)" xlink:href="#bZ"/><use transform="matrix(0.05,0,0,0.05,64.35000000000001,0)" xlink:href="#ca"/><use transform="matrix(0.05,0,0,0.05,74.35000000000001,0)" xlink:href="#ck"/><use transform="matrix(0.05,0,0,0.05,84.35000000000001,0)" xlink:href="#bY"/><use transform="matrix(0.05,0,0,0.05,88.30000000000001,0)" xlink:href="#cl"/><use transform="matrix(0.05,0,0,0.05,97.30000000000001,0)" xlink:href="#bW"/><use transform="matrix(0.05,0,0,0.05,102.30000000000001,0)" xlink:href="#cd"/><use transform="matrix(0.05,0,0,0.05,108.25,0)" xlink:href="#cg"/><use transform="matrix(0.05,0,0,0.05,114.2,0)" xlink:href="#cf"/></g><g id="C"><use transform="matrix(0.05,0,0,0.05,0,0)" xlink:href="#bX"/><use transform="matrix(0.05,0,0,0.05,10.950000000000001,0)" xlink:href="#bY"/><use transform="matrix(0.05,0,0,0.05,14.9,0)" xlink:href="#bV"/><use transform="matrix(0.05,0,0,0.05,24.900000000000002,0)" xlink:href="#bZ"/><use transform="matrix(0.05,0,0,0.05,28.85,0)" xlink:href="#ca"/><use transform="matrix(0.05,0,0,0.05,38.85,0)" xlink:href="#ci"/><use transform="matrix(0.05,0,0,0.05,43.85,0)" xlink:href="#cj"/></g><path d="M137 0h-34L2-248h35l83 218 83-218h36" id="cm"/><g id="D"><use transform="matrix(0.05,0,0,0.05,0,0)" xlink:href="#bT"/><use transform="matrix(0.05,0,0,0.05,10.5,0)" xlink:href="#bU"/><use transform="matrix(0.05,0,0,0.05,20.5,0)" xlink:href="#bV"/><use transform="matrix(0.05,0,0,0.05,30.5,0)" xlink:href="#bW"/><use transform="matrix(0.05,0,0,0.05,35.5,0)" xlink:href="#cm"/><use transform="matrix(0.05,0,0,0.05,46.15,0)" xlink:href="#cc"/><use transform="matrix(0.05,0,0,0.05,56.150000000000006,0)" xlink:href="#bZ"/><use transform="matrix(0.05,0,0,0.05,60.1,0)" xlink:href="#bY"/><use transform="matrix(0.05,0,0,0.05,64.05,0)" xlink:href="#ca"/><use transform="matrix(0.05,0,0,0.05,74.05,0)" xlink:href="#cd"/><use transform="matrix(0.05,0,0,0.05,80,0)" xlink:href="#cg"/><use transform="matrix(0.05,0,0,0.05,85.95,0)" xlink:href="#cf"/></g><path d="M160-131c35 5 61 23 61 61C221 17 115-2 30 0v-248c76 3 177-17 177 60 0 33-19 50-47 57zm-97-11c50-1 110 9 110-42 0-47-63-36-110-37v79zm0 115c55-2 124 14 124-45 0-56-70-42-124-44v89" id="cn"/><path d="M100-194c62-1 85 37 85 99 1 63-27 99-86 99S16-35 15-95c0-66 28-99 85-99zM99-20c44 1 53-31 53-75 0-43-8-75-51-75s-53 32-53 75 10 74 51 75" id="co"/><g id="E"><use transform="matrix(0.05,0,0,0.05,0,0)" xlink:href="#cn"/><use transform="matrix(0.05,0,0,0.05,12,0)" xlink:href="#co"/><use transform="matrix(0.05,0,0,0.05,22,0)" xlink:href="#co"/><use transform="matrix(0.05,0,0,0.05,32,0)" xlink:href="#bZ"/><use transform="matrix(0.05,0,0,0.05,35.95,0)" xlink:href="#bV"/><use transform="matrix(0.05,0,0,0.05,45.95,0)" xlink:href="#cc"/><use transform="matrix(0.05,0,0,0.05,55.95,0)" xlink:href="#ch"/></g><path d="M27 0v-27h64v-190l-56 39v-29l58-41h29v221h61V0H27" id="cp"/><use transform="matrix(0.05,0,0,0.05,0,0)" xlink:href="#cp" id="F"/><path d="M24 0v-248h52v208h133V0H24" id="cq"/><path d="M85 4C-2 5 27-109 22-190h50c7 57-23 150 33 157 60-5 35-97 40-157h50l1 190h-47c-2-12 1-28-3-38-12 25-28 42-61 42" id="cr"/><g id="G"><use transform="matrix(0.05,0,0,0.05,0,0)" xlink:href="#cq"/><use transform="matrix(0.05,0,0,0.05,10.950000000000001,0)" xlink:href="#bJ"/><use transform="matrix(0.05,0,0,0.05,20.950000000000003,0)" xlink:href="#bN"/><use transform="matrix(0.05,0,0,0.05,30.950000000000003,0)" xlink:href="#bI"/><use transform="matrix(0.05,0,0,0.05,36.900000000000006,0)" xlink:href="#cr"/><use transform="matrix(0.05,0,0,0.05,47.85000000000001,0)" xlink:href="#bK"/><use transform="matrix(0.05,0,0,0.05,54.85,0)" xlink:href="#bJ"/><use transform="matrix(0.05,0,0,0.05,64.85000000000001,0)" xlink:href="#bK"/></g><path d="M16-82v-28h88v28H16" id="cs"/><path d="M210-169c-67 3-38 105-44 169h-31v-121c0-29-5-50-35-48C34-165 62-65 56 0H25l-1-190h30c1 10-1 24 2 32 10-44 99-50 107 0 11-21 27-35 58-36 85-2 47 119 55 194h-31v-121c0-29-5-49-35-48" id="ct"/><g id="H"><use transform="matrix(0.05,0,0,0.05,0,0)" xlink:href="#cs"/><use transform="matrix(0.05,0,0,0.05,5.95,0)" xlink:href="#ch"/><use transform="matrix(0.05,0,0,0.05,15.949999999999998,0)" xlink:href="#cc"/><use transform="matrix(0.05,0,0,0.05,25.950000000000003,0)" xlink:href="#ct"/><use transform="matrix(0.05,0,0,0.05,40.9,0)" xlink:href="#bV"/><use transform="matrix(0.05,0,0,0.05,50.9,0)" xlink:href="#cf"/></g><path d="M185-189c-5-48-123-54-124 2 14 75 158 14 163 119 3 78-121 87-175 55-17-10-28-26-33-46l33-7c5 56 141 63 141-1 0-78-155-14-162-118-5-82 145-84 179-34 5 7 8 16 11 25" id="cu"/><path d="M114-163C36-179 61-72 57 0H25l-1-190h30c1 12-1 29 2 39 6-27 23-49 58-41v29" id="cv"/><g id="I"><use transform="matrix(0.05,0,0,0.05,0,0)" xlink:href="#cu"/><use transform="matrix(0.05,0,0,0.05,12,0)" xlink:href="#bW"/><use transform="matrix(0.05,0,0,0.05,17,0)" xlink:href="#cv"/><use transform="matrix(0.05,0,0,0.05,22.95,0)" xlink:href="#bY"/><use transform="matrix(0.05,0,0,0.05,26.899999999999995,0)" xlink:href="#ch"/><use transform="matrix(0.05,0,0,0.05,36.9,0)" xlink:href="#bU"/></g><g id="J"><use transform="matrix(0.05,0,0,0.05,0,0)" xlink:href="#cs"/><use transform="matrix(0.05,0,0,0.05,5.95,0)" xlink:href="#ce"/><use transform="matrix(0.05,0,0,0.05,10.95,0)" xlink:href="#bY"/><use transform="matrix(0.05,0,0,0.05,14.899999999999999,0)" xlink:href="#bV"/><use transform="matrix(0.05,0,0,0.05,24.9,0)" xlink:href="#bZ"/><use transform="matrix(0.05,0,0,0.05,28.849999999999994,0)" xlink:href="#ca"/><use transform="matrix(0.05,0,0,0.05,38.849999999999994,0)" xlink:href="#ck"/><use transform="matrix(0.05,0,0,0.05,48.849999999999994,0)" xlink:href="#bY"/><use transform="matrix(0.05,0,0,0.05,52.79999999999999,0)" xlink:href="#cl"/><use transform="matrix(0.05,0,0,0.05,61.79999999999999,0)" xlink:href="#bW"/><use transform="matrix(0.05,0,0,0.05,66.8,0)" xlink:href="#cf"/></g><g id="K"><use transform="matrix(0.05,0,0,0.05,0,0)" xlink:href="#bX"/><use transform="matrix(0.05,0,0,0.05,10.950000000000001,0)" xlink:href="#bY"/><use transform="matrix(0.05,0,0,0.05,14.9,0)" xlink:href="#bV"/><use transform="matrix(0.05,0,0,0.05,24.900000000000002,0)" xlink:href="#bZ"/><use transform="matrix(0.05,0,0,0.05,28.85,0)" xlink:href="#ca"/><use transform="matrix(0.05,0,0,0.05,38.85,0)" xlink:href="#ci"/><use transform="matrix(0.05,0,0,0.05,43.85,0)" xlink:href="#cj"/></g><path d="M108 0H70L1-190h34L89-25l56-165h34" id="cw"/><g id="L"><use transform="matrix(0.05,0,0,0.05,0,0)" xlink:href="#cs"/><use transform="matrix(0.05,0,0,0.05,5.95,0)" xlink:href="#cw"/><use transform="matrix(0.05,0,0,0.05,14.949999999999998,0)" xlink:href="#cc"/><use transform="matrix(0.05,0,0,0.05,24.95,0)" xlink:href="#bZ"/><use transform="matrix(0.05,0,0,0.05,28.899999999999995,0)" xlink:href="#bY"/><use transform="matrix(0.05,0,0,0.05,32.85,0)" xlink:href="#ca"/><use transform="matrix(0.05,0,0,0.05,42.85,0)" xlink:href="#cf"/></g><g id="M"><use transform="matrix(0.05,0,0,0.05,0,0)" xlink:href="#cn"/><use transform="matrix(0.05,0,0,0.05,12,0)" xlink:href="#co"/><use transform="matrix(0.05,0,0,0.05,22,0)" xlink:href="#co"/><use transform="matrix(0.05,0,0,0.05,32,0)" xlink:href="#bZ"/><use transform="matrix(0.05,0,0,0.05,35.95,0)" xlink:href="#bV"/><use transform="matrix(0.05,0,0,0.05,45.95,0)" xlink:href="#cc"/><use transform="matrix(0.05,0,0,0.05,55.95,0)" xlink:href="#ch"/></g><path d="M96-169c-40 0-48 33-48 73s9 75 48 75c24 0 41-14 43-38l32 2c-6 37-31 61-74 61-59 0-76-41-82-99-10-93 101-131 147-64 4 7 5 14 7 22l-32 3c-4-21-16-35-41-35" id="cx"/><path d="M84 4C-5 8 30-112 23-190h32v120c0 31 7 50 39 49 72-2 45-101 50-169h31l1 190h-30c-1-10 1-25-2-33-11 22-28 36-60 37" id="cy"/><g id="N"><use transform="matrix(0.05,0,0,0.05,0,0)" xlink:href="#bT"/><use transform="matrix(0.05,0,0,0.05,10.5,0)" xlink:href="#ck"/><use transform="matrix(0.05,0,0,0.05,20.5,0)" xlink:href="#bV"/><use transform="matrix(0.05,0,0,0.05,30.5,0)" xlink:href="#cx"/><use transform="matrix(0.05,0,0,0.05,39.5,0)" xlink:href="#bW"/><use transform="matrix(0.05,0,0,0.05,44.5,0)" xlink:href="#cy"/><use transform="matrix(0.05,0,0,0.05,54.5,0)" xlink:href="#cv"/><use transform="matrix(0.05,0,0,0.05,60.45,0)" xlink:href="#bV"/><use transform="matrix(0.05,0,0,0.05,70.45,0)" xlink:href="#cv"/><use transform="matrix(0.05,0,0,0.05,76.4,0)" xlink:href="#cd"/><use transform="matrix(0.05,0,0,0.05,82.35000000000001,0)" xlink:href="#ch"/><use transform="matrix(0.05,0,0,0.05,92.35000000000001,0)" xlink:href="#cc"/><use transform="matrix(0.05,0,0,0.05,102.35000000000001,0)" xlink:href="#ct"/><use transform="matrix(0.05,0,0,0.05,117.30000000000001,0)" xlink:href="#bV"/><use transform="matrix(0.05,0,0,0.05,127.30000000000001,0)" xlink:href="#cf"/></g><g id="O"><use transform="matrix(0.05,0,0,0.05,0,0)" xlink:href="#cu"/><use transform="matrix(0.05,0,0,0.05,12,0)" xlink:href="#bW"/><use transform="matrix(0.05,0,0,0.05,17,0)" xlink:href="#cv"/><use transform="matrix(0.05,0,0,0.05,22.95,0)" xlink:href="#bY"/><use transform="matrix(0.05,0,0,0.05,26.899999999999995,0)" xlink:href="#ch"/><use transform="matrix(0.05,0,0,0.05,36.9,0)" xlink:href="#bU"/><use transform="matrix(0.05,0,0,0.05,46.9,0)" xlink:href="#cg"/></g><path d="M190 0L58-211 59 0H30v-248h39L202-35l-2-213h31V0h-41" id="cz"/><g id="P"><use transform="matrix(0.05,0,0,0.05,0,0)" xlink:href="#bT"/><use transform="matrix(0.05,0,0,0.05,10.5,0)" xlink:href="#bU"/><use transform="matrix(0.05,0,0,0.05,20.5,0)" xlink:href="#bV"/><use transform="matrix(0.05,0,0,0.05,30.5,0)" xlink:href="#bW"/><use transform="matrix(0.05,0,0,0.05,35.5,0)" xlink:href="#ck"/><use transform="matrix(0.05,0,0,0.05,45.5,0)" xlink:href="#bV"/><use transform="matrix(0.05,0,0,0.05,55.5,0)" xlink:href="#cx"/><use transform="matrix(0.05,0,0,0.05,64.5,0)" xlink:href="#bW"/><use transform="matrix(0.05,0,0,0.05,69.5,0)" xlink:href="#cy"/><use transform="matrix(0.05,0,0,0.05,79.5,0)" xlink:href="#cv"/><use transform="matrix(0.05,0,0,0.05,85.45,0)" xlink:href="#bV"/><use transform="matrix(0.05,0,0,0.05,95.45,0)" xlink:href="#cv"/><use transform="matrix(0.05,0,0,0.05,101.4,0)" xlink:href="#cz"/><use transform="matrix(0.05,0,0,0.05,114.35000000000001,0)" xlink:href="#cc"/><use transform="matrix(0.05,0,0,0.05,124.35000000000001,0)" xlink:href="#ct"/><use transform="matrix(0.05,0,0,0.05,139.3,0)" xlink:href="#bV"/><use transform="matrix(0.05,0,0,0.05,149.3,0)" xlink:href="#cd"/><use transform="matrix(0.05,0,0,0.05,155.25,0)" xlink:href="#cg"/><use transform="matrix(0.05,0,0,0.05,161.2,0)" xlink:href="#cf"/></g><g id="Q"><use transform="matrix(0.05,0,0,0.05,0,0)" xlink:href="#cu"/><use transform="matrix(0.05,0,0,0.05,12,0)" xlink:href="#bW"/><use transform="matrix(0.05,0,0,0.05,17,0)" xlink:href="#cv"/><use transform="matrix(0.05,0,0,0.05,22.95,0)" xlink:href="#bY"/><use transform="matrix(0.05,0,0,0.05,26.899999999999995,0)" xlink:href="#ch"/><use transform="matrix(0.05,0,0,0.05,36.9,0)" xlink:href="#bU"/></g><path d="M67-125c0 53 21 87 73 88 37 1 54-22 65-47l45 17C233-25 199 4 140 4 58 4 20-42 15-125 8-235 124-281 211-232c18 10 29 29 36 50l-46 12c-8-25-30-41-62-41-52 0-71 34-72 86" id="cA"/><path d="M137-138c1-29-70-34-71-4 15 46 118 7 119 86 1 83-164 76-172 9l43-7c4 19 20 25 44 25 33 8 57-30 24-41C81-84 22-81 20-136c-2-80 154-74 161-7" id="cB"/><g id="R"><use transform="matrix(0.05,0,0,0.05,0,0)" xlink:href="#cA"/><use transform="matrix(0.05,0,0,0.05,12.950000000000001,0)" xlink:href="#bR"/><use transform="matrix(0.05,0,0,0.05,23.900000000000002,0)" xlink:href="#cr"/><use transform="matrix(0.05,0,0,0.05,34.85,0)" xlink:href="#bK"/><use transform="matrix(0.05,0,0,0.05,41.85,0)" xlink:href="#cB"/><use transform="matrix(0.05,0,0,0.05,51.85,0)" xlink:href="#bJ"/></g><path d="M212-179c-10-28-35-45-73-45-59 0-87 40-87 99 0 60 29 101 89 101 43 0 62-24 78-52l27 14C228-24 195 4 139 4 59 4 22-46 18-125c-6-104 99-153 187-111 19 9 31 26 39 46" id="cC"/><g id="S"><use transform="matrix(0.05,0,0,0.05,0,0)" xlink:href="#cs"/><use transform="matrix(0.05,0,0,0.05,5.95,0)" xlink:href="#cx"/><use transform="matrix(0.05,0,0,0.05,14.949999999999998,0)" xlink:href="#co"/><use transform="matrix(0.05,0,0,0.05,24.95,0)" xlink:href="#cy"/><use transform="matrix(0.05,0,0,0.05,34.95,0)" xlink:href="#cv"/><use transform="matrix(0.05,0,0,0.05,40.900000000000006,0)" xlink:href="#cl"/><use transform="matrix(0.05,0,0,0.05,49.900000000000006,0)" xlink:href="#bV"/><use transform="matrix(0.05,0,0,0.05,59.900000000000006,0)" xlink:href="#cC"/><use transform="matrix(0.05,0,0,0.05,72.85000000000001,0)" xlink:href="#co"/><use transform="matrix(0.05,0,0,0.05,82.85000000000001,0)" xlink:href="#ca"/><use transform="matrix(0.05,0,0,0.05,92.85000000000001,0)" xlink:href="#bV"/><use transform="matrix(0.05,0,0,0.05,102.85000000000001,0)" xlink:href="#cf"/></g><g id="T"><use transform="matrix(0.05,0,0,0.05,0,0)" xlink:href="#bT"/><use transform="matrix(0.05,0,0,0.05,10.5,0)" xlink:href="#cC"/><use transform="matrix(0.05,0,0,0.05,23.450000000000003,0)" xlink:href="#co"/><use transform="matrix(0.05,0,0,0.05,33.45,0)" xlink:href="#cy"/><use transform="matrix(0.05,0,0,0.05,43.45,0)" xlink:href="#cv"/><use transform="matrix(0.05,0,0,0.05,49.400000000000006,0)" xlink:href="#cl"/><use transform="matrix(0.05,0,0,0.05,58.400000000000006,0)" xlink:href="#bV"/><use transform="matrix(0.05,0,0,0.05,68.4,0)" xlink:href="#cd"/><use transform="matrix(0.05,0,0,0.05,74.35000000000001,0)" xlink:href="#cx"/><use transform="matrix(0.05,0,0,0.05,83.35000000000001,0)" xlink:href="#co"/><use transform="matrix(0.05,0,0,0.05,93.35000000000001,0)" xlink:href="#cy"/><use transform="matrix(0.05,0,0,0.05,103.35000000000001,0)" xlink:href="#cv"/><use transform="matrix(0.05,0,0,0.05,109.30000000000001,0)" xlink:href="#cl"/><use transform="matrix(0.05,0,0,0.05,118.30000000000001,0)" xlink:href="#bV"/><use transform="matrix(0.05,0,0,0.05,128.3,0)" xlink:href="#cC"/><use transform="matrix(0.05,0,0,0.05,141.25,0)" xlink:href="#co"/><use transform="matrix(0.05,0,0,0.05,151.25,0)" xlink:href="#ca"/><use transform="matrix(0.05,0,0,0.05,161.25,0)" xlink:href="#bV"/><use transform="matrix(0.05,0,0,0.05,171.25,0)" xlink:href="#cf"/></g><g id="U"><use transform="matrix(0.05,0,0,0.05,0,0)" xlink:href="#bT"/><use transform="matrix(0.05,0,0,0.05,10.5,0)" xlink:href="#bU"/><use transform="matrix(0.05,0,0,0.05,20.5,0)" xlink:href="#bV"/><use transform="matrix(0.05,0,0,0.05,30.5,0)" xlink:href="#bW"/><use transform="matrix(0.05,0,0,0.05,35.5,0)" xlink:href="#cC"/><use transform="matrix(0.05,0,0,0.05,48.45,0)" xlink:href="#co"/><use transform="matrix(0.05,0,0,0.05,58.45,0)" xlink:href="#cy"/><use transform="matrix(0.05,0,0,0.05,68.45,0)" xlink:href="#cv"/><use transform="matrix(0.05,0,0,0.05,74.4,0)" xlink:href="#cl"/><use transform="matrix(0.05,0,0,0.05,83.4,0)" xlink:href="#bV"/><use transform="matrix(0.05,0,0,0.05,93.4,0)" xlink:href="#cC"/><use transform="matrix(0.05,0,0,0.05,106.35000000000001,0)" xlink:href="#co"/><use transform="matrix(0.05,0,0,0.05,116.35000000000001,0)" xlink:href="#ca"/><use transform="matrix(0.05,0,0,0.05,126.35000000000001,0)" xlink:href="#bV"/><use transform="matrix(0.05,0,0,0.05,136.35000000000002,0)" xlink:href="#cd"/><use transform="matrix(0.05,0,0,0.05,142.3,0)" xlink:href="#cg"/><use transform="matrix(0.05,0,0,0.05,148.25,0)" xlink:href="#cf"/></g><g id="V"><use transform="matrix(0.05,0,0,0.05,0,0)" xlink:href="#bX"/><use transform="matrix(0.05,0,0,0.05,10.950000000000001,0)" xlink:href="#bY"/><use transform="matrix(0.05,0,0,0.05,14.9,0)" xlink:href="#bV"/><use transform="matrix(0.05,0,0,0.05,24.900000000000002,0)" xlink:href="#bZ"/><use transform="matrix(0.05,0,0,0.05,28.85,0)" xlink:href="#ca"/></g><g id="W"><use transform="matrix(0.05,0,0,0.05,0,0)" xlink:href="#cs"/><use transform="matrix(0.05,0,0,0.05,5.95,0)" xlink:href="#cw"/><use transform="matrix(0.05,0,0,0.05,14.949999999999998,0)" xlink:href="#cc"/><use transform="matrix(0.05,0,0,0.05,24.95,0)" xlink:href="#bZ"/><use transform="matrix(0.05,0,0,0.05,28.899999999999995,0)" xlink:href="#cy"/><use transform="matrix(0.05,0,0,0.05,38.9,0)" xlink:href="#bV"/><use transform="matrix(0.05,0,0,0.05,48.9,0)" xlink:href="#cl"/><use transform="matrix(0.05,0,0,0.05,57.900000000000006,0)" xlink:href="#cf"/></g><g id="X"><use transform="matrix(0.05,0,0,0.05,0,0)" xlink:href="#bY"/><use transform="matrix(0.05,0,0,0.05,3.95,0)" xlink:href="#ch"/><use transform="matrix(0.05,0,0,0.05,13.949999999999998,0)" xlink:href="#bW"/><use transform="matrix(0.05,0,0,0.05,18.95,0)" xlink:href="#ci"/><use transform="matrix(0.05,0,0,0.05,23.95,0)" xlink:href="#cj"/></g><g id="Y"><use transform="matrix(0.05,0,0,0.05,0,0)" xlink:href="#cs"/><use transform="matrix(0.05,0,0,0.05,5.95,0)" xlink:href="#ch"/><use transform="matrix(0.05,0,0,0.05,15.949999999999998,0)" xlink:href="#cc"/><use transform="matrix(0.05,0,0,0.05,25.950000000000003,0)" xlink:href="#ct"/><use transform="matrix(0.05,0,0,0.05,40.9,0)" xlink:href="#bV"/><use transform="matrix(0.05,0,0,0.05,50.9,0)" xlink:href="#cf"/></g><g id="Z"><use transform="matrix(0.05,0,0,0.05,0,0)" xlink:href="#cl"/><use transform="matrix(0.05,0,0,0.05,9,0)" xlink:href="#bW"/><use transform="matrix(0.05,0,0,0.05,14,0)" xlink:href="#cv"/><use transform="matrix(0.05,0,0,0.05,19.95,0)" xlink:href="#bY"/><use transform="matrix(0.05,0,0,0.05,23.9,0)" xlink:href="#ch"/><use transform="matrix(0.05,0,0,0.05,33.9,0)" xlink:href="#bU"/></g><g id="aa"><use transform="matrix(0.05,0,0,0.05,0,0)" xlink:href="#bT"/><use transform="matrix(0.05,0,0,0.05,10.5,0)" xlink:href="#bX"/><use transform="matrix(0.05,0,0,0.05,21.450000000000003,0)" xlink:href="#bY"/><use transform="matrix(0.05,0,0,0.05,25.400000000000002,0)" xlink:href="#bV"/><use transform="matrix(0.05,0,0,0.05,35.400000000000006,0)" xlink:href="#bZ"/><use transform="matrix(0.05,0,0,0.05,39.35000000000001,0)" xlink:href="#ca"/><use transform="matrix(0.05,0,0,0.05,49.35000000000001,0)" xlink:href="#cd"/><use transform="matrix(0.05,0,0,0.05,55.30000000000001,0)" xlink:href="#ch"/><use transform="matrix(0.05,0,0,0.05,65.30000000000001,0)" xlink:href="#cc"/><use transform="matrix(0.05,0,0,0.05,75.30000000000001,0)" xlink:href="#ct"/><use transform="matrix(0.05,0,0,0.05,90.25000000000001,0)" xlink:href="#bV"/><use transform="matrix(0.05,0,0,0.05,100.25000000000001,0)" xlink:href="#cf"/></g><g id="ab"><use transform="matrix(0.05,0,0,0.05,0,0)" xlink:href="#cu"/><use transform="matrix(0.05,0,0,0.05,12,0)" xlink:href="#bW"/><use transform="matrix(0.05,0,0,0.05,17,0)" xlink:href="#cv"/><use transform="matrix(0.05,0,0,0.05,22.95,0)" xlink:href="#bY"/><use transform="matrix(0.05,0,0,0.05,26.899999999999995,0)" xlink:href="#ch"/><use transform="matrix(0.05,0,0,0.05,36.9,0)" xlink:href="#bU"/><use transform="matrix(0.05,0,0,0.05,46.9,0)" xlink:href="#cg"/></g><g id="ac"><use transform="matrix(0.05,0,0,0.05,0,0)" xlink:href="#bT"/><use transform="matrix(0.05,0,0,0.05,10.5,0)" xlink:href="#bU"/><use transform="matrix(0.05,0,0,0.05,20.5,0)" xlink:href="#bV"/><use transform="matrix(0.05,0,0,0.05,30.5,0)" xlink:href="#bW"/><use transform="matrix(0.05,0,0,0.05,35.5,0)" xlink:href="#cm"/><use transform="matrix(0.05,0,0,0.05,46.15,0)" xlink:href="#cc"/><use transform="matrix(0.05,0,0,0.05,56.150000000000006,0)" xlink:href="#bZ"/><use transform="matrix(0.05,0,0,0.05,60.1,0)" xlink:href="#cy"/><use transform="matrix(0.05,0,0,0.05,70.1,0)" xlink:href="#bV"/><use transform="matrix(0.05,0,0,0.05,80.1,0)" xlink:href="#cl"/><use transform="matrix(0.05,0,0,0.05,89.1,0)" xlink:href="#cd"/><use transform="matrix(0.05,0,0,0.05,95.05,0)" xlink:href="#cg"/><use transform="matrix(0.05,0,0,0.05,101,0)" xlink:href="#cf"/></g><g id="ad"><use transform="matrix(0.05,0,0,0.05,0,0)" xlink:href="#bT"/><use transform="matrix(0.05,0,0,0.05,10.5,0)" xlink:href="#bU"/><use transform="matrix(0.05,0,0,0.05,20.5,0)" xlink:href="#bV"/><use transform="matrix(0.05,0,0,0.05,30.5,0)" xlink:href="#bW"/><use transform="matrix(0.05,0,0,0.05,35.5,0)" xlink:href="#cz"/><use transform="matrix(0.05,0,0,0.05,48.45,0)" xlink:href="#cc"/><use transform="matrix(0.05,0,0,0.05,58.45,0)" xlink:href="#ct"/><use transform="matrix(0.05,0,0,0.05,73.4,0)" xlink:href="#bV"/><use transform="matrix(0.05,0,0,0.05,83.4,0)" xlink:href="#cd"/><use transform="matrix(0.05,0,0,0.05,89.35000000000001,0)" xlink:href="#cg"/><use transform="matrix(0.05,0,0,0.05,95.30000000000001,0)" xlink:href="#cf"/></g><g id="ae"><use transform="matrix(0.05,0,0,0.05,0,0)" xlink:href="#cu"/><use transform="matrix(0.05,0,0,0.05,12,0)" xlink:href="#bW"/><use transform="matrix(0.05,0,0,0.05,17,0)" xlink:href="#cv"/><use transform="matrix(0.05,0,0,0.05,22.95,0)" xlink:href="#bY"/><use transform="matrix(0.05,0,0,0.05,26.899999999999995,0)" xlink:href="#ch"/><use transform="matrix(0.05,0,0,0.05,36.9,0)" xlink:href="#bU"/></g><g id="af"><use transform="matrix(0.05,0,0,0.05,0,0)" xlink:href="#bT"/><use transform="matrix(0.05,0,0,0.05,10.5,0)" xlink:href="#cl"/><use transform="matrix(0.05,0,0,0.05,19.5,0)" xlink:href="#bV"/><use transform="matrix(0.05,0,0,0.05,29.5,0)" xlink:href="#bW"/><use transform="matrix(0.05,0,0,0.05,34.5,0)" xlink:href="#cm"/><use transform="matrix(0.05,0,0,0.05,45.15,0)" xlink:href="#cc"/><use transform="matrix(0.05,0,0,0.05,55.150000000000006,0)" xlink:href="#bZ"/><use transform="matrix(0.05,0,0,0.05,59.1,0)" xlink:href="#cy"/><use transform="matrix(0.05,0,0,0.05,69.1,0)" xlink:href="#bV"/><use transform="matrix(0.05,0,0,0.05,79.1,0)" xlink:href="#cl"/><use transform="matrix(0.05,0,0,0.05,88.1,0)" xlink:href="#cd"/><use transform="matrix(0.05,0,0,0.05,94.05,0)" xlink:href="#cw"/><use transform="matrix(0.05,0,0,0.05,103.05000000000001,0)" xlink:href="#cc"/><use transform="matrix(0.05,0,0,0.05,113.05000000000001,0)" xlink:href="#bZ"/><use transform="matrix(0.05,0,0,0.05,117,0)" xlink:href="#cy"/><use transform="matrix(0.05,0,0,0.05,127,0)" xlink:href="#bV"/><use transform="matrix(0.05,0,0,0.05,137,0)" xlink:href="#cl"/><use transform="matrix(0.05,0,0,0.05,146,0)" xlink:href="#cf"/></g><g id="ag"><use transform="matrix(0.05,0,0,0.05,0,0)" xlink:href="#bY"/><use transform="matrix(0.05,0,0,0.05,3.95,0)" xlink:href="#ch"/><use transform="matrix(0.05,0,0,0.05,13.949999999999998,0)" xlink:href="#bW"/><use transform="matrix(0.05,0,0,0.05,18.95,0)" xlink:href="#ci"/><use transform="matrix(0.05,0,0,0.05,23.95,0)" xlink:href="#cj"/><use transform="matrix(0.05,0,0,0.05,28.950000000000003,0)" xlink:href="#cg"/><use transform="matrix(0.05,0,0,0.05,34.9,0)" xlink:href="#cf"/></g><g id="ah"><use transform="matrix(0.05,0,0,0.05,0,0)" xlink:href="#cw"/><use transform="matrix(0.05,0,0,0.05,9,0)" xlink:href="#co"/><use transform="matrix(0.05,0,0,0.05,19,0)" xlink:href="#bY"/><use transform="matrix(0.05,0,0,0.05,22.95,0)" xlink:href="#ca"/></g><path d="M115-194c55 1 70 41 70 98S169 2 115 4C84 4 66-9 55-30l1 105H24l-1-265h31l2 30c10-21 28-34 59-34zm-8 174c40 0 45-34 45-75s-6-73-45-74c-42 0-51 32-51 76 0 43 10 73 51 73" id="cD"/><path d="M206 0h-36l-40-164L89 0H53L-1-190h32L70-26l43-164h34l41 164 42-164h31" id="cE"/><g id="ai"><use transform="matrix(0.05,0,0,0.05,0,0)" xlink:href="#bT"/><use transform="matrix(0.05,0,0,0.05,10.5,0)" xlink:href="#cc"/><use transform="matrix(0.05,0,0,0.05,20.5,0)" xlink:href="#cD"/><use transform="matrix(0.05,0,0,0.05,30.5,0)" xlink:href="#cD"/><use transform="matrix(0.05,0,0,0.05,40.5,0)" xlink:href="#bV"/><use transform="matrix(0.05,0,0,0.05,50.5,0)" xlink:href="#ch"/><use transform="matrix(0.05,0,0,0.05,60.5,0)" xlink:href="#ca"/><use transform="matrix(0.05,0,0,0.05,70.5,0)" xlink:href="#cm"/><use transform="matrix(0.05,0,0,0.05,81.15,0)" xlink:href="#cc"/><use transform="matrix(0.05,0,0,0.05,91.15,0)" xlink:href="#bZ"/><use transform="matrix(0.05,0,0,0.05,95.10000000000001,0)" xlink:href="#cy"/><use transform="matrix(0.05,0,0,0.05,105.10000000000001,0)" xlink:href="#bV"/><use transform="matrix(0.05,0,0,0.05,115.10000000000001,0)" xlink:href="#cd"/><use transform="matrix(0.05,0,0,0.05,121.05000000000001,0)" xlink:href="#ch"/><use transform="matrix(0.05,0,0,0.05,131.05,0)" xlink:href="#bV"/><use transform="matrix(0.05,0,0,0.05,141.05,0)" xlink:href="#cE"/><use transform="matrix(0.05,0,0,0.05,154,0)" xlink:href="#cm"/><use transform="matrix(0.05,0,0,0.05,164.65,0)" xlink:href="#cc"/><use transform="matrix(0.05,0,0,0.05,174.65,0)" xlink:href="#bZ"/><use transform="matrix(0.05,0,0,0.05,178.6,0)" xlink:href="#cy"/><use transform="matrix(0.05,0,0,0.05,188.6,0)" xlink:href="#bV"/><use transform="matrix(0.05,0,0,0.05,198.6,0)" xlink:href="#cf"/></g><g id="aj"><use transform="matrix(0.05,0,0,0.05,0,0)" xlink:href="#bY"/><use transform="matrix(0.05,0,0,0.05,3.95,0)" xlink:href="#ch"/><use transform="matrix(0.05,0,0,0.05,13.949999999999998,0)" xlink:href="#bW"/><use transform="matrix(0.05,0,0,0.05,18.95,0)" xlink:href="#cg"/><use transform="matrix(0.05,0,0,0.05,24.9,0)" xlink:href="#cf"/></g><g id="ak"><use transform="matrix(0.05,0,0,0.05,0,0)" xlink:href="#bT"/><use transform="matrix(0.05,0,0,0.05,10.5,0)" xlink:href="#cl"/><use transform="matrix(0.05,0,0,0.05,19.5,0)" xlink:href="#bV"/><use transform="matrix(0.05,0,0,0.05,29.5,0)" xlink:href="#bW"/><use transform="matrix(0.05,0,0,0.05,34.5,0)" xlink:href="#cz"/><use transform="matrix(0.05,0,0,0.05,47.45,0)" xlink:href="#cc"/><use transform="matrix(0.05,0,0,0.05,57.45,0)" xlink:href="#ct"/><use transform="matrix(0.05,0,0,0.05,72.4,0)" xlink:href="#bV"/><use transform="matrix(0.05,0,0,0.05,82.4,0)" xlink:href="#cd"/><use transform="matrix(0.05,0,0,0.05,88.35000000000001,0)" xlink:href="#ch"/><use transform="matrix(0.05,0,0,0.05,98.35000000000001,0)" xlink:href="#bV"/><use transform="matrix(0.05,0,0,0.05,108.35000000000001,0)" xlink:href="#cE"/><use transform="matrix(0.05,0,0,0.05,121.30000000000001,0)" xlink:href="#cz"/><use transform="matrix(0.05,0,0,0.05,134.25,0)" xlink:href="#cc"/><use transform="matrix(0.05,0,0,0.05,144.25,0)" xlink:href="#ct"/><use transform="matrix(0.05,0,0,0.05,159.2,0)" xlink:href="#bV"/><use transform="matrix(0.05,0,0,0.05,169.2,0)" xlink:href="#cf"/></g><g id="al"><use transform="matrix(0.05,0,0,0.05,0,0)" xlink:href="#cu"/><use transform="matrix(0.05,0,0,0.05,12,0)" xlink:href="#bW"/><use transform="matrix(0.05,0,0,0.05,17,0)" xlink:href="#cv"/><use transform="matrix(0.05,0,0,0.05,22.95,0)" xlink:href="#bY"/><use transform="matrix(0.05,0,0,0.05,26.899999999999995,0)" xlink:href="#ch"/><use transform="matrix(0.05,0,0,0.05,36.9,0)" xlink:href="#bU"/><use transform="matrix(0.05,0,0,0.05,46.9,0)" xlink:href="#cg"/><use transform="matrix(0.05,0,0,0.05,52.85,0)" xlink:href="#cf"/></g><g id="am"><use transform="matrix(0.05,0,0,0.05,0,0)" xlink:href="#cw"/><use transform="matrix(0.05,0,0,0.05,9,0)" xlink:href="#co"/><use transform="matrix(0.05,0,0,0.05,19,0)" xlink:href="#bY"/><use transform="matrix(0.05,0,0,0.05,22.95,0)" xlink:href="#ca"/></g><use transform="matrix(0.05,0,0,0.05,0,0)" xlink:href="#cp" id="an"/><path d="M80-196l47-18 7 23-49 13 32 44-20 13-27-46-27 45-21-12 33-44-49-13 8-23 47 19-2-53h23" id="cF"/><use transform="matrix(0.05,0,0,0.05,0,0)" xlink:href="#cF" id="ao"/><g id="ap"><use transform="matrix(0.05,0,0,0.05,0,0)" xlink:href="#bF"/><use transform="matrix(0.05,0,0,0.05,10.5,0)" xlink:href="#bF"/><use transform="matrix(0.05,0,0,0.05,21,0)" xlink:href="#bG"/><use transform="matrix(0.05,0,0,0.05,26,0)" xlink:href="#bH"/><use transform="matrix(0.05,0,0,0.05,36.95,0)" xlink:href="#bI"/><use transform="matrix(0.05,0,0,0.05,42.900000000000006,0)" xlink:href="#bJ"/><use transform="matrix(0.05,0,0,0.05,52.900000000000006,0)" xlink:href="#bK"/><use transform="matrix(0.05,0,0,0.05,59.900000000000006,0)" xlink:href="#bL"/><use transform="matrix(0.05,0,0,0.05,65.85000000000001,0)" xlink:href="#bM"/><use transform="matrix(0.05,0,0,0.05,75.85000000000001,0)" xlink:href="#bN"/><use transform="matrix(0.05,0,0,0.05,85.85000000000001,0)" xlink:href="#bJ"/><use transform="matrix(0.05,0,0,0.05,95.85000000000001,0)" xlink:href="#bO"/><use transform="matrix(0.05,0,0,0.05,106.35000000000001,0)" xlink:href="#bO"/></g><path d="M24-248c120-7 223 5 221 122C244-46 201 0 124 0H24v-248zM76-40c74 7 117-18 117-86 0-67-45-88-117-82v168" id="cG"/><path d="M169-182c-1-43-94-46-97-3 18 66 151 10 154 114 3 95-165 93-204 36-6-8-10-19-12-30l50-8c3 46 112 56 116 5-17-69-150-10-154-114-4-87 153-88 188-35 5 8 8 18 10 28" id="cH"/><g id="aq"><use transform="matrix(0.05,0,0,0.05,0,0)" xlink:href="#cG"/><use transform="matrix(0.05,0,0,0.05,12.950000000000001,0)" xlink:href="#bM"/><use transform="matrix(0.05,0,0,0.05,22.950000000000003,0)" xlink:href="#bI"/><use transform="matrix(0.05,0,0,0.05,28.900000000000002,0)" xlink:href="#bM"/><use transform="matrix(0.05,0,0,0.05,38.900000000000006,0)" xlink:href="#cH"/><use transform="matrix(0.05,0,0,0.05,50.900000000000006,0)" xlink:href="#bI"/><use transform="matrix(0.05,0,0,0.05,56.85,0)" xlink:href="#bR"/><use transform="matrix(0.05,0,0,0.05,67.80000000000001,0)" xlink:href="#bK"/><use transform="matrix(0.05,0,0,0.05,74.80000000000001,0)" xlink:href="#bJ"/></g><path d="M30-248c87 1 191-15 191 75 0 78-77 80-158 76V0H30v-248zm33 125c57 0 124 11 124-50 0-59-68-47-124-48v98" id="cI"/><path d="M115-194c53 0 69 39 70 98 0 66-23 100-70 100C84 3 66-7 56-30L54 0H23l1-261h32v101c10-23 28-34 59-34zm-8 174c40 0 45-34 45-75 0-40-5-75-45-74-42 0-51 32-51 76 0 43 10 73 51 73" id="cJ"/><g id="ar"><use transform="matrix(0.05,0,0,0.05,0,0)" xlink:href="#bT"/><use transform="matrix(0.05,0,0,0.05,10.5,0)" xlink:href="#bU"/><use transform="matrix(0.05,0,0,0.05,20.5,0)" xlink:href="#bV"/><use transform="matrix(0.05,0,0,0.05,30.5,0)" xlink:href="#bW"/><use transform="matrix(0.05,0,0,0.05,35.5,0)" xlink:href="#cI"/><use transform="matrix(0.05,0,0,0.05,47.5,0)" xlink:href="#bZ"/><use transform="matrix(0.05,0,0,0.05,51.45,0)" xlink:href="#co"/><use transform="matrix(0.05,0,0,0.05,61.45,0)" xlink:href="#bW"/><use transform="matrix(0.05,0,0,0.05,66.45,0)" xlink:href="#bW"/><use transform="matrix(0.05,0,0,0.05,71.45,0)" xlink:href="#cc"/><use transform="matrix(0.05,0,0,0.05,81.45,0)" xlink:href="#cJ"/><use transform="matrix(0.05,0,0,0.05,91.45,0)" xlink:href="#bZ"/><use transform="matrix(0.05,0,0,0.05,95.4,0)" xlink:href="#bV"/><use transform="matrix(0.05,0,0,0.05,105.4,0)" xlink:href="#cd"/><use transform="matrix(0.05,0,0,0.05,111.35000000000001,0)" xlink:href="#ch"/><use transform="matrix(0.05,0,0,0.05,121.35000000000001,0)" xlink:href="#cc"/><use transform="matrix(0.05,0,0,0.05,131.35000000000002,0)" xlink:href="#ct"/><use transform="matrix(0.05,0,0,0.05,146.3,0)" xlink:href="#bV"/><use transform="matrix(0.05,0,0,0.05,156.3,0)" xlink:href="#cf"/></g><g id="as"><use transform="matrix(0.05,0,0,0.05,0,0)" xlink:href="#cI"/><use transform="matrix(0.05,0,0,0.05,12,0)" xlink:href="#bZ"/><use transform="matrix(0.05,0,0,0.05,15.949999999999998,0)" xlink:href="#co"/><use transform="matrix(0.05,0,0,0.05,25.950000000000003,0)" xlink:href="#bW"/><use transform="matrix(0.05,0,0,0.05,30.950000000000003,0)" xlink:href="#bW"/><use transform="matrix(0.05,0,0,0.05,35.95,0)" xlink:href="#cc"/><use transform="matrix(0.05,0,0,0.05,45.95,0)" xlink:href="#cJ"/><use transform="matrix(0.05,0,0,0.05,55.95,0)" xlink:href="#bZ"/><use transform="matrix(0.05,0,0,0.05,59.900000000000006,0)" xlink:href="#bV"/></g><path fill="#3d4752" d="M1019-219V0H205v-1489h273v1270h541" id="cK"/><path fill="#3d4752" d="M94-547c0-294 207-569 494-569 131 0 260 50 386 150L872-811c-96-74-188-111-277-112-163-2-225 186-225 376 0 251 82 377 246 377 81 0 168-36 260-107l103 137C862-32 733 22 593 22 292 22 94-208 94-547" id="cL"/><g id="at"><use transform="matrix(0.0087890625,0,0,0.0087890625,0,0)" xlink:href="#cK"/><use transform="matrix(0.0087890625,0,0,0.0087890625,9.263671875,0)" xlink:href="#bt"/><use transform="matrix(0.0087890625,0,0,0.0087890625,19.4150390625,0)" xlink:href="#cL"/><use transform="matrix(0.0087890625,0,0,0.0087890625,28.01953125,0)" xlink:href="#aE"/><use transform="matrix(0.0087890625,0,0,0.0087890625,37.9248046875,0)" xlink:href="#bz"/><use transform="matrix(0.0087890625,0,0,0.0087890625,43.6201171875,0)" xlink:href="#bw"/><use transform="matrix(0.0087890625,0,0,0.0087890625,55.7841796875,0)" xlink:href="#aE"/><use transform="matrix(0.0087890625,0,0,0.0087890625,65.689453125,0)" xlink:href="#bs"/><use transform="matrix(0.0087890625,0,0,0.0087890625,72.791015625,0)" xlink:href="#aE"/><use transform="matrix(0.0087890625,0,0,0.0087890625,82.6962890625,0)" xlink:href="#aB"/><use transform="matrix(0.0087890625,0,0,0.0087890625,92.8037109375,0)" xlink:href="#aE"/><use transform="matrix(0.0087890625,0,0,0.0087890625,102.708984375,0)" xlink:href="#cL"/><use transform="matrix(0.0087890625,0,0,0.0087890625,111.3134765625,0)" xlink:href="#bv"/><use transform="matrix(0.0087890625,0,0,0.0087890625,122.0361328125,0)" xlink:href="#aG"/></g><path fill="#3d4752" d="M145-31C134-9 116 4 85 4 32 4 16-35 15-94c0-59 17-99 70-100 32-1 48 14 60 33 0-11-1-24 2-32h30l-1 268h-32zM93-21c41 0 51-33 51-76s-8-73-50-73c-40 0-46 35-46 75s5 74 45 74" id="cM"/><g id="au"><use transform="matrix(0.05,0,0,0.05,0,0)" xlink:href="#aH"/><use transform="matrix(0.05,0,0,0.05,5.95,0)" xlink:href="#bd"/><use transform="matrix(0.05,0,0,0.05,15.949999999999998,0)" xlink:href="#aN"/><use transform="matrix(0.05,0,0,0.05,20.95,0)" xlink:href="#aN"/><use transform="matrix(0.05,0,0,0.05,25.950000000000003,0)" xlink:href="#bk"/><use transform="matrix(0.05,0,0,0.05,35.95,0)" xlink:href="#bE"/><use transform="matrix(0.05,0,0,0.05,48.900000000000006,0)" xlink:href="#aL"/><use transform="matrix(0.05,0,0,0.05,58.900000000000006,0)" xlink:href="#cM"/><use transform="matrix(0.05,0,0,0.05,68.9,0)" xlink:href="#aJ"/><use transform="matrix(0.05,0,0,0.05,78.9,0)" xlink:href="#aL"/><use transform="matrix(0.05,0,0,0.05,88.9,0)" xlink:href="#bc"/><use transform="matrix(0.05,0,0,0.05,97.9,0)" xlink:href="#aN"/><use transform="matrix(0.05,0,0,0.05,102.9,0)" xlink:href="#aT"/><use transform="matrix(0.05,0,0,0.05,112.9,0)" xlink:href="#aK"/><use transform="matrix(0.05,0,0,0.05,118.85000000000001,0)" xlink:href="#aQ"/></g><path fill="#3d4752" d="M197 0v-115H63V0H30v-248h33v105h134v-105h34V0h-34" id="cN"/><path fill="#3d4752" d="M127-220V0H93v-220H8v-28h204v28h-85" id="cO"/><g id="av"><use transform="matrix(0.05,0,0,0.05,0,0)" xlink:href="#cN"/><use transform="matrix(0.05,0,0,0.05,12.950000000000001,0)" xlink:href="#cO"/><use transform="matrix(0.05,0,0,0.05,23.900000000000002,0)" xlink:href="#cO"/><use transform="matrix(0.05,0,0,0.05,34.85,0)" xlink:href="#aR"/><use transform="matrix(0.05,0,0,0.05,46.85,0)" xlink:href="#bE"/><use transform="matrix(0.05,0,0,0.05,59.800000000000004,0)" xlink:href="#aL"/><use transform="matrix(0.05,0,0,0.05,69.80000000000001,0)" xlink:href="#cM"/><use transform="matrix(0.05,0,0,0.05,79.80000000000001,0)" xlink:href="#aJ"/><use transform="matrix(0.05,0,0,0.05,89.80000000000001,0)" xlink:href="#aL"/><use transform="matrix(0.05,0,0,0.05,99.80000000000001,0)" xlink:href="#bc"/><use transform="matrix(0.05,0,0,0.05,108.80000000000001,0)" xlink:href="#aN"/><use transform="matrix(0.05,0,0,0.05,113.80000000000001,0)" xlink:href="#aT"/><use transform="matrix(0.05,0,0,0.05,123.80000000000001,0)" xlink:href="#aK"/></g><g id="aw"><use transform="matrix(0.05,0,0,0.05,0,0)" xlink:href="#aH"/><use transform="matrix(0.05,0,0,0.05,5.95,0)" xlink:href="#aS"/><use transform="matrix(0.05,0,0,0.05,9.9,0)" xlink:href="#aT"/><use transform="matrix(0.05,0,0,0.05,19.9,0)" xlink:href="#aI"/><use transform="matrix(0.05,0,0,0.05,28.899999999999995,0)" xlink:href="#aU"/><use transform="matrix(0.05,0,0,0.05,38.9,0)" xlink:href="#aS"/><use transform="matrix(0.05,0,0,0.05,42.85,0)" xlink:href="#bl"/><use transform="matrix(0.05,0,0,0.05,55.800000000000004,0)" xlink:href="#aU"/><use transform="matrix(0.05,0,0,0.05,65.80000000000001,0)" xlink:href="#aI"/><use transform="matrix(0.05,0,0,0.05,74.80000000000001,0)" xlink:href="#bd"/><use transform="matrix(0.05,0,0,0.05,84.80000000000001,0)" xlink:href="#aL"/><use transform="matrix(0.05,0,0,0.05,94.80000000000001,0)" xlink:href="#aQ"/></g><path fill="#3d4752" d="M240 0l2-218c-23 76-54 145-80 218h-23L58-218 59 0H30v-248h44l77 211c21-75 51-140 76-211h43V0h-30" id="cP"/><path fill="#3d4752" d="M18-100v-36l175-74v27L42-118l151 64v27" id="cQ"/><path fill="#3d4752" d="M68-38c1 34 0 65-14 84H32c9-13 17-26 17-46H33v-38h35" id="cR"/><g id="ax"><use transform="matrix(0.05,0,0,0.05,0,0)" xlink:href="#cP"/><use transform="matrix(0.05,0,0,0.05,14.950000000000001,0)" xlink:href="#aU"/><use transform="matrix(0.05,0,0,0.05,24.950000000000003,0)" xlink:href="#bk"/><use transform="matrix(0.05,0,0,0.05,34.95,0)" xlink:href="#cQ"/><use transform="matrix(0.05,0,0,0.05,45.45,0)" xlink:href="#ba"/><use transform="matrix(0.05,0,0,0.05,57.45,0)" xlink:href="#aN"/><use transform="matrix(0.05,0,0,0.05,62.45,0)" xlink:href="#aK"/><use transform="matrix(0.05,0,0,0.05,68.4,0)" xlink:href="#bg"/><use transform="matrix(0.05,0,0,0.05,72.35000000000001,0)" xlink:href="#aM"/><use transform="matrix(0.05,0,0,0.05,82.35000000000001,0)" xlink:href="#bh"/><use transform="matrix(0.05,0,0,0.05,92.35000000000001,0)" xlink:href="#cR"/></g><path fill="#3d4752" d="M18-27v-27l151-64-151-65v-27l175 74v36" id="cS"/><g id="ay"><use transform="matrix(0.05,0,0,0.05,0,0)" xlink:href="#aR"/><use transform="matrix(0.05,0,0,0.05,12,0)" xlink:href="#aS"/><use transform="matrix(0.05,0,0,0.05,15.949999999999998,0)" xlink:href="#aT"/><use transform="matrix(0.05,0,0,0.05,25.950000000000003,0)" xlink:href="#aN"/><use transform="matrix(0.05,0,0,0.05,30.950000000000003,0)" xlink:href="#aN"/><use transform="matrix(0.05,0,0,0.05,35.95,0)" xlink:href="#aU"/><use transform="matrix(0.05,0,0,0.05,45.95,0)" xlink:href="#aV"/><use transform="matrix(0.05,0,0,0.05,55.95,0)" xlink:href="#aS"/><use transform="matrix(0.05,0,0,0.05,59.900000000000006,0)" xlink:href="#aL"/><use transform="matrix(0.05,0,0,0.05,69.9,0)" xlink:href="#cS"/></g><g id="az"><use transform="matrix(0.05,0,0,0.05,0,0)" xlink:href="#ca"/><use transform="matrix(0.05,0,0,0.05,10,0)" xlink:href="#bV"/><use transform="matrix(0.05,0,0,0.05,20,0)" xlink:href="#bZ"/><use transform="matrix(0.05,0,0,0.05,23.95,0)" xlink:href="#bV"/><use transform="matrix(0.05,0,0,0.05,33.95,0)" xlink:href="#bU"/><use transform="matrix(0.05,0,0,0.05,43.95,0)" xlink:href="#cc"/><use transform="matrix(0.05,0,0,0.05,53.95,0)" xlink:href="#bW"/><use transform="matrix(0.05,0,0,0.05,58.95,0)" xlink:href="#bV"/></g></defs></g></svg>