<svg xmlns="http://www.w3.org/2000/svg" xmlns:xlink="http://www.w3.org/1999/xlink" xmlns:lucid="lucid" width="992" height="608"><g transform="translate(0 544)" lucid:page-tab-id="0_0"><path d="M560-480h360v160H560z" stroke="#2ba9e0" stroke-width="2" fill="#fff"/><path d="M560-446.2h360m-360 60h360" stroke="#2ba9e0" stroke-width="2" fill="none"/><use xlink:href="#a" transform="matrix(1,0,0,1,568,-480) translate(106.6357421875 21.9658203125)"/><use xlink:href="#b" transform="matrix(1,0,0,1,572,-378.3973842343254) translate(0 29.1)"/><use xlink:href="#c" transform="matrix(1,0,0,1,572,-378.3973842343254) translate(175.3 29.1)"/><use xlink:href="#d" transform="matrix(1,0,0,1,572,-378.3973842343254) translate(238.15 29.1)"/><path d="M300-180h360v160H300z" stroke="#000" stroke-width="2" fill="#fff"/><path d="M300-121.2h360" stroke="#000" stroke-width="2" fill="none"/><use xlink:href="#e" transform="matrix(1,0,0,1,308,-180) translate(113.57499999999999 22.799999999999997)"/><use xlink:href="#f" transform="matrix(1,0,0,1,308,-180) translate(129.6 44.4)"/><use xlink:href="#g" transform="matrix(1,0,0,1,312,-112.8) translate(0 46.1)"/><use xlink:href="#h" transform="matrix(1,0,0,1,312,-112.8) translate(175.3 46.1)"/><use xlink:href="#i" transform="matrix(1,0,0,1,312,-112.8) translate(238.15 46.1)"/><path d="M740-319v79H480v35.04" fill="none"/><path d="M740-319v10.4m0 10.38v20.78m0 10.4v20.77m-4.12 6.27H715.1m-10.4 0h-20.77m-10.4 0h-20.77m-10.4 0H621.6m-10.4 0h-20.78m-10.4 0h-20.77m-10.4 0H528.1m-10.4 0h-20.77m-10.38 0H480v14.26m0 10.4v10.38" stroke="#000" stroke-width="2" fill="none"/><path d="M741-319h-2v-1h2z"/><path d="M480-182.96l-12.73-21.52h25.46z" fill="#fff"/><path d="M480-181l-14.48-24.48h28.96zm-10.97-22.48L480-184.93l10.97-18.55z"/><path d="M40-500h360v200H40z" stroke="#2ba9e0" stroke-width="2" fill="#fff"/><path d="M40-466.2h360m-360 102h360" stroke="#2ba9e0" stroke-width="2" fill="none"/><use xlink:href="#j" transform="matrix(1,0,0,1,48,-500) translate(105.9150390625 21.9658203125)"/><use xlink:href="#k" transform="matrix(1,0,0,1,52,-458.158203125) translate(0 35.8)"/><use xlink:href="#l" transform="matrix(1,0,0,1,52,-458.158203125) translate(128.85000000000002 35.8)"/><use xlink:href="#m" transform="matrix(1,0,0,1,52,-458.158203125) translate(0 57.4)"/><use xlink:href="#n" transform="matrix(1,0,0,1,52,-458.158203125) translate(104.80000000000001 57.4)"/><use xlink:href="#o" transform="matrix(1,0,0,1,52,-458.158203125) translate(207.85000000000002 57.4)"/><use xlink:href="#b" transform="matrix(1,0,0,1,52,-356.540789643595) translate(0 28.1)"/><use xlink:href="#c" transform="matrix(1,0,0,1,52,-356.540789643595) translate(175.3 28.1)"/><use xlink:href="#p" transform="matrix(1,0,0,1,52,-356.540789643595) translate(238.15 28.1)"/><path d="M220-299v59h260v35.04" fill="none"/><path d="M220-299v9.83m0 9.84v19.67m0 9.83v9.83h9.84m9.83 0h19.67m9.84 0h19.67m9.83 0h19.67m9.83 0h19.67m9.84 0h19.66m9.83 0h19.66m9.83 0h19.66m9.84 0h19.66m9.84 0h4.3v15.37m0 9.83v9.84" stroke="#000" stroke-width="2" fill="none"/><path d="M221-299h-2v-1h2z"/><path d="M480-182.96l-12.73-21.52h25.46z" fill="#fff"/><path d="M480-181l-14.48-24.48h28.96zm-10.97-22.48L480-184.93l10.97-18.55z"/><path d="M401-400h139.76" stroke="#000" stroke-width="2" fill="none"/><path d="M401-399h-1v-2h1zM555.76-400l-14.26 4.64v-9.28z"/><path d="M559-400l-18.5 6v-12zm-16.5 3.26l10.03-3.26-10.03-3.26z"/><g><use xlink:href="#q" transform="matrix(1,0,0,1,400.0023175542407,-425.6) translate(0 14.4)"/></g><defs><path fill="#3d4752" d="M1236-1489V0H963v-662H478V0H205v-1489h273v608h485v-608h273" id="r"/><path fill="#3d4752" d="M45-1270v-219h1063v219H713V0H440v-1270H45" id="s"/><path fill="#3d4752" d="M205-1489h426c365 0 548 153 548 458S998-573 635-573H478V0H205v-1489zm273 219v478h161c177 0 265-80 265-239s-88-239-265-239H478" id="t"/><path fill="#3d4752" d="M867-682L1342 0h-315L578-645H478V0H205v-1489h419c349 0 523 143 523 428 0 191-93 317-280 379zm-389-589v414h119c185 0 277-67 277-200 0-143-84-214-252-214H478" id="u"/><path fill="#3d4752" d="M94-548c0-302 191-568 483-568 311 0 493 270 482 633H370c7 207 93 311 256 311 93 0 196-46 308-137l103 144C907-40 760 22 595 22 293 22 94-237 94-548zm282-120h403c-18-170-85-255-202-255s-184 85-201 255" id="v"/><path fill="#3d4752" d="M776-276v-550c-61-57-124-86-189-86-145 0-218 134-218 401 0 214 68 321 203 321 73 0 141-29 204-86zM94-505c0-324 124-613 416-611 109 0 201 33 277 98v-76h252V412H776V-87C709-14 620 22 509 22 243 22 94-224 94-505" id="w"/><path fill="#3d4752" d="M437 22c-177 0-283-91-283-265v-851h263v755c0 91 46 137 139 137 75 0 152-32 233-95v-797h263V0H789v-93C670-16 552 22 437 22" id="x"/><path fill="#3d4752" d="M925-326c0 213-197 348-437 348C341 22 194-16 47-93l93-183c121 69 236 103 345 103s164-42 164-127c0-41-24-75-72-100-19-10-61-25-126-44-165-49-270-109-315-179-27-41-40-94-40-158 0-210 193-335 432-335 111 0 229 34 354 103l-83 176c-101-56-191-84-271-84-107 0-161 40-161 121 0 37 23 66 70 89 16 12 285 99 327 123 105 60 161 144 161 262" id="y"/><path fill="#3d4752" d="M503-384c-2 129 8 204 107 204 41 0 91-13 150-38l66 171C737-1 639 22 533 22c-230-2-293-122-293-358v-559H42v-199h198v-395h263v395h265v199H503v511" id="z"/><path fill="#3d4752" d="M578-1116c196 0 337 93 423 279 40 87 60 183 60 290 0 225-77 390-230 494-74 50-158 75-253 75-197 0-338-93-424-279-40-87-60-183-60-290 0-226 77-391 231-495 73-49 158-74 253-74zm0 194c-139 0-208 125-208 375s69 375 208 375c138 0 207-125 207-375s-69-375-207-375" id="A"/><path fill="#3d4752" d="M431-770V0H168v-1094h263v110c156-133 232-175 396-74l-84 220c-129-52-218-25-312 68" id="B"/><g id="a"><use transform="matrix(0.0087890625,0,0,0.0087890625,0,0)" xlink:href="#r"/><use transform="matrix(0.0087890625,0,0,0.0087890625,12.6650390625,0)" xlink:href="#s"/><use transform="matrix(0.0087890625,0,0,0.0087890625,22.798828125,0)" xlink:href="#s"/><use transform="matrix(0.0087890625,0,0,0.0087890625,32.9326171875,0)" xlink:href="#t"/><use transform="matrix(0.0087890625,0,0,0.0087890625,44.068359375,0)" xlink:href="#u"/><use transform="matrix(0.0087890625,0,0,0.0087890625,55.86328125,0)" xlink:href="#v"/><use transform="matrix(0.0087890625,0,0,0.0087890625,65.9970703125,0)" xlink:href="#w"/><use transform="matrix(0.0087890625,0,0,0.0087890625,76.60546875,0)" xlink:href="#x"/><use transform="matrix(0.0087890625,0,0,0.0087890625,87.328125,0)" xlink:href="#v"/><use transform="matrix(0.0087890625,0,0,0.0087890625,97.4619140625,0)" xlink:href="#y"/><use transform="matrix(0.0087890625,0,0,0.0087890625,106.2861328125,0)" xlink:href="#z"/><use transform="matrix(0.0087890625,0,0,0.0087890625,113.3876953125,0)" xlink:href="#A"/><use transform="matrix(0.0087890625,0,0,0.0087890625,123.5390625,0)" xlink:href="#B"/></g><path fill="#3d4752" d="M118-107v75H92v-75H18v-26h74v-75h26v75h74v26h-74" id="C"/><path fill="#3d4752" d="M177-190C167-65 218 103 67 71c-23-6-38-20-44-43l32-5c15 47 100 32 89-28v-30C133-14 115 1 83 1 29 1 15-40 15-95c0-56 16-97 71-98 29-1 48 16 59 35 1-10 0-23 2-32h30zM94-22c36 0 50-32 50-73 0-42-14-75-50-75-39 0-46 34-46 75s6 73 46 73" id="D"/><path fill="#3d4752" d="M100-194c63 0 86 42 84 106H49c0 40 14 67 53 68 26 1 43-12 49-29l28 8c-11 28-37 45-77 45C44 4 14-33 15-96c1-61 26-98 85-98zm52 81c6-60-76-77-97-28-3 7-6 17-6 28h103" id="E"/><path fill="#3d4752" d="M59-47c-2 24 18 29 38 22v24C64 9 27 4 27-40v-127H5v-23h24l9-43h21v43h35v23H59v120" id="F"/><path fill="#3d4752" d="M30-248c87 1 191-15 191 75 0 78-77 80-158 76V0H30v-248zm33 125c57 0 124 11 124-50 0-59-68-47-124-48v98" id="G"/><path fill="#3d4752" d="M24 0v-261h32V0H24" id="H"/><path fill="#3d4752" d="M100-194c62-1 85 37 85 99 1 63-27 99-86 99S16-35 15-95c0-66 28-99 85-99zM99-20c44 1 53-31 53-75 0-43-8-75-51-75s-53 32-53 75 10 74 51 75" id="I"/><path fill="#3d4752" d="M141-36C126-15 110 5 73 4 37 3 15-17 15-53c-1-64 63-63 125-63 3-35-9-54-41-54-24 1-41 7-42 31l-33-3c5-37 33-52 76-52 45 0 72 20 72 64v82c-1 20 7 32 28 27v20c-31 9-61-2-59-35zM48-53c0 20 12 33 32 33 41-3 63-29 60-74-43 2-92-5-92 41" id="J"/><path fill="#3d4752" d="M115-194c53 0 69 39 70 98 0 66-23 100-70 100C84 3 66-7 56-30L54 0H23l1-261h32v101c10-23 28-34 59-34zm-8 174c40 0 45-34 45-75 0-40-5-75-45-74-42 0-51 32-51 76 0 43 10 73 51 73" id="K"/><path fill="#3d4752" d="M87 75C49 33 22-17 22-94c0-76 28-126 65-167h31c-38 41-64 92-64 168S80 34 118 75H87" id="L"/><path fill="#3d4752" d="M135-143c-3-34-86-38-87 0 15 53 115 12 119 90S17 21 10-45l28-5c4 36 97 45 98 0-10-56-113-15-118-90-4-57 82-63 122-42 12 7 21 19 24 35" id="M"/><path fill="#3d4752" d="M114-163C36-179 61-72 57 0H25l-1-190h30c1 12-1 29 2 39 6-27 23-49 58-41v29" id="N"/><path fill="#3d4752" d="M96-169c-40 0-48 33-48 73s9 75 48 75c24 0 41-14 43-38l32 2c-6 37-31 61-74 61-59 0-76-41-82-99-10-93 101-131 147-64 4 7 5 14 7 22l-32 3c-4-21-16-35-41-35" id="O"/><path fill="#3d4752" d="M106-169C34-169 62-67 57 0H25v-261h32l-1 103c12-21 28-36 61-36 89 0 53 116 60 194h-32v-121c2-32-8-49-39-48" id="P"/><path fill="#3d4752" d="M33-154v-36h34v36H33zM33 0v-36h34V0H33" id="Q"/><g id="b"><use transform="matrix(0.05,0,0,0.05,0,0)" xlink:href="#C"/><use transform="matrix(0.05,0,0,0.05,10.5,0)" xlink:href="#D"/><use transform="matrix(0.05,0,0,0.05,20.5,0)" xlink:href="#E"/><use transform="matrix(0.05,0,0,0.05,30.5,0)" xlink:href="#F"/><use transform="matrix(0.05,0,0,0.05,35.5,0)" xlink:href="#G"/><use transform="matrix(0.05,0,0,0.05,47.5,0)" xlink:href="#H"/><use transform="matrix(0.05,0,0,0.05,51.45,0)" xlink:href="#I"/><use transform="matrix(0.05,0,0,0.05,61.45,0)" xlink:href="#F"/><use transform="matrix(0.05,0,0,0.05,66.45,0)" xlink:href="#F"/><use transform="matrix(0.05,0,0,0.05,71.45,0)" xlink:href="#J"/><use transform="matrix(0.05,0,0,0.05,81.45,0)" xlink:href="#K"/><use transform="matrix(0.05,0,0,0.05,91.45,0)" xlink:href="#H"/><use transform="matrix(0.05,0,0,0.05,95.4,0)" xlink:href="#E"/><use transform="matrix(0.05,0,0,0.05,105.4,0)" xlink:href="#L"/><use transform="matrix(0.05,0,0,0.05,111.35000000000001,0)" xlink:href="#M"/><use transform="matrix(0.05,0,0,0.05,120.35000000000001,0)" xlink:href="#E"/><use transform="matrix(0.05,0,0,0.05,130.35000000000002,0)" xlink:href="#J"/><use transform="matrix(0.05,0,0,0.05,140.35000000000002,0)" xlink:href="#N"/><use transform="matrix(0.05,0,0,0.05,146.3,0)" xlink:href="#O"/><use transform="matrix(0.05,0,0,0.05,155.3,0)" xlink:href="#P"/><use transform="matrix(0.05,0,0,0.05,165.3,0)" xlink:href="#Q"/></g><path fill="#3d4752" d="M185-189c-5-48-123-54-124 2 14 75 158 14 163 119 3 78-121 87-175 55-17-10-28-26-33-46l33-7c5 56 141 63 141-1 0-78-155-14-162-118-5-82 145-84 179-34 5 7 8 16 11 25" id="R"/><path fill="#3d4752" d="M24-231v-30h32v30H24zM24 0v-190h32V0H24" id="S"/><path fill="#3d4752" d="M117-194c89-4 53 116 60 194h-32v-121c0-31-8-49-39-48C34-167 62-67 57 0H25l-1-190h30c1 10-1 24 2 32 11-22 29-35 61-36" id="T"/><path fill="#3d4752" d="M33-261c38 41 65 92 65 168S71 34 33 75H2C39 34 66-17 66-93S39-220 2-261h31" id="U"/><g id="c"><use transform="matrix(0.05,0,0,0.05,0,0)" xlink:href="#R"/><use transform="matrix(0.05,0,0,0.05,12,0)" xlink:href="#F"/><use transform="matrix(0.05,0,0,0.05,17,0)" xlink:href="#N"/><use transform="matrix(0.05,0,0,0.05,22.95,0)" xlink:href="#S"/><use transform="matrix(0.05,0,0,0.05,26.899999999999995,0)" xlink:href="#T"/><use transform="matrix(0.05,0,0,0.05,36.9,0)" xlink:href="#D"/><use transform="matrix(0.05,0,0,0.05,46.9,0)" xlink:href="#U"/><use transform="matrix(0.05,0,0,0.05,52.85,0)" xlink:href="#Q"/></g><path fill="#3d4752" d="M26 75v-336h71v23H56V52h41v23H26" id="V"/><path fill="#3d4752" d="M3 75V52h41v-290H3v-23h71V75H3" id="W"/><g id="d"><use transform="matrix(0.05,0,0,0.05,0,0)" xlink:href="#G"/><use transform="matrix(0.05,0,0,0.05,12,0)" xlink:href="#H"/><use transform="matrix(0.05,0,0,0.05,15.949999999999998,0)" xlink:href="#I"/><use transform="matrix(0.05,0,0,0.05,25.950000000000003,0)" xlink:href="#F"/><use transform="matrix(0.05,0,0,0.05,30.950000000000003,0)" xlink:href="#F"/><use transform="matrix(0.05,0,0,0.05,35.95,0)" xlink:href="#J"/><use transform="matrix(0.05,0,0,0.05,45.95,0)" xlink:href="#K"/><use transform="matrix(0.05,0,0,0.05,55.95,0)" xlink:href="#H"/><use transform="matrix(0.05,0,0,0.05,59.900000000000006,0)" xlink:href="#E"/><use transform="matrix(0.05,0,0,0.05,69.9,0)" xlink:href="#V"/><use transform="matrix(0.05,0,0,0.05,74.9,0)" xlink:href="#W"/></g><path d="M15-91v-56l181-69v40L49-119l147 57v40" id="X"/><path d="M25-224v-37h50v37H25zM25 0v-190h50V0H25" id="Y"/><path d="M135-194c87-1 58 113 63 194h-50c-7-57 23-157-34-157-59 0-34 97-39 157H25l-1-190h47c2 12-1 28 3 38 12-26 28-41 61-42" id="Z"/><path d="M115-3C79 11 28 4 28-45v-112H4v-33h27l15-45h31v45h36v33H77v99c-1 23 16 31 38 25v30" id="aa"/><path d="M185-48c-13 30-37 53-82 52C43 2 14-33 14-96s30-98 90-98c62 0 83 45 84 108H66c0 31 8 55 39 56 18 0 30-7 34-22zm-45-69c5-46-57-63-70-21-2 6-4 13-4 21h74" id="ab"/><path d="M135-150c-39-12-60 13-60 57V0H25l-1-190h47c2 13-1 29 3 40 6-28 27-53 61-41v41" id="ac"/><path d="M121-226c-27-7-43 5-38 36h38v33H83V0H34v-157H6v-33h28c-9-59 32-81 87-68v32" id="ad"/><path d="M133-34C117-15 103 5 69 4 32 3 11-16 11-54c-1-60 55-63 116-61 1-26-3-47-28-47-18 1-26 9-28 27l-52-2c7-38 36-58 82-57s74 22 75 68l1 82c-1 14 12 18 25 15v27c-30 8-71 5-69-32zm-48 3c29 0 43-24 42-57-32 0-66-3-65 30 0 17 8 27 23 27" id="ae"/><path d="M190-63c-7 42-38 67-86 67-59 0-84-38-90-98-12-110 154-137 174-36l-49 2c-2-19-15-32-35-32-30 0-35 28-38 64-6 74 65 87 74 30" id="af"/><path d="M15-22v-40l146-57-146-57v-40l181 69v56" id="ag"/><g id="e"><use transform="matrix(0.05,0,0,0.05,0,0)" xlink:href="#X"/><use transform="matrix(0.05,0,0,0.05,10.5,0)" xlink:href="#X"/><use transform="matrix(0.05,0,0,0.05,21,0)" xlink:href="#Y"/><use transform="matrix(0.05,0,0,0.05,26,0)" xlink:href="#Z"/><use transform="matrix(0.05,0,0,0.05,36.95,0)" xlink:href="#aa"/><use transform="matrix(0.05,0,0,0.05,42.900000000000006,0)" xlink:href="#ab"/><use transform="matrix(0.05,0,0,0.05,52.900000000000006,0)" xlink:href="#ac"/><use transform="matrix(0.05,0,0,0.05,59.900000000000006,0)" xlink:href="#ad"/><use transform="matrix(0.05,0,0,0.05,65.85000000000001,0)" xlink:href="#ae"/><use transform="matrix(0.05,0,0,0.05,75.85000000000001,0)" xlink:href="#af"/><use transform="matrix(0.05,0,0,0.05,85.85000000000001,0)" xlink:href="#ab"/><use transform="matrix(0.05,0,0,0.05,95.85000000000001,0)" xlink:href="#ag"/><use transform="matrix(0.05,0,0,0.05,106.35000000000001,0)" xlink:href="#ag"/></g><path d="M24-248c120-7 223 5 221 122C244-46 201 0 124 0H24v-248zM76-40c74 7 117-18 117-86 0-67-45-88-117-82v168" id="ah"/><path d="M169-182c-1-43-94-46-97-3 18 66 151 10 154 114 3 95-165 93-204 36-6-8-10-19-12-30l50-8c3 46 112 56 116 5-17-69-150-10-154-114-4-87 153-88 188-35 5 8 8 18 10 28" id="ai"/><path d="M110-194c64 0 96 36 96 99 0 64-35 99-97 99-61 0-95-36-95-99 0-62 34-99 96-99zm-1 164c35 0 45-28 45-65 0-40-10-65-43-65-34 0-45 26-45 65 0 36 10 65 43 65" id="aj"/><g id="f"><use transform="matrix(0.05,0,0,0.05,0,0)" xlink:href="#ah"/><use transform="matrix(0.05,0,0,0.05,12.950000000000001,0)" xlink:href="#ae"/><use transform="matrix(0.05,0,0,0.05,22.950000000000003,0)" xlink:href="#aa"/><use transform="matrix(0.05,0,0,0.05,28.900000000000002,0)" xlink:href="#ae"/><use transform="matrix(0.05,0,0,0.05,38.900000000000006,0)" xlink:href="#ai"/><use transform="matrix(0.05,0,0,0.05,50.900000000000006,0)" xlink:href="#aa"/><use transform="matrix(0.05,0,0,0.05,56.85,0)" xlink:href="#aj"/><use transform="matrix(0.05,0,0,0.05,67.80000000000001,0)" xlink:href="#ac"/><use transform="matrix(0.05,0,0,0.05,74.80000000000001,0)" xlink:href="#ab"/></g><path d="M118-107v75H92v-75H18v-26h74v-75h26v75h74v26h-74" id="ak"/><path d="M177-190C167-65 218 103 67 71c-23-6-38-20-44-43l32-5c15 47 100 32 89-28v-30C133-14 115 1 83 1 29 1 15-40 15-95c0-56 16-97 71-98 29-1 48 16 59 35 1-10 0-23 2-32h30zM94-22c36 0 50-32 50-73 0-42-14-75-50-75-39 0-46 34-46 75s6 73 46 73" id="al"/><path d="M100-194c63 0 86 42 84 106H49c0 40 14 67 53 68 26 1 43-12 49-29l28 8c-11 28-37 45-77 45C44 4 14-33 15-96c1-61 26-98 85-98zm52 81c6-60-76-77-97-28-3 7-6 17-6 28h103" id="am"/><path d="M59-47c-2 24 18 29 38 22v24C64 9 27 4 27-40v-127H5v-23h24l9-43h21v43h35v23H59v120" id="an"/><path d="M30-248c87 1 191-15 191 75 0 78-77 80-158 76V0H30v-248zm33 125c57 0 124 11 124-50 0-59-68-47-124-48v98" id="ao"/><path d="M24 0v-261h32V0H24" id="ap"/><path d="M100-194c62-1 85 37 85 99 1 63-27 99-86 99S16-35 15-95c0-66 28-99 85-99zM99-20c44 1 53-31 53-75 0-43-8-75-51-75s-53 32-53 75 10 74 51 75" id="aq"/><path d="M141-36C126-15 110 5 73 4 37 3 15-17 15-53c-1-64 63-63 125-63 3-35-9-54-41-54-24 1-41 7-42 31l-33-3c5-37 33-52 76-52 45 0 72 20 72 64v82c-1 20 7 32 28 27v20c-31 9-61-2-59-35zM48-53c0 20 12 33 32 33 41-3 63-29 60-74-43 2-92-5-92 41" id="ar"/><path d="M115-194c53 0 69 39 70 98 0 66-23 100-70 100C84 3 66-7 56-30L54 0H23l1-261h32v101c10-23 28-34 59-34zm-8 174c40 0 45-34 45-75 0-40-5-75-45-74-42 0-51 32-51 76 0 43 10 73 51 73" id="as"/><path d="M87 75C49 33 22-17 22-94c0-76 28-126 65-167h31c-38 41-64 92-64 168S80 34 118 75H87" id="at"/><g id="g"><use transform="matrix(0.05,0,0,0.05,0,0)" xlink:href="#ak"/><use transform="matrix(0.05,0,0,0.05,10.5,0)" xlink:href="#al"/><use transform="matrix(0.05,0,0,0.05,20.5,0)" xlink:href="#am"/><use transform="matrix(0.05,0,0,0.05,30.5,0)" xlink:href="#an"/><use transform="matrix(0.05,0,0,0.05,35.5,0)" xlink:href="#ao"/><use transform="matrix(0.05,0,0,0.05,47.5,0)" xlink:href="#ap"/><use transform="matrix(0.05,0,0,0.05,51.45,0)" xlink:href="#aq"/><use transform="matrix(0.05,0,0,0.05,61.45,0)" xlink:href="#an"/><use transform="matrix(0.05,0,0,0.05,66.45,0)" xlink:href="#an"/><use transform="matrix(0.05,0,0,0.05,71.45,0)" xlink:href="#ar"/><use transform="matrix(0.05,0,0,0.05,81.45,0)" xlink:href="#as"/><use transform="matrix(0.05,0,0,0.05,91.45,0)" xlink:href="#ap"/><use transform="matrix(0.05,0,0,0.05,95.4,0)" xlink:href="#am"/><use transform="matrix(0.05,0,0,0.05,105.4,0)" xlink:href="#at"/><use transform="matrix(0.05,0,0,0.05,111.35000000000001,0)" xlink:href="#M"/><use transform="matrix(0.05,0,0,0.05,120.35000000000001,0)" xlink:href="#E"/><use transform="matrix(0.05,0,0,0.05,130.35000000000002,0)" xlink:href="#J"/><use transform="matrix(0.05,0,0,0.05,140.35000000000002,0)" xlink:href="#N"/><use transform="matrix(0.05,0,0,0.05,146.3,0)" xlink:href="#O"/><use transform="matrix(0.05,0,0,0.05,155.3,0)" xlink:href="#P"/><use transform="matrix(0.05,0,0,0.05,165.3,0)" xlink:href="#Q"/></g><path d="M33-261c38 41 65 92 65 168S71 34 33 75H2C39 34 66-17 66-93S39-220 2-261h31" id="au"/><path d="M33-154v-36h34v36H33zM33 0v-36h34V0H33" id="av"/><g id="h"><use transform="matrix(0.05,0,0,0.05,0,0)" xlink:href="#R"/><use transform="matrix(0.05,0,0,0.05,12,0)" xlink:href="#F"/><use transform="matrix(0.05,0,0,0.05,17,0)" xlink:href="#N"/><use transform="matrix(0.05,0,0,0.05,22.95,0)" xlink:href="#S"/><use transform="matrix(0.05,0,0,0.05,26.899999999999995,0)" xlink:href="#T"/><use transform="matrix(0.05,0,0,0.05,36.9,0)" xlink:href="#D"/><use transform="matrix(0.05,0,0,0.05,46.9,0)" xlink:href="#au"/><use transform="matrix(0.05,0,0,0.05,52.85,0)" xlink:href="#av"/></g><path d="M26 75v-336h71v23H56V52h41v23H26" id="aw"/><path d="M3 75V52h41v-290H3v-23h71V75H3" id="ax"/><g id="i"><use transform="matrix(0.05,0,0,0.05,0,0)" xlink:href="#ao"/><use transform="matrix(0.05,0,0,0.05,12,0)" xlink:href="#ap"/><use transform="matrix(0.05,0,0,0.05,15.949999999999998,0)" xlink:href="#aq"/><use transform="matrix(0.05,0,0,0.05,25.950000000000003,0)" xlink:href="#an"/><use transform="matrix(0.05,0,0,0.05,30.950000000000003,0)" xlink:href="#an"/><use transform="matrix(0.05,0,0,0.05,35.95,0)" xlink:href="#ar"/><use transform="matrix(0.05,0,0,0.05,45.95,0)" xlink:href="#as"/><use transform="matrix(0.05,0,0,0.05,55.95,0)" xlink:href="#ap"/><use transform="matrix(0.05,0,0,0.05,59.900000000000006,0)" xlink:href="#am"/><use transform="matrix(0.05,0,0,0.05,69.9,0)" xlink:href="#aw"/><use transform="matrix(0.05,0,0,0.05,74.9,0)" xlink:href="#ax"/></g><path fill="#3d4752" d="M1019-219V0H205v-1489h273v1270h541" id="ay"/><path fill="#3d4752" d="M94-547c0-294 207-569 494-569 131 0 260 50 386 150L872-811c-96-74-188-111-277-112-163-2-225 186-225 376 0 251 82 377 246 377 81 0 168-36 260-107l103 137C862-32 733 22 593 22 292 22 94-208 94-547" id="az"/><path fill="#3d4752" d="M711-687c-7-170-35-229-188-230-74 0-147 18-220 53l-88-179c111-51 229-76 353-76 303 0 405 148 405 459V0H717v-81C651-13 566 21 461 21 236 21 81-120 81-346c0-158 85-260 254-311 103-31 245-40 376-30zM326-329c0 101 84 155 189 155 91 0 157-36 196-109v-226c-23-4-49-6-78-6-205 0-307 62-307 186" id="aA"/><path fill="#3d4752" d="M446 22C216 22 155-90 155-336v-1244h263v1196c0 75 6 126 18 153 27 62 110 61 177 31l67 172C603 5 525 22 446 22" id="aB"/><path fill="#3d4752" d="M1282-743c0 396-250 743-634 743H205v-1489h417c437-2 660 295 660 746zM637-225c233 9 365-240 365-518 0-216-61-366-177-458-90-72-200-63-346-63v1039h158" id="aC"/><path fill="#3d4752" d="M102-744c-7-402 254-768 642-768 139 0 270 41 393 124l-138 175c-77-55-161-82-252-82-144 0-247 85-308 256-31 85-46 183-46 295 0 228 53 391 167 482 144 115 312 73 466-35l124 172C930 61 588 78 365-105 204-237 107-456 102-744" id="aD"/><path fill="#3d4752" d="M784-1116c178 0 282 88 282 264V0H803v-754c0-92-46-138-138-138-74 0-152 32-234 95V0H168v-1580h263v579c117-77 234-115 353-115" id="aE"/><g id="j"><use transform="matrix(0.0087890625,0,0,0.0087890625,0,0)" xlink:href="#ay"/><use transform="matrix(0.0087890625,0,0,0.0087890625,9.263671875,0)" xlink:href="#A"/><use transform="matrix(0.0087890625,0,0,0.0087890625,19.4150390625,0)" xlink:href="#az"/><use transform="matrix(0.0087890625,0,0,0.0087890625,28.01953125,0)" xlink:href="#aA"/><use transform="matrix(0.0087890625,0,0,0.0087890625,37.9248046875,0)" xlink:href="#aB"/><use transform="matrix(0.0087890625,0,0,0.0087890625,43.6201171875,0)" xlink:href="#aC"/><use transform="matrix(0.0087890625,0,0,0.0087890625,55.7841796875,0)" xlink:href="#aA"/><use transform="matrix(0.0087890625,0,0,0.0087890625,65.689453125,0)" xlink:href="#z"/><use transform="matrix(0.0087890625,0,0,0.0087890625,72.791015625,0)" xlink:href="#aA"/><use transform="matrix(0.0087890625,0,0,0.0087890625,82.6962890625,0)" xlink:href="#aD"/><use transform="matrix(0.0087890625,0,0,0.0087890625,92.8037109375,0)" xlink:href="#aA"/><use transform="matrix(0.0087890625,0,0,0.0087890625,102.708984375,0)" xlink:href="#az"/><use transform="matrix(0.0087890625,0,0,0.0087890625,111.3134765625,0)" xlink:href="#aE"/><use transform="matrix(0.0087890625,0,0,0.0087890625,122.0361328125,0)" xlink:href="#v"/></g><path fill="#3d4752" d="M16-82v-28h88v28H16" id="aF"/><path fill="#3d4752" d="M115-194c55 1 70 41 70 98S169 2 115 4C84 4 66-9 55-30l1 105H24l-1-265h31l2 30c10-21 28-34 59-34zm-8 174c40 0 45-34 45-75s-6-73-45-74c-42 0-51 32-51 76 0 43 10 73 51 73" id="aG"/><path fill="#3d4752" d="M233-177c-1 41-23 64-60 70L243 0h-38l-65-103H63V0H30v-248c88 3 205-21 203 71zM63-129c60-2 137 13 137-47 0-61-80-42-137-45v92" id="aH"/><path fill="#3d4752" d="M145-31C134-9 116 4 85 4 32 4 16-35 15-94c0-59 17-99 70-100 32-1 48 14 60 33 0-11-1-24 2-32h30l-1 268h-32zM93-21c41 0 51-33 51-76s-8-73-50-73c-40 0-46 35-46 75s5 74 45 74" id="aI"/><path fill="#3d4752" d="M84 4C-5 8 30-112 23-190h32v120c0 31 7 50 39 49 72-2 45-101 50-169h31l1 190h-30c-1-10 1-25-2-33-11 22-28 36-60 37" id="aJ"/><g id="k"><use transform="matrix(0.05,0,0,0.05,0,0)" xlink:href="#aF"/><use transform="matrix(0.05,0,0,0.05,5.95,0)" xlink:href="#P"/><use transform="matrix(0.05,0,0,0.05,15.949999999999998,0)" xlink:href="#F"/><use transform="matrix(0.05,0,0,0.05,20.95,0)" xlink:href="#F"/><use transform="matrix(0.05,0,0,0.05,25.950000000000003,0)" xlink:href="#aG"/><use transform="matrix(0.05,0,0,0.05,35.95,0)" xlink:href="#aH"/><use transform="matrix(0.05,0,0,0.05,48.900000000000006,0)" xlink:href="#E"/><use transform="matrix(0.05,0,0,0.05,58.900000000000006,0)" xlink:href="#aI"/><use transform="matrix(0.05,0,0,0.05,68.9,0)" xlink:href="#aJ"/><use transform="matrix(0.05,0,0,0.05,78.9,0)" xlink:href="#E"/><use transform="matrix(0.05,0,0,0.05,88.9,0)" xlink:href="#M"/><use transform="matrix(0.05,0,0,0.05,97.9,0)" xlink:href="#F"/><use transform="matrix(0.05,0,0,0.05,102.9,0)" xlink:href="#I"/><use transform="matrix(0.05,0,0,0.05,112.9,0)" xlink:href="#N"/><use transform="matrix(0.05,0,0,0.05,118.85000000000001,0)" xlink:href="#Q"/></g><path fill="#3d4752" d="M197 0v-115H63V0H30v-248h33v105h134v-105h34V0h-34" id="aK"/><path fill="#3d4752" d="M127-220V0H93v-220H8v-28h204v28h-85" id="aL"/><g id="l"><use transform="matrix(0.05,0,0,0.05,0,0)" xlink:href="#aK"/><use transform="matrix(0.05,0,0,0.05,12.950000000000001,0)" xlink:href="#aL"/><use transform="matrix(0.05,0,0,0.05,23.900000000000002,0)" xlink:href="#aL"/><use transform="matrix(0.05,0,0,0.05,34.85,0)" xlink:href="#G"/><use transform="matrix(0.05,0,0,0.05,46.85,0)" xlink:href="#aH"/><use transform="matrix(0.05,0,0,0.05,59.800000000000004,0)" xlink:href="#E"/><use transform="matrix(0.05,0,0,0.05,69.80000000000001,0)" xlink:href="#aI"/><use transform="matrix(0.05,0,0,0.05,79.80000000000001,0)" xlink:href="#aJ"/><use transform="matrix(0.05,0,0,0.05,89.80000000000001,0)" xlink:href="#E"/><use transform="matrix(0.05,0,0,0.05,99.80000000000001,0)" xlink:href="#M"/><use transform="matrix(0.05,0,0,0.05,108.80000000000001,0)" xlink:href="#F"/><use transform="matrix(0.05,0,0,0.05,113.80000000000001,0)" xlink:href="#I"/><use transform="matrix(0.05,0,0,0.05,123.80000000000001,0)" xlink:href="#N"/></g><path fill="#3d4752" d="M212-179c-10-28-35-45-73-45-59 0-87 40-87 99 0 60 29 101 89 101 43 0 62-24 78-52l27 14C228-24 195 4 139 4 59 4 22-46 18-125c-6-104 99-153 187-111 19 9 31 26 39 46" id="aM"/><g id="m"><use transform="matrix(0.05,0,0,0.05,0,0)" xlink:href="#aF"/><use transform="matrix(0.05,0,0,0.05,5.95,0)" xlink:href="#H"/><use transform="matrix(0.05,0,0,0.05,9.9,0)" xlink:href="#I"/><use transform="matrix(0.05,0,0,0.05,19.9,0)" xlink:href="#O"/><use transform="matrix(0.05,0,0,0.05,28.899999999999995,0)" xlink:href="#J"/><use transform="matrix(0.05,0,0,0.05,38.9,0)" xlink:href="#H"/><use transform="matrix(0.05,0,0,0.05,42.85,0)" xlink:href="#aM"/><use transform="matrix(0.05,0,0,0.05,55.800000000000004,0)" xlink:href="#J"/><use transform="matrix(0.05,0,0,0.05,65.80000000000001,0)" xlink:href="#O"/><use transform="matrix(0.05,0,0,0.05,74.80000000000001,0)" xlink:href="#P"/><use transform="matrix(0.05,0,0,0.05,84.80000000000001,0)" xlink:href="#E"/><use transform="matrix(0.05,0,0,0.05,94.80000000000001,0)" xlink:href="#Q"/></g><path fill="#3d4752" d="M240 0l2-218c-23 76-54 145-80 218h-23L58-218 59 0H30v-248h44l77 211c21-75 51-140 76-211h43V0h-30" id="aN"/><path fill="#3d4752" d="M18-100v-36l175-74v27L42-118l151 64v27" id="aO"/><path fill="#3d4752" d="M140-251c81 0 123 46 123 126C263-53 228-8 163 1c7 30 30 48 69 40v23c-55 16-95-15-103-61C56-3 17-48 17-125c0-80 42-126 123-126zm0 227c63 0 89-41 89-101s-29-99-89-99c-61 0-89 39-89 99S79-25 140-24" id="aP"/><path fill="#3d4752" d="M179-190L93 31C79 59 56 82 12 73V49c39 6 53-20 64-50L1-190h34L92-34l54-156h33" id="aQ"/><path fill="#3d4752" d="M68-38c1 34 0 65-14 84H32c9-13 17-26 17-46H33v-38h35" id="aR"/><g id="n"><use transform="matrix(0.05,0,0,0.05,0,0)" xlink:href="#aN"/><use transform="matrix(0.05,0,0,0.05,14.950000000000001,0)" xlink:href="#J"/><use transform="matrix(0.05,0,0,0.05,24.950000000000003,0)" xlink:href="#aG"/><use transform="matrix(0.05,0,0,0.05,34.95,0)" xlink:href="#aO"/><use transform="matrix(0.05,0,0,0.05,45.45,0)" xlink:href="#aP"/><use transform="matrix(0.05,0,0,0.05,59.45,0)" xlink:href="#aJ"/><use transform="matrix(0.05,0,0,0.05,69.45,0)" xlink:href="#E"/><use transform="matrix(0.05,0,0,0.05,79.45,0)" xlink:href="#N"/><use transform="matrix(0.05,0,0,0.05,85.4,0)" xlink:href="#aQ"/><use transform="matrix(0.05,0,0,0.05,93.05000000000001,0)" xlink:href="#aR"/></g><path fill="#3d4752" d="M18-27v-27l151-64-151-65v-27l175 74v36" id="aS"/><g id="o"><use transform="matrix(0.05,0,0,0.05,0,0)" xlink:href="#G"/><use transform="matrix(0.05,0,0,0.05,12,0)" xlink:href="#H"/><use transform="matrix(0.05,0,0,0.05,15.949999999999998,0)" xlink:href="#I"/><use transform="matrix(0.05,0,0,0.05,25.950000000000003,0)" xlink:href="#F"/><use transform="matrix(0.05,0,0,0.05,30.950000000000003,0)" xlink:href="#F"/><use transform="matrix(0.05,0,0,0.05,35.95,0)" xlink:href="#J"/><use transform="matrix(0.05,0,0,0.05,45.95,0)" xlink:href="#K"/><use transform="matrix(0.05,0,0,0.05,55.95,0)" xlink:href="#H"/><use transform="matrix(0.05,0,0,0.05,59.900000000000006,0)" xlink:href="#E"/><use transform="matrix(0.05,0,0,0.05,69.9,0)" xlink:href="#V"/><use transform="matrix(0.05,0,0,0.05,74.9,0)" xlink:href="#W"/><use transform="matrix(0.05,0,0,0.05,79.9,0)" xlink:href="#aS"/></g><g id="p"><use transform="matrix(0.05,0,0,0.05,0,0)" xlink:href="#G"/><use transform="matrix(0.05,0,0,0.05,12,0)" xlink:href="#H"/><use transform="matrix(0.05,0,0,0.05,15.949999999999998,0)" xlink:href="#I"/><use transform="matrix(0.05,0,0,0.05,25.950000000000003,0)" xlink:href="#F"/><use transform="matrix(0.05,0,0,0.05,30.950000000000003,0)" xlink:href="#F"/><use transform="matrix(0.05,0,0,0.05,35.95,0)" xlink:href="#J"/><use transform="matrix(0.05,0,0,0.05,45.95,0)" xlink:href="#K"/><use transform="matrix(0.05,0,0,0.05,55.95,0)" xlink:href="#H"/><use transform="matrix(0.05,0,0,0.05,59.900000000000006,0)" xlink:href="#E"/></g><path d="M85-194c31 0 48 13 60 33l-1-100h32l1 261h-30c-2-10 0-23-3-31C134-8 116 4 85 4 32 4 16-35 15-94c0-66 23-100 70-100zm9 24c-40 0-46 34-46 75 0 40 6 74 45 74 42 0 51-32 51-76 0-42-9-74-50-73" id="aT"/><g id="q"><use transform="matrix(0.05,0,0,0.05,0,0)" xlink:href="#aT"/><use transform="matrix(0.05,0,0,0.05,10,0)" xlink:href="#am"/><use transform="matrix(0.05,0,0,0.05,20,0)" xlink:href="#ap"/><use transform="matrix(0.05,0,0,0.05,23.95,0)" xlink:href="#am"/><use transform="matrix(0.05,0,0,0.05,33.95,0)" xlink:href="#al"/><use transform="matrix(0.05,0,0,0.05,43.95,0)" xlink:href="#ar"/><use transform="matrix(0.05,0,0,0.05,53.95,0)" xlink:href="#an"/><use transform="matrix(0.05,0,0,0.05,58.95,0)" xlink:href="#am"/></g></defs></g></svg>