<svg xmlns="http://www.w3.org/2000/svg" xmlns:xlink="http://www.w3.org/1999/xlink" xmlns:lucid="lucid" width="992" height="608"><g transform="translate(0 0)" lucid:page-tab-id="0_0"><path d="M292 32h360v180H292z" stroke="#000" stroke-width="2" fill="#fff"/><path d="M292 91h360" stroke="#000" stroke-width="2" fill="none"/><use xlink:href="#a" transform="matrix(1,0,0,1,300,32) translate(113.57499999999999 22.799999999999997)"/><use xlink:href="#b" transform="matrix(1,0,0,1,300,32) translate(134.1 44.4)"/><use xlink:href="#c" transform="matrix(1,0,0,1,304,99.2) translate(0 23.69999999999999)"/><use xlink:href="#d" transform="matrix(1,0,0,1,304,99.2) translate(209.04999999999998 23.69999999999999)"/><use xlink:href="#e" transform="matrix(1,0,0,1,304,99.2) translate(271.9 23.69999999999999)"/><use xlink:href="#f" transform="matrix(1,0,0,1,304,99.2) translate(0 45.29999999999999)"/><use xlink:href="#g" transform="matrix(1,0,0,1,304,99.2) translate(124.20000000000002 45.29999999999999)"/><use xlink:href="#h" transform="matrix(1,0,0,1,304,99.2) translate(0 66.89999999999999)"/><use xlink:href="#i" transform="matrix(1,0,0,1,304,99.2) translate(101.35000000000001 66.89999999999999)"/><use xlink:href="#j" transform="matrix(1,0,0,1,304,99.2) translate(0 88.5)"/><use xlink:href="#k" transform="matrix(1,0,0,1,304,99.2) translate(95.95 88.5)"/><path d="M32 372h360v200H32z" stroke="#0c7cba" stroke-width="2" fill="#fff"/><path d="M32 410h360M32 503h360" stroke="#0c7cba" stroke-width="2" fill="none"/><use xlink:href="#l" transform="matrix(1,0,0,1,40,372) translate(136.075 22.6)"/><use xlink:href="#m" transform="matrix(1,0,0,1,44,417.6) translate(0 21)"/><use xlink:href="#n" transform="matrix(1,0,0,1,44,417.6) translate(60.9 21)"/><use xlink:href="#o" transform="matrix(1,0,0,1,44,417.6) translate(0 42.6)"/><use xlink:href="#p" transform="matrix(1,0,0,1,44,417.6) translate(76.8 42.6)"/><use xlink:href="#q" transform="matrix(1,0,0,1,44,417.6) translate(0 64.2)"/><use xlink:href="#r" transform="matrix(1,0,0,1,44,417.6) translate(52.85 64.2)"/><use xlink:href="#s" transform="matrix(1,0,0,1,44,511.32800000000003) translate(0 19.299999999999997)"/><use xlink:href="#t" transform="matrix(1,0,0,1,44,511.32800000000003) translate(137.3 19.299999999999997)"/><use xlink:href="#u" transform="matrix(1,0,0,1,44,511.32800000000003) translate(194.20000000000002 19.299999999999997)"/><use xlink:href="#v" transform="matrix(1,0,0,1,44,511.32800000000003) translate(246.10000000000002 19.299999999999997)"/><use xlink:href="#w" transform="matrix(1,0,0,1,44,511.32800000000003) translate(0 40.9)"/><use xlink:href="#x" transform="matrix(1,0,0,1,44,511.32800000000003) translate(171.2 40.9)"/><path d="M572 372h390v200H572z" stroke="#0c7cba" stroke-width="2" fill="#fff"/><path d="M572 410h390m-390 93h390" stroke="#0c7cba" stroke-width="2" fill="none"/><g><use xlink:href="#y" transform="matrix(1,0,0,1,579.9999999999999,372) translate(156.075 22.6)"/></g><g><use xlink:href="#z" transform="matrix(1,0,0,1,583.9999999999999,417.6) translate(0 21)"/><use xlink:href="#n" transform="matrix(1,0,0,1,583.9999999999999,417.6) translate(112.85000000000001 21)"/><use xlink:href="#o" transform="matrix(1,0,0,1,583.9999999999999,417.6) translate(0 42.6)"/><use xlink:href="#p" transform="matrix(1,0,0,1,583.9999999999999,417.6) translate(76.8 42.6)"/><use xlink:href="#q" transform="matrix(1,0,0,1,583.9999999999999,417.6) translate(0 64.2)"/><use xlink:href="#r" transform="matrix(1,0,0,1,583.9999999999999,417.6) translate(52.85 64.2)"/></g><g><use xlink:href="#A" transform="matrix(1,0,0,1,583.9999999999999,511.32800000000003) translate(0 19.299999999999997)"/><use xlink:href="#t" transform="matrix(1,0,0,1,583.9999999999999,511.32800000000003) translate(181.25 19.299999999999997)"/><use xlink:href="#u" transform="matrix(1,0,0,1,583.9999999999999,511.32800000000003) translate(238.15 19.299999999999997)"/><use xlink:href="#v" transform="matrix(1,0,0,1,583.9999999999999,511.32800000000003) translate(290.05 19.299999999999997)"/><use xlink:href="#B" transform="matrix(1,0,0,1,583.9999999999999,511.32800000000003) translate(0 40.9)"/><use xlink:href="#x" transform="matrix(1,0,0,1,583.9999999999999,511.32800000000003) translate(158.25 40.9)"/></g><path d="M767 371v-79H557.64v-55.04" fill="none"/><path d="M767 371v-10.4m0-10.4v-20.82m0-10.4v-20.82m-4.25-6.16h-20.8m-10.42 0h-20.8m-10.4 0H679.5m-10.4 0h-20.8m-10.42 0h-20.8m-10.42 0h-20.8m-10.4 0h-17.82v-3m0-10.4v-20.82m0-10.4v-10.42" stroke="#000" stroke-width="2" fill="none"/><path d="M768 372h-2v-1h2z"/><path d="M570.37 236.48H544.9l12.74-21.52z" fill="#fff"/><path d="M572.12 237.48h-28.96L557.64 213zm-25.45-2h21.94l-10.96-18.55z"/><path d="M212 371v-79h172.07v-55.04" fill="none"/><path d="M212 371v-10.2m0-10.2v-20.4m0-10.22v-20.4m2.63-7.58h20.4m10.2 0h20.42m10.2 0h20.4m10.2 0h20.42m10.2 0h20.4m10.2 0h16.4v-4.02m0-10.2v-20.4m0-10.2v-10.22" stroke="#000" stroke-width="2" fill="none"/><path d="M213 372h-2v-1h2z"/><path d="M396.8 236.48h-25.46l12.73-21.52z" fill="#fff"/><path d="M398.55 237.48H369.6L384.06 213zm-25.45-2h21.94l-10.97-18.55z"/><defs><path d="M15-91v-56l181-69v40L49-119l147 57v40" id="C"/><path d="M25-224v-37h50v37H25zM25 0v-190h50V0H25" id="D"/><path d="M135-194c87-1 58 113 63 194h-50c-7-57 23-157-34-157-59 0-34 97-39 157H25l-1-190h47c2 12-1 28 3 38 12-26 28-41 61-42" id="E"/><path d="M115-3C79 11 28 4 28-45v-112H4v-33h27l15-45h31v45h36v33H77v99c-1 23 16 31 38 25v30" id="F"/><path d="M185-48c-13 30-37 53-82 52C43 2 14-33 14-96s30-98 90-98c62 0 83 45 84 108H66c0 31 8 55 39 56 18 0 30-7 34-22zm-45-69c5-46-57-63-70-21-2 6-4 13-4 21h74" id="G"/><path d="M135-150c-39-12-60 13-60 57V0H25l-1-190h47c2 13-1 29 3 40 6-28 27-53 61-41v41" id="H"/><path d="M121-226c-27-7-43 5-38 36h38v33H83V0H34v-157H6v-33h28c-9-59 32-81 87-68v32" id="I"/><path d="M133-34C117-15 103 5 69 4 32 3 11-16 11-54c-1-60 55-63 116-61 1-26-3-47-28-47-18 1-26 9-28 27l-52-2c7-38 36-58 82-57s74 22 75 68l1 82c-1 14 12 18 25 15v27c-30 8-71 5-69-32zm-48 3c29 0 43-24 42-57-32 0-66-3-65 30 0 17 8 27 23 27" id="J"/><path d="M190-63c-7 42-38 67-86 67-59 0-84-38-90-98-12-110 154-137 174-36l-49 2c-2-19-15-32-35-32-30 0-35 28-38 64-6 74 65 87 74 30" id="K"/><path d="M15-22v-40l146-57-146-57v-40l181 69v56" id="L"/><g id="a"><use transform="matrix(0.05,0,0,0.05,0,0)" xlink:href="#C"/><use transform="matrix(0.05,0,0,0.05,10.5,0)" xlink:href="#C"/><use transform="matrix(0.05,0,0,0.05,21,0)" xlink:href="#D"/><use transform="matrix(0.05,0,0,0.05,26,0)" xlink:href="#E"/><use transform="matrix(0.05,0,0,0.05,36.95,0)" xlink:href="#F"/><use transform="matrix(0.05,0,0,0.05,42.900000000000006,0)" xlink:href="#G"/><use transform="matrix(0.05,0,0,0.05,52.900000000000006,0)" xlink:href="#H"/><use transform="matrix(0.05,0,0,0.05,59.900000000000006,0)" xlink:href="#I"/><use transform="matrix(0.05,0,0,0.05,65.85000000000001,0)" xlink:href="#J"/><use transform="matrix(0.05,0,0,0.05,75.85000000000001,0)" xlink:href="#K"/><use transform="matrix(0.05,0,0,0.05,85.85000000000001,0)" xlink:href="#G"/><use transform="matrix(0.05,0,0,0.05,95.85000000000001,0)" xlink:href="#L"/><use transform="matrix(0.05,0,0,0.05,106.35000000000001,0)" xlink:href="#L"/></g><path d="M24-248c93 1 206-16 204 79-1 75-69 88-152 82V0H24v-248zm52 121c47 0 100 7 100-41 0-47-54-39-100-39v80" id="M"/><path d="M25 0v-261h50V0H25" id="N"/><path d="M110-194c64 0 96 36 96 99 0 64-35 99-97 99-61 0-95-36-95-99 0-62 34-99 96-99zm-1 164c35 0 45-28 45-65 0-40-10-65-43-65-34 0-45 26-45 65 0 36 10 65 43 65" id="O"/><path d="M135-194c52 0 70 43 70 98 0 56-19 99-73 100-30 1-46-15-58-35L72 0H24l1-261h50v104c11-23 29-37 60-37zM114-30c31 0 40-27 40-66 0-37-7-63-39-63s-41 28-41 65c0 36 8 64 40 64" id="P"/><g id="b"><use transform="matrix(0.05,0,0,0.05,0,0)" xlink:href="#M"/><use transform="matrix(0.05,0,0,0.05,12,0)" xlink:href="#N"/><use transform="matrix(0.05,0,0,0.05,17,0)" xlink:href="#O"/><use transform="matrix(0.05,0,0,0.05,27.950000000000003,0)" xlink:href="#F"/><use transform="matrix(0.05,0,0,0.05,33.900000000000006,0)" xlink:href="#F"/><use transform="matrix(0.05,0,0,0.05,39.85000000000001,0)" xlink:href="#J"/><use transform="matrix(0.05,0,0,0.05,49.85000000000001,0)" xlink:href="#P"/><use transform="matrix(0.05,0,0,0.05,60.80000000000001,0)" xlink:href="#N"/><use transform="matrix(0.05,0,0,0.05,65.80000000000001,0)" xlink:href="#G"/></g><path d="M118-107v75H92v-75H18v-26h74v-75h26v75h74v26h-74" id="Q"/><path d="M177-190C167-65 218 103 67 71c-23-6-38-20-44-43l32-5c15 47 100 32 89-28v-30C133-14 115 1 83 1 29 1 15-40 15-95c0-56 16-97 71-98 29-1 48 16 59 35 1-10 0-23 2-32h30zM94-22c36 0 50-32 50-73 0-42-14-75-50-75-39 0-46 34-46 75s6 73 46 73" id="R"/><path d="M100-194c63 0 86 42 84 106H49c0 40 14 67 53 68 26 1 43-12 49-29l28 8c-11 28-37 45-77 45C44 4 14-33 15-96c1-61 26-98 85-98zm52 81c6-60-76-77-97-28-3 7-6 17-6 28h103" id="S"/><path d="M59-47c-2 24 18 29 38 22v24C64 9 27 4 27-40v-127H5v-23h24l9-43h21v43h35v23H59v120" id="T"/><path d="M63-220v92h138v28H63V0H30v-248h175v28H63" id="U"/><path d="M24-231v-30h32v30H24zM24 0v-190h32V0H24" id="V"/><path d="M24 0v-261h32V0H24" id="W"/><path d="M85-194c31 0 48 13 60 33l-1-100h32l1 261h-30c-2-10 0-23-3-31C134-8 116 4 85 4 32 4 16-35 15-94c0-66 23-100 70-100zm9 24c-40 0-46 34-46 75 0 40 6 74 45 74 42 0 51-32 51-76 0-42-9-74-50-73" id="X"/><path d="M30-248c118-7 216 8 213 122C240-48 200 0 122 0H30v-248zM63-27c89 8 146-16 146-99s-60-101-146-95v194" id="Y"/><path d="M141-36C126-15 110 5 73 4 37 3 15-17 15-53c-1-64 63-63 125-63 3-35-9-54-41-54-24 1-41 7-42 31l-33-3c5-37 33-52 76-52 45 0 72 20 72 64v82c-1 20 7 32 28 27v20c-31 9-61-2-59-35zM48-53c0 20 12 33 32 33 41-3 63-29 60-74-43 2-92-5-92 41" id="Z"/><path d="M87 75C49 33 22-17 22-94c0-76 28-126 65-167h31c-38 41-64 92-64 168S80 34 118 75H87" id="aa"/><path d="M101-234c-31-9-42 10-38 44h38v23H63V0H32v-167H5v-23h27c-7-52 17-82 69-68v24" id="ab"/><path d="M190 0L58-211 59 0H30v-248h39L202-35l-2-213h31V0h-41" id="ac"/><path d="M210-169c-67 3-38 105-44 169h-31v-121c0-29-5-50-35-48C34-165 62-65 56 0H25l-1-190h30c1 10-1 24 2 32 10-44 99-50 107 0 11-21 27-35 58-36 85-2 47 119 55 194h-31v-121c0-29-5-49-35-48" id="ad"/><path d="M33-154v-36h34v36H33zM33 0v-36h34V0H33" id="ae"/><g id="c"><use transform="matrix(0.05,0,0,0.05,0,0)" xlink:href="#Q"/><use transform="matrix(0.05,0,0,0.05,10.5,0)" xlink:href="#R"/><use transform="matrix(0.05,0,0,0.05,20.5,0)" xlink:href="#S"/><use transform="matrix(0.05,0,0,0.05,30.5,0)" xlink:href="#T"/><use transform="matrix(0.05,0,0,0.05,35.5,0)" xlink:href="#U"/><use transform="matrix(0.05,0,0,0.05,46.45,0)" xlink:href="#V"/><use transform="matrix(0.05,0,0,0.05,50.400000000000006,0)" xlink:href="#S"/><use transform="matrix(0.05,0,0,0.05,60.400000000000006,0)" xlink:href="#W"/><use transform="matrix(0.05,0,0,0.05,64.35000000000001,0)" xlink:href="#X"/><use transform="matrix(0.05,0,0,0.05,74.35000000000001,0)" xlink:href="#Y"/><use transform="matrix(0.05,0,0,0.05,87.30000000000001,0)" xlink:href="#Z"/><use transform="matrix(0.05,0,0,0.05,97.30000000000001,0)" xlink:href="#T"/><use transform="matrix(0.05,0,0,0.05,102.30000000000001,0)" xlink:href="#Z"/><use transform="matrix(0.05,0,0,0.05,112.30000000000001,0)" xlink:href="#aa"/><use transform="matrix(0.05,0,0,0.05,118.25,0)" xlink:href="#ab"/><use transform="matrix(0.05,0,0,0.05,123.25,0)" xlink:href="#V"/><use transform="matrix(0.05,0,0,0.05,127.2,0)" xlink:href="#S"/><use transform="matrix(0.05,0,0,0.05,137.20000000000002,0)" xlink:href="#W"/><use transform="matrix(0.05,0,0,0.05,141.15,0)" xlink:href="#X"/><use transform="matrix(0.05,0,0,0.05,151.15,0)" xlink:href="#ac"/><use transform="matrix(0.05,0,0,0.05,164.1,0)" xlink:href="#Z"/><use transform="matrix(0.05,0,0,0.05,174.1,0)" xlink:href="#ad"/><use transform="matrix(0.05,0,0,0.05,189.04999999999998,0)" xlink:href="#S"/><use transform="matrix(0.05,0,0,0.05,199.04999999999998,0)" xlink:href="#ae"/></g><path d="M185-189c-5-48-123-54-124 2 14 75 158 14 163 119 3 78-121 87-175 55-17-10-28-26-33-46l33-7c5 56 141 63 141-1 0-78-155-14-162-118-5-82 145-84 179-34 5 7 8 16 11 25" id="af"/><path d="M114-163C36-179 61-72 57 0H25l-1-190h30c1 12-1 29 2 39 6-27 23-49 58-41v29" id="ag"/><path d="M117-194c89-4 53 116 60 194h-32v-121c0-31-8-49-39-48C34-167 62-67 57 0H25l-1-190h30c1 10-1 24 2 32 11-22 29-35 61-36" id="ah"/><path d="M33-261c38 41 65 92 65 168S71 34 33 75H2C39 34 66-17 66-93S39-220 2-261h31" id="ai"/><g id="d"><use transform="matrix(0.05,0,0,0.05,0,0)" xlink:href="#af"/><use transform="matrix(0.05,0,0,0.05,12,0)" xlink:href="#T"/><use transform="matrix(0.05,0,0,0.05,17,0)" xlink:href="#ag"/><use transform="matrix(0.05,0,0,0.05,22.95,0)" xlink:href="#V"/><use transform="matrix(0.05,0,0,0.05,26.899999999999995,0)" xlink:href="#ah"/><use transform="matrix(0.05,0,0,0.05,36.9,0)" xlink:href="#R"/><use transform="matrix(0.05,0,0,0.05,46.9,0)" xlink:href="#ai"/><use transform="matrix(0.05,0,0,0.05,52.85,0)" xlink:href="#ae"/></g><path d="M26 75v-336h71v23H56V52h41v23H26" id="aj"/><path d="M3 75V52h41v-290H3v-23h71V75H3" id="ak"/><g id="e"><use transform="matrix(0.05,0,0,0.05,0,0)" xlink:href="#V"/><use transform="matrix(0.05,0,0,0.05,3.95,0)" xlink:href="#ah"/><use transform="matrix(0.05,0,0,0.05,13.949999999999998,0)" xlink:href="#T"/><use transform="matrix(0.05,0,0,0.05,18.95,0)" xlink:href="#aj"/><use transform="matrix(0.05,0,0,0.05,23.95,0)" xlink:href="#ak"/></g><path d="M30 0v-248h33v221h125V0H30" id="al"/><path d="M135-143c-3-34-86-38-87 0 15 53 115 12 119 90S17 21 10-45l28-5c4 36 97 45 98 0-10-56-113-15-118-90-4-57 82-63 122-42 12 7 21 19 24 35" id="am"/><g id="f"><use transform="matrix(0.05,0,0,0.05,0,0)" xlink:href="#Q"/><use transform="matrix(0.05,0,0,0.05,10.5,0)" xlink:href="#R"/><use transform="matrix(0.05,0,0,0.05,20.5,0)" xlink:href="#S"/><use transform="matrix(0.05,0,0,0.05,30.5,0)" xlink:href="#T"/><use transform="matrix(0.05,0,0,0.05,35.5,0)" xlink:href="#U"/><use transform="matrix(0.05,0,0,0.05,46.45,0)" xlink:href="#V"/><use transform="matrix(0.05,0,0,0.05,50.400000000000006,0)" xlink:href="#S"/><use transform="matrix(0.05,0,0,0.05,60.400000000000006,0)" xlink:href="#W"/><use transform="matrix(0.05,0,0,0.05,64.35000000000001,0)" xlink:href="#X"/><use transform="matrix(0.05,0,0,0.05,74.35000000000001,0)" xlink:href="#al"/><use transform="matrix(0.05,0,0,0.05,84.35000000000001,0)" xlink:href="#V"/><use transform="matrix(0.05,0,0,0.05,88.30000000000001,0)" xlink:href="#am"/><use transform="matrix(0.05,0,0,0.05,97.30000000000001,0)" xlink:href="#T"/><use transform="matrix(0.05,0,0,0.05,102.30000000000001,0)" xlink:href="#aa"/><use transform="matrix(0.05,0,0,0.05,108.25,0)" xlink:href="#ai"/><use transform="matrix(0.05,0,0,0.05,114.2,0)" xlink:href="#ae"/></g><g id="g"><use transform="matrix(0.05,0,0,0.05,0,0)" xlink:href="#U"/><use transform="matrix(0.05,0,0,0.05,10.950000000000001,0)" xlink:href="#V"/><use transform="matrix(0.05,0,0,0.05,14.9,0)" xlink:href="#S"/><use transform="matrix(0.05,0,0,0.05,24.900000000000002,0)" xlink:href="#W"/><use transform="matrix(0.05,0,0,0.05,28.85,0)" xlink:href="#X"/><use transform="matrix(0.05,0,0,0.05,38.85,0)" xlink:href="#aj"/><use transform="matrix(0.05,0,0,0.05,43.85,0)" xlink:href="#ak"/></g><path d="M115-194c53 0 69 39 70 98 0 66-23 100-70 100C84 3 66-7 56-30L54 0H23l1-261h32v101c10-23 28-34 59-34zm-8 174c40 0 45-34 45-75 0-40-5-75-45-74-42 0-51 32-51 76 0 43 10 73 51 73" id="an"/><g id="h"><use transform="matrix(0.05,0,0,0.05,0,0)" xlink:href="#Q"/><use transform="matrix(0.05,0,0,0.05,10.5,0)" xlink:href="#R"/><use transform="matrix(0.05,0,0,0.05,20.5,0)" xlink:href="#S"/><use transform="matrix(0.05,0,0,0.05,30.5,0)" xlink:href="#T"/><use transform="matrix(0.05,0,0,0.05,35.5,0)" xlink:href="#al"/><use transform="matrix(0.05,0,0,0.05,45.5,0)" xlink:href="#Z"/><use transform="matrix(0.05,0,0,0.05,55.5,0)" xlink:href="#an"/><use transform="matrix(0.05,0,0,0.05,65.5,0)" xlink:href="#S"/><use transform="matrix(0.05,0,0,0.05,75.5,0)" xlink:href="#W"/><use transform="matrix(0.05,0,0,0.05,79.45,0)" xlink:href="#aa"/><use transform="matrix(0.05,0,0,0.05,85.4,0)" xlink:href="#ai"/><use transform="matrix(0.05,0,0,0.05,91.35000000000001,0)" xlink:href="#ae"/></g><g id="i"><use transform="matrix(0.05,0,0,0.05,0,0)" xlink:href="#af"/><use transform="matrix(0.05,0,0,0.05,12,0)" xlink:href="#T"/><use transform="matrix(0.05,0,0,0.05,17,0)" xlink:href="#ag"/><use transform="matrix(0.05,0,0,0.05,22.95,0)" xlink:href="#V"/><use transform="matrix(0.05,0,0,0.05,26.899999999999995,0)" xlink:href="#ah"/><use transform="matrix(0.05,0,0,0.05,36.9,0)" xlink:href="#R"/></g><path d="M137 0h-34L2-248h35l83 218 83-218h36" id="ao"/><g id="j"><use transform="matrix(0.05,0,0,0.05,0,0)" xlink:href="#Q"/><use transform="matrix(0.05,0,0,0.05,10.5,0)" xlink:href="#R"/><use transform="matrix(0.05,0,0,0.05,20.5,0)" xlink:href="#S"/><use transform="matrix(0.05,0,0,0.05,30.5,0)" xlink:href="#T"/><use transform="matrix(0.05,0,0,0.05,35.5,0)" xlink:href="#ao"/><use transform="matrix(0.05,0,0,0.05,46.15,0)" xlink:href="#Z"/><use transform="matrix(0.05,0,0,0.05,56.150000000000006,0)" xlink:href="#W"/><use transform="matrix(0.05,0,0,0.05,60.1,0)" xlink:href="#V"/><use transform="matrix(0.05,0,0,0.05,64.05,0)" xlink:href="#X"/><use transform="matrix(0.05,0,0,0.05,74.05,0)" xlink:href="#aa"/><use transform="matrix(0.05,0,0,0.05,80,0)" xlink:href="#ai"/><use transform="matrix(0.05,0,0,0.05,85.95,0)" xlink:href="#ae"/></g><path d="M160-131c35 5 61 23 61 61C221 17 115-2 30 0v-248c76 3 177-17 177 60 0 33-19 50-47 57zm-97-11c50-1 110 9 110-42 0-47-63-36-110-37v79zm0 115c55-2 124 14 124-45 0-56-70-42-124-44v89" id="ap"/><path d="M100-194c62-1 85 37 85 99 1 63-27 99-86 99S16-35 15-95c0-66 28-99 85-99zM99-20c44 1 53-31 53-75 0-43-8-75-51-75s-53 32-53 75 10 74 51 75" id="aq"/><g id="k"><use transform="matrix(0.05,0,0,0.05,0,0)" xlink:href="#ap"/><use transform="matrix(0.05,0,0,0.05,12,0)" xlink:href="#aq"/><use transform="matrix(0.05,0,0,0.05,22,0)" xlink:href="#aq"/><use transform="matrix(0.05,0,0,0.05,32,0)" xlink:href="#W"/><use transform="matrix(0.05,0,0,0.05,35.95,0)" xlink:href="#S"/><use transform="matrix(0.05,0,0,0.05,45.95,0)" xlink:href="#Z"/><use transform="matrix(0.05,0,0,0.05,55.95,0)" xlink:href="#ah"/></g><path d="M24 0v-248h52v208h133V0H24" id="ar"/><path d="M85 4C-2 5 27-109 22-190h50c7 57-23 150 33 157 60-5 35-97 40-157h50l1 190h-47c-2-12 1-28-3-38-12 25-28 42-61 42" id="as"/><g id="l"><use transform="matrix(0.05,0,0,0.05,0,0)" xlink:href="#ar"/><use transform="matrix(0.05,0,0,0.05,10.950000000000001,0)" xlink:href="#G"/><use transform="matrix(0.05,0,0,0.05,20.950000000000003,0)" xlink:href="#K"/><use transform="matrix(0.05,0,0,0.05,30.950000000000003,0)" xlink:href="#F"/><use transform="matrix(0.05,0,0,0.05,36.900000000000006,0)" xlink:href="#as"/><use transform="matrix(0.05,0,0,0.05,47.85000000000001,0)" xlink:href="#H"/><use transform="matrix(0.05,0,0,0.05,54.85,0)" xlink:href="#G"/><use transform="matrix(0.05,0,0,0.05,64.85000000000001,0)" xlink:href="#H"/></g><path d="M16-82v-28h88v28H16" id="at"/><g id="m"><use transform="matrix(0.05,0,0,0.05,0,0)" xlink:href="#at"/><use transform="matrix(0.05,0,0,0.05,5.95,0)" xlink:href="#ah"/><use transform="matrix(0.05,0,0,0.05,15.949999999999998,0)" xlink:href="#Z"/><use transform="matrix(0.05,0,0,0.05,25.950000000000003,0)" xlink:href="#ad"/><use transform="matrix(0.05,0,0,0.05,40.9,0)" xlink:href="#S"/><use transform="matrix(0.05,0,0,0.05,50.9,0)" xlink:href="#ae"/></g><g id="n"><use transform="matrix(0.05,0,0,0.05,0,0)" xlink:href="#af"/><use transform="matrix(0.05,0,0,0.05,12,0)" xlink:href="#T"/><use transform="matrix(0.05,0,0,0.05,17,0)" xlink:href="#ag"/><use transform="matrix(0.05,0,0,0.05,22.95,0)" xlink:href="#V"/><use transform="matrix(0.05,0,0,0.05,26.899999999999995,0)" xlink:href="#ah"/><use transform="matrix(0.05,0,0,0.05,36.9,0)" xlink:href="#R"/></g><g id="o"><use transform="matrix(0.05,0,0,0.05,0,0)" xlink:href="#at"/><use transform="matrix(0.05,0,0,0.05,5.95,0)" xlink:href="#ab"/><use transform="matrix(0.05,0,0,0.05,10.95,0)" xlink:href="#V"/><use transform="matrix(0.05,0,0,0.05,14.899999999999999,0)" xlink:href="#S"/><use transform="matrix(0.05,0,0,0.05,24.9,0)" xlink:href="#W"/><use transform="matrix(0.05,0,0,0.05,28.849999999999994,0)" xlink:href="#X"/><use transform="matrix(0.05,0,0,0.05,38.849999999999994,0)" xlink:href="#al"/><use transform="matrix(0.05,0,0,0.05,48.849999999999994,0)" xlink:href="#V"/><use transform="matrix(0.05,0,0,0.05,52.79999999999999,0)" xlink:href="#am"/><use transform="matrix(0.05,0,0,0.05,61.79999999999999,0)" xlink:href="#T"/><use transform="matrix(0.05,0,0,0.05,66.8,0)" xlink:href="#ae"/></g><g id="p"><use transform="matrix(0.05,0,0,0.05,0,0)" xlink:href="#U"/><use transform="matrix(0.05,0,0,0.05,10.950000000000001,0)" xlink:href="#V"/><use transform="matrix(0.05,0,0,0.05,14.9,0)" xlink:href="#S"/><use transform="matrix(0.05,0,0,0.05,24.900000000000002,0)" xlink:href="#W"/><use transform="matrix(0.05,0,0,0.05,28.85,0)" xlink:href="#X"/><use transform="matrix(0.05,0,0,0.05,38.85,0)" xlink:href="#aj"/><use transform="matrix(0.05,0,0,0.05,43.85,0)" xlink:href="#ak"/></g><path d="M108 0H70L1-190h34L89-25l56-165h34" id="au"/><g id="q"><use transform="matrix(0.05,0,0,0.05,0,0)" xlink:href="#at"/><use transform="matrix(0.05,0,0,0.05,5.95,0)" xlink:href="#au"/><use transform="matrix(0.05,0,0,0.05,14.949999999999998,0)" xlink:href="#Z"/><use transform="matrix(0.05,0,0,0.05,24.95,0)" xlink:href="#W"/><use transform="matrix(0.05,0,0,0.05,28.899999999999995,0)" xlink:href="#V"/><use transform="matrix(0.05,0,0,0.05,32.85,0)" xlink:href="#X"/><use transform="matrix(0.05,0,0,0.05,42.85,0)" xlink:href="#ae"/></g><g id="r"><use transform="matrix(0.05,0,0,0.05,0,0)" xlink:href="#ap"/><use transform="matrix(0.05,0,0,0.05,12,0)" xlink:href="#aq"/><use transform="matrix(0.05,0,0,0.05,22,0)" xlink:href="#aq"/><use transform="matrix(0.05,0,0,0.05,32,0)" xlink:href="#W"/><use transform="matrix(0.05,0,0,0.05,35.95,0)" xlink:href="#S"/><use transform="matrix(0.05,0,0,0.05,45.95,0)" xlink:href="#Z"/><use transform="matrix(0.05,0,0,0.05,55.95,0)" xlink:href="#ah"/></g><path d="M96-169c-40 0-48 33-48 73s9 75 48 75c24 0 41-14 43-38l32 2c-6 37-31 61-74 61-59 0-76-41-82-99-10-93 101-131 147-64 4 7 5 14 7 22l-32 3c-4-21-16-35-41-35" id="av"/><path d="M84 4C-5 8 30-112 23-190h32v120c0 31 7 50 39 49 72-2 45-101 50-169h31l1 190h-30c-1-10 1-25-2-33-11 22-28 36-60 37" id="aw"/><g id="s"><use transform="matrix(0.05,0,0,0.05,0,0)" xlink:href="#Q"/><use transform="matrix(0.05,0,0,0.05,10.5,0)" xlink:href="#al"/><use transform="matrix(0.05,0,0,0.05,20.5,0)" xlink:href="#S"/><use transform="matrix(0.05,0,0,0.05,30.5,0)" xlink:href="#av"/><use transform="matrix(0.05,0,0,0.05,39.5,0)" xlink:href="#T"/><use transform="matrix(0.05,0,0,0.05,44.5,0)" xlink:href="#aw"/><use transform="matrix(0.05,0,0,0.05,54.5,0)" xlink:href="#ag"/><use transform="matrix(0.05,0,0,0.05,60.45,0)" xlink:href="#S"/><use transform="matrix(0.05,0,0,0.05,70.45,0)" xlink:href="#ag"/><use transform="matrix(0.05,0,0,0.05,76.4,0)" xlink:href="#aa"/><use transform="matrix(0.05,0,0,0.05,82.35000000000001,0)" xlink:href="#ah"/><use transform="matrix(0.05,0,0,0.05,92.35000000000001,0)" xlink:href="#Z"/><use transform="matrix(0.05,0,0,0.05,102.35000000000001,0)" xlink:href="#ad"/><use transform="matrix(0.05,0,0,0.05,117.30000000000001,0)" xlink:href="#S"/><use transform="matrix(0.05,0,0,0.05,127.30000000000001,0)" xlink:href="#ae"/></g><path d="M68-38c1 34 0 65-14 84H32c9-13 17-26 17-46H33v-38h35" id="ax"/><g id="t"><use transform="matrix(0.05,0,0,0.05,0,0)" xlink:href="#af"/><use transform="matrix(0.05,0,0,0.05,12,0)" xlink:href="#T"/><use transform="matrix(0.05,0,0,0.05,17,0)" xlink:href="#ag"/><use transform="matrix(0.05,0,0,0.05,22.95,0)" xlink:href="#V"/><use transform="matrix(0.05,0,0,0.05,26.899999999999995,0)" xlink:href="#ah"/><use transform="matrix(0.05,0,0,0.05,36.9,0)" xlink:href="#R"/><use transform="matrix(0.05,0,0,0.05,46.9,0)" xlink:href="#ax"/></g><g id="u"><use transform="matrix(0.05,0,0,0.05,0,0)" xlink:href="#ab"/><use transform="matrix(0.05,0,0,0.05,5,0)" xlink:href="#V"/><use transform="matrix(0.05,0,0,0.05,8.95,0)" xlink:href="#S"/><use transform="matrix(0.05,0,0,0.05,18.95,0)" xlink:href="#W"/><use transform="matrix(0.05,0,0,0.05,22.9,0)" xlink:href="#X"/><use transform="matrix(0.05,0,0,0.05,32.9,0)" xlink:href="#am"/><use transform="matrix(0.05,0,0,0.05,41.9,0)" xlink:href="#ae"/></g><g id="v"><use transform="matrix(0.05,0,0,0.05,0,0)" xlink:href="#U"/><use transform="matrix(0.05,0,0,0.05,10.950000000000001,0)" xlink:href="#V"/><use transform="matrix(0.05,0,0,0.05,14.9,0)" xlink:href="#S"/><use transform="matrix(0.05,0,0,0.05,24.900000000000002,0)" xlink:href="#W"/><use transform="matrix(0.05,0,0,0.05,28.85,0)" xlink:href="#X"/><use transform="matrix(0.05,0,0,0.05,38.85,0)" xlink:href="#aj"/><use transform="matrix(0.05,0,0,0.05,43.85,0)" xlink:href="#ak"/><use transform="matrix(0.05,0,0,0.05,48.85,0)" xlink:href="#ai"/></g><g id="w"><use transform="matrix(0.05,0,0,0.05,0,0)" xlink:href="#Q"/><use transform="matrix(0.05,0,0,0.05,10.5,0)" xlink:href="#R"/><use transform="matrix(0.05,0,0,0.05,20.5,0)" xlink:href="#S"/><use transform="matrix(0.05,0,0,0.05,30.5,0)" xlink:href="#T"/><use transform="matrix(0.05,0,0,0.05,35.5,0)" xlink:href="#al"/><use transform="matrix(0.05,0,0,0.05,45.5,0)" xlink:href="#S"/><use transform="matrix(0.05,0,0,0.05,55.5,0)" xlink:href="#av"/><use transform="matrix(0.05,0,0,0.05,64.5,0)" xlink:href="#T"/><use transform="matrix(0.05,0,0,0.05,69.5,0)" xlink:href="#aw"/><use transform="matrix(0.05,0,0,0.05,79.5,0)" xlink:href="#ag"/><use transform="matrix(0.05,0,0,0.05,85.45,0)" xlink:href="#S"/><use transform="matrix(0.05,0,0,0.05,95.45,0)" xlink:href="#ag"/><use transform="matrix(0.05,0,0,0.05,101.4,0)" xlink:href="#ac"/><use transform="matrix(0.05,0,0,0.05,114.35000000000001,0)" xlink:href="#Z"/><use transform="matrix(0.05,0,0,0.05,124.35000000000001,0)" xlink:href="#ad"/><use transform="matrix(0.05,0,0,0.05,139.3,0)" xlink:href="#S"/><use transform="matrix(0.05,0,0,0.05,149.3,0)" xlink:href="#aa"/><use transform="matrix(0.05,0,0,0.05,155.25,0)" xlink:href="#ai"/><use transform="matrix(0.05,0,0,0.05,161.2,0)" xlink:href="#ae"/></g><g id="x"><use transform="matrix(0.05,0,0,0.05,0,0)" xlink:href="#af"/><use transform="matrix(0.05,0,0,0.05,12,0)" xlink:href="#T"/><use transform="matrix(0.05,0,0,0.05,17,0)" xlink:href="#ag"/><use transform="matrix(0.05,0,0,0.05,22.95,0)" xlink:href="#V"/><use transform="matrix(0.05,0,0,0.05,26.899999999999995,0)" xlink:href="#ah"/><use transform="matrix(0.05,0,0,0.05,36.9,0)" xlink:href="#R"/></g><path d="M67-125c0 53 21 87 73 88 37 1 54-22 65-47l45 17C233-25 199 4 140 4 58 4 20-42 15-125 8-235 124-281 211-232c18 10 29 29 36 50l-46 12c-8-25-30-41-62-41-52 0-71 34-72 86" id="ay"/><path d="M137-138c1-29-70-34-71-4 15 46 118 7 119 86 1 83-164 76-172 9l43-7c4 19 20 25 44 25 33 8 57-30 24-41C81-84 22-81 20-136c-2-80 154-74 161-7" id="az"/><g id="y"><use transform="matrix(0.05,0,0,0.05,0,0)" xlink:href="#ay"/><use transform="matrix(0.05,0,0,0.05,12.950000000000001,0)" xlink:href="#O"/><use transform="matrix(0.05,0,0,0.05,23.900000000000002,0)" xlink:href="#as"/><use transform="matrix(0.05,0,0,0.05,34.85,0)" xlink:href="#H"/><use transform="matrix(0.05,0,0,0.05,41.85,0)" xlink:href="#az"/><use transform="matrix(0.05,0,0,0.05,51.85,0)" xlink:href="#G"/></g><path d="M212-179c-10-28-35-45-73-45-59 0-87 40-87 99 0 60 29 101 89 101 43 0 62-24 78-52l27 14C228-24 195 4 139 4 59 4 22-46 18-125c-6-104 99-153 187-111 19 9 31 26 39 46" id="aA"/><g id="z"><use transform="matrix(0.05,0,0,0.05,0,0)" xlink:href="#at"/><use transform="matrix(0.05,0,0,0.05,5.95,0)" xlink:href="#av"/><use transform="matrix(0.05,0,0,0.05,14.949999999999998,0)" xlink:href="#aq"/><use transform="matrix(0.05,0,0,0.05,24.95,0)" xlink:href="#aw"/><use transform="matrix(0.05,0,0,0.05,34.95,0)" xlink:href="#ag"/><use transform="matrix(0.05,0,0,0.05,40.900000000000006,0)" xlink:href="#am"/><use transform="matrix(0.05,0,0,0.05,49.900000000000006,0)" xlink:href="#S"/><use transform="matrix(0.05,0,0,0.05,59.900000000000006,0)" xlink:href="#aA"/><use transform="matrix(0.05,0,0,0.05,72.85000000000001,0)" xlink:href="#aq"/><use transform="matrix(0.05,0,0,0.05,82.85000000000001,0)" xlink:href="#X"/><use transform="matrix(0.05,0,0,0.05,92.85000000000001,0)" xlink:href="#S"/><use transform="matrix(0.05,0,0,0.05,102.85000000000001,0)" xlink:href="#ae"/></g><g id="A"><use transform="matrix(0.05,0,0,0.05,0,0)" xlink:href="#Q"/><use transform="matrix(0.05,0,0,0.05,10.5,0)" xlink:href="#aA"/><use transform="matrix(0.05,0,0,0.05,23.450000000000003,0)" xlink:href="#aq"/><use transform="matrix(0.05,0,0,0.05,33.45,0)" xlink:href="#aw"/><use transform="matrix(0.05,0,0,0.05,43.45,0)" xlink:href="#ag"/><use transform="matrix(0.05,0,0,0.05,49.400000000000006,0)" xlink:href="#am"/><use transform="matrix(0.05,0,0,0.05,58.400000000000006,0)" xlink:href="#S"/><use transform="matrix(0.05,0,0,0.05,68.4,0)" xlink:href="#aa"/><use transform="matrix(0.05,0,0,0.05,74.35000000000001,0)" xlink:href="#av"/><use transform="matrix(0.05,0,0,0.05,83.35000000000001,0)" xlink:href="#aq"/><use transform="matrix(0.05,0,0,0.05,93.35000000000001,0)" xlink:href="#aw"/><use transform="matrix(0.05,0,0,0.05,103.35000000000001,0)" xlink:href="#ag"/><use transform="matrix(0.05,0,0,0.05,109.30000000000001,0)" xlink:href="#am"/><use transform="matrix(0.05,0,0,0.05,118.30000000000001,0)" xlink:href="#S"/><use transform="matrix(0.05,0,0,0.05,128.3,0)" xlink:href="#aA"/><use transform="matrix(0.05,0,0,0.05,141.25,0)" xlink:href="#aq"/><use transform="matrix(0.05,0,0,0.05,151.25,0)" xlink:href="#X"/><use transform="matrix(0.05,0,0,0.05,161.25,0)" xlink:href="#S"/><use transform="matrix(0.05,0,0,0.05,171.25,0)" xlink:href="#ae"/></g><g id="B"><use transform="matrix(0.05,0,0,0.05,0,0)" xlink:href="#Q"/><use transform="matrix(0.05,0,0,0.05,10.5,0)" xlink:href="#R"/><use transform="matrix(0.05,0,0,0.05,20.5,0)" xlink:href="#S"/><use transform="matrix(0.05,0,0,0.05,30.5,0)" xlink:href="#T"/><use transform="matrix(0.05,0,0,0.05,35.5,0)" xlink:href="#aA"/><use transform="matrix(0.05,0,0,0.05,48.45,0)" xlink:href="#aq"/><use transform="matrix(0.05,0,0,0.05,58.45,0)" xlink:href="#aw"/><use transform="matrix(0.05,0,0,0.05,68.45,0)" xlink:href="#ag"/><use transform="matrix(0.05,0,0,0.05,74.4,0)" xlink:href="#am"/><use transform="matrix(0.05,0,0,0.05,83.4,0)" xlink:href="#S"/><use transform="matrix(0.05,0,0,0.05,93.4,0)" xlink:href="#aA"/><use transform="matrix(0.05,0,0,0.05,106.35000000000001,0)" xlink:href="#aq"/><use transform="matrix(0.05,0,0,0.05,116.35000000000001,0)" xlink:href="#X"/><use transform="matrix(0.05,0,0,0.05,126.35000000000001,0)" xlink:href="#S"/><use transform="matrix(0.05,0,0,0.05,136.35000000000002,0)" xlink:href="#aa"/><use transform="matrix(0.05,0,0,0.05,142.3,0)" xlink:href="#ai"/><use transform="matrix(0.05,0,0,0.05,148.25,0)" xlink:href="#ae"/></g></defs></g></svg>